<svg xmlns="http://www.w3.org/2000/svg" width="224" height="65" viewBox="0 0 224 65">
  <g id="Grupo_10796" data-name="Grupo 10796" transform="translate(-995 -2829)">
    <rect id="Rectángulo_2940" data-name="Rectángulo 2940" width="224" height="65" rx="13" transform="translate(995 2829)" fill="#cbd9e4"/>
    <g id="Grupo_867" data-name="Grupo 867" transform="translate(1011 2847)">
      <path id="Trazado_1157" data-name="Trazado 1157" d="M6,0A2.006,2.006,0,0,0,4,2V30a2.006,2.006,0,0,0,2,2H26a2.006,2.006,0,0,0,2-2V8L20,0Z" fill="#e2e5e7"/>
      <path id="Trazado_1158" data-name="Trazado 1158" d="M22,8h6L20,0V6A2.006,2.006,0,0,0,22,8Z" fill="#b0b7bd"/>
      <path id="Trazado_1159" data-name="Trazado 1159" d="M28,14,22,8h6Z" fill="#cad1d8"/>
      <path id="Trazado_1160" data-name="Trazado 1160" d="M24,26a1,1,0,0,1-1,1H1a1,1,0,0,1-1-1V16a1,1,0,0,1,1-1H23a1,1,0,0,1,1,1Z" fill="#f15642"/>
      <g id="Grupo_855" data-name="Grupo 855">
        <path id="Trazado_1161" data-name="Trazado 1161" d="M4.359,18.947A.55.55,0,0,1,4.9,18.4H6.749a2,2,0,0,1,0,4H5.415v1.056A.5.5,0,0,1,4.969,24,.485.485,0,0,1,4.9,24a.539.539,0,0,1-.543-.535v-4.52Zm1.055.455v1.992H6.749a1,1,0,0,0,0-1.992Z" fill="#fff"/>
        <path id="Trazado_1162" data-name="Trazado 1162" d="M10.291,24a.5.5,0,0,1-.549-.445.507.507,0,0,1,0-.055V18.958a.544.544,0,0,1,.552-.5h1.831c3.654,0,3.574,5.533.072,5.533Zm.5-4.557v3.582h1.327c2.159,0,2.255-3.582,0-3.582Z" fill="#fff"/>
        <path id="Trazado_1163" data-name="Trazado 1163" d="M16.992,19.51v1.271h2.039a.618.618,0,0,1,.576.567.556.556,0,0,1-.576.48H16.992v1.679a.474.474,0,0,1-.453.5h-.026a.508.508,0,0,1-.564-.446.391.391,0,0,1,0-.049V18.965a.506.506,0,0,1,.506-.5.408.408,0,0,1,.061,0H19.32a.5.5,0,0,1,.556.436.458.458,0,0,1,0,.064.552.552,0,0,1-.56.544H16.992Z" fill="#fff"/>
      </g>
      <path id="Trazado_1164" data-name="Trazado 1164" d="M23,27H4v1H23a1,1,0,0,0,1-1V26A1,1,0,0,1,23,27Z" fill="#cad1d8"/>
    </g>
    <text id="Ver_documento_anexo" data-name="Ver documento anexo" transform="translate(1057 2841)" fill="#003e64" font-size="18" font-family="Helvetica-Bold, Helvetica" font-weight="700"><tspan x="2.983" y="14">Ver documento </tspan><tspan x="41.989" y="34">anexo</tspan></text>
  </g>
</svg>
