<svg xmlns="http://www.w3.org/2000/svg" xmlns:xlink="http://www.w3.org/1999/xlink" width="290" height="189.577" viewBox="0 0 290 189.577">
  <defs>
    <linearGradient id="linear-gradient" x1="146.971" y1="1" x2="146.971" gradientUnits="objectBoundingBox">
      <stop offset="0.863" stop-color="#5dcfca"/>
      <stop offset="1" stop-color="#33a8b5"/>
    </linearGradient>
    <linearGradient id="linear-gradient-2" x1="142.705" y1="1" x2="142.705" y2="0" xlink:href="#linear-gradient"/>
    <linearGradient id="linear-gradient-3" y1="0.5" x2="1" y2="0.5" gradientUnits="objectBoundingBox">
      <stop offset="0" stop-color="#76c7f8"/>
      <stop offset="0.498" stop-color="#54afe4"/>
      <stop offset="1" stop-color="#4c9ecd"/>
    </linearGradient>
    <linearGradient id="linear-gradient-4" x1="0" y1="0.5" x2="1" y2="0.5" xlink:href="#linear-gradient-3"/>
  </defs>
  <g id="Grupo_10487" data-name="Grupo 10487" transform="translate(-181 -1700)">
    <g id="Grupo_10486" data-name="Grupo 10486" transform="translate(181 1700)">
      <g id="Grupo_10413" data-name="Grupo 10413" transform="translate(195.316 79.088)">
        <g id="Grupo_10407" data-name="Grupo 10407" transform="translate(6.915 64.536)">
          <path id="Trazado_2018" data-name="Trazado 2018" d="M2440.216,2031.87h-1.343a.839.839,0,0,1-.8-.869v-16.445a.843.843,0,0,1,.8-.872h1.343v-1.735h-85.2a2.515,2.515,0,0,0-2.411,2.606V2031a2.514,2.514,0,0,0,2.411,2.606h85.2Z" transform="translate(-2352.607 -2011.95)" fill="#06497d"/>
          <path id="Trazado_2019" data-name="Trazado 2019" d="M2555.787,2031.87h-1.343a.839.839,0,0,1-.8-.869v-16.445a.843.843,0,0,1,.8-.872h1.343v-1.735h-44.208v21.658h44.208Z" transform="translate(-2468.178 -2011.95)" fill="#2e95d1"/>
          <path id="Trazado_2020" data-name="Trazado 2020" d="M2442.351,2035.62v-16.445a.842.842,0,0,1,.8-.872H2359.3a.843.843,0,0,0-.8.872v16.445a.84.84,0,0,0,.8.869h83.856A.839.839,0,0,1,2442.351,2035.62Z" transform="translate(-2356.887 -2016.569)" fill="#c4d1e1"/>
          <path id="Trazado_2021" data-name="Trazado 2021" d="M2547.223,2035.62v-16.445a.843.843,0,0,1,.8-.872h-44.472a.843.843,0,0,0-.8.872v16.445a.839.839,0,0,0,.8.869h44.472A.839.839,0,0,1,2547.223,2035.62Z" transform="translate(-2461.759 -2016.569)" fill="#e5e8ec"/>
        </g>
        <g id="Grupo_10408" data-name="Grupo 10408" transform="translate(4.454 52.775)">
          <path id="Trazado_2022" data-name="Trazado 2022" d="M2348.458,1972.364c.431,2.263.664-3.842.664-1.347a37.966,37.966,0,0,1-.84,8.012h65.594v-6.664Z" transform="translate(-2347.002 -1969.986)" fill="#d8e8ed"/>
          <path id="Trazado_2023" data-name="Trazado 2023" d="M2348.927,1977.577c.1.521.186,1.051.265,1.585h59.164v-1.585Z" transform="translate(-2347.471 -1975.199)" fill="#2e95d1" opacity="0.2"/>
          <path id="Trazado_2024" data-name="Trazado 2024" d="M2413.087,1968.868h-68.748a.715.715,0,0,0-.747.679v1.7h31.563v6.665h-31.563v1.7a.716.716,0,0,0,.747.681h68.748a.717.717,0,0,0,.75-.681v-10.062A.717.717,0,0,0,2413.087,1968.868Z" transform="translate(-2343.593 -1968.868)" fill="#86c0f0"/>
          <path id="Trazado_2025" data-name="Trazado 2025" d="M2518.76,1968.868h-53.153a.717.717,0,0,1,.75.679v10.062a.717.717,0,0,1-.75.681h53.153a.716.716,0,0,0,.748-.681v-10.062A.716.716,0,0,0,2518.76,1968.868Z" transform="translate(-2432.296 -1968.868)" fill="#74b2e8"/>
          <path id="Trazado_2026" data-name="Trazado 2026" d="M2518.76,1968.868h-53.153a.717.717,0,0,1,.75.679v2.266h53.151v-2.266A.716.716,0,0,0,2518.76,1968.868Z" transform="translate(-2432.296 -1968.868)" fill="#6ca5d8"/>
        </g>
        <g id="Grupo_10412" data-name="Grupo 10412">
          <g id="Grupo_10409" data-name="Grupo 10409" transform="translate(0 33.648)">
            <path id="Trazado_2027" data-name="Trazado 2027" d="M2327.278,1916.348h1.208a.773.773,0,0,0,.725-.81v-14.3a.772.772,0,0,0-.725-.81h-1.208v-1.619h92.51a2.313,2.313,0,0,1,2.173,2.429v14.3a2.31,2.31,0,0,1-2.173,2.426h-92.51Z" transform="translate(-2327.278 -1898.811)" fill="#06597d"/>
            <path id="Trazado_2028" data-name="Trazado 2028" d="M2327.278,1916.348h1.208a.773.773,0,0,0,.725-.81v-14.3a.772.772,0,0,0-.725-.81h-1.208v-1.619H2382.8v19.153h-55.522Z" transform="translate(-2327.278 -1898.811)" fill="#01284c"/>
            <path id="Trazado_2029" data-name="Trazado 2029" d="M2332.427,1919.849v-14.3a.772.772,0,0,0-.725-.81h91.3a.772.772,0,0,1,.723.81v14.3a.773.773,0,0,1-.723.81h-91.3A.773.773,0,0,0,2332.427,1919.849Z" transform="translate(-2330.495 -1903.123)" fill="#fff"/>
            <path id="Trazado_2030" data-name="Trazado 2030" d="M2332.427,1919.849v-14.3a.772.772,0,0,0-.725-.81h55.765a.772.772,0,0,1,.725.81v14.3a.773.773,0,0,1-.725.81H2331.7A.773.773,0,0,0,2332.427,1919.849Z" transform="translate(-2330.495 -1903.123)" fill="#bcd0e2"/>
            <path id="Trazado_2031" data-name="Trazado 2031" d="M2631.446,1959.552l3.54-2.2,3.539,2.2v-8.363h-7.079Z" transform="translate(-2548.405 -1936.89)" fill="url(#linear-gradient)"/>
          </g>
          <g id="Grupo_10410" data-name="Grupo 10410" transform="translate(10.524)">
            <path id="Trazado_2032" data-name="Trazado 2032" d="M2370.246,1784.272a42.243,42.243,0,0,1,.6,7.162,41.673,41.673,0,0,1-.763,8.011h59.526v-15.173Z" transform="translate(-2368.923 -1781.894)" fill="#b0bfde"/>
            <path id="Trazado_2033" data-name="Trazado 2033" d="M2370.673,1784.272q.134.782.239,1.586H2424.6v-1.586Z" transform="translate(-2369.35 -1781.894)" fill="#06597d" opacity="0.2"/>
            <path id="Trazado_2034" data-name="Trazado 2034" d="M2428.891,1775.562h-62.385a.681.681,0,0,0-.681.68v1.7h28.647v15.173h-28.647v1.7a.68.68,0,0,0,.681.679h62.385a.68.68,0,0,0,.681-.679v-18.569A.68.68,0,0,0,2428.891,1775.562Z" transform="translate(-2365.825 -1775.562)" fill="#33a8b5"/>
            <path id="Trazado_2035" data-name="Trazado 2035" d="M2524.793,1775.562h-48.234a.68.68,0,0,1,.679.68v18.569a.679.679,0,0,1-.679.679h48.234a.679.679,0,0,0,.68-.679v-18.569A.68.68,0,0,0,2524.793,1775.562Z" transform="translate(-2446.327 -1775.562)" fill="#3dc7c9"/>
            <path id="Trazado_2036" data-name="Trazado 2036" d="M2524.793,1775.562h-48.234a.68.68,0,0,1,.679.68v2.264h48.235v-2.264A.68.68,0,0,0,2524.793,1775.562Z" transform="translate(-2446.327 -1775.562)" fill="#39bbbd"/>
          </g>
          <g id="Grupo_10411" data-name="Grupo 10411" transform="translate(5.747 19.926)">
            <path id="Trazado_2037" data-name="Trazado 2037" d="M2425.365,1860.674h-1.18a.776.776,0,0,1-.707-.827v-8.818a.779.779,0,0,1,.707-.829h1.18v-1.652h-74.918a2.322,2.322,0,0,0-2.12,2.481v8.818a2.322,2.322,0,0,0,2.12,2.482h74.918Z" transform="translate(-2348.327 -1848.548)" fill="#06597d"/>
            <path id="Trazado_2038" data-name="Trazado 2038" d="M2526.993,1860.674h-1.18a.776.776,0,0,1-.707-.827v-8.818a.779.779,0,0,1,.707-.829h1.18v-1.652h-38.873v13.781h38.873Z" transform="translate(-2449.956 -1848.548)" fill="#1386b7"/>
            <path id="Trazado_2039" data-name="Trazado 2039" d="M2427.242,1864.246v-8.818a.779.779,0,0,1,.707-.828h-73.738a.778.778,0,0,0-.706.828v8.818a.775.775,0,0,0,.706.827h73.738A.776.776,0,0,1,2427.242,1864.246Z" transform="translate(-2352.091 -1852.947)" fill="#b0bfde"/>
            <path id="Trazado_2040" data-name="Trazado 2040" d="M2519.463,1864.246v-8.818a.779.779,0,0,1,.707-.828h-39.107a.777.777,0,0,0-.7.828v8.818a.773.773,0,0,0,.7.827h39.107A.776.776,0,0,1,2519.463,1864.246Z" transform="translate(-2444.312 -1852.947)" fill="#d8e8ed"/>
          </g>
        </g>
      </g>
      <g id="Grupo_10419" data-name="Grupo 10419" transform="translate(45.326 85.296)">
        <g id="Grupo_10414" data-name="Grupo 10414" transform="translate(6.047)">
          <path id="Trazado_2041" data-name="Trazado 2041" d="M1899.054,1800.528H1897.8c-.413,0-.751.5-.751,1.115v11.873c0,.611.338,1.114.751,1.114h1.256v2.225h-79.766c-1.246,0-2.259-1.5-2.259-3.338v-11.873c0-1.844,1.013-3.341,2.259-3.341h79.766Z" transform="translate(-1817.029 -1798.302)" fill="#136fb7"/>
          <path id="Trazado_2042" data-name="Trazado 2042" d="M2007.264,1800.528h-1.256c-.413,0-.751.5-.751,1.115v11.873c0,.611.337,1.114.751,1.114h1.256v2.225h-41.389V1798.3h41.389Z" transform="translate(-1925.239 -1798.302)" fill="#06497d"/>
          <path id="Trazado_2043" data-name="Trazado 2043" d="M1901.061,1807.571v11.873c0,.611.337,1.114.751,1.114H1823.3c-.414,0-.752-.5-.752-1.114v-11.873c0-.615.338-1.115.752-1.115h78.51C1901.4,1806.456,1901.061,1806.956,1901.061,1807.571Z" transform="translate(-1821.042 -1804.23)" fill="#fff"/>
          <path id="Trazado_2044" data-name="Trazado 2044" d="M1999.247,1807.571v11.873c0,.611.337,1.114.751,1.114h-41.637c-.416,0-.753-.5-.753-1.114v-11.873c0-.615.337-1.115.753-1.115H2000C1999.584,1806.456,1999.247,1806.956,1999.247,1807.571Z" transform="translate(-1919.228 -1804.23)" fill="#bcd0e2"/>
        </g>
        <g id="Grupo_10415" data-name="Grupo 10415" transform="translate(1.155 60)">
          <path id="Trazado_2045" data-name="Trazado 2045" d="M1799.11,2034.558h1.136a.727.727,0,0,0,.681-.761v-13.442a.727.727,0,0,0-.681-.761h-1.136v-1.521h86.965a2.175,2.175,0,0,1,2.045,2.283V2033.8a2.173,2.173,0,0,1-2.045,2.281H1799.11Z" transform="translate(-1799.11 -2018.072)" fill="#06497d"/>
          <path id="Trazado_2046" data-name="Trazado 2046" d="M1799.11,2034.558h1.136a.727.727,0,0,0,.681-.761v-13.442a.727.727,0,0,0-.681-.761h-1.136v-1.521h52.2v18.005h-52.2Z" transform="translate(-1799.11 -2018.072)" fill="#021e4c"/>
          <path id="Trazado_2047" data-name="Trazado 2047" d="M1803.954,2037.848v-13.442a.727.727,0,0,0-.681-.762H1889.1a.728.728,0,0,1,.682.762v13.442a.729.729,0,0,1-.682.761h-85.829A.727.727,0,0,0,1803.954,2037.848Z" transform="translate(-1802.136 -2022.123)" fill="#c4d1e1"/>
          <path id="Trazado_2048" data-name="Trazado 2048" d="M1803.954,2037.848v-13.442a.727.727,0,0,0-.681-.762H1855.7a.726.726,0,0,1,.681.762v13.442a.726.726,0,0,1-.681.761h-52.423A.727.727,0,0,0,1803.954,2037.848Z" transform="translate(-1802.136 -2022.123)" fill="#e5e8ec"/>
          <path id="Trazado_2049" data-name="Trazado 2049" d="M2085.048,2077.7l3.328-2.072,3.327,2.072v-10.386h-6.655Z" transform="translate(-2006.984 -2053.87)" fill="#2c7eea"/>
        </g>
        <g id="Grupo_10416" data-name="Grupo 10416" transform="translate(10.85 18.899)">
          <path id="Trazado_2050" data-name="Trazado 2050" d="M1834.621,1868.963h1.11a.694.694,0,0,1,.663.719v7.656a.7.7,0,0,1-.663.72h-1.11v1.434h70.428a2.079,2.079,0,0,0,1.992-2.154v-7.656a2.078,2.078,0,0,0-1.992-2.154h-70.428Z" transform="translate(-1834.621 -1867.527)" fill="#06497d"/>
          <path id="Trazado_2051" data-name="Trazado 2051" d="M1834.621,1868.963h1.11a.694.694,0,0,1,.663.719v7.656a.7.7,0,0,1-.663.72h-1.11v1.434h36.543v-11.965h-36.543Z" transform="translate(-1834.621 -1867.527)" fill="#2e95d1"/>
          <path id="Trazado_2052" data-name="Trazado 2052" d="M1839.35,1873.5v7.656a.7.7,0,0,1-.663.72h69.318a.7.7,0,0,0,.664-.72V1873.5a.7.7,0,0,0-.664-.719h-69.318A.694.694,0,0,1,1839.35,1873.5Z" transform="translate(-1837.577 -1871.35)" fill="#c4d1e1"/>
          <path id="Trazado_2053" data-name="Trazado 2053" d="M1839.35,1873.5v7.656a.7.7,0,0,1-.663.72h36.763a.7.7,0,0,0,.664-.72V1873.5a.694.694,0,0,0-.664-.719h-36.763A.694.694,0,0,1,1839.35,1873.5Z" transform="translate(-1837.577 -1871.35)" fill="#e5e8ec"/>
        </g>
        <g id="Grupo_10417" data-name="Grupo 10417" transform="translate(0 30.929)">
          <path id="Trazado_2054" data-name="Trazado 2054" d="M1938.989,1927.427c-.443-2.331-.683,3.958-.683,1.388a39.121,39.121,0,0,1,.865-8.252h-67.562v6.864Z" transform="translate(-1850.661 -1918.113)" fill="#d8e8ed"/>
          <path id="Trazado_2055" data-name="Trazado 2055" d="M1955.415,1941.36c-.1-.536-.191-1.083-.273-1.632H1894.2v1.632Z" transform="translate(-1867.086 -1932.046)" fill="#2e95d1" opacity="0.2"/>
          <path id="Trazado_2056" data-name="Trazado 2056" d="M1859.667,1923.352h70.811a.737.737,0,0,0,.769-.7v-1.75h-32.51v-6.864h32.51v-1.749a.737.737,0,0,0-.769-.7h-70.811a.738.738,0,0,0-.772.7v10.364A.738.738,0,0,0,1859.667,1923.352Z" transform="translate(-1841.417 -1911.589)" fill="#86c0f0"/>
          <path id="Trazado_2057" data-name="Trazado 2057" d="M1795.648,1923.352H1850.4a.738.738,0,0,1-.772-.7V1912.29a.738.738,0,0,1,.772-.7h-54.748a.738.738,0,0,0-.77.7v10.364A.738.738,0,0,0,1795.648,1923.352Z" transform="translate(-1794.878 -1911.589)" fill="#74b2e8"/>
          <path id="Trazado_2058" data-name="Trazado 2058" d="M1795.648,1946.6H1850.4a.738.738,0,0,1-.772-.7v-2.334h-54.746v2.334A.738.738,0,0,0,1795.648,1946.6Z" transform="translate(-1794.878 -1934.837)" fill="#6ca5d8"/>
        </g>
        <g id="Grupo_10418" data-name="Grupo 10418" transform="translate(0 42.623)">
          <path id="Trazado_2059" data-name="Trazado 2059" d="M1799.891,1958.024c.443,2.331.683-3.957.683-1.387,0,2.894-.306,10.845-.865,13.427h67.562v-12.04Z" transform="translate(-1798.391 -1955.575)" fill="#d8e8ed"/>
          <path id="Trazado_2060" data-name="Trazado 2060" d="M1800.375,1963.392c.1.538.192,1.083.272,1.633h60.94v-1.633Z" transform="translate(-1798.874 -1960.944)" fill="#2e95d1" opacity="0.2"/>
          <path id="Trazado_2061" data-name="Trazado 2061" d="M1866.458,1954.424h-70.81a.738.738,0,0,0-.77.7v1.749h32.512v12.04h-32.512v1.749a.738.738,0,0,0,.77.7h70.81a.739.739,0,0,0,.772-.7v-15.538A.739.739,0,0,0,1866.458,1954.424Z" transform="translate(-1794.878 -1954.424)" fill="#4f97f7"/>
          <path id="Trazado_2062" data-name="Trazado 2062" d="M1975.3,1954.424h-54.747a.738.738,0,0,1,.772.7v15.538a.738.738,0,0,1-.772.7H1975.3a.739.739,0,0,0,.771-.7v-15.538A.738.738,0,0,0,1975.3,1954.424Z" transform="translate(-1886.245 -1954.424)" fill="#2c7eea"/>
          <path id="Trazado_2063" data-name="Trazado 2063" d="M1975.3,1954.424h-54.747a.738.738,0,0,1,.772.7v2.333h54.746v-2.333A.738.738,0,0,0,1975.3,1954.424Z" transform="translate(-1886.245 -1954.424)" fill="#2872d4"/>
        </g>
      </g>
      <g id="Grupo_10434" data-name="Grupo 10434" transform="translate(111.088 18.371)">
        <g id="Grupo_10425" data-name="Grupo 10425" transform="translate(0 76.696)">
          <g id="Grupo_10420" data-name="Grupo 10420" transform="translate(0 41.67)">
            <path id="Trazado_2064" data-name="Trazado 2064" d="M2027.624,2003.046h1.59a1.045,1.045,0,0,0,.951-1.115v-11.872a1.046,1.046,0,0,0-.951-1.114h-1.59v-2.225H2128.63a3.13,3.13,0,0,1,2.86,3.339v11.872a3.13,3.13,0,0,1-2.86,3.341H2027.624Z" transform="translate(-2027.624 -1986.72)" fill="#136fb7"/>
            <path id="Trazado_2065" data-name="Trazado 2065" d="M2027.624,2003.046h1.59a1.045,1.045,0,0,0,.951-1.115v-11.872a1.046,1.046,0,0,0-.951-1.114h-1.59v-2.225h52.409v18.553h-52.409Z" transform="translate(-2027.624 -1986.72)" fill="#06497d"/>
            <path id="Trazado_2066" data-name="Trazado 2066" d="M2034.4,2007.857v-11.872a1.046,1.046,0,0,0-.951-1.114h99.415a1.046,1.046,0,0,1,.952,1.114v11.872a1.044,1.044,0,0,1-.952,1.115h-99.415A1.044,1.044,0,0,0,2034.4,2007.857Z" transform="translate(-2031.859 -1992.646)" fill="#fff"/>
            <path id="Trazado_2067" data-name="Trazado 2067" d="M2034.4,2007.857v-11.872a1.046,1.046,0,0,0-.951-1.114h52.724a1.045,1.045,0,0,1,.953,1.114v11.872a1.044,1.044,0,0,1-.953,1.115h-52.724A1.044,1.044,0,0,0,2034.4,2007.857Z" transform="translate(-2031.859 -1992.646)" fill="#d8e8ed"/>
          </g>
          <g id="Grupo_10421" data-name="Grupo 10421" transform="translate(10.319 23.79)">
            <path id="Trazado_2068" data-name="Trazado 2068" d="M2065.422,1937.717h1.136a.727.727,0,0,0,.682-.761v-13.442a.727.727,0,0,0-.682-.761h-1.136v-1.521h86.965a2.175,2.175,0,0,1,2.046,2.283v13.442a2.173,2.173,0,0,1-2.046,2.281h-86.965Z" transform="translate(-2065.422 -1921.231)" fill="#06497d"/>
            <path id="Trazado_2069" data-name="Trazado 2069" d="M2065.422,1937.717h1.136a.727.727,0,0,0,.682-.761v-13.442a.727.727,0,0,0-.682-.761h-1.136v-1.521h52.2v18.006h-52.2Z" transform="translate(-2065.422 -1921.231)" fill="#021e4c"/>
            <path id="Trazado_2070" data-name="Trazado 2070" d="M2070.266,1941.007v-13.442a.727.727,0,0,0-.682-.761h85.829a.728.728,0,0,1,.682.761v13.442a.728.728,0,0,1-.682.761h-85.829A.727.727,0,0,0,2070.266,1941.007Z" transform="translate(-2068.448 -1925.282)" fill="#fff"/>
            <path id="Trazado_2071" data-name="Trazado 2071" d="M2070.266,1941.007v-13.442a.727.727,0,0,0-.682-.761h52.423a.726.726,0,0,1,.68.761v13.442a.726.726,0,0,1-.68.761h-52.423A.727.727,0,0,0,2070.266,1941.007Z" transform="translate(-2068.448 -1925.282)" fill="#bcd0e2"/>
            <path id="Trazado_2072" data-name="Trazado 2072" d="M2351.36,1980.859l3.328-2.071,3.327,2.071v-10.386h-6.656Z" transform="translate(-2273.296 -1957.029)" fill="#2c7eea"/>
          </g>
          <g id="Grupo_10422" data-name="Grupo 10422" transform="translate(15.722 11.828)">
            <path id="Trazado_2073" data-name="Trazado 2073" d="M2157.633,1887.943h-1.11a.7.7,0,0,1-.663-.719v-7.656a.7.7,0,0,1,.663-.721h1.11v-1.433h-70.428a2.079,2.079,0,0,0-1.992,2.154v7.656a2.078,2.078,0,0,0,1.992,2.155h70.428Z" transform="translate(-2085.213 -1877.413)" fill="#06497d"/>
            <path id="Trazado_2074" data-name="Trazado 2074" d="M2253.168,1887.943h-1.11a.694.694,0,0,1-.663-.719v-7.656a.7.7,0,0,1,.663-.721h1.11v-1.433h-36.543v11.965h36.543Z" transform="translate(-2180.748 -1877.413)" fill="#2e95d1"/>
            <path id="Trazado_2075" data-name="Trazado 2075" d="M2159.4,1891.041v-7.656a.7.7,0,0,1,.663-.721h-69.318a.7.7,0,0,0-.664.721v7.656a.7.7,0,0,0,.664.719h69.318A.694.694,0,0,1,2159.4,1891.041Z" transform="translate(-2088.75 -1881.23)" fill="#c4d1e1"/>
            <path id="Trazado_2076" data-name="Trazado 2076" d="M2246.089,1891.041v-7.656a.7.7,0,0,1,.663-.721H2209.99a.7.7,0,0,0-.664.721v7.656a.694.694,0,0,0,.664.719h36.762A.7.7,0,0,1,2246.089,1891.041Z" transform="translate(-2175.442 -1881.23)" fill="#e5e8ec"/>
          </g>
          <g id="Grupo_10423" data-name="Grupo 10423" transform="translate(9.164)">
            <path id="Trazado_2077" data-name="Trazado 2077" d="M2066.2,1837.691c.443,2.331.683-3.957.683-1.388a39.151,39.151,0,0,1-.865,8.252h67.562v-6.865Z" transform="translate(-2064.703 -1835.242)" fill="#d8e8ed"/>
            <path id="Trazado_2078" data-name="Trazado 2078" d="M2066.686,1843.06c.1.537.191,1.083.273,1.633H2127.9v-1.633Z" transform="translate(-2065.186 -1840.611)" fill="#2e95d1" opacity="0.2"/>
            <path id="Trazado_2079" data-name="Trazado 2079" d="M2132.77,1834.09h-70.811a.737.737,0,0,0-.769.7v1.75h32.51v6.865h-32.51v1.749a.737.737,0,0,0,.769.7h70.811a.739.739,0,0,0,.772-.7v-10.364A.738.738,0,0,0,2132.77,1834.09Z" transform="translate(-2061.19 -1834.09)" fill="#86c0f0"/>
            <path id="Trazado_2080" data-name="Trazado 2080" d="M2241.615,1834.09h-54.748a.738.738,0,0,1,.772.7v10.364a.739.739,0,0,1-.772.7h54.748a.738.738,0,0,0,.77-.7v-10.364A.738.738,0,0,0,2241.615,1834.09Z" transform="translate(-2152.556 -1834.09)" fill="#74b2e8"/>
            <path id="Trazado_2081" data-name="Trazado 2081" d="M2241.615,1834.09h-54.748a.738.738,0,0,1,.772.7v2.334h54.746v-2.334A.738.738,0,0,0,2241.615,1834.09Z" transform="translate(-2152.556 -1834.09)" fill="#6ca5d8"/>
          </g>
          <g id="Grupo_10424" data-name="Grupo 10424" transform="translate(9.164 60.154)">
            <path id="Trazado_2082" data-name="Trazado 2082" d="M2205.3,2058.023c-.443,2.331-.683-3.957-.683-1.387,0,2.894.307,10.845.865,13.427H2137.92v-12.04Z" transform="translate(-2116.972 -2055.574)" fill="#d8e8ed"/>
            <path id="Trazado_2083" data-name="Trazado 2083" d="M2221.727,2063.392c-.1.537-.192,1.083-.272,1.632h-60.939v-1.632Z" transform="translate(-2133.398 -2060.944)" fill="#2e95d1" opacity="0.2"/>
            <path id="Trazado_2084" data-name="Trazado 2084" d="M2125.979,2054.424h70.81a.737.737,0,0,1,.77.7v1.75h-32.512v12.04h32.512v1.749a.738.738,0,0,1-.77.7h-70.81a.739.739,0,0,1-.771-.7v-15.538A.738.738,0,0,1,2125.979,2054.424Z" transform="translate(-2107.73 -2054.424)" fill="#5dcfca"/>
            <path id="Trazado_2085" data-name="Trazado 2085" d="M2061.961,2054.424h54.747a.737.737,0,0,0-.772.7v15.538a.738.738,0,0,0,.772.7h-54.747a.739.739,0,0,1-.771-.7v-15.538A.738.738,0,0,1,2061.961,2054.424Z" transform="translate(-2061.19 -2054.424)" fill="#39bdcb"/>
            <path id="Trazado_2086" data-name="Trazado 2086" d="M2061.961,2054.424h54.747a.737.737,0,0,0-.772.7v2.333H2061.19v-2.333A.738.738,0,0,1,2061.961,2054.424Z" transform="translate(-2061.19 -2054.424)" fill="#33a8b5"/>
          </g>
        </g>
        <g id="Grupo_10433" data-name="Grupo 10433" transform="translate(4.576)">
          <g id="Grupo_10426" data-name="Grupo 10426" transform="translate(0 53.074)">
            <path id="Trazado_2087" data-name="Trazado 2087" d="M2044.387,1780h1.244a.8.8,0,0,0,.746-.835v-14.727a.8.8,0,0,0-.746-.834h-1.244v-1.668h95.286a2.382,2.382,0,0,1,2.239,2.5v14.727a2.379,2.379,0,0,1-2.239,2.5h-95.286Z" transform="translate(-2044.387 -1761.932)" fill="#06597d"/>
            <path id="Trazado_2088" data-name="Trazado 2088" d="M2044.387,1780h1.244a.8.8,0,0,0,.746-.835v-14.727a.8.8,0,0,0-.746-.834h-1.244v-1.668h57.188v19.727h-57.188Z" transform="translate(-2044.387 -1761.932)" fill="#01284c"/>
            <path id="Trazado_2089" data-name="Trazado 2089" d="M2049.69,1783.6v-14.727a.8.8,0,0,0-.746-.834h94.042a.8.8,0,0,1,.744.834V1783.6a.8.8,0,0,1-.744.835h-94.042A.8.8,0,0,0,2049.69,1783.6Z" transform="translate(-2047.7 -1766.372)" fill="#fff"/>
            <path id="Trazado_2090" data-name="Trazado 2090" d="M2049.69,1783.6v-14.727a.8.8,0,0,0-.746-.834h57.439a.8.8,0,0,1,.746.834V1783.6a.8.8,0,0,1-.746.835h-57.439A.8.8,0,0,0,2049.69,1783.6Z" transform="translate(-2047.7 -1766.372)" fill="#bcd0e2"/>
            <path id="Trazado_2091" data-name="Trazado 2091" d="M2357.683,1824.5l3.647-2.267,3.645,2.267v-8.613h-7.292Z" transform="translate(-2272.15 -1801.153)" fill="url(#linear-gradient-2)"/>
          </g>
          <g id="Grupo_10427" data-name="Grupo 10427" transform="translate(10.839 18.416)">
            <path id="Trazado_2092" data-name="Trazado 2092" d="M2088.645,1643.955a43.556,43.556,0,0,1,.62,7.377,42.969,42.969,0,0,1-.785,8.251h61.312v-15.628Z" transform="translate(-2087.281 -1641.506)" fill="#b0bfde"/>
            <path id="Trazado_2093" data-name="Trazado 2093" d="M2089.084,1643.955q.138.8.247,1.634h55.3v-1.634Z" transform="translate(-2087.72 -1641.506)" fill="#06597d" opacity="0.2"/>
            <path id="Trazado_2094" data-name="Trazado 2094" d="M2149.049,1634.984h-64.258a.7.7,0,0,0-.7.7v1.749H2113.6v15.628H2084.09v1.749a.7.7,0,0,0,.7.7h64.258a.7.7,0,0,0,.7-.7v-19.126A.7.7,0,0,0,2149.049,1634.984Z" transform="translate(-2084.09 -1634.984)" fill="#33a8b5"/>
            <path id="Trazado_2095" data-name="Trazado 2095" d="M2247.829,1634.984h-49.682a.7.7,0,0,1,.7.7v19.126a.7.7,0,0,1-.7.7h49.682a.7.7,0,0,0,.7-.7v-19.126A.7.7,0,0,0,2247.829,1634.984Z" transform="translate(-2167.008 -1634.984)" fill="#3dc7c9"/>
            <path id="Trazado_2096" data-name="Trazado 2096" d="M2247.829,1634.984h-49.682a.7.7,0,0,1,.7.7v2.332h49.682v-2.332A.7.7,0,0,0,2247.829,1634.984Z" transform="translate(-2167.008 -1634.984)" fill="#39bbbd"/>
          </g>
          <g id="Grupo_10428" data-name="Grupo 10428" transform="translate(5.919 38.94)">
            <path id="Trazado_2097" data-name="Trazado 2097" d="M2145.417,1722.65H2144.2a.8.8,0,0,1-.728-.852v-9.083a.8.8,0,0,1,.728-.854h1.216v-1.7H2068.25a2.391,2.391,0,0,0-2.184,2.555v9.083a2.392,2.392,0,0,0,2.184,2.557h77.166Z" transform="translate(-2066.067 -1710.161)" fill="#06597d"/>
            <path id="Trazado_2098" data-name="Trazado 2098" d="M2250.1,1722.65h-1.216a.8.8,0,0,1-.728-.852v-9.083a.8.8,0,0,1,.728-.854h1.216v-1.7h-40.039v14.194H2250.1Z" transform="translate(-2170.745 -1710.161)" fill="#1386b7"/>
            <path id="Trazado_2099" data-name="Trazado 2099" d="M2147.351,1726.328v-9.083a.8.8,0,0,1,.728-.853h-75.951a.8.8,0,0,0-.728.853v9.083a.8.8,0,0,0,.728.852h75.951A.8.8,0,0,1,2147.351,1726.328Z" transform="translate(-2069.944 -1714.691)" fill="#b0bfde"/>
            <path id="Trazado_2100" data-name="Trazado 2100" d="M2242.34,1726.328v-9.083a.8.8,0,0,1,.727-.853h-40.281a.8.8,0,0,0-.726.853v9.083a.8.8,0,0,0,.726.852h40.281A.8.8,0,0,1,2242.34,1726.328Z" transform="translate(-2164.933 -1714.691)" fill="#d8e8ed"/>
          </g>
          <g id="Grupo_10432" data-name="Grupo 10432" transform="translate(5.271)">
            <g id="Grupo_10429" data-name="Grupo 10429" transform="translate(57.885 0.028)">
              <path id="Trazado_2101" data-name="Trazado 2101" d="M2275.717,1575.72v-1.446c11.823,0,23.264-2.359,32.213-6.641l.309,1.374C2299.193,1573.336,2287.642,1575.72,2275.717,1575.72Z" transform="translate(-2275.717 -1567.633)" fill="#06597d"/>
            </g>
            <rect id="Rectángulo_2855" data-name="Rectángulo 2855" width="58.58" height="1.601" transform="translate(0 6.672)" fill="#1386b7"/>
            <rect id="Rectángulo_2856" data-name="Rectángulo 2856" width="58.58" height="10.291" transform="translate(0 8.273)" fill="#1386b7"/>
            <path id="Trazado_2102" data-name="Trazado 2102" d="M2185.837,1579.516h-30.2c7.357-1.444,14.064-2.308,23.771-6.688h41.534A92.191,92.191,0,0,1,2185.837,1579.516Z" transform="translate(-2130.537 -1571.382)" fill="#06597d"/>
            <path id="Trazado_2103" data-name="Trazado 2103" d="M2185.837,1590.112h-30.2c7.357-.741,14.064-1.186,23.771-3.433h41.534A171.291,171.291,0,0,1,2185.837,1590.112Z" transform="translate(-2130.537 -1581.451)" fill="#b0bfde"/>
            <rect id="Rectángulo_2857" data-name="Rectángulo 2857" width="37.873" height="1.489" transform="translate(54.441 17.074)" fill="#2eabd1"/>
            <g id="Grupo_10430" data-name="Grupo 10430" transform="translate(49.701)">
              <rect id="Rectángulo_2858" data-name="Rectángulo 2858" width="40.706" height="1.446" fill="#2eabd1"/>
            </g>
            <g id="Grupo_10431" data-name="Grupo 10431" transform="translate(17.517 0.028)">
              <path id="Trazado_2104" data-name="Trazado 2104" d="M2127.857,1575.72v-1.446c11.821,0,23.261-2.359,32.212-6.641l.31,1.374C2151.332,1573.336,2139.781,1575.72,2127.857,1575.72Z" transform="translate(-2127.857 -1567.633)" fill="#1386b7"/>
            </g>
            <rect id="Rectángulo_2859" data-name="Rectángulo 2859" width="36.845" height="8.852" transform="translate(53.576 8.188)" fill="#d9e3e4"/>
            <rect id="Rectángulo_2860" data-name="Rectángulo 2860" width="52.399" height="8.852" transform="translate(1.286 8.188)" fill="#bcd0e2"/>
          </g>
        </g>
      </g>
      <g id="Grupo_10448" data-name="Grupo 10448" transform="translate(245.511 133.819)">
        <g id="Grupo_10439" data-name="Grupo 10439" transform="translate(2.784)">
          <path id="Trazado_2105" data-name="Trazado 2105" d="M2525.972,1996.929c-1.448.565-4.038,2.253-4.326,4.62-.433,3.554,1.938,8.392-.187,13.682-.677,1.687,15.634,1.786,15.634,1.786l.905-17.792s-4.343-3.291-5.166-3.446C2531.128,1995.458,2528.869,1995.8,2525.972,1996.929Z" transform="translate(-2521.409 -1990.305)" fill="#4967ad"/>
          <g id="Grupo_10435" data-name="Grupo 10435" transform="translate(13.712 8.895)">
            <path id="Trazado_2106" data-name="Trazado 2106" d="M2574.458,2008.649c.733,1.32,3.181,9.417,1.858,11.563-.153.248.887.476.837,1.526-.009.177-.205,1.034-.205,1.034l-1.241.5-4.152-1.717.628-1,.352-.037a.8.8,0,0,0,.152-.719c-.139-.368.764-1.109,1.438-7.716C2574.323,2010.138,2574.3,2008.358,2574.458,2008.649Z" transform="translate(-2571.555 -2008.617)" fill="#385485"/>
            <path id="Trazado_2107" data-name="Trazado 2107" d="M2576.984,2050.2l-1.177-.108-.474-.014a.852.852,0,0,1-.185.58l.891-.084,1.07.092,1.348.559Z" transform="translate(-2574.167 -2038.759)" fill="#5c99db"/>
          </g>
          <path id="Trazado_2108" data-name="Trazado 2108" d="M2575.881,2055.148a3.461,3.461,0,0,1,1.7.247c.619.282,1.243.984.769,1.467a8.555,8.555,0,0,1-1.24.974S2575.1,2058.145,2575.881,2055.148Z" transform="translate(-2560.856 -2033.536)" fill="#c4d1e1"/>
          <path id="Trazado_2109" data-name="Trazado 2109" d="M2575.12,2061.463l-.553-.048a10.26,10.26,0,0,0-2.128.243c-.244.18-1.026.863-1.026.863l-.155.183a.9.9,0,0,0,.958-.255c.511-.462.6-.168.6-.168l-.032.508.086.631-.052.277s-.06.155.008.2a.356.356,0,0,0,.363.037l.441-1.059.289,1.054a.4.4,0,0,0,.277.152c.171.014.167-.03.167-.03l.093-.289a.337.337,0,0,0,.136.173.548.548,0,0,0,.349.052l-.195-1.124.3.545a.427.427,0,0,0,.277.151c.193.021.245.029.245.029Z" transform="translate(-2557.627 -2038.106)" fill="#e4eef3"/>
          <g id="Grupo_10437" data-name="Grupo 10437" transform="translate(0 8.58)">
            <g id="Grupo_10436" data-name="Grupo 10436">
              <path id="Trazado_2110" data-name="Trazado 2110" d="M2534.792,2047.712s1.779,3.248,5.136,3.755c.58.087,1,.65.756.879a2.771,2.771,0,0,1-1.6.508,8.353,8.353,0,0,1-5.858-1.371c-2.65-1.988-3.525-2.933-3.43-4.113S2534.792,2047.712,2534.792,2047.712Z" transform="translate(-2527.482 -2036.148)" fill="#ffc4ad"/>
              <path id="Trazado_2111" data-name="Trazado 2111" d="M2521.882,2008.917a10.982,10.982,0,0,0-.381,5.668c.257,2.006,2.4,5.074,2.794,6.051.066.163.262.873.262.873l2.156,1.641,3.521-3.093-1.4-1.649-.345.081a5.977,5.977,0,0,1-.334-1.356c.011-.393-1.767-5.428-2.741-8.676C2524.857,2006.586,2522.422,2007.712,2521.882,2008.917Z" transform="translate(-2521.331 -2007.462)" fill="#385485"/>
              <path id="Trazado_2112" data-name="Trazado 2112" d="M2537.855,2046.724l1.077-.488.442-.171a.857.857,0,0,0,.366.488l-.869.213-.98.439-1.09.971Z" transform="translate(-2532.577 -2035.527)" fill="#4967ad"/>
            </g>
            <path id="Trazado_2113" data-name="Trazado 2113" d="M2565.592,2061.559l1.893-.784s.648.675.567.875a5.268,5.268,0,0,0,.164,1.287l-.848.927-.805-.159s-.1-.33.164-.4-.207-.2-.356-.264S2565.012,2062.539,2565.592,2061.559Z" transform="translate(-2553.395 -2046.22)" fill="#ffc4ad"/>
          </g>
          <path id="Rectángulo_2861" data-name="Rectángulo 2861" d="M1.8,0H3.633a1.8,1.8,0,0,1,1.8,1.8v0a1.8,1.8,0,0,1-1.8,1.8H1.8A1.8,1.8,0,0,1,0,1.8v0A1.8,1.8,0,0,1,1.8,0Z" transform="translate(6.657 7.339) rotate(-77.853)" fill="#e4eef3"/>
          <g id="Grupo_10438" data-name="Grupo 10438" transform="translate(6.72)">
            <path id="Trazado_2114" data-name="Trazado 2114" d="M2552.19,1988.048a.78.78,0,0,1-.883.659l-3.472-.5a.781.781,0,0,1-.66-.884l.743-5.144a.779.779,0,0,1,.883-.658l3.474.5a.78.78,0,0,1,.659.884Z" transform="translate(-2546.833 -1980.015)" fill="#ffc4ad"/>
            <path id="Trazado_2115" data-name="Trazado 2115" d="M2566.628,1985.535a2.989,2.989,0,0,0,.669-.724,1.164,1.164,0,0,0-.354-1.035c-.354-.281-.735.09-.735.09s.567.432.581.566S2566.628,1985.535,2566.628,1985.535Z" transform="translate(-2560.676 -1981.587)" fill="#163f59"/>
            <path id="Trazado_2116" data-name="Trazado 2116" d="M2547.063,1980.461a11.561,11.561,0,0,1-.059-2.618c.18-.565.3-.958,1.019-.919,1.073.057,1.053.284,1.614.037a15.866,15.866,0,0,1,1.927-.92,1.074,1.074,0,0,1,1.243,1.247,1.117,1.117,0,0,0,.337,1.011c-.054.085-.26.141-.62.26a2.957,2.957,0,0,1-2.339.056c-.711-.3-2.029-.918-2.267-.395s-.418,2.205-.5,2.325S2547.178,1980.576,2547.063,1980.461Z" transform="translate(-2546.666 -1976.035)" fill="#194866"/>
            <path id="Trazado_2117" data-name="Trazado 2117" d="M2547.212,1993.745a.259.259,0,0,1-.294.219l-.751-.108a.259.259,0,0,1-.219-.3l.2-1.371a.26.26,0,0,1,.3-.22l.75.108a.259.259,0,0,1,.22.294Z" transform="translate(-2545.945 -1987.618)" fill="#ffc4ad"/>
            <path id="Trazado_2118" data-name="Trazado 2118" d="M2563.6,1996.115a.261.261,0,0,1-.295.22l-.75-.108a.26.26,0,0,1-.219-.295l.2-1.372a.26.26,0,0,1,.294-.22l.75.109a.26.26,0,0,1,.22.294Z" transform="translate(-2557.861 -1989.341)" fill="#ffc4ad"/>
            <path id="Trazado_2119" data-name="Trazado 2119" d="M2547.286,1994.072s-.294,2.026-.391,2.7c-.088.611-.039,1.985,3.41,2.483a1.734,1.734,0,0,0,2.255-1.707,4.425,4.425,0,0,0-.393-1.808c-.006-.008-.121.836-.121.836a1.647,1.647,0,0,0-1.277-1.017c-1.566-.226-2.053.638-2.742.523C2547.5,1995.993,2547.225,1995.069,2547.286,1994.072Z" transform="translate(-2546.621 -1989.148)" fill="#194866"/>
            <path id="Trazado_2120" data-name="Trazado 2120" d="M2557.485,2002.864l1.071.155a.26.26,0,0,0,.293-.221l.022-.149-1.586-.231-.02.151A.259.259,0,0,0,2557.485,2002.864Z" transform="translate(-2554.173 -1995.215)" fill="#ffc4ad"/>
          </g>
        </g>
        <path id="Trazado_2121" data-name="Trazado 2121" d="M2543.5,2061.12c-.312,1.381-8.071,7.295-10.913,7.361l-8.405,1.468c-7.3.027-12.111-10.717-12.111-10.717-.067-2.842,7.53.333,10.213,1.274a18.055,18.055,0,0,0,6.792,1.275c2.709-.062,5.55-2.516,8.918-3.013C2541.694,2058.222,2543.991,2058.944,2543.5,2061.12Z" transform="translate(-2511.816 -2035.678)" fill="#1b2a3b"/>
        <g id="Grupo_10442" data-name="Grupo 10442" transform="translate(13.069 16.238)">
          <path id="Trazado_2122" data-name="Trazado 2122" d="M2559.055,2066.243a.114.114,0,0,1-.008-.01l-.044-.352,14.522-2.1.05.35a.031.031,0,0,1,0,.012l-.029.07c-.142.331-.469.435-.853.49l-12.637,1.825a.963.963,0,0,1-.957-.228Z" transform="translate(-2559.003 -2056.066)" fill="#b6c2c9"/>
          <path id="Trazado_2123" data-name="Trazado 2123" d="M2562.977,2070.406v.009l-.027.059a.6.6,0,0,1-.187.209l-2.208.319a1.012,1.012,0,0,1-.912-.165l-.043-.047a.061.061,0,0,1-.007-.009l-.021-.171,3.365-.486Z" transform="translate(-2559.416 -2060.675)" fill="#d8e5ed"/>
          <g id="Grupo_10440" data-name="Grupo 10440" transform="translate(5.471 8.06)">
            <rect id="Rectángulo_2862" data-name="Rectángulo 2862" width="7.332" height="0.25" transform="translate(0 1.048) rotate(-8.22)" fill="#879ba6"/>
          </g>
          <g id="Grupo_10441" data-name="Grupo 10441" transform="translate(3.578)">
            <path id="Trazado_2124" data-name="Trazado 2124" d="M2572.11,2044.8l.852-7.408a.48.48,0,0,1,.381-.4l10.188-1.472a.257.257,0,0,1,.3.305l-.853,7.408Z" transform="translate(-2572.11 -2035.514)" fill="#d9e1e4"/>
            <path id="Trazado_2125" data-name="Trazado 2125" d="M2591.222,2050.691a.5.5,0,0,0,.581.59.928.928,0,0,0,.738-.781.5.5,0,0,0-.581-.589A.924.924,0,0,0,2591.222,2050.691Z" transform="translate(-2586.001 -2045.976)" fill="#b6c2c9"/>
          </g>
        </g>
        <g id="Grupo_10444" data-name="Grupo 10444" transform="translate(4.104 31.382)">
          <path id="Trazado_2126" data-name="Trazado 2126" d="M2548.531,2095.9c1.03.046,1.651-1.221,1.651-1.221l2.344-2.375-.725-1.316-4.781,2.916S2547.5,2095.852,2548.531,2095.9Z" transform="translate(-2541.328 -2090.984)" fill="#ffc4ad"/>
          <path id="Trazado_2127" data-name="Trazado 2127" d="M2535.017,2100.5a2.589,2.589,0,0,1-.109.68c-.127.557-.341.774-.583.879-.936.409-1.653.351-3.933,1.1s-3.023.492-3.843-.5-.217-1.925.913-2.156c1.633-.333,2.575-.26,3.417-.5a2.764,2.764,0,0,0,1.4-.849c.456-.365,1.138,1.385.723,1.864C2532.636,2101.439,2534.752,2101.231,2535.017,2100.5Z" transform="translate(-2526.168 -2096.889)" fill="#548dc9"/>
          <path id="Trazado_2128" data-name="Trazado 2128" d="M2534.649,2106.466c-.935.409-1.655.352-3.935,1.1s-3.023.493-3.843-.5a1.258,1.258,0,0,1-.309-1.271,1.155,1.155,0,0,0-.012,1.727c.819.991,1.562,1.242,3.842.5s3-.689,3.933-1.1a.9.9,0,0,0,.482-.549A.834.834,0,0,1,2534.649,2106.466Z" transform="translate(-2526.171 -2101.751)" fill="#e4eef3"/>
          <path id="Trazado_2129" data-name="Trazado 2129" d="M2558.529,2104.25a.27.27,0,0,0,0-.033c0,.013-.013.026-.019.039Z" transform="translate(-2549.68 -2100.604)" fill="#ffc4ad"/>
          <g id="Grupo_10443" data-name="Grupo 10443" transform="translate(3.194 2.944)">
            <path id="Trazado_2130" data-name="Trazado 2130" d="M2538.576,2104.669c-.072.037-.156-.1-.2-.291a5.77,5.77,0,0,0-.422-1.171c-.093-.188-.113-.363-.034-.4s.229.091.318.276a5.659,5.659,0,0,1,.406,1.159C2538.684,2104.441,2538.647,2104.631,2538.576,2104.669Z" transform="translate(-2537.867 -2102.523)" fill="#e4eef3"/>
            <path id="Trazado_2131" data-name="Trazado 2131" d="M2541.2,2104.156c-.077.026-.167-.1-.211-.286a5.15,5.15,0,0,0-.41-1.1c-.089-.178-.1-.339-.02-.361s.24.1.325.278a5.143,5.143,0,0,1,.393,1.089C2541.317,2103.959,2541.273,2104.129,2541.2,2104.156Z" transform="translate(-2539.781 -2102.233)" fill="#e4eef3"/>
            <path id="Trazado_2132" data-name="Trazado 2132" d="M2543.734,2103.561c-.081.021-.179-.115-.235-.3a5.792,5.792,0,0,0-.463-1.128c-.1-.183-.118-.344-.028-.36s.252.117.348.3a5.634,5.634,0,0,1,.445,1.12C2543.853,2103.371,2543.816,2103.541,2543.734,2103.561Z" transform="translate(-2541.563 -2101.767)" fill="#e4eef3"/>
          </g>
        </g>
        <path id="Trazado_2133" data-name="Trazado 2133" d="M2551.663,2070.59s16.96-9.6,17.98-9.744c3.451-.468,3.1,3.128,1.555,4.994-1.82,2.2-17.076,7.727-17.076,7.727Z" transform="translate(-2540.598 -2037.662)" fill="#303652"/>
        <g id="Grupo_10447" data-name="Grupo 10447" transform="translate(0 19.365)">
          <path id="Trazado_2134" data-name="Trazado 2134" d="M2563.689,2081.178l-5.466-4.015,1.821-2.323,6.037,4.933Z" transform="translate(-2545.368 -2067.23)" fill="#ffc4ad"/>
          <path id="Trazado_2135" data-name="Trazado 2135" d="M2530.009,2057.147s-13.859-9.826-14.74-10.06c-2.982-.794-4.345,2.56-4.108,3.628.305,1.386,14.365,11.2,14.365,11.2Z" transform="translate(-2511.135 -2046.967)" fill="#303b46"/>
          <g id="Grupo_10446" data-name="Grupo 10446" transform="translate(17.399 11.665)">
            <path id="Trazado_2136" data-name="Trazado 2136" d="M2584.208,2091.285c.324.231.474,1.014.474,1.014s-3.949,2.091-5.4,2.3a7.425,7.425,0,0,1-1.752-.11c-.114-.016-.4-.268-.513-.287-.205-.033-.227.166-.405.134a5.161,5.161,0,0,1-.8-.187,4.243,4.243,0,0,1-.928-2.707s1.973.306,1.594-.079c-.813-.824,1.066-2.009,1.572-1.58C2580.063,2091.507,2583.269,2090.615,2584.208,2091.285Z" transform="translate(-2574.867 -2089.695)" fill="#5c99db"/>
            <path id="Trazado_2137" data-name="Trazado 2137" d="M2585.748,2096.828a38.117,38.117,0,0,1-4.286,2.154,9.186,9.186,0,0,1-4.861-.481,8.665,8.665,0,0,0,.466.836,5.1,5.1,0,0,0,.8.187c.178.032.2-.167.4-.134.111.019.4.271.513.287a7.43,7.43,0,0,0,1.752.11c1.453-.211,5.4-2.3,5.4-2.3A2.907,2.907,0,0,0,2585.748,2096.828Z" transform="translate(-2576.128 -2094.88)" fill="#e4eef3"/>
            <g id="Grupo_10445" data-name="Grupo 10445" transform="translate(2.68 0.676)">
              <path id="Trazado_2138" data-name="Trazado 2138" d="M2593.1,2093.615c.047.067-.1.172-.33.25a7.962,7.962,0,0,0-1.347.6c-.215.121-.419.169-.46.094s.1-.246.308-.363a7.9,7.9,0,0,1,1.335-.583C2592.834,2093.539,2593.057,2093.547,2593.1,2093.615Z" transform="translate(-2589.247 -2093.181)" fill="#e4eef3"/>
              <path id="Trazado_2139" data-name="Trazado 2139" d="M2589.8,2092.855c.045.07-.1.193-.319.287a8.172,8.172,0,0,0-1.287.7c-.2.137-.4.2-.438.117s.09-.265.293-.4a7.961,7.961,0,0,1,1.276-.683C2589.538,2092.79,2589.752,2092.787,2589.8,2092.855Z" transform="translate(-2586.91 -2092.634)" fill="#e4eef3"/>
              <path id="Trazado_2140" data-name="Trazado 2140" d="M2586.638,2092.216c.043.073-.1.212-.306.323a8.128,8.128,0,0,0-1.225.8c-.194.152-.379.222-.416.137s.082-.282.274-.43a7.932,7.932,0,0,1,1.217-.78C2586.39,2092.157,2586.6,2092.143,2586.638,2092.216Z" transform="translate(-2584.684 -2092.171)" fill="#e4eef3"/>
            </g>
          </g>
        </g>
      </g>
      <g id="Grupo_10450" data-name="Grupo 10450" transform="translate(112.77 68.202)">
        <g id="Grupo_10449" data-name="Grupo 10449">
          <path id="Trazado_2141" data-name="Trazado 2141" d="M2037.925,1845.513h-1.267l29.427-109.823h1.267Z" transform="translate(-2036.659 -1735.69)" fill="#2c7eea"/>
          <path id="Trazado_2142" data-name="Trazado 2142" d="M2101.328,1845.513h-1.267l29.427-109.823h1.266Z" transform="translate(-2082.752 -1735.69)" fill="#2c7eea"/>
          <path id="Trazado_2143" data-name="Trazado 2143" d="M2140.083,1757.258l.339-1.266h17.733l-.34,1.266Z" transform="translate(-2111.847 -1750.449)" fill="#2c7eea"/>
          <path id="Trazado_2144" data-name="Trazado 2144" d="M2130.606,1792.633l.339-1.266h17.733l-.34,1.266Z" transform="translate(-2104.957 -1776.167)" fill="#2c7eea"/>
          <path id="Trazado_2145" data-name="Trazado 2145" d="M2121.126,1828.008l.34-1.266H2139.2l-.339,1.266Z" transform="translate(-2098.065 -1801.884)" fill="#2c7eea"/>
          <path id="Trazado_2146" data-name="Trazado 2146" d="M2111.649,1863.381l.339-1.267h17.733l-.34,1.267Z" transform="translate(-2091.176 -1827.599)" fill="#2c7eea"/>
          <path id="Trazado_2147" data-name="Trazado 2147" d="M2102.17,1898.755l.338-1.266h17.733l-.34,1.266Z" transform="translate(-2084.285 -1853.316)" fill="#2c7eea"/>
          <path id="Trazado_2148" data-name="Trazado 2148" d="M2092.691,1934.131l.339-1.266h17.733l-.339,1.266Z" transform="translate(-2077.393 -1879.034)" fill="#2c7eea"/>
          <path id="Trazado_2149" data-name="Trazado 2149" d="M2083.213,1969.5l.339-1.266h17.733l-.34,1.266Z" transform="translate(-2070.503 -1904.75)" fill="#2c7eea"/>
          <path id="Trazado_2150" data-name="Trazado 2150" d="M2073.734,2004.881l.34-1.266h17.732l-.34,1.266Z" transform="translate(-2063.612 -1930.469)" fill="#2c7eea"/>
          <path id="Trazado_2151" data-name="Trazado 2151" d="M2064.254,2040.253l.34-1.267h17.732l-.339,1.267Z" transform="translate(-2056.72 -1956.183)" fill="#2c7eea"/>
          <path id="Trazado_2152" data-name="Trazado 2152" d="M2054.777,2075.629l.339-1.266h17.732l-.339,1.266Z" transform="translate(-2049.831 -1981.901)" fill="#2c7eea"/>
          <path id="Trazado_2153" data-name="Trazado 2153" d="M2045.3,2111l.339-1.267h17.732l-.339,1.267Z" transform="translate(-2042.939 -2007.618)" fill="#2c7eea"/>
        </g>
      </g>
      <g id="Grupo_10452" data-name="Grupo 10452" transform="translate(57.919 102.866)">
        <g id="Grupo_10451" data-name="Grupo 10451" transform="translate(0 0.972)">
          <path id="Trazado_2154" data-name="Trazado 2154" d="M1846.166,2119.518c.125-.167.008-.589.008-.589a15.726,15.726,0,0,0-3.088.066,3.949,3.949,0,0,0-.816.433c-.051.031-.135.216-.184.249-.092.059-.145-.032-.223.023a2.663,2.663,0,0,0-.345.264,2.228,2.228,0,0,0,.14,1.5s1.949.5,2.369.085C1845.091,2120.487,1845.891,2119.887,1846.166,2119.518Z" transform="translate(-1841.404 -2049.901)" fill="#161711"/>
          <path id="Trazado_2155" data-name="Trazado 2155" d="M1885.86,2119.561l.417,1.723,1.773-.085s.087-.251.236-.259c.127-.006.3.232.474.224l.953-.046,3.557-.172s.063-.37-.042-.491a1.709,1.709,0,0,0-.556-.206c-.928-.214-3.588-.89-4.086-1.744C1887.98,2117.468,1885.86,2119.561,1885.86,2119.561Z" transform="translate(-1873.672 -2049.418)" fill="#161711"/>
          <path id="Trazado_2156" data-name="Trazado 2156" d="M1872.025,1877.818l.423-2.11s1.5.115,1.791-.692a8.273,8.273,0,0,0-.26-4.927c-1.009-2.062-1.437-5.676-6.161-2.8-1.8,1.093.978,6.39,1.185,7.536a4.859,4.859,0,0,1-.408,2.468l1.106.828Z" transform="translate(-1860.118 -1866.219)" fill="#ffc4ad"/>
          <path id="Trazado_2157" data-name="Trazado 2157" d="M1846.287,1979.3l-.156,6.651a11.587,11.587,0,0,1-2.748-5.908C1843.14,1976.9,1846.131,1979.051,1846.287,1979.3Z" transform="translate(-1842.781 -1947.736)" fill="#ffc4ad"/>
          <path id="Trazado_2158" data-name="Trazado 2158" d="M1848.026,2032.4s.705.267-.862,10.023c-1.13,7.025-2.135,12.174-2.611,14.505-.185.906-.447.758-.447.758l-1.929.309-.961-.755,2.007-15.894Z" transform="translate(-1841.217 -1987.033)" fill="#163f59"/>
          <path id="Trazado_2159" data-name="Trazado 2159" d="M1900.323,1960.551l-3.974,7.624s7.585-5.488,7.108-8.506S1900.323,1960.551,1900.323,1960.551Z" transform="translate(-1881.297 -1933.323)" fill="#ffc4ad"/>
          <path id="Trazado_2160" data-name="Trazado 2160" d="M1844.783,1916.234s-1.61.985-2.77,8.987-.422,7.7-.422,7.7l.21,1.823,3.013.323,1.626-6.906Z" transform="translate(-1841.321 -1902.58)" fill="#feb04c"/>
          <path id="Trazado_2161" data-name="Trazado 2161" d="M1857.122,1978.454s-3.548,18.6-6.636,27.016c-1.809,4.927-2.276-4.34-2.276-4.34l1.88-26.857,9.247-.9S1858.3,1973.752,1857.122,1978.454Z" transform="translate(-1846.301 -1944.12)" fill="#163f59"/>
          <path id="Trazado_2162" data-name="Trazado 2162" d="M1868.143,1971.607s4.508,23.644,4.913,24.7c1.37,3.576,2.978-1.278,3.342-2.51s.63-10.233.172-16.771l-.456-6.536Z" transform="translate(-1860.792 -1942.025)" fill="#163f59"/>
          <path id="Trazado_2163" data-name="Trazado 2163" d="M1882.085,2040.491s-.369,2.864-.614,6.512a103.086,103.086,0,0,0,.926,15.547c.046.323,3.358-.823,3.358-.823s.51-14.851.631-18.178S1884.078,2038.022,1882.085,2040.491Z" transform="translate(-1870.448 -1992.145)" fill="#163f59"/>
          <path id="Trazado_2164" data-name="Trazado 2164" d="M1853.538,1908.47l3.968-1.8,1.094-1.035,4.217-.1.74,1.217,3.269,1.418s.806,1.268.1,5.976a130.388,130.388,0,0,0-.941,13.1l-12.363.6S1854.7,1911,1853.538,1908.47Z" transform="translate(-1850.174 -1894.8)" fill="#fec12f"/>
          <path id="Trazado_2165" data-name="Trazado 2165" d="M1897.435,1914.826s.736-.822,2.528,1.406a31.39,31.39,0,0,1,4.851,9.42,3.414,3.414,0,0,1-.527,3.719c-.956,1.158-1.266,1.549-1.266,1.549l-2.743-1.708.431-.822.308-.407s-1.476-3.242-3.058-6.178S1897.435,1914.826,1897.435,1914.826Z" transform="translate(-1881.835 -1901.449)" fill="#fec12f"/>
        </g>
        <path id="Trazado_2166" data-name="Trazado 2166" d="M1871.58,1868.107s-.534-.329-.616.082.205,1.314.451,1.4.329,1.191.329,1.191l-.657,1.233h-3.327s-1.027-.452-1.109-1.191-.9-5.955-.9-5.955l2.341-1.233a15.488,15.488,0,0,1,2.094-.862c1.325-.379,1.6.328,1.561.7s.37.412.9.412,1.191.41.9.657c-.118.1.411.427.2.819-.3.56-1.311.742-1.392,1.645C1872.324,1867.408,1872.156,1868.764,1871.58,1868.107Z" transform="translate(-1859.051 -1862.659)" fill="#194866"/>
      </g>
      <g id="Grupo_10461" data-name="Grupo 10461" transform="translate(124.182 0)">
        <path id="Trazado_2167" data-name="Trazado 2167" d="M2105.665,1574.817s8.29.018,11.489.066c2.214.033,2.416-3.122,1.542-3.6-2.651-1.443-10.923-2.184-10.923-2.184l-5.627,5.167S2102.463,1574.259,2105.665,1574.817Z" transform="translate(-2095.63 -1550.301)" fill="#3c463b"/>
        <path id="Trazado_2168" data-name="Trazado 2168" d="M2141.916,1527.936s2.131-.6,3.058,2.187a21.284,21.284,0,0,1,1.1,9.023c-.091.384-.365,1.712-2.747,1.762-.965.021-.579-2.048-.579-2.048a44.883,44.883,0,0,1-1.279-4.731A13.124,13.124,0,0,1,2141.916,1527.936Z" transform="translate(-2124.065 -1520.336)" fill="url(#linear-gradient-3)"/>
        <path id="Trazado_2169" data-name="Trazado 2169" d="M2110.352,1523.513l-5.466-1.768-4.138-.278-4.533,1.372s-1.484,1.022-.106,4.308.848,8.435.848,8.435l11.694.375a95.2,95.2,0,0,1,1-9.521C2109.82,1525.374,2109.842,1524.124,2110.352,1523.513Z" transform="translate(-2090.814 -1515.672)" fill="#7ec8ef"/>
        <path id="Trazado_2170" data-name="Trazado 2170" d="M2120.335,1536.64h.6a49.579,49.579,0,0,0-.093-13.918l-.539.321C2120.45,1527.726,2120.193,1532.411,2120.335,1536.64Z" transform="translate(-2108.82 -1516.584)" fill="url(#linear-gradient-4)"/>
        <g id="Grupo_10453" data-name="Grupo 10453" transform="translate(9.623 1.736)">
          <path id="Trazado_2171" data-name="Trazado 2171" d="M2117.738,1512.225a1.357,1.357,0,0,1-1.14,1.206h-1.544a1.356,1.356,0,0,1-1.14-1.206q-.189-1.563-.379-3.127a2.432,2.432,0,0,1,1.108-2.25,2.953,2.953,0,0,1,2.366,0,2.433,2.433,0,0,1,1.109,2.25Q2117.927,1510.663,2117.738,1512.225Z" transform="translate(-2113.522 -1506.601)" fill="#e6b09c"/>
        </g>
        <path id="Trazado_2172" data-name="Trazado 2172" d="M2114.335,1525.779l-.981,1.609-1.8-2.248.282-1.183.583-.479.008.89Z" transform="translate(-2102.471 -1517.134)" fill="url(#linear-gradient-3)"/>
        <path id="Trazado_2173" data-name="Trazado 2173" d="M2122.17,1525.755l.982,1.609,1.672-2.094-.274-1.284-.42-.541-.17,1.051Z" transform="translate(-2110.186 -1517.11)" fill="url(#linear-gradient-3)"/>
        <g id="Grupo_10454" data-name="Grupo 10454" transform="translate(9.275)">
          <path id="Trazado_2174" data-name="Trazado 2174" d="M2114.667,1500.241a1.233,1.233,0,0,0-1.034.559h-.425a.958.958,0,0,0-.958.958v2.366h.674v-.962a.674.674,0,0,1,.674-.674h.182a1.236,1.236,0,0,0,1.237-1.237v-1.011Z" transform="translate(-2112.25 -1500.241)" fill="#163f59"/>
          <path id="Trazado_2175" data-name="Trazado 2175" d="M2113.472,1514.237a.586.586,0,0,1-.587.586h-.048a.587.587,0,0,1-.587-.586v-.712a.587.587,0,0,1,.587-.586h.048a.59.59,0,0,1,.538.349" transform="translate(-2112.25 -1509.471)" fill="#e4eef3"/>
          <path id="Trazado_2176" data-name="Trazado 2176" d="M2119.18,1501.181v-.94h2.03a1.236,1.236,0,0,1,1.236,1.236v.94h-2.03A1.236,1.236,0,0,1,2119.18,1501.181Z" transform="translate(-2117.288 -1500.241)" fill="#163f59"/>
          <path id="Trazado_2177" data-name="Trazado 2177" d="M2118.008,1507.385a1.93,1.93,0,0,1-1,1.587,3.592,3.592,0,0,1-2.693,0,1.927,1.927,0,0,1-1-1.587V1503.2a1.038,1.038,0,0,1,1.1-.922h2.5a1.036,1.036,0,0,1,1.1.922Z" transform="translate(-2113.024 -1501.721)" fill="#ffc4ad"/>
          <path id="Trazado_2178" data-name="Trazado 2178" d="M2120.927,1500.241a1.233,1.233,0,0,1,1.034.559h.424a.958.958,0,0,1,.958.958v2.366h-.674v-.962a.674.674,0,0,0-.674-.674h-.861a1.237,1.237,0,0,1-1.237-1.237v-1.011Z" transform="translate(-2117.81 -1500.241)" fill="#163f59"/>
          <path id="Trazado_2179" data-name="Trazado 2179" d="M2128.077,1513.524a.586.586,0,0,1,.587-.586h.048a.586.586,0,0,1,.587.586v.712a.587.587,0,0,1-.587.586h-.048a.589.589,0,0,1-.538-.349" transform="translate(-2123.756 -1509.471)" fill="#ffc4ad"/>
          <path id="Trazado_2180" data-name="Trazado 2180" d="M2114.338,1501.424a1.211,1.211,0,0,0,.025-.243v-.94h-.876a1.237,1.237,0,0,0-1.237,1.236v.94h.876a1.252,1.252,0,0,0,.254-.026A1.235,1.235,0,0,1,2114.338,1501.424Z" transform="translate(-2112.25 -1500.241)" fill="#163f59"/>
        </g>
        <path id="Trazado_2181" data-name="Trazado 2181" d="M2079.965,1642.79c-.128.154-.033.561-.033.561a14.908,14.908,0,0,0,2.948.079,3.752,3.752,0,0,0,.8-.374c.05-.029.138-.2.187-.229.09-.053.137.036.213-.012a2.618,2.618,0,0,0,.341-.236,2.129,2.129,0,0,0-.065-1.436s-1.9-.631-2.256-.191A15.255,15.255,0,0,1,2079.965,1642.79Z" transform="translate(-2079.455 -1602.423)" fill="#161711"/>
        <path id="Trazado_2182" data-name="Trazado 2182" d="M2156.533,1641.43l.155,1.685,1.688.165s.117-.225.259-.211c.121.012.253.262.416.278l.906.088,3.386.333s.11-.341.029-.469a1.657,1.657,0,0,0-.5-.272c-.849-.33-3.268-1.339-3.621-2.215C2158.828,1639.745,2156.533,1641.43,2156.533,1641.43Z" transform="translate(-2135.168 -1602.177)" fill="#161711"/>
        <g id="Grupo_10455" data-name="Grupo 10455" transform="translate(13.108 17.911)">
          <path id="Trazado_2183" data-name="Trazado 2183" d="M2131.993,1565.847l-5.706,2.33a24.641,24.641,0,0,0,6.578.062C2134.575,1567.89,2132.071,1565.773,2131.993,1565.847Z" transform="translate(-2126.287 -1565.845)" fill="#ffc4ad"/>
        </g>
        <path id="Trazado_2184" data-name="Trazado 2184" d="M2086.777,1577.678s-.55,5.21-.471,7.965a60,60,0,0,1-.429,9.454,11.657,11.657,0,0,1-2.685.051s-.952-12.917-1.235-15.044S2082.5,1576.441,2086.777,1577.678Z" transform="translate(-2080.916 -1556.216)" fill="#3c463b"/>
        <path id="Trazado_2185" data-name="Trazado 2185" d="M2151.849,1581.027a4.489,4.489,0,0,1-3.2,1.671c-.848.115,1.367,15.12,1.367,15.12l3.466-1.109-.67-16.594Z" transform="translate(-2129.295 -1558.307)" fill="#323b31"/>
        <path id="Trazado_2186" data-name="Trazado 2186" d="M2095.682,1574.669s-4.532.646-7.556.964c-1.109.116-2.069-2.988-2.2-3.123a2.283,2.283,0,0,0-1.581-.771c.655-.708,4.049-1.366,7.594-2.2s4.086-.308,4.086-.308Z" transform="translate(-2082.69 -1550.279)" fill="#323b31"/>
        <path id="Trazado_2187" data-name="Trazado 2187" d="M2091.943,1569.54c-3.546.832-6.94,1.49-7.594,2.2a2.284,2.284,0,0,1,1.581.771c.035.037.239,1.032.385,1.388-.578-1.041,7.755-3.979,9.556-4.74C2095.534,1569.05,2094.554,1568.928,2091.943,1569.54Z" transform="translate(-2082.69 -1550.278)" fill="#3c463b"/>
        <path id="Trazado_2188" data-name="Trazado 2188" d="M2092.876,1586.866l-.347,10.139-.347,2.352-.038-2.352.077-1.465-.81-2.275-.424-5.281.617.231-.077-2.313Z" transform="translate(-2087.517 -1562.516)" fill="#323b31"/>
        <path id="Trazado_2189" data-name="Trazado 2189" d="M2156.845,1578.844l.848.231.308,12.182-1.773,4.357.848-2.969-.347-6.129s-1.233,2.968-1.233,2.814,1.041-6.438,1.041-6.438a13.437,13.437,0,0,0-1.041.925C2155.611,1583.778,2156.189,1579.422,2156.845,1578.844Z" transform="translate(-2134.408 -1557.384)" fill="#3c463b"/>
        <path id="Trazado_2190" data-name="Trazado 2190" d="M2086.181,1525.651s-1.821-1.427-3.6,1.221a35.837,35.837,0,0,0-4.16,9.2c-.318.917-.143,3.507.925,4.575.257.257,1.8.051,1.8.051l1.012-.7-.423-.815-.023-.643s1.295-3.122,2.884-6.074A16.588,16.588,0,0,0,2086.181,1525.651Z" transform="translate(-2078.276 -1518.435)" fill="#7ec8ef"/>
        <g id="Grupo_10457" data-name="Grupo 10457" transform="translate(3.001 18.732)">
          <path id="Trazado_2191" data-name="Trazado 2191" d="M2089.719,1570.139l5.913.309s-5.7,2.613-5.884,2.163C2088.681,1570.059,2089.719,1570.139,2089.719,1570.139Z" transform="translate(-2089.266 -1569.788)" fill="#ffc4ad"/>
          <g id="Grupo_10456" data-name="Grupo 10456" transform="translate(3.655)">
            <path id="Trazado_2192" data-name="Trazado 2192" d="M2102.706,1569.024c.345-.166.314-.169.314-.169a1.413,1.413,0,0,0,.773.446c.227.035.961.044.961.044l1.089.026.505-.028a.919.919,0,0,1,.361.011c.22.142.031.255.031.255l-1.951.277,1.875.233s.235.069.247.2-.068.115-.068.115l-2.179.233.956.228s.229.074.245.2.029.172.029.172l-2-.2S2102.361,1569.191,2102.706,1569.024Z" transform="translate(-2102.655 -1568.855)" fill="#ffc4ad"/>
            <path id="Trazado_2193" data-name="Trazado 2193" d="M2110.22,1573.894l1.311.239a1.089,1.089,0,0,1,.432.118.175.175,0,0,1,.063.245l-2.01-.169Z" transform="translate(-2108.006 -1572.518)" fill="#ffc4ad"/>
          </g>
        </g>
        <g id="Grupo_10460" data-name="Grupo 10460" transform="translate(5.439 12.792)">
          <path id="Trazado_2194" data-name="Trazado 2194" d="M2109.85,1576.648l.006-.012-.006-.372H2098.2v.372a.019.019,0,0,0,0,.012l.04.07a1.013,1.013,0,0,0,.962.381h9.648a1.012,1.012,0,0,0,.962-.381Z" transform="translate(-2098.199 -1568.3)" fill="#b6c2c9"/>
          <g id="Grupo_10458" data-name="Grupo 10458" transform="translate(1.972 8.05)">
            <rect id="Rectángulo_2863" data-name="Rectángulo 2863" width="7.714" height="0.263" fill="#879ba6"/>
          </g>
          <g id="Grupo_10459" data-name="Grupo 10459" transform="translate(0.01)">
            <path id="Trazado_2195" data-name="Trazado 2195" d="M2109.87,1555.1l.031-7.639a.362.362,0,0,0-.363-.364h-10.905a.367.367,0,0,0-.367.364l-.031,7.639Z" transform="translate(-2098.236 -1547.095)" fill="#e4eef3"/>
            <path id="Trazado_2196" data-name="Trazado 2196" d="M2118.429,1559.873a.71.71,0,0,1-.709.706.706.706,0,1,1,.709-.706Z" transform="translate(-2111.89 -1555.872)" fill="#b6c2c9"/>
          </g>
        </g>
        <path id="Trazado_2197" data-name="Trazado 2197" d="M2087.032,1572.212l-.406-2.592.674-.693,1.493.239-.3,2.87Z" transform="translate(-2084.346 -1550.175)" fill="url(#linear-gradient-3)"/>
        <path id="Trazado_2198" data-name="Trazado 2198" d="M2147.188,1567.09l.155-.953-1.889-1.7-1.022.462,1.336,2.558Z" transform="translate(-2126.37 -1546.913)" fill="#7ec8ef"/>
      </g>
      <path id="Trazado_2199" data-name="Trazado 2199" d="M1673.1,1926.259s2.225,1.068,3.405,1.584l-.292.041.193.642-1.245-.105-1.745-.412-.1-.738h.54Z" transform="translate(-1662.385 -1807.464)" fill="#c9c8b6"/>
      <g id="Grupo_10467" data-name="Grupo 10467" transform="translate(0 95.055)">
        <g id="Grupo_10466" data-name="Grupo 10466" transform="translate(11.946)">
          <g id="Grupo_10464" data-name="Grupo 10464" transform="translate(16.08)">
            <g id="Grupo_10462" data-name="Grupo 10462" transform="translate(9.573)">
              <path id="Trazado_2200" data-name="Trazado 2200" d="M1780.017,1844.155l-.482-1.244a4.563,4.563,0,0,0-.673-1.21,1.329,1.329,0,0,0-1.809-.246,1.971,1.971,0,0,0-.854.708s.078.955.853,1.106,2.147,1.466,2.363,1.224A1.366,1.366,0,0,1,1780.017,1844.155Z" transform="translate(-1774.931 -1839.26)" fill="#ffc4ad"/>
              <path id="Trazado_2201" data-name="Trazado 2201" d="M1772.846,1839.276l-.7-1.313-.593-1.251.309-.025.544.829,1.447.845-.337.305Z" transform="translate(-1771.557 -1835.967)" fill="#ffc4ad"/>
              <path id="Trazado_2202" data-name="Trazado 2202" d="M1776.021,1835.488l-.18-1.212.291-.108.394,1.164.813,1.029-.7.473Z" transform="translate(-1774.671 -1834.136)" fill="#ffc4ad"/>
              <path id="Trazado_2203" data-name="Trazado 2203" d="M1778.858,1834.049l.082.975-.034.656.4.6.677-.194-.456-.633-.326-1.266Z" transform="translate(-1776.865 -1834.049)" fill="#ffc4ad"/>
              <path id="Trazado_2204" data-name="Trazado 2204" d="M1782.027,1834.52l-.148,1.761.314.406.472-.1-.226-.813-.186-1.039Z" transform="translate(-1779.061 -1834.392)" fill="#ffc4ad"/>
            </g>
            <path id="Trazado_2205" data-name="Trazado 2205" d="M1776.916,1847.96a1.8,1.8,0,0,0-1.177-.868s-2.057-.45-2.281-.853a3.593,3.593,0,0,0-1.005-.878s-.228-.356.605-.185a3.474,3.474,0,0,1,.981.376,5.168,5.168,0,0,1,1.6,0c.692.332,1.5,2.067,1.5,2.067S1776.961,1848.05,1776.916,1847.96Z" transform="translate(-1762.615 -1842.105)" fill="#ffc4ad"/>
            <path id="Trazado_2206" data-name="Trazado 2206" d="M1736.494,1880.394s-.165,2.43,7.115,2.987,7.123-1.1,7.123-1.1l.591-1.742-2.547-4.836-2.377,1.083-.013.408a1.006,1.006,0,0,1-.858.242,48.415,48.415,0,0,1-6.675-.964C1737,1876.052,1736.524,1879.926,1736.494,1880.394Z" transform="translate(-1736.494 -1864.328)" fill="#c6d6db"/>
            <g id="Grupo_10463" data-name="Grupo 10463" transform="translate(0 12.109)">
              <path id="Trazado_2207" data-name="Trazado 2207" d="M1738.853,1878.435c.081.019.159.035.238.052a9.256,9.256,0,0,0-1,2.582s-.482,2.384,6.688,3.818a31.669,31.669,0,0,0,3.211.5,25.662,25.662,0,0,1-4.377-.036c-7.28-.557-7.115-2.987-7.115-2.987C1736.524,1881.892,1737,1878.018,1738.853,1878.435Z" transform="translate(-1736.494 -1878.404)" fill="#b6c9c9"/>
            </g>
            <path id="Trazado_2208" data-name="Trazado 2208" d="M1781,1855.466s4.13-3.253.989-7.631c-.933-1.3.4-.368,1.613.629s3.229,4.878,2.106,7.9-1.8,4.077-3.124,4.192S1781,1855.466,1781,1855.466Z" transform="translate(-1768.847 -1843.607)" fill="#ffc4ad"/>
            <path id="Trazado_2209" data-name="Trazado 2209" d="M1770.513,1883.319l-.239-1.347-.063-.544a1.082,1.082,0,0,0,.689-.267l-.02,1.034.212,1.223.8,1.5Z" transform="translate(-1761.005 -1868.299)" fill="#b6c9c9"/>
          </g>
          <g id="Grupo_10465" data-name="Grupo 10465" transform="translate(0 2.935)">
            <path id="Trazado_2210" data-name="Trazado 2210" d="M1713.526,1897.762l-8.51-.184-3.538-11.848s-2.294-7.163,2.1-7.255,9.466-.092,9.466-.092S1716.012,1880.956,1713.526,1897.762Z" transform="translate(-1694.523 -1869.215)" fill="#c6d6db"/>
            <path id="Trazado_2211" data-name="Trazado 2211" d="M1709.436,1845.788s4.475,4.161,3.92,5.6a3.275,3.275,0,0,0-.807,1.424,3.833,3.833,0,0,0,.233,1.28c0,.083.225.635.248.8.106.741-.272,1.352-.586,1.277a21.391,21.391,0,0,1-2.284-.887c-.194-.107-.376-.124-.426-.432a5.041,5.041,0,0,0-.777-2.085c-.964-.927-3.673-1.82-2.92-4.483C1706.258,1847.508,1709.054,1845.6,1709.436,1845.788Z" transform="translate(-1698.178 -1845.509)" fill="#ffc4ad"/>
            <path id="Trazado_2212" data-name="Trazado 2212" d="M1729.889,1884.48s3.856,6.647,2.761,14a1.736,1.736,0,0,1-.777,1l-.949-.829A89.028,89.028,0,0,0,1729.889,1884.48Z" transform="translate(-1715.612 -1873.646)" fill="#163f59"/>
            <path id="Trazado_2213" data-name="Trazado 2213" d="M1721.628,1880.306l-.209,1.469-2.7-2.245.313-.549Z" transform="translate(-1707.49 -1869.648)" fill="#b6c9c9"/>
            <path id="Trazado_2214" data-name="Trazado 2214" d="M1730.622,1879.047l-.078-.494.5.848.024,1.556-1.068-.93Z" transform="translate(-1715.69 -1869.337)" fill="#b6c9c9"/>
            <path id="Trazado_2215" data-name="Trazado 2215" d="M1721.147,1866.062s-.21.048-.617.1a3.369,3.369,0,0,0-.706.158,5.262,5.262,0,0,1-1.235.522,14.026,14.026,0,0,1-1.9.183s.657.248.917.352a1.722,1.722,0,0,0,1.24.012c1.444-.487,1.444-.348,1.592-.469A7.406,7.406,0,0,1,1721.147,1866.062Z" transform="translate(-1706.019 -1860.257)" fill="#e8b29d"/>
            <path id="Trazado_2216" data-name="Trazado 2216" d="M1724.658,1852.843a12.379,12.379,0,0,0,1.183.644c.173.087.4.192.418.261a1.9,1.9,0,0,1-.018.435c-.017.1-.069.521-.417.208A13.486,13.486,0,0,1,1724.658,1852.843Z" transform="translate(-1711.809 -1850.647)" fill="#ffc4ad"/>
            <path id="Trazado_2217" data-name="Trazado 2217" d="M1705.359,1847.446c.261-1.409,2.122-2.731,4.262-2.644a1.069,1.069,0,0,1-.018.887,2.8,2.8,0,0,0-2.435.818c-1.04,1.147.247,1.007.226,1.526-.017.435-.052.822-.052.822l.392.8-.275.3s-.769-.548-.744-.209c.032.411.57.857.639.927s.188.183.17.235a10.649,10.649,0,0,1,.923,1.112c-.14.127-.489.085-.949-.264C1706.462,1850.964,1705.04,1849.167,1705.359,1847.446Z" transform="translate(-1697.746 -1844.798)" fill="#163f59"/>
            <path id="Trazado_2218" data-name="Trazado 2218" d="M1709.918,1862.556a.626.626,0,1,0,.786.975" transform="translate(-1700.924 -1857.708)" fill="#ffc4ad"/>
            <path id="Trazado_2219" data-name="Trazado 2219" d="M1727.415,1856.792a6.566,6.566,0,0,1,.5-.652c.07-.035.226-.14.278-.087s.092.27-.048.661C1728.112,1856.809,1728.028,1856.635,1727.415,1856.792Z" transform="translate(-1713.813 -1852.969)" fill="#e8b29d"/>
            <rect id="Rectángulo_2864" data-name="Rectángulo 2864" width="2.192" height="3.339" transform="translate(16.589 65.12)" fill="#2162a3"/>
            <rect id="Rectángulo_2865" data-name="Rectángulo 2865" width="1.775" height="3.339" transform="translate(1.037 65.12)" fill="#2162a3"/>
            <path id="Trazado_2220" data-name="Trazado 2220" d="M1738.359,2094.316h1.6v-.487l.7.487h4.036s-.07-.661-2.783-.765c-.7-.027-1.183-.974-1.183-.974s-.347-.313-.869.417c-.136.19-1.6-.174-1.6-.174A3.417,3.417,0,0,0,1738.359,2094.316Z" transform="translate(-1721.665 -2024.882)" fill="#081832"/>
            <path id="Trazado_2221" data-name="Trazado 2221" d="M1729.575,1948.353l.191,18.092-3.824,2.112a26.065,26.065,0,0,1-2.581-9.827C1723.074,1953.22,1729.575,1948.353,1729.575,1948.353Z" transform="translate(-1710.859 -1920.081)" fill="#163f59"/>
            <path id="Trazado_2222" data-name="Trazado 2222" d="M1698.015,1946.885l-8.414,19.837-1.53,2.113-5.8,16.481-2.192-.625s-.8-9.06,1.495-12.918,3.442-5.969,3.442-5.969l5.068-19.47Z" transform="translate(-1679.3 -1918.614)" fill="#194866"/>
            <path id="Trazado_2223" data-name="Trazado 2223" d="M1731.582,2035.275c-.692-3.55-2.216-9.738-2.268-12.02a32.266,32.266,0,0,1,.574-7.164l4.207-1.469.017,20.653Z" transform="translate(-1715.187 -1968.258)" fill="#163f59"/>
            <path id="Trazado_2224" data-name="Trazado 2224" d="M1680.643,2093.108h-1.083l-.342-.342-.148-.837-.344.344-1.131-1.132a3.413,3.413,0,0,1,.984-1.132s.778,1.293,1.009,1.255c.886-.148.911.32.911.32S1680.173,2092.6,1680.643,2093.108Z" transform="translate(-1677.595 -2023.065)" fill="#081832"/>
            <path id="Trazado_2225" data-name="Trazado 2225" d="M1684.642,2096.868a1.256,1.256,0,0,0,.835.478c2.714.1,2.784.765,2.784.765h-3.619Z" transform="translate(-1682.718 -2028.05)" fill="#081832"/>
          </g>
        </g>
        <path id="Trazado_2226" data-name="Trazado 2226" d="M1637.074,1918.122l11.25-15.285s6.972.089,9.3-.135a57.392,57.392,0,0,0,13.554-3.461l-7.224,16.03a17.767,17.767,0,0,1-8.111,3.1c-1.865.229-6.053-.886-9.244-.949A51.924,51.924,0,0,0,1637.074,1918.122Z" transform="translate(-1636.191 -1881.443)" fill="#c4d1e1"/>
        <path id="Trazado_2227" data-name="Trazado 2227" d="M1633.84,1914.289l8.45-16.862s7.093,0,9.519-.243c6.8-.682,15.135-4.9,15.135-4.9l-6.678,18.188s-13.306,3.052-16.546,3.031A59.93,59.93,0,0,0,1633.84,1914.289Z" transform="translate(-1633.84 -1876.383)" fill="#e4eef3"/>
        <path id="Trazado_2228" data-name="Trazado 2228" d="M1678.947,1885.633l-4.972,7.622-.67.092.192.643-3.6-.276-.8-3.122,6.98-10.286a7.361,7.361,0,0,1,5.737-1.469C1684.4,1879.2,1679.33,1884.99,1678.947,1885.633Z" transform="translate(-1659.473 -1866.549)" fill="#c6d6db"/>
        <path id="Trazado_2229" data-name="Trazado 2229" d="M1675.343,1932.086l3.692,10.26a1.5,1.5,0,0,1-1.27-.17,24.19,24.19,0,0,1-4.238-5.866,28.588,28.588,0,0,1-1.625-4.775Z" transform="translate(-1661.511 -1904.92)" fill="#ffc4ad"/>
        <path id="Trazado_2230" data-name="Trazado 2230" d="M1694.053,1967.449l2.8,1.039.269-2.038-.584.225-.7-.561-1.066.965Z" transform="translate(-1677.615 -1930.059)" fill="#ffc4ad"/>
      </g>
      <path id="Trazado_2231" data-name="Trazado 2231" d="M1755.695,1777.21h-15v10.648h2.608v2.826l2.826-2.826h9.562Z" transform="translate(-1711.526 -1699.872)" fill="#194866"/>
      <g id="Grupo_10468" data-name="Grupo 10468" transform="translate(103.894 41.364)">
        <rect id="Rectángulo_2866" data-name="Rectángulo 2866" width="16.376" height="11.629" transform="translate(0 3.086)" fill="#2c7eea"/>
        <rect id="Rectángulo_2867" data-name="Rectángulo 2867" width="11.155" height="0.712" transform="translate(2.611 10.443)" fill="#6ea4ea"/>
        <rect id="Rectángulo_2868" data-name="Rectángulo 2868" width="11.155" height="0.712" transform="translate(2.611 8.545)" fill="#6ea4ea"/>
        <rect id="Rectángulo_2869" data-name="Rectángulo 2869" width="11.155" height="0.711" transform="translate(2.611 6.646)" fill="#6ea4ea"/>
        <path id="Trazado_2232" data-name="Trazado 2232" d="M2041.692,1648.353v5.221h-5.222Z" transform="translate(-2028.163 -1648.353)" fill="#2c7eea"/>
      </g>
      <g id="Grupo_10477" data-name="Grupo 10477" transform="translate(229.389 53.304)">
        <g id="Grupo_10473" data-name="Grupo 10473">
          <path id="Trazado_2233" data-name="Trazado 2233" d="M2473.562,1713.455a2.733,2.733,0,1,1-1.284-3.6A2.7,2.7,0,0,1,2473.562,1713.455Z" transform="translate(-2463.933 -1704.37)" fill="#194866"/>
          <path id="Trazado_2234" data-name="Trazado 2234" d="M2474.967,1723.237a3.451,3.451,0,1,1-1.622-4.547A3.415,3.415,0,0,1,2474.967,1723.237Z" transform="translate(-2463.965 -1710.739)" fill="#194866"/>
          <g id="Grupo_10471" data-name="Grupo 10471" transform="translate(7.106 7.669)">
            <g id="Grupo_10470" data-name="Grupo 10470" transform="translate(0 7.796)">
              <g id="Grupo_10469" data-name="Grupo 10469" transform="translate(1.022 0.541)">
                <path id="Trazado_2235" data-name="Trazado 2235" d="M2481.852,1749.344s-.1.447,2.056.995a41.7,41.7,0,0,0,5.459.818l-4.858-1.73S2482.621,1748.855,2481.852,1749.344Z" transform="translate(-2481.851 -1749.146)" fill="#dce5ea"/>
                <path id="Trazado_2236" data-name="Trazado 2236" d="M2502.13,1754.917a3.718,3.718,0,0,1,1.666,1.2,7.415,7.415,0,0,1,.693.627c-.1-.5-.427-.606-.551-.795s-.1-.105.268-.029c.21.044.468.511.672.787a.864.864,0,0,0,.313.293,4.665,4.665,0,0,0-.41-.835,5.444,5.444,0,0,0-.824-1,4.183,4.183,0,0,0-1.37-.44C2502.02,1754.647,2501.4,1754.708,2502.13,1754.917Z" transform="translate(-2496.351 -1753.18)" fill="#dce5ea"/>
                <path id="Trazado_2237" data-name="Trazado 2237" d="M2509.491,1756.457a5.781,5.781,0,0,1,.83.563c.074.1.352.631.352.631a1.059,1.059,0,0,1-.4-.338A9.264,9.264,0,0,0,2509.491,1756.457Z" transform="translate(-2501.945 -1754.461)" fill="#dce5ea"/>
              </g>
              <path id="Trazado_2238" data-name="Trazado 2238" d="M2480.335,1747.245s-2-.446-2.206.76a.949.949,0,0,0,.875,1.17c1.131.23,2.429.432,2.429.432l1.084-1.652Z" transform="translate(-2478.108 -1747.164)" fill="#aebddc"/>
            </g>
            <path id="Trazado_2239" data-name="Trazado 2239" d="M2480.468,1725.49l-.559-5.477s.04-1.434-.476-1.4c-.745.042-.888,1.28-.952,1.724a14.718,14.718,0,0,0-.307,3.54c.009,1.4-.091,2.992,0,3.94.061.653.7-.073,1.36-.135C2480.768,1727.56,2480.468,1725.49,2480.468,1725.49Z" transform="translate(-2478.127 -1718.608)" fill="#aebddc"/>
          </g>
          <path id="Trazado_2240" data-name="Trazado 2240" d="M2530.711,1798.487l1.83,3.967,2.537.057,1.283-.26-2.759-.656-1.479-3.683Z" transform="translate(-2509.244 -1768.592)" fill="#e9d6b8"/>
          <path id="Trazado_2241" data-name="Trazado 2241" d="M2537.005,1813.9l.337-.079.188-.411,2.047.09,1.648-.306a.3.3,0,0,0-.11-.167,7.467,7.467,0,0,0-1.572-.232s.135.356-.011.431a12.34,12.34,0,0,1-2.1-.076c-.652-.093-.99-.257-.96-.17C2536.51,1813.11,2537.005,1813.9,2537.005,1813.9Z" transform="translate(-2513.428 -1779.415)" fill="#161711"/>
          <path id="Trazado_2242" data-name="Trazado 2242" d="M2482.292,1760.64l5.982-.159,4.457,9.755,1.845-.729-4.348-11.738s-.344-.742-2.152-.742c-1.757,0-8.855-.194-9.661.03C2476.5,1757.589,2482.621,1759.019,2482.292,1760.64Z" transform="translate(-2470.956 -1738.812)" fill="#e2b348"/>
          <path id="Trazado_2243" data-name="Trazado 2243" d="M2464.228,1700.726a2.733,2.733,0,1,1-1.284-3.6A2.7,2.7,0,0,1,2464.228,1700.726Z" transform="translate(-2457.147 -1695.115)" fill="#194866"/>
          <path id="Trazado_2244" data-name="Trazado 2244" d="M2477.753,1695.267a2.055,2.055,0,0,1-2.748.947l-.034-1.1a2.054,2.054,0,0,1-.947-2.747l.337-.692a2.054,2.054,0,0,1,2.747-.948l.462.225a2.055,2.055,0,0,1,.947,2.747Z" transform="translate(-2467.882 -1690.517)" fill="#194866"/>
          <path id="Trazado_2245" data-name="Trazado 2245" d="M2475.939,1696.651a4.121,4.121,0,0,1-.3.5,2.724,2.724,0,0,1-2.767,1.371,6.221,6.221,0,0,1-.958,1.3,3.125,3.125,0,0,1-1.163.623,2.221,2.221,0,0,0,1.687,3.186c1.154.137.917-1.08.515-1.839a2.057,2.057,0,0,1-.329-.966,1.251,1.251,0,0,1,.813-1.035,1.68,1.68,0,0,1,1.328.015.237.237,0,0,0,.189.007,1.426,1.426,0,0,0,.246-.357l.742-1.523A1.453,1.453,0,0,0,2475.939,1696.651Z" transform="translate(-2465.484 -1694.976)" fill="#e9d6b8"/>
          <path id="Trazado_2246" data-name="Trazado 2246" d="M2468.309,1731.706s.876.181,1.12.272a4.055,4.055,0,0,0,1.278-.032s.121-4.7.352-6.342.655-2.085.651-2.6a5.642,5.642,0,0,0-.217-1.646c-.144-.636.279-1.483.135-1.321a1.285,1.285,0,0,1-1.911-.232C2469.577,1719.654,2468.309,1731.706,2468.309,1731.706Z" transform="translate(-2463.879 -1711.81)" fill="#194866"/>
          <path id="Trazado_2247" data-name="Trazado 2247" d="M2477.063,1713.68s1.193,1.2,1.145,1.6a29.516,29.516,0,0,1-.2,3.819,26.864,26.864,0,0,0-.539,3.494c-.046,1.289.253,1.577.145,3.16-.085,1.24-.279,2.333-.279,2.333a1.032,1.032,0,0,1-.988-.3c-.425-.461-.272-4.773-.115-5.834s.78-3.847.743-4.586a15.212,15.212,0,0,0-.407-2.738C2476.24,1714.045,2476.969,1713.74,2477.063,1713.68Z" transform="translate(-2469.521 -1707.356)" fill="#cfd9e8"/>
          <path id="Trazado_2248" data-name="Trazado 2248" d="M2478.4,1713.271a.627.627,0,0,1-.147.162,2.612,2.612,0,0,0-.35.317s.238-.115.329.091a4.065,4.065,0,0,1,.181.825s.441-.729.336-.96C2478.557,1713.287,2478.4,1713.271,2478.4,1713.271Z" transform="translate(-2470.851 -1707.059)" fill="#aebddc"/>
          <path id="Trazado_2249" data-name="Trazado 2249" d="M2458.888,1714.047a2.854,2.854,0,1,1-1.9-3.515A2.825,2.825,0,0,1,2458.888,1714.047Z" transform="translate(-2452.977 -1704.971)" fill="#194866"/>
          <path id="Trazado_2250" data-name="Trazado 2250" d="M2509.1,1802.462l.089,2.779.566.667,1.508.871,1.119-.2-1.972-1.47-.144-2.916Z" transform="translate(-2493.532 -1771.702)" fill="#e9d6b8"/>
          <path id="Trazado_2251" data-name="Trazado 2251" d="M2509.31,1813.661l.507.362.156-.123,1.4.886s1.274.332,1.52.043c.079-.094-.125-.249-.409-.459a2.363,2.363,0,0,0-.362-.232s-.058.217-.562.3a10.827,10.827,0,0,1-1.5-.8,3.9,3.9,0,0,1-.891-.7C2509.084,1813.043,2509.31,1813.661,2509.31,1813.661Z" transform="translate(-2493.568 -1779.513)" fill="#161711"/>
          <path id="Trazado_2252" data-name="Trazado 2252" d="M2457.131,1749.523l.722,1.706,1.239.152,10.011.637s.9-.277,1.466,1.138c.812,2.014-.25,12.1-.25,12.1l-1.482-.023-.8-9.507s-9.621,1.684-12.392.833c-1.064-.327-1.876-2.2-1.725-4.1a6.5,6.5,0,0,1,1.112-2.854Z" transform="translate(-2453.405 -1733.414)" fill="#f8c44f"/>
          <path id="Trazado_2253" data-name="Trazado 2253" d="M2457.168,1724.838s.465-4.2.729-6.183.206-5.319.266-5.8a6.943,6.943,0,0,1,.311-1.165s-.482-1.084-1.114-1.049a16.95,16.95,0,0,0-3.158.963c-.587.239-.279,6.929-.331,7.281a18.075,18.075,0,0,1-1.219,3.733,14.561,14.561,0,0,0-.57,1.993A15.441,15.441,0,0,1,2457.168,1724.838Z" transform="translate(-2452.081 -1705.149)" fill="#cfd9e8"/>
          <path id="Trazado_2254" data-name="Trazado 2254" d="M2470.4,1709.442l.471.531s.658.909.444.782c-.271-.163-.583.786-.583.786l-.875-1.8Z" transform="translate(-2465.005 -1704.275)" fill="#aebddc"/>
          <g id="Grupo_10472" data-name="Grupo 10472" transform="translate(1.471 14.956)">
            <path id="Trazado_2255" data-name="Trazado 2255" d="M2457.555,1745.707s-.733.519,2.034.8a57.121,57.121,0,0,0,6.9.081l-6.329-1.2A3.908,3.908,0,0,0,2457.555,1745.707Z" transform="translate(-2457.467 -1745.298)" fill="#e9d6b8"/>
            <path id="Trazado_2256" data-name="Trazado 2256" d="M2481.273,1749.142a4.886,4.886,0,0,1,2.287,1.1,9.47,9.47,0,0,1,.975.6c-.221-.547-.643-.618-.833-.811s-.146-.1.326-.073c.268.017.676.5.98.784a1.1,1.1,0,0,0,.444.282,5.458,5.458,0,0,0-.666-.877,6.81,6.81,0,0,0-1.208-1,5.676,5.676,0,0,0-1.775-.285C2481.085,1748.853,2480.328,1749.017,2481.273,1749.142Z" transform="translate(-2474.452 -1747.888)" fill="#e9d6b8"/>
            <path id="Trazado_2257" data-name="Trazado 2257" d="M2490.621,1749.957a7.692,7.692,0,0,1,1.132.507c.111.1.557.657.557.657a1.4,1.4,0,0,1-.56-.319A11.709,11.709,0,0,0,2490.621,1749.957Z" transform="translate(-2481.57 -1748.685)" fill="#ebecee"/>
          </g>
          <path id="Trazado_2258" data-name="Trazado 2258" d="M2457.874,1722.191l.9-6.1a4.686,4.686,0,0,0-.612-1.686,1.639,1.639,0,0,0-1.342-.358s-1.03.844-1.1,5.67c-.05,3.3-.353,4.66,1.069,4.8,1.329.135,2.845.217,2.845.217l1.008-1.993Z" transform="translate(-2454.678 -1707.612)" fill="#aebddc"/>
        </g>
        <g id="Grupo_10476" data-name="Grupo 10476" transform="translate(9.897 12.944)">
          <path id="Trazado_2259" data-name="Trazado 2259" d="M2488.338,1755.6l0-.007,0-.223h9.231v.223s0,0,0,.007l-.024.041a.605.605,0,0,1-.575.228h-8.034a.6.6,0,0,1-.575-.228Z" transform="translate(-2488.334 -1750.607)" fill="#ccd9e9"/>
          <path id="Trazado_2260" data-name="Trazado 2260" d="M2490.8,1755.87a.009.009,0,0,1,0,.006l-.022.033a.375.375,0,0,1-.135.114h-1.4a.639.639,0,0,1-.553-.185l-.022-.033,0-.006,0-.109h2.139Z" transform="translate(-2488.568 -1750.841)" fill="#f1f0f6"/>
          <g id="Grupo_10474" data-name="Grupo 10474" transform="translate(3.475 4.812)">
            <rect id="Rectángulo_2870" data-name="Rectángulo 2870" width="4.613" height="0.158" fill="#aebddc"/>
          </g>
          <g id="Grupo_10475" data-name="Grupo 10475" transform="translate(2.28)">
            <path id="Trazado_2261" data-name="Trazado 2261" d="M2496.685,1742.682l1.2-4.536a.3.3,0,0,1,.274-.217h6.476a.162.162,0,0,1,.159.217l-1.2,4.536Z" transform="translate(-2496.685 -1737.929)" fill="#aebddc"/>
            <path id="Trazado_2262" data-name="Trazado 2262" d="M2510.061,1745.518a.313.313,0,0,0,.309.419.584.584,0,0,0,.53-.419.312.312,0,0,0-.309-.419A.585.585,0,0,0,2510.061,1745.518Z" transform="translate(-2506.399 -1743.141)" fill="#ccd9e9"/>
          </g>
        </g>
      </g>
      <g id="Grupo_10485" data-name="Grupo 10485" transform="translate(152.103 76.137)">
        <g id="Grupo_10483" data-name="Grupo 10483">
          <g id="Grupo_10478" data-name="Grupo 10478" transform="translate(0 104.785)">
            <path id="Trazado_2263" data-name="Trazado 2263" d="M2177.811,2151.383l.363-2.818,4.985.644-.363,2.816a.545.545,0,0,1-.614.467l-3.9-.5A.541.541,0,0,1,2177.811,2151.383Z" transform="translate(-2177.806 -2148.565)" fill="#ff876c"/>
            <path id="Trazado_2264" data-name="Trazado 2264" d="M2180.326,2151.656l.357-2.764,2.116.274-.356,2.761a.27.27,0,0,1-.3.232l-1.577-.207A.266.266,0,0,1,2180.326,2151.656Z" transform="translate(-2179.636 -2148.803)" fill="#ffa38f"/>
            <path id="Trazado_2265" data-name="Trazado 2265" d="M2191.993,2150.372l1.167.151-.363,2.816a.544.544,0,0,1-.614.467l-.62-.08Z" transform="translate(-2187.807 -2149.879)" fill="#e36e54"/>
          </g>
          <path id="Trazado_2266" data-name="Trazado 2266" d="M2183.412,1887.064l11.456-85.083a1.368,1.368,0,0,1,1.022,1.284l-11.31,83.951Z" transform="translate(-2181.881 -1791.817)" fill="#2c7eea"/>
          <path id="Trazado_2267" data-name="Trazado 2267" d="M2190.468,1888.372l-2.777-.358,11.31-83.951h0a.015.015,0,0,1,0-.01v.012a1.418,1.418,0,0,1,2.766.353s0-.008.005-.013a.016.016,0,0,0,0,.011v0Z" transform="translate(-2184.992 -1792.616)" fill="#4e99ff"/>
          <path id="Trazado_2268" data-name="Trazado 2268" d="M2209.173,1805.371a1.367,1.367,0,0,1,1.313-.983l-11.456,85.088-1.166-.152Z" transform="translate(-2192.388 -1793.567)" fill="#2c7eea"/>
          <path id="Trazado_2269" data-name="Trazado 2269" d="M2230.481,1775.574a1.372,1.372,0,0,0-1.317.983h0a.031.031,0,0,1,0-.015s0,.011-.005.012a1.418,1.418,0,0,0-2.766-.353v-.014a.024.024,0,0,0,0,.012h0a1.363,1.363,0,0,0-1.025-1.284l3.914-10.164Z" transform="translate(-2212.379 -1764.753)" fill="#e5e8ec"/>
          <path id="Trazado_2270" data-name="Trazado 2270" d="M2240.59,1775.574a1.372,1.372,0,0,0-1.317.983h0a.031.031,0,0,1,0-.015s0,.011-.005.012c0-.655.118-11.8.118-11.8Z" transform="translate(-2222.488 -1764.753)" fill="#cdd5d7"/>
          <g id="Grupo_10479" data-name="Grupo 10479" transform="translate(0.314 95.25)">
            <rect id="Rectángulo_2871" data-name="Rectángulo 2871" width="9.708" height="5.099" transform="translate(0 9.629) rotate(-82.641)" fill="#f0ca67"/>
          </g>
          <g id="Grupo_10480" data-name="Grupo 10480" transform="translate(1.994 95.466)">
            <path id="Trazado_2271" data-name="Trazado 2271" d="M2186.346,2114.433l1.036.133-1.241,9.629-1.031-.135Z" transform="translate(-2185.109 -2114.433)" fill="#f4da80"/>
          </g>
          <path id="Trazado_2272" data-name="Trazado 2272" d="M2236.933,1768.015a5.79,5.79,0,0,1-.732-.035,5.049,5.049,0,0,1-.8-.177l1.174-3.05Z" transform="translate(-2219.675 -1764.753)" fill="#30363d"/>
          <g id="Grupo_10481" data-name="Grupo 10481" transform="translate(1.378 96.273)">
            <rect id="Rectángulo_2872" data-name="Rectángulo 2872" width="1.399" height="0.33" transform="matrix(0.128, -0.992, 0.992, 0.128, 0, 1.388)" fill="#f4da80"/>
            <path id="Trazado_2273" data-name="Trazado 2273" d="M2185.9,2119.168l.178-1.385-.324-.042-.18,1.388Z" transform="translate(-2184.833 -2117.645)" fill="#f4da80"/>
            <path id="Trazado_2274" data-name="Trazado 2274" d="M2188.63,2119.522l.177-1.385-.325-.043-.179,1.387Z" transform="translate(-2186.815 -2117.901)" fill="#f0ca67"/>
            <path id="Trazado_2275" data-name="Trazado 2275" d="M2191.351,2119.875l.18-1.387-.326-.041-.18,1.388Z" transform="translate(-2188.793 -2118.157)" fill="#f0ca67"/>
            <path id="Trazado_2276" data-name="Trazado 2276" d="M2194.072,2120.226l.18-1.387-.324-.041-.18,1.387Z" transform="translate(-2190.773 -2118.414)" fill="#f4da80"/>
            <rect id="Rectángulo_2873" data-name="Rectángulo 2873" width="1.399" height="0.329" transform="translate(3.718 1.868) rotate(-82.615)" fill="#f4da80"/>
            <path id="Trazado_2277" data-name="Trazado 2277" d="M2199.526,2120.93l.179-1.386-.325-.041-.178,1.388Z" transform="translate(-2194.738 -2118.926)" fill="#f4da80"/>
          </g>
          <g id="Grupo_10482" data-name="Grupo 10482" transform="translate(0.62 102.178)">
            <path id="Trazado_2278" data-name="Trazado 2278" d="M2180.4,2140.442l.178-1.386-.324-.041-.177,1.388Z" transform="translate(-2180.077 -2139.015)" fill="#f4da80"/>
            <path id="Trazado_2279" data-name="Trazado 2279" d="M2183.114,2140.8l.179-1.387-.326-.042-.179,1.384Z" transform="translate(-2182.048 -2139.272)" fill="#f4da80"/>
            <rect id="Rectángulo_2874" data-name="Rectángulo 2874" width="1.4" height="0.33" transform="matrix(0.128, -0.992, 0.992, 0.128, 1.485, 1.578)" fill="#f0ca67"/>
            <path id="Trazado_2280" data-name="Trazado 2280" d="M2188.566,2141.5l.177-1.389-.324-.041-.179,1.389Z" transform="translate(-2186.011 -2139.783)" fill="#f0ca67"/>
            <path id="Trazado_2281" data-name="Trazado 2281" d="M2191.29,2141.848l.179-1.389-.324-.042-.179,1.389Z" transform="translate(-2187.993 -2140.034)" fill="#f4da80"/>
            <path id="Trazado_2282" data-name="Trazado 2282" d="M2194.014,2142.2l.181-1.387-.326-.041-.18,1.384Z" transform="translate(-2189.972 -2140.295)" fill="#f4da80"/>
            <rect id="Rectángulo_2875" data-name="Rectángulo 2875" width="1.398" height="0.325" transform="translate(4.461 1.962) rotate(-82.658)" fill="#f4da80"/>
          </g>
        </g>
        <g id="Grupo_10484" data-name="Grupo 10484" transform="translate(9.983 37.365)">
          <path id="Trazado_2283" data-name="Trazado 2283" d="M2264.116,1926.216c-1.16.526-.188.578-.116.664.439.516,5.18-.238,5.469-.923.045-.117-2.188-.4-2.2-.487a7.018,7.018,0,0,1,.033-2.929.166.166,0,0,0-.15-.15c-.417.017-.835.03-1.253.049-.067,0-.882.2-.694.59C2265.311,1924.1,2265.341,1925.658,2264.116,1926.216Z" transform="translate(-2250.124 -1916.719)" fill="#e9d6b8"/>
          <path id="Trazado_2284" data-name="Trazado 2284" d="M2265.295,1912.34l-.079-.108a.3.3,0,0,0-.022-.035c-.033-.048-.063-.1-.095-.146a.316.316,0,0,0-.023-.04c-.021-.037-.042-.075-.065-.114-.011-.021-.023-.042-.035-.065s-.034-.066-.053-.1-.023-.045-.035-.07c-.022-.044-.045-.087-.064-.133s-.033-.068-.048-.1-.028-.065-.04-.1-.028-.065-.04-.1-.023-.057-.035-.085a.619.619,0,0,0-.026-.067v0a11.415,11.415,0,0,1-.264-3.327.287.287,0,0,1,.274-.244c.968-.081,3.821-.806,3.617,2.1v0c0,.007,0,.253,0,.365,0,.01,0,.019,0,.029,0,.114-.007.227-.012.338a.167.167,0,0,1,0,.018c-.008.115-.017.226-.029.333a.035.035,0,0,1,0,.012c-.159,1.378-.713,2.383-1.488,2.481a1.525,1.525,0,0,1-1.312-.683h0a.042.042,0,0,1-.01-.011c-.03-.036-.06-.074-.088-.114C2265.312,1912.365,2265.3,1912.352,2265.295,1912.34Z" transform="translate(-2250.695 -1905.798)" fill="#e9d6b8"/>
          <path id="Trazado_2285" data-name="Trazado 2285" d="M2265.813,1905a3.227,3.227,0,0,1,1.084-.524c.037-.313-.172-.418-.437-.651a1.6,1.6,0,0,0-1.984.048,1.062,1.062,0,0,0-.13,1.669,1.51,1.51,0,0,0,1.394.258A.667.667,0,0,1,2265.813,1905Z" transform="translate(-2250.45 -1902.989)" fill="#f80"/>
          <path id="Trazado_2286" data-name="Trazado 2286" d="M2215.633,1944.311s-.155.168-.292.057a3.2,3.2,0,0,1-.581-.9c-.1-.212-.387-1.289-.387-1.289a1.313,1.313,0,0,1,.458.671A5.611,5.611,0,0,0,2215.633,1944.311Z" transform="translate(-2214.373 -1931.105)" fill="#e2c59c"/>
          <path id="Trazado_2287" data-name="Trazado 2287" d="M2216.969,1943.817a1.628,1.628,0,0,1-.374-1.346.957.957,0,0,0-.251-.788,6.791,6.791,0,0,0-.009,1.229,2.056,2.056,0,0,0,.143.731C2216.78,1944.311,2217.777,1944.537,2216.969,1943.817Z" transform="translate(-2215.786 -1930.745)" fill="#e2c59c"/>
          <path id="Trazado_2288" data-name="Trazado 2288" d="M2254.28,2158.989a9.007,9.007,0,0,1,1.663-.34c.711-.1,1.247-.069,1.514-.321.438-.418.237-1.809.443-1.751.985.275,1.247,2.665.65,2.928a19.189,19.189,0,0,1-4.149-.031C2254.132,2159.438,2254.2,2158.923,2254.28,2158.989Z" transform="translate(-2243.333 -2086.968)" fill="#e9d6b8"/>
          <path id="Trazado_2289" data-name="Trazado 2289" d="M2277.968,2071.923c-.053-.6-.112-1.2-.173-1.781-.358-.9-.707-1.4-1.028-1.393-1.213.035-2.927,4.512-.75,16.239.109.59,1.208,10.667,1.279,10.441C2278.178,2092.608,2278.765,2080.857,2277.968,2071.923Z" transform="translate(-2258.428 -2023.119)" fill="#e9d6b8"/>
          <path id="Trazado_2290" data-name="Trazado 2290" d="M2274.227,2006.854c-.944-.2-.98.346-1.7,1.694a20.241,20.241,0,0,0-1.935,10.849,33.315,33.315,0,0,0,3.03,12.15,32.756,32.756,0,0,0,2.086-8.15C2277.236,2013.8,2277.131,2007.47,2274.227,2006.854Z" transform="translate(-2255.186 -1978.093)" fill="#e9d6b8"/>
          <path id="Trazado_2291" data-name="Trazado 2291" d="M2272.786,2046.534a14,14,0,0,1,3.722-.25c-.154,1.622-.383,3.4-.681,5.312-1.346-1.587-4.132-.885-4.789-.158-.171-1.083-.306-2.208-.4-3.368-.029-.336-.047-.667-.06-1C2271.288,2046.867,2272.026,2046.685,2272.786,2046.534Z" transform="translate(-2255.233 -2006.765)" fill="#e2c59c"/>
          <path id="Trazado_2292" data-name="Trazado 2292" d="M2298.505,1960.637c-1.473,1.221-3.033,7.035-3.033,7.035s.055,2.336,3.543-4.868C2300.064,1960.64,2298.869,1960.335,2298.505,1960.637Z" transform="translate(-2273.332 -1944.452)" fill="#e9d6b8"/>
          <path id="Trazado_2293" data-name="Trazado 2293" d="M2251.351,1954.05c-1.149,1.656-.581,7.649-.581,7.649s.985,2.178,2-5.788C2253.077,1953.521,2251.635,1953.643,2251.351,1954.05Z" transform="translate(-2240.731 -1939.567)" fill="#e9d6b8"/>
          <path id="Trazado_2294" data-name="Trazado 2294" d="M2233.885,1964.057c-.894-2.159-7.088-6.294-7.088-6.294s-2.734-.895,4.386,5.983C2233.322,1965.812,2234.1,1964.592,2233.885,1964.057Z" transform="translate(-2223.03 -1942.406)" fill="#e9d6b8"/>
          <path id="Trazado_2295" data-name="Trazado 2295" d="M2217.768,1946.467l-.124.17.158.71a8.157,8.157,0,0,0,1.213,1.345,25.722,25.722,0,0,1,1.773,2.095c.191.157,1.259-.29,1.259-.29s-1.559-1.371-2.131-1.968a18.285,18.285,0,0,1-1.308-1.968c-.368-.415-.531-.644-.531-.644s-.194.228.346.908c.142.18-.136.244-.136.244Z" transform="translate(-2216.751 -1933.823)" fill="#e9d6b8"/>
          <path id="Trazado_2296" data-name="Trazado 2296" d="M2252.516,2013.911c.711-.175.738.337,1.285,1.606a23.131,23.131,0,0,1,1.49,10.161,36.824,36.824,0,0,1-2.247,11.313,37.348,37.348,0,0,1-1.594-7.641C2250.271,2020.362,2250.333,2014.447,2252.516,2013.911Z" transform="translate(-2240.772 -1983.229)" fill="#e9d6b8"/>
          <path id="Trazado_2297" data-name="Trazado 2297" d="M2257.508,2041.655c-.059-1.579-.081-3.007-.068-4.276.245-.273.369-.109.776.053a4.1,4.1,0,0,1,2.054,2.488c.005.889-.015,1.8-.069,2.738-.06,1.03-.136,2.031-.225,3a12.66,12.66,0,0,1-.895-1.212A19.055,19.055,0,0,1,2257.508,2041.655Z" transform="translate(-2245.679 -2000.208)" fill="#e2c59c"/>
          <path id="Trazado_2298" data-name="Trazado 2298" d="M2257.228,2071.649c.477-.217,1.3.413,1.828,1.612,1.043,2.347,1.256,5.509,1.274,9.406.022,4.123-.118,7.187-.3,9.719-.176,2.5.713,6.045-1.159,5.622a32.591,32.591,0,0,0-.823-11.278C2255.035,2077.439,2255.763,2072.314,2257.228,2071.649Z" transform="translate(-2244.605 -2025.197)" fill="#e9d6b8"/>
          <path id="Trazado_2299" data-name="Trazado 2299" d="M2258.43,1943.086l7.325-.179.765-8.393-9.144.982Z" transform="translate(-2245.635 -1925.532)" fill="#194866"/>
          <path id="Trazado_2300" data-name="Trazado 2300" d="M2259.821,1990.048l-12.452-1.626c-2.245-7.56-.286-16.034,3.072-23.517l7.384-.252C2260.335,1972.684,2262.613,1981.94,2259.821,1990.048Z" transform="translate(-2237.662 -1947.444)" fill="#194866"/>
          <path id="Trazado_2301" data-name="Trazado 2301" d="M2290.79,1942.848l-4.886-7.568a1.171,1.171,0,0,1,.444-.53l.138-.092a1.165,1.165,0,0,1,1.615.35l4.27,6.611Z" transform="translate(-2266.375 -1925.501)" fill="#194866"/>
          <path id="Trazado_2302" data-name="Trazado 2302" d="M2251.82,1947.226l1.234-8.925a1.158,1.158,0,0,0-.628-.292l-.165-.024a1.166,1.166,0,0,0-1.314,1l-1.078,7.8Z" transform="translate(-2240.179 -1928.048)" fill="#194866"/>
          <path id="Trazado_2303" data-name="Trazado 2303" d="M2294.079,1987.472a.251.251,0,0,0,.307.177l.32-.084a.252.252,0,0,0,.18-.306l-.379-1.45a.252.252,0,0,0-.305-.179l-.323.085a.254.254,0,0,0-.18.305Z" transform="translate(-2272.036 -1962.687)" fill="#e9d6b8"/>
          <path id="Trazado_2304" data-name="Trazado 2304" d="M2282.294,2161.414c.519,1.663,1.3,2.9,1.735,2.763s.376-1.6-.143-3.259-1.295-2.9-1.735-2.76S2281.777,2159.752,2282.294,2161.414Z" transform="translate(-2263.436 -2088.111)" fill="#f8c44f"/>
          <path id="Trazado_2305" data-name="Trazado 2305" d="M2269.5,2161.063a.041.041,0,0,1-.043.04l-.083,0a.042.042,0,0,1-.039-.044h0a.042.042,0,0,1,.043-.039l.084,0a.038.038,0,0,1,.039.042Z" transform="translate(-2254.33 -2090.197)" fill="#e9d6b8"/>
          <path id="Trazado_2306" data-name="Trazado 2306" d="M2250.837,2164.757c-.223.777,2.205.576,2.839.4a7.463,7.463,0,0,1,.99-.211c.025,0,.049,0,.074,0,0,.019.008.038.008.057-.022.432.14,1.014-.548.982l-4.328-.208C2246.335,2165.609,2250.844,2164.738,2250.837,2164.757Z" transform="translate(-2239.196 -2092.917)" fill="#f8c44f"/>
          <path id="Trazado_2307" data-name="Trazado 2307" d="M2217.956,1945.237a2.163,2.163,0,0,1-.452-.849c-.019-.233.08-1.344.08-1.344a1.3,1.3,0,0,1,.2.786A4.431,4.431,0,0,0,2217.956,1945.237Z" transform="translate(-2216.647 -1931.733)" fill="#e9d6b8"/>
          <path id="Trazado_2308" data-name="Trazado 2308" d="M2219.5,1949.565s.188-.031.223-.108a1.38,1.38,0,0,1,.051.168c.03.108.369.779.369.779a6.1,6.1,0,0,0-.463-.544,2.977,2.977,0,0,1-.325-.411c-.014-.02-.019-.06-.039-.1Z" transform="translate(-2217.969 -1936.318)" fill="#e2c59c"/>
          <path id="Trazado_2309" data-name="Trazado 2309" d="M2219.483,1947.039c-.365-.458-.4-.711-.377-.828.086.109.224.281.432.514a3.918,3.918,0,0,1,.325.516,1.009,1.009,0,0,0-.038.612c.016.083-.308-.315-.442-.581C2219.453,1947.246,2219.589,1947.177,2219.483,1947.039Z" transform="translate(-2217.811 -1934.036)" fill="#e2c59c"/>
          <path id="Trazado_2310" data-name="Trazado 2310" d="M2256.667,1906.53l.488-3.846a2.929,2.929,0,0,1,2.5-1.051c1.774.226,2.971,2.325,2.67,4.692s-1.979,4.1-3.752,3.881a3.269,3.269,0,0,1-2.559-2.676A1.394,1.394,0,0,0,2256.667,1906.53Z" transform="translate(-2244.648 -1901.615)" fill="#f8c44f"/>
          <path id="Trazado_2311" data-name="Trazado 2311" d="M2268.8,1909.945c.079.612-.558,1.2-1.419,1.309l-1.967.252c-.864.11-1.626-.3-1.7-.908l-.717-5.58c-.078-.612.557-1.2,1.42-1.309l1.967-.251c.865-.112,1.626.292,1.7.9Z" transform="translate(-2249.716 -1902.941)" fill="#f8c44f"/>
        </g>
      </g>
    </g>
  </g>
</svg>
