<svg id="Grupo_10103" data-name="Grupo 10103" xmlns="http://www.w3.org/2000/svg" width="86.932" height="87.777" viewBox="0 0 86.932 87.777">
  <path id="Trazado_1764" data-name="Trazado 1764" d="M2285.17,1118.84c-4.157,4.886-9.117,9.773-14.881,8.971-1.6,2.48-3.282,4.887-5.762,9.045l-4.157,1.6c3.355-8.17,9.117-16.34,14.879-22.905a47.086,47.086,0,0,0-9.921,8.973c-3.282-6.493,0-13.058,4.96-17.143-.8,2.408.8,4.085.8,4.888a32.143,32.143,0,0,1,1.677-7.367,30.129,30.129,0,0,1,8.244-5.69,5.256,5.256,0,0,0,0,4.887c0-1.6,1.677-4.887,2.478-5.762a23.248,23.248,0,0,1,13.2-4.085,21.4,21.4,0,0,1-4.158,11.452,9.09,9.09,0,0,1-6.565,2.48,10.782,10.782,0,0,0,4.96.8c-.8,2.48-2.48,4.085-4.157,7.368a25,25,0,0,1-7.367,1.677C2281.013,1118.84,2283.491,1119.642,2285.17,1118.84Zm-8.242,29.469-33.044,21.227c-5.762,3.282-11.526,1.677-15.682-2.48-5.762-4.886-4.085-14.661,2.48-18.746l3.356,4.887c-5.836,3.283-3.356,11.453,3.282,11.453,4.96,0,8.244-5.764,4.96-9.848,0,0-20.643-26.187-26.4-32.678a13.005,13.005,0,0,1,4.085-19.622l29.687-14.735c4.96-2.48,11.6,0,14.881,4.888s1.677,11.452-3.282,15.537l-28.887,16.34-4.157-4.888c5.836-3.282,4.157-12.255-2.408-12.255-4.959,0-9.117,5.69-4.959,10.65,4.959,6.493,25.53,32.678,25.53,32.678a9.921,9.921,0,0,1,3.282,7.368s20.643-12.255,23.926-14.735c3.355-1.6,3.355-5.69,1.677-8.972l-1.677-1.678a15.911,15.911,0,0,0,5.836-1.6C2285.17,1136.857,2282.69,1145.027,2276.928,1148.309Zm-44.569-45.005a13.831,13.831,0,0,1,5.764,10.648l18.964-10.648c3.284-1.679,3.284-4.96,2.48-7.368a6.682,6.682,0,0,0-7.441-2.48Zm21.446,36.763c.8-1.6,2.48-4.888,4.157-8.17l-13.2,8.17,2.48,3.282Zm-14.881-8.17,2.48,4.085,18.966-11.452-3.284-3.283Z" transform="translate(-2209.764 -1083.512)" fill="#454546" fill-rule="evenodd" opacity="0.25"/>
  <path id="Trazado_1765" data-name="Trazado 1765" d="M2283.17,1116.84c-4.157,4.886-9.117,9.773-14.881,8.971-1.6,2.48-3.282,4.887-5.762,9.046l-4.157,1.6c3.355-8.17,9.117-16.34,14.879-22.905a47.074,47.074,0,0,0-9.921,8.973c-3.282-6.493,0-13.058,4.96-17.143-.8,2.408.8,4.085.8,4.888a32.166,32.166,0,0,1,1.677-7.367,30.143,30.143,0,0,1,8.244-5.69,5.256,5.256,0,0,0,0,4.887c0-1.6,1.677-4.887,2.479-5.762a23.247,23.247,0,0,1,13.2-4.085,21.4,21.4,0,0,1-4.158,11.452,9.091,9.091,0,0,1-6.565,2.48,10.783,10.783,0,0,0,4.96.8c-.8,2.48-2.48,4.085-4.157,7.368a24.988,24.988,0,0,1-7.367,1.677C2279.013,1116.84,2281.492,1117.642,2283.17,1116.84Zm-8.242,29.469-33.044,21.226c-5.762,3.282-11.525,1.677-15.682-2.48-5.762-4.886-4.085-14.661,2.48-18.746l3.355,4.887c-5.835,3.283-3.355,11.453,3.282,11.453,4.96,0,8.244-5.763,4.96-9.848,0,0-20.643-26.187-26.4-32.678a13.005,13.005,0,0,1,4.085-19.622l29.687-14.735c4.96-2.48,11.6,0,14.881,4.888s1.677,11.452-3.282,15.537l-28.887,16.34-4.157-4.888c5.835-3.282,4.157-12.255-2.408-12.255-4.959,0-9.118,5.69-4.959,10.65,4.959,6.493,25.53,32.678,25.53,32.678a9.92,9.92,0,0,1,3.282,7.368s20.643-12.255,23.926-14.735c3.355-1.6,3.355-5.69,1.677-8.972l-1.677-1.678a15.909,15.909,0,0,0,5.836-1.6C2283.17,1134.857,2280.69,1143.027,2274.928,1146.309Zm-44.569-45.005a13.831,13.831,0,0,1,5.764,10.648l18.964-10.648c3.284-1.679,3.284-4.96,2.48-7.368a6.682,6.682,0,0,0-7.441-2.48Zm21.446,36.763c.8-1.6,2.48-4.888,4.157-8.17l-13.2,8.17,2.48,3.282Zm-14.881-8.17,2.48,4.085,18.966-11.452-3.284-3.283Z" transform="translate(-2211.043 -1084.791)" fill="#fff" fill-rule="evenodd"/>
</svg>
