<svg xmlns="http://www.w3.org/2000/svg" xmlns:xlink="http://www.w3.org/1999/xlink" width="290" height="227.504" viewBox="0 0 290 227.504">
  <defs>
    <linearGradient id="linear-gradient" x1="0.69" y1="1.012" x2="0.236" y2="0.094" gradientUnits="objectBoundingBox">
      <stop offset="0" stop-color="#9bc6f5"/>
      <stop offset="1" stop-color="#4d59be"/>
    </linearGradient>
    <linearGradient id="linear-gradient-2" x1="0.043" y1="0.772" x2="0.885" y2="0.113" xlink:href="#linear-gradient"/>
    <linearGradient id="linear-gradient-3" y1="0.5" x2="1" y2="0.5" gradientUnits="objectBoundingBox">
      <stop offset="0" stop-color="#e79d5a"/>
      <stop offset="1" stop-color="#f2d05f"/>
    </linearGradient>
    <linearGradient id="linear-gradient-5" x1="0.005" y1="-0.167" x2="1.148" y2="1.374" xlink:href="#linear-gradient-3"/>
    <linearGradient id="linear-gradient-6" x1="0.5" y1="-0.219" x2="0.5" y2="0.109" gradientUnits="objectBoundingBox">
      <stop offset="0" stop-color="#e0e8ee"/>
      <stop offset="1" stop-color="#fcf8f4"/>
    </linearGradient>
    <linearGradient id="linear-gradient-8" x1="0.88" y1="0.926" x2="-0.477" y2="-1.217" xlink:href="#linear-gradient-3"/>
  </defs>
  <g id="Grupo_10240" data-name="Grupo 10240" transform="translate(-3557.431 -2351.61)">
    <path id="Trazado_1772" data-name="Trazado 1772" d="M3672.008,2370.209c-65.973-18.53-92.545,83.2-104.106,107.207s-30.576,73.9,52.021,82.14,136.98-3.651,155.694-44.431C3814.614,2430.151,3726.582,2385.538,3672.008,2370.209Z" transform="translate(0 -10.48)" fill="url(#linear-gradient)"/>
    <path id="Trazado_1773" data-name="Trazado 1773" d="M3853.376,2485.283c-80.867-7.151-101.914-46.909-145.157-41.274-57.447,7.486-56.324,89.589-56.406,89.605-1.1,102.83,82.021,114.74,173.116,82.841C3909.619,2586.8,3946.2,2493.491,3853.376,2485.283Z" transform="translate(-60.465 -58.852)" fill="url(#linear-gradient-2)"/>
    <g id="Grupo_10239" data-name="Grupo 10239" transform="translate(3587.574 2351.61)">
      <g id="Grupo_10107" data-name="Grupo 10107" transform="translate(131.14 2.53)">
        <path id="Trazado_1774" data-name="Trazado 1774" d="M4021.183,2379.051l-4.973-2.872v1.893h-7.394v1.956h7.394v1.893Z" transform="translate(-4008.816 -2369.882)" fill="#f1cc5e"/>
        <path id="Trazado_1775" data-name="Trazado 1775" d="M4008.816,2361.522l4.973,2.872V2362.5h7.394v-1.956h-7.394v-1.893Z" transform="translate(-4008.816 -2358.651)" fill="#f1cc5e"/>
      </g>
      <g id="Grupo_10112" data-name="Grupo 10112" transform="translate(108.334 7.06)">
        <g id="Grupo_10108" data-name="Grupo 10108">
          <path id="Trazado_1776" data-name="Trazado 1776" d="M3950.119,2386.674a2.778,2.778,0,0,1-1.6-.645,2.081,2.081,0,0,1-.762-1.589,12.64,12.64,0,0,0-.756-3.241,5.577,5.577,0,1,1,6.684.2,12,12,0,0,0-.743,3.079,2.438,2.438,0,0,1-2.608,2.208C3950.261,2386.682,3950.189,2386.68,3950.119,2386.674Zm.74-14.943a5.12,5.12,0,0,0-3.529,9.149l.051.04.022.061a13.1,13.1,0,0,1,.805,3.436v.017a1.631,1.631,0,0,0,.6,1.249,2.348,2.348,0,0,0,1.521.543,1.984,1.984,0,0,0,2.148-1.763v-.017a12.54,12.54,0,0,1,.795-3.276l.026-.068.059-.041a5.12,5.12,0,0,0-2.5-9.33Z" transform="translate(-3944.895 -2371.26)" fill="#f1cc5e"/>
        </g>
        <g id="Grupo_10109" data-name="Grupo 10109" transform="translate(3.461 7.426)">
          <path id="Trazado_1777" data-name="Trazado 1777" d="M3955.258,2398.015l-.73-6.077,1.267,1.048.786-.872.679.818,1.184-1-.719,6.087-.454-.054.584-4.936-.651.552-.637-.767-.725.8-.725-.6.594,4.944Z" transform="translate(-3954.528 -2391.929)" fill="#f1cc5e"/>
        </g>
        <g id="Grupo_10110" data-name="Grupo 10110" transform="translate(3.448 14.853)">
          <rect id="Rectángulo_2773" data-name="Rectángulo 2773" width="3.955" height="1.594" transform="matrix(1, 0.007, -0.007, 1, 0.011, 0)" fill="#f1cc5e"/>
        </g>
        <g id="Grupo_10111" data-name="Grupo 10111" transform="translate(2.816 13.221)">
          <rect id="Rectángulo_2774" data-name="Rectángulo 2774" width="5.228" height="2.566" transform="translate(0.017 0) rotate(0.386)" fill="#f1cc5e"/>
        </g>
      </g>
      <g id="Grupo_10113" data-name="Grupo 10113" transform="translate(85.354)">
        <path id="Trazado_1778" data-name="Trazado 1778" d="M3888.932,2356.223a1.919,1.919,0,0,0-.217-.415,4.216,4.216,0,0,0-.392-.5,4.562,4.562,0,0,0-.539-.5,4,4,0,0,0-.662-.427l-1.123,2.61.218.154a12.068,12.068,0,0,1,1.072.895,3.79,3.79,0,0,1,.715.891,2.178,2.178,0,0,1,.28.965,2.518,2.518,0,0,1-.234,1.117,2.713,2.713,0,0,1-.731,1.038,2.419,2.419,0,0,1-1,.5,3.24,3.24,0,0,1-1.187.049,5.226,5.226,0,0,1-1.277-.348l-.57,1.324-.656-.282.581-1.349a6.928,6.928,0,0,1-1.573-1.1,5.941,5.941,0,0,1-1.145-1.472l1.165-.934a2.392,2.392,0,0,0,.262.5,5.065,5.065,0,0,0,.471.607,6.263,6.263,0,0,0,.65.624,5.4,5.4,0,0,0,.8.553l1.124-2.61c-.043-.038-.089-.076-.138-.112a1.711,1.711,0,0,1-.139-.112,11.74,11.74,0,0,1-1.007-.874,3.164,3.164,0,0,1-.622-.828,2.016,2.016,0,0,1-.219-.864,2.335,2.335,0,0,1,.218-.975,2.9,2.9,0,0,1,.687-1,2.6,2.6,0,0,1,.96-.565,3.13,3.13,0,0,1,1.147-.148,4.626,4.626,0,0,1,1.26.25l.548-1.273.655.282-.548,1.273a5.289,5.289,0,0,1,1.372.979,5.929,5.929,0,0,1,.935,1.195Zm-4.3-1.464a.994.994,0,0,0,.03.955,3.9,3.9,0,0,0,.928.952l1.069-2.484a1.994,1.994,0,0,0-1.29-.129A1.19,1.19,0,0,0,3884.63,2354.76Zm1.842,5.755a1.017,1.017,0,0,0-.08-1.029,5.169,5.169,0,0,0-1.016-1.042l-1.075,2.5a2.508,2.508,0,0,0,1.372.232A1.037,1.037,0,0,0,3886.472,2360.514Z" transform="translate(-3880.491 -2351.61)" fill="#f1cc5e"/>
      </g>
      <g id="Grupo_10114" data-name="Grupo 10114" transform="translate(60.522 12.225)">
        <path id="Trazado_1779" data-name="Trazado 1779" d="M3822.4,2387.067c-4.392,0-5.714-1.432-5.714-1.432s-1.322,1.432-5.714,1.432a6.621,6.621,0,1,0,11.428,0Zm-5.714,9.251a8.72,8.72,0,0,1-5-8.717c3.843,0,5-1.252,5-1.252s1.157,1.252,5,1.252A8.719,8.719,0,0,1,3816.685,2396.318Z" transform="translate(-3810.922 -2385.635)" fill="#f1cc5e"/>
        <path id="Trazado_1780" data-name="Trazado 1780" d="M3819.21,2390.992v7.547a6.6,6.6,0,0,1-3.784-6.6C3818.334,2391.94,3819.21,2390.992,3819.21,2390.992Z" transform="translate(-3813.787 -2389.067)" fill="#f1cc5e"/>
      </g>
      <g id="Grupo_10116" data-name="Grupo 10116" transform="translate(31 31.837)">
        <g id="Grupo_10115" data-name="Grupo 10115">
          <path id="Trazado_1781" data-name="Trazado 1781" d="M3770.437,2458.513a19.991,19.991,0,0,0-2.14-5.158l2.179-3.276-3.022-3.022-3.021-3.021-3.275,2.178a20.007,20.007,0,0,0-5.158-2.14l-.776-3.853h-8.547l-.775,3.853a19.993,19.993,0,0,0-5.158,2.14l-3.276-2.178-3.021,3.021-3.022,3.022,2.178,3.276a20.006,20.006,0,0,0-2.139,5.158l-3.853.776v8.546l3.853.775a20.007,20.007,0,0,0,2.139,5.158l-2.178,3.276,3.022,3.021,3.021,3.021,3.276-2.178a19.993,19.993,0,0,0,5.158,2.14l.775,3.853h8.547l.776-3.853a20.007,20.007,0,0,0,5.158-2.14l3.275,2.178,3.021-3.021,3.022-3.021-2.179-3.276a19.992,19.992,0,0,0,2.14-5.158l3.853-.775v-8.546Zm-19.487,20.022a14.973,14.973,0,1,1,14.974-14.973A14.973,14.973,0,0,1,3750.949,2478.536Z" transform="translate(-3727.609 -2440.222)" fill="url(#linear-gradient-3)"/>
        </g>
      </g>
      <g id="Grupo_10118" data-name="Grupo 10118" transform="translate(12.763 9.939)">
        <g id="Grupo_10117" data-name="Grupo 10117">
          <path id="Trazado_1782" data-name="Trazado 1782" d="M3704.407,2391.041a12.847,12.847,0,0,0-1.377-3.319l1.4-2.108-1.945-1.944-1.944-1.944-2.108,1.4a12.877,12.877,0,0,0-3.318-1.377l-.5-2.479h-5.5l-.5,2.479a12.893,12.893,0,0,0-3.318,1.377l-2.108-1.4-1.944,1.944-1.944,1.944,1.4,2.108a12.871,12.871,0,0,0-1.376,3.319l-2.479.5v5.5l2.479.5a12.869,12.869,0,0,0,1.376,3.319l-1.4,2.108,1.944,1.944,1.944,1.944,2.108-1.4a12.91,12.91,0,0,0,3.318,1.377l.5,2.479h5.5l.5-2.479a12.894,12.894,0,0,0,3.318-1.377l2.108,1.4,1.944-1.944,1.945-1.944-1.4-2.108a12.845,12.845,0,0,0,1.377-3.319l2.479-.5v-5.5Zm-12.538,12.883a9.634,9.634,0,1,1,9.634-9.634A9.634,9.634,0,0,1,3691.869,2403.923Z" transform="translate(-3676.852 -2379.272)" fill="url(#linear-gradient-3)"/>
        </g>
      </g>
      <g id="Grupo_10119" data-name="Grupo 10119" transform="translate(47.927 51.985)">
        <rect id="Rectángulo_2775" data-name="Rectángulo 2775" width="115.216" height="152.436" rx="57.608" transform="translate(115.216 152.436) rotate(180)" fill="url(#linear-gradient-5)"/>
      </g>
      <path id="Trazado_1783" data-name="Trazado 1783" d="M3922.776,2439.989c-25.125,1.612-25.6,29.962-25.6,29.962V2604.97H3796.287V2469.951s-.114-28.255,25.73-29.962Z" transform="translate(-3741.343 -2408.236)" fill="url(#linear-gradient-6)"/>
      <rect id="Rectángulo_2776" data-name="Rectángulo 2776" width="69.295" height="6.114" transform="translate(68.307 66.915)" fill="#e0e8ee"/>
      <rect id="Rectángulo_2777" data-name="Rectángulo 2777" width="59.168" height="4.331" transform="translate(68.34 80.978)" fill="#e0e8ee"/>
      <rect id="Rectángulo_2778" data-name="Rectángulo 2778" width="29.743" height="6.433" transform="translate(68.419 92.342)" fill="#e0e8ee"/>
      <rect id="Rectángulo_2779" data-name="Rectángulo 2779" width="30.763" height="6.433" transform="translate(106.666 92.342)" fill="#e0e8ee"/>
      <rect id="Rectángulo_2780" data-name="Rectángulo 2780" width="47.386" height="4.586" transform="translate(68.375 104.665)" fill="#e0e8ee"/>
      <rect id="Rectángulo_2781" data-name="Rectángulo 2781" width="53.388" height="2.547" transform="translate(68.358 116.071)" fill="#e0e8ee"/>
      <rect id="Rectángulo_2782" data-name="Rectángulo 2782" width="64.2" height="2.547" transform="translate(68.324 127.472)" fill="#e0e8ee"/>
      <g id="Grupo_10120" data-name="Grupo 10120" transform="translate(68.216 138.627)">
        <path id="Trazado_1784" data-name="Trazado 1784" d="M3862.743,2754.133h-30.15v-14.419h30.15Zm-29.743-.407h29.336v-13.605H3833Z" transform="translate(-3832.593 -2739.714)" fill="#e0e8ee"/>
      </g>
      <rect id="Rectángulo_2783" data-name="Rectángulo 2783" width="27.004" height="3.312" transform="translate(105.352 138.87)" fill="#e0e8ee"/>
      <rect id="Rectángulo_2784" data-name="Rectángulo 2784" width="19.14" height="3.312" transform="translate(105.378 145.837)" fill="#e0e8ee"/>
      <rect id="Rectángulo_2785" data-name="Rectángulo 2785" width="52.911" height="2.547" transform="translate(68.359 161.674)" fill="#e0e8ee"/>
      <rect id="Rectángulo_2786" data-name="Rectángulo 2786" width="30.412" height="2.548" transform="translate(68.417 173.075)" fill="#e0e8ee"/>
      <g id="Grupo_10121" data-name="Grupo 10121" transform="translate(126.389 160.794)">
        <path id="Trazado_1785" data-name="Trazado 1785" d="M4014.582,2820.842h-19.011V2801.83h19.011Zm-17.229-1.783H4012.8v-15.446h-15.446Z" transform="translate(-3995.571 -2801.83)" fill="url(#linear-gradient-3)"/>
      </g>
      <g id="Grupo_10122" data-name="Grupo 10122" transform="translate(129.487 161.758)">
        <path id="Trazado_1786" data-name="Trazado 1786" d="M4010.94,2816.993l-6.684-6.3,2.037-2.162,4.781,4.507,10.454-8.59,1.886,2.3Z" transform="translate(-4004.257 -2804.448)" fill="url(#linear-gradient-8)"/>
      </g>
      <g id="Grupo_10154" data-name="Grupo 10154" transform="translate(50.26 132.24)">
        <g id="Grupo_10125" data-name="Grupo 10125" transform="translate(19.292 46.402)">
          <g id="Grupo_10124" data-name="Grupo 10124">
            <g id="Grupo_10123" data-name="Grupo 10123">
              <path id="Trazado_1787" data-name="Trazado 1787" d="M3838.274,2852.3a2.681,2.681,0,0,1,.556.764,4.4,4.4,0,0,0,.669.9,10.244,10.244,0,0,1,.941,1.541,7.886,7.886,0,0,0,.093,1.159c.105.231.377.672.172.754s-.56-.248-.56-.248a.315.315,0,0,1-.074.343.544.544,0,0,1-.535.148s-.061.273-.216.345a.693.693,0,0,1-.558.056.635.635,0,0,1-.371.228.581.581,0,0,1-.533-.173s-.381.177-.552.017a1.969,1.969,0,0,1-.3-.525,6.717,6.717,0,0,1-.293-2.947,2.667,2.667,0,0,0-.759-2.163Z" transform="translate(-3835.953 -2852.3)" fill="#dba585"/>
            </g>
          </g>
        </g>
        <g id="Grupo_10126" data-name="Grupo 10126" transform="translate(18.706 50.573)">
          <path id="Trazado_1788" data-name="Trazado 1788" d="M3840.64,2869.239H3835.3a.984.984,0,0,1-.983-.983v-3.365a.984.984,0,0,1,.983-.983h5.335a.984.984,0,0,1,.983.983v3.365A.983.983,0,0,1,3840.64,2869.239Zm-5.335-4.671a.324.324,0,0,0-.324.323v3.365a.324.324,0,0,0,.324.324h5.335a.324.324,0,0,0,.324-.324v-3.365a.324.324,0,0,0-.324-.323Z" transform="translate(-3834.321 -2863.909)" fill="#1a232f"/>
        </g>
        <g id="Grupo_10127" data-name="Grupo 10127" transform="translate(12.347 54.459)">
          <rect id="Rectángulo_2787" data-name="Rectángulo 2787" width="20.019" height="14.343" fill="#5a5c5a"/>
        </g>
        <g id="Grupo_10128" data-name="Grupo 10128" transform="translate(12.265 16.079)">
          <path id="Trazado_1789" data-name="Trazado 1789" d="M3817.982,2767.9s-1.025.014-1.463,3.08.392,4.348.491,5.624,1.6,9.517,1.636,9.881.241,4.75.825,5.914,4.874,7.76,4.931,8.089,2.083-1.149,2.083-1.149-3.37-7.056-3.566-7.86-1.552-4.916-1.338-6.17-.6-8.177-.521-8.947S3819.947,2768.372,3817.982,2767.9Z" transform="translate(-3816.393 -2767.904)" fill="#dba585"/>
        </g>
        <g id="Grupo_10129" data-name="Grupo 10129" transform="translate(12.196 16.079)">
          <path id="Trazado_1790" data-name="Trazado 1790" d="M3817.859,2767.9s-1.025.014-1.463,3.08a12.546,12.546,0,0,0,.222,5.5c.25,1.255,1.1,8.933,1.141,9.3s1.059,4.993,1.588,6.622c.4,1.238,4.228,7.72,4.285,8.049s2.974-1.515,2.974-1.515-3.74-7.3-3.936-8.1a32.018,32.018,0,0,1-.85-4.865c-.023-1.5-.964-8.836-.886-9.606S3820.72,2768.952,3817.859,2767.9Z" transform="translate(-3816.201 -2767.904)" fill="#414d99"/>
        </g>
        <path id="Trazado_1791" data-name="Trazado 1791" d="M3792.125,2966.814a29.975,29.975,0,0,0,2.505,3.292s1.656.579,1.759,1.706c.067.736,0,1.918-1.889,1.972s-3.106-.608-3.453-1.753a3.46,3.46,0,0,0-1-1.658v2.4h-.427s-.106-2.319-.133-2.745-.306-2.065.593-2.792A2.5,2.5,0,0,1,3792.125,2966.814Z" transform="translate(-3786.85 -2879.228)" fill="#e6d8d1"/>
        <path id="Trazado_1792" data-name="Trazado 1792" d="M3824.979,2959.956a7.658,7.658,0,0,0,.893,1.492c.427.559,1.759,2.852,2.345,3.012s2.4.48,2.559,1.492.24,1.732-1.546,1.812-2.958.187-3.812-1.066a9.275,9.275,0,0,0-2.212-2.159v3.268h-.693a29.69,29.69,0,0,0-.506-3.641,4.109,4.109,0,0,1,.987-4.21C3824.647,2958.6,3824.979,2959.956,3824.979,2959.956Z" transform="translate(-3807.591 -2874.487)" fill="#e6d8d1"/>
        <path id="Trazado_1793" data-name="Trazado 1793" d="M3786.683,2822.781a16.727,16.727,0,0,0-2.866,6.41c-.612,3.478.361,15.151.334,16.871s-1.625,6-1.306,9.235,2.992,19.088,2.992,19.088l2.045-.419s-.2-16.43,0-17.79.6-6.314.681-6.873,5.075-15.257,5.075-17.764S3792.12,2818.689,3786.683,2822.781Z" transform="translate(-3782.607 -2786.379)" fill="#dba585"/>
        <path id="Trazado_1794" data-name="Trazado 1794" d="M3811.3,2826.349s3.7,14.139,4.144,16.1a41.366,41.366,0,0,1,1.077,4.406,29.11,29.11,0,0,1-.717,5.029l-2.519,22.387H3811.3s-1.253-13.073-1.453-15.711,1.439-6.716,1.039-7.836-6.436-14.032-6.436-14.032S3799.883,2822.245,3811.3,2826.349Z" transform="translate(-3795.9 -2788.801)" fill="#dba585"/>
        <path id="Trazado_1795" data-name="Trazado 1795" d="M3796.105,2970.356a2.956,2.956,0,0,1-2.968-.257,5.767,5.767,0,0,1-1.89-2.751l2.045-.419Z" transform="translate(-3788.017 -2879.343)" fill="#dba585"/>
        <path id="Trazado_1796" data-name="Trazado 1796" d="M3829.682,2964.9s-1.6.4-2.213,0-2.7-3.922-3.387-4.133c0,0,.669-1.357,2.361-.371C3826.443,2960.392,3829.229,2964.31,3829.682,2964.9Z" transform="translate(-3809.055 -2874.924)" fill="#dba585"/>
        <path id="Trazado_1797" data-name="Trazado 1797" d="M3803.189,2847.846s-6.807,4.007-19.565,4.007c0,0-.722-14.8,1.133-18.96s14.167-1.574,14.167-1.574S3802.751,2844.786,3803.189,2847.846Z" transform="translate(-3783.045 -2791.946)" fill="#2c3d54"/>
        <g id="Grupo_10130" data-name="Grupo 10130" transform="translate(1.018 14.871)">
          <path id="Trazado_1798" data-name="Trazado 1798" d="M3794.918,2764.644a20.671,20.671,0,0,0,2.666,1.072c.687.137,3.352,3.6,3.819,4.864s0,3.16-.962,5.386-.055,2.968-.495,5.193a51.882,51.882,0,0,0-.742,8.175c.082,1.237-11.114,1.47-13.669-.783,0,0,2.568-3.847,2.9-4.4s.054-3.545-.248-4.314-2.314-7.312-2.314-7.312-1.646-5.025-.159-6.179c1.292-1,4.811-1.361,5.443-1.58A10.792,10.792,0,0,1,3794.918,2764.644Z" transform="translate(-3785.091 -2764.54)" fill="#e6d8d1"/>
        </g>
        <g id="Grupo_10131" data-name="Grupo 10131" transform="translate(11.42 14.27)">
          <path id="Trazado_1799" data-name="Trazado 1799" d="M3814.1,2767.984l1.2-1.408-1.044-3.706A24.467,24.467,0,0,0,3814.1,2767.984Z" transform="translate(-3814.041 -2762.87)" fill="#cfc3bc"/>
        </g>
        <g id="Grupo_10132" data-name="Grupo 10132" transform="translate(5.315 0.583)">
          <path id="Trazado_1800" data-name="Trazado 1800" d="M3800.083,2725.125c1.175-.414,5.5-1.429,6.512,4.094s-2.034,9.453-4.836,8.408-4.533-4.864-4.7-7.776A4.353,4.353,0,0,1,3800.083,2725.125Z" transform="translate(-3797.049 -2724.774)" fill="#dba585"/>
        </g>
        <g id="Grupo_10133" data-name="Grupo 10133" transform="translate(4.731 0.131)">
          <path id="Trazado_1801" data-name="Trazado 1801" d="M3805.554,2728.413s.212-4.726-4.487-4.891-5.963,3.7-5.578,6.522a6.9,6.9,0,0,0,2.33,4.307s-.169-2.281.743-2.873,4.566-1.774,6.159-4.521A4.206,4.206,0,0,1,3805.554,2728.413Z" transform="translate(-3795.424 -2723.517)" fill="#2c323d"/>
        </g>
        <g id="Grupo_10134" data-name="Grupo 10134" transform="translate(2.84)">
          <path id="Trazado_1802" data-name="Trazado 1802" d="M3796.323,2727.678a3.164,3.164,0,1,1-1.858-4.388A3.385,3.385,0,0,1,3796.323,2727.678Z" transform="translate(-3790.161 -2723.151)" fill="#2c323d"/>
        </g>
        <g id="Grupo_10135" data-name="Grupo 10135" transform="translate(7.083 9.983)">
          <path id="Trazado_1803" data-name="Trazado 1803" d="M3806.677,2753.645a47.173,47.173,0,0,0-.312,4.812s-2.055,2.06-4.394-2.4a6.132,6.132,0,0,0,.243-4.348C3801.474,2749.2,3806.677,2753.645,3806.677,2753.645Z" transform="translate(-3801.971 -2750.937)" fill="#dba585"/>
        </g>
        <g id="Grupo_10136" data-name="Grupo 10136" transform="translate(9.111 17.502)">
          <path id="Trazado_1804" data-name="Trazado 1804" d="M3809.982,2771.865v1.882l-2.366-1.768Z" transform="translate(-3807.616 -2771.865)" fill="#dba585"/>
        </g>
        <g id="Grupo_10137" data-name="Grupo 10137" transform="translate(6.116 14.871)">
          <path id="Trazado_1805" data-name="Trazado 1805" d="M3804.64,2769.055l-.982-1.216-3.309-3.3-1.07,1.031Z" transform="translate(-3799.279 -2764.541)" fill="#cfc3bc"/>
        </g>
        <g id="Grupo_10138" data-name="Grupo 10138" transform="translate(0 15.186)">
          <path id="Trazado_1806" data-name="Trazado 1806" d="M3788.984,2765.418s2.777,4.215,2.909,6.069a168.277,168.277,0,0,1-1.964,20.189c-.933,4.46-7.672-.5-7.672-.5s4.528-7.33,2.79-13.2-2.371-8.216-2.371-8.216.6-3.268,2.718-3.728C3787.252,2765.627,3788.984,2765.418,3788.984,2765.418Z" transform="translate(-3782.257 -2765.418)" fill="#414d99"/>
        </g>
        <g id="Grupo_10139" data-name="Grupo 10139" transform="translate(12.313 15.625)">
          <path id="Trazado_1807" data-name="Trazado 1807" d="M3821.785,2772.464s.443,1.794-1.508,5.711c0,0,.031,5.014.086,6.58s.426,7.488.426,7.488l-1.929,1.13a.544.544,0,0,1-.816-.535c.547-4.508,2.324-21.6-1.516-26.2l1.541.455A12.208,12.208,0,0,1,3821.785,2772.464Z" transform="translate(-3816.528 -2766.639)" fill="#414d99"/>
        </g>
        <g id="Grupo_10140" data-name="Grupo 10140" transform="translate(6.945 6.659)">
          <path id="Trazado_1808" data-name="Trazado 1808" d="M3802.983,2742.12a.724.724,0,0,0-1.072-.307c-.33.247-.522.989,0,1.951S3804.274,2745.395,3802.983,2742.12Z" transform="translate(-3801.587 -2741.685)" fill="#dba585"/>
        </g>
        <g id="Grupo_10141" data-name="Grupo 10141" transform="translate(11.636 14.27)">
          <path id="Trazado_1809" data-name="Trazado 1809" d="M3815.686,2766.576l1.515.418-2.558-4.124Z" transform="translate(-3814.642 -2762.87)" fill="#f3e4dc"/>
        </g>
        <g id="Grupo_10142" data-name="Grupo 10142" transform="translate(6.27 14.871)">
          <path id="Trazado_1810" data-name="Trazado 1810" d="M3803.933,2767.839l-1.384,1.813-2.841-4.735.916-.376Z" transform="translate(-3799.708 -2764.541)" fill="#f3e4dc"/>
        </g>
        <g id="Grupo_10143" data-name="Grupo 10143" transform="translate(7.868 11.916)">
          <path id="Trazado_1811" data-name="Trazado 1811" d="M3808,2757.89l-.067.728s-1.635.306-3.772-2.3A4.64,4.64,0,0,0,3808,2757.89Z" transform="translate(-3804.157 -2756.316)" fill="#997761"/>
        </g>
        <g id="Grupo_10146" data-name="Grupo 10146" transform="translate(19.303 35.418)">
          <g id="Grupo_10145" data-name="Grupo 10145">
            <g id="Grupo_10144" data-name="Grupo 10144">
              <path id="Trazado_1812" data-name="Trazado 1812" d="M3836.8,2822.02s.961.619,1.514.273a3.649,3.649,0,0,1,1.542-.348c.338-.018,1.354-.458,1.381-.031s-1.642.805-1.975.955,1.135.867,1.3,1.21-1.161,2.709-2.112,2.1-1.566-1.889-1.755-1.962a6.938,6.938,0,0,1-.709-.416Z" transform="translate(-3835.982 -2821.728)" fill="#dba585"/>
            </g>
          </g>
        </g>
        <g id="Grupo_10147" data-name="Grupo 10147" transform="translate(0.675 16.419)">
          <path id="Trazado_1813" data-name="Trazado 1813" d="M3785.327,2768.891a2.692,2.692,0,0,1,2.488.905,13.067,13.067,0,0,1,2.034,3.929c.3.66,4.122,6.76,4.341,6.9s4.1,3.269,5.86,4.945a30.947,30.947,0,0,0,5.187,3.545l-1.292,1.814s-10.414-5.55-11.733-7.584-6.585-7.667-6.585-7.667S3782.483,2770.939,3785.327,2768.891Z" transform="translate(-3784.136 -2768.851)" fill="#dba585"/>
        </g>
        <g id="Grupo_10150" data-name="Grupo 10150" transform="translate(21.813 37.572)">
          <g id="Grupo_10149" data-name="Grupo 10149">
            <g id="Grupo_10148" data-name="Grupo 10148">
              <path id="Trazado_1814" data-name="Trazado 1814" d="M3844.846,2827.726a25.244,25.244,0,0,1,2.86,2.351c.071.293-.049.438-.318.256s-2.752-1.911-2.752-1.911,2.891,2.991,3,3.218c.065.133-.152.427-.3.343s-3.188-2.885-3.188-2.885,2.7,2.8,2.731,3.015a.267.267,0,0,1-.449.217c-.214-.194-2.863-2.649-2.863-2.649a15.715,15.715,0,0,1,1.755,2.361c-.048.124-.222.386-.678-.186s-1.673-1.809-1.673-1.809Z" transform="translate(-3842.968 -2827.726)" fill="#dba585"/>
            </g>
          </g>
        </g>
        <path id="Trazado_1815" data-name="Trazado 1815" d="M3827.422,2796.015s.092,6.258-.29,9.276l-.17-8.294Z" transform="translate(-3810.901 -2769.836)" fill="#2f386c"/>
        <g id="Grupo_10151" data-name="Grupo 10151" transform="translate(0.258 16)">
          <path id="Trazado_1816" data-name="Trazado 1816" d="M3785.271,2767.684a4.053,4.053,0,0,1,1.914,1.365,13.062,13.062,0,0,1,2.033,3.929c.3.66,4.122,6.76,4.341,6.9a48.687,48.687,0,0,1,5.159,4,37.72,37.72,0,0,0,5.032,3.679l-1.68,2.494s-9.184-5.087-10.64-7.024c-1.556-2.069-7.1-8.144-7.1-8.144S3780.73,2769.344,3785.271,2767.684Z" transform="translate(-3782.975 -2767.684)" fill="#414d99"/>
        </g>
        <g id="Grupo_10153" data-name="Grupo 10153" transform="translate(20.14 49.335)">
          <g id="Grupo_10152" data-name="Grupo 10152">
            <path id="Trazado_1817" data-name="Trazado 1817" d="M3841.674,2862.241s-.358-1.393-.806-1.6-.347.3-.347.3-.092-.505-.508-.477-.266.618-.266.618a.417.417,0,0,0-.569-.187c-.4.178-.158.64-.158.64s-.535-.381-.663.138a2.235,2.235,0,0,0,.44,1.706.482.482,0,0,0,.572,0,.592.592,0,0,0,.916-.06s.726.2.794-.386C3841.08,2862.934,3841.836,2863.058,3841.674,2862.241Z" transform="translate(-3838.313 -2860.464)" fill="#c99a7d"/>
          </g>
        </g>
        <path id="Trazado_1818" data-name="Trazado 1818" d="M3801.2,2805.4l-3.144-5.074s2.681,3.166,2.96,3.505.3.365.3.365S3801.232,2805.229,3801.2,2805.4Z" transform="translate(-3792.376 -2772.6)" fill="#2f386c"/>
      </g>
      <path id="Trazado_1819" data-name="Trazado 1819" d="M4002.524,2626.511h-28.811v26.183l4.4-4.555h24.413Z" transform="translate(-3855.16 -2528.352)" fill="#f1cc5e"/>
      <path id="Trazado_1820" data-name="Trazado 1820" d="M3687.2,2631.594h28.812v26.183l-4.4-4.555H3687.2Z" transform="translate(-3670.718 -2531.62)" fill="#f1cc5e"/>
      <g id="Grupo_10159" data-name="Grupo 10159" transform="translate(127.544 101.15)">
        <g id="Grupo_10155" data-name="Grupo 10155">
          <path id="Trazado_1821" data-name="Trazado 1821" d="M4003.8,2649.784a2.693,2.693,0,0,1-1.558-.627,2.02,2.02,0,0,1-.741-1.544,12.227,12.227,0,0,0-.735-3.15,5.42,5.42,0,1,1,6.5.191,11.663,11.663,0,0,0-.722,2.993,2.37,2.37,0,0,1-2.535,2.146C4003.937,2649.792,4003.868,2649.79,4003.8,2649.784Zm.718-14.523a4.976,4.976,0,0,0-3.429,8.892l.05.039.022.059a12.8,12.8,0,0,1,.782,3.339v.017a1.583,1.583,0,0,0,.587,1.214,2.285,2.285,0,0,0,1.478.528,1.929,1.929,0,0,0,2.088-1.714v-.017a12.17,12.17,0,0,1,.773-3.184l.024-.066.058-.04a4.976,4.976,0,0,0-2.435-9.068Z" transform="translate(-3998.722 -2634.803)" fill="#fff"/>
        </g>
        <g id="Grupo_10156" data-name="Grupo 10156" transform="translate(3.363 7.217)">
          <path id="Trazado_1822" data-name="Trazado 1822" d="M4008.794,2660.807l-.711-5.906,1.232,1.019.764-.847.66.794,1.15-.975-.7,5.916-.441-.052.567-4.8-.632.537-.619-.745-.706.782-.7-.583.578,4.8Z" transform="translate(-4008.083 -2654.892)" fill="#fff"/>
        </g>
        <g id="Grupo_10157" data-name="Grupo 10157" transform="translate(3.351 14.436)">
          <rect id="Rectángulo_2788" data-name="Rectángulo 2788" width="3.844" height="1.549" transform="translate(0.01 0) rotate(0.386)" fill="#fff"/>
        </g>
        <g id="Grupo_10158" data-name="Grupo 10158" transform="translate(2.737 12.849)">
          <rect id="Rectángulo_2789" data-name="Rectángulo 2789" width="5.081" height="2.494" transform="matrix(1, 0.007, -0.007, 1, 0.017, 0)" fill="#fff"/>
        </g>
      </g>
      <g id="Grupo_10160" data-name="Grupo 10160" transform="translate(25.941 102.964)">
        <path id="Trazado_1823" data-name="Trazado 1823" d="M3722.029,2644.76a2.515,2.515,0,0,0-.473-.386,5.481,5.481,0,0,0-.723-.4,5.911,5.911,0,0,0-.9-.325,5.217,5.217,0,0,0-1.01-.173l-.012,3.7.338.073a15.655,15.655,0,0,1,1.742.524,4.951,4.951,0,0,1,1.312.7,2.838,2.838,0,0,1,.828,1.012,3.278,3.278,0,0,1,.291,1.458,3.553,3.553,0,0,1-.345,1.617,3.158,3.158,0,0,1-.943,1.114,4.205,4.205,0,0,1-1.4.666,6.774,6.774,0,0,1-1.708.235l-.005,1.877-.93,0,.006-1.912a9,9,0,0,1-2.447-.517,7.709,7.709,0,0,1-2.124-1.178l.917-1.713a3.2,3.2,0,0,0,.57.467,6.565,6.565,0,0,0,.875.485,8.1,8.1,0,0,0,1.1.415,7.009,7.009,0,0,0,1.241.254l.012-3.7c-.071-.024-.146-.045-.223-.063a2.289,2.289,0,0,1-.223-.063,15.069,15.069,0,0,1-1.652-.533,4.126,4.126,0,0,1-1.168-.674,2.623,2.623,0,0,1-.7-.923,3.061,3.061,0,0,1-.237-1.279,3.774,3.774,0,0,1,.309-1.554,3.413,3.413,0,0,1,.862-1.168,4.088,4.088,0,0,1,1.3-.764,6.038,6.038,0,0,1,1.636-.344l.006-1.8.93,0-.005,1.805a6.889,6.889,0,0,1,2.143.472,7.735,7.735,0,0,1,1.731.953Zm-5.9.446a1.29,1.29,0,0,0,.523,1.128,5.081,5.081,0,0,0,1.6.667l.011-3.521a2.589,2.589,0,0,0-1.61.5A1.545,1.545,0,0,0,3716.129,2645.206Zm5.146,5.951a1.324,1.324,0,0,0-.622-1.191,6.72,6.72,0,0,0-1.75-.73l-.011,3.539a3.26,3.26,0,0,0,1.762-.423A1.35,1.35,0,0,0,3721.275,2651.157Z" transform="translate(-3713.53 -2639.886)" fill="#fff"/>
      </g>
      <g id="Grupo_10170" data-name="Grupo 10170" transform="translate(131.029 145.243)">
        <path id="Trazado_1824" data-name="Trazado 1824" d="M4094.656,2856a13.264,13.264,0,0,1-1.5.22c-.486.015-2.734-1-3.454-.907a52.485,52.485,0,0,0-5.626,2.236c-.212.145.1.466.1.466l10.773.127Z" transform="translate(-4057.577 -2820.828)" fill="#dba585"/>
        <rect id="Rectángulo_2790" data-name="Rectángulo 2790" width="17.92" height="1.641" transform="translate(40.709 38.871) rotate(-179.565)" fill="#363957"/>
        <rect id="Rectángulo_2791" data-name="Rectángulo 2791" width="17.92" height="1.641" transform="translate(22.783 38.735) rotate(-107.004)" fill="#363957"/>
        <g id="Grupo_10161" data-name="Grupo 10161" transform="translate(55.513 70.191)">
          <path id="Trazado_1825" data-name="Trazado 1825" d="M4164.964,2956.408l.692,1.5s2.911-1.086,2.925-1.122-.8-2.077-.8-2.077Z" transform="translate(-4164.964 -2954.705)" fill="#525368"/>
        </g>
        <g id="Grupo_10162" data-name="Grupo 10162" transform="translate(29.777 71.862)">
          <path id="Trazado_1826" data-name="Trazado 1826" d="M4094.139,2959.356l-.805,2.354s3.194.7,3.659.667c.041,0,.6-2.666.6-2.666Z" transform="translate(-4093.334 -2959.356)" fill="#6a6b87"/>
        </g>
        <path id="Trazado_1827" data-name="Trazado 1827" d="M4083.251,2963.554s-2.232-.606-2.3-.7a2.307,2.307,0,0,0-1.307-.579c-.422.071-.461.575-.882.679s-3.684,1.146-4.136,1.413-2.61-.519-3.026.041-.819,2.029,2.572,2.537,7.022,2.021,7.833,1.815S4083.375,2964.458,4083.251,2963.554Z" transform="translate(-4049.459 -2889.358)" fill="#26283a"/>
        <path id="Trazado_1828" data-name="Trazado 1828" d="M4159.6,2959.375s-2.069.883-2.178.849a2.247,2.247,0,0,0-1.347.346c-.279.309,0,.717-.264,1.051s-1.734,2.285-2.166,2.735c-.354.368-2.29.713-2.911,1.362-.469.489.082,2.445,3.376,1.51,3.208-.91,7.18-2.488,7.675-3.135S4160.241,2959.99,4159.6,2959.375Z" transform="translate(-4100.243 -2887.506)" fill="#26283a"/>
        <g id="Grupo_10163" data-name="Grupo 10163" transform="translate(39.558 37.727)">
          <path id="Trazado_1829" data-name="Trazado 1829" d="M4138.238,2869.151s-9.1,4.046-11.029,5.43-6.15,3.932-6.291,4.556-.977.015.52,3.131,8.577,10.612,9.242,11.428c.692.85,5.6,5.942,5.6,5.942l3.693-2.782s-7.1-10.443-8.129-11.979-1.491-1.763-.882-2.44,3.035-.668,15.533-5.845c1.249-.517,4.734-1.716,5.193-3.393.831-3.03.119-6.871-3.241-8.56S4138.238,2869.151,4138.238,2869.151Z" transform="translate(-4120.559 -2864.347)" fill="#2e3048"/>
        </g>
        <g id="Grupo_10164" data-name="Grupo 10164" transform="translate(52.868 12.013)">
          <path id="Trazado_1830" data-name="Trazado 1830" d="M4157.646,2794a1.316,1.316,0,0,1,.257.438,10.688,10.688,0,0,1,.4,1.2c.413,1.443.787,3.295.787,3.295s5.209-4.339,4.473-4.612-1.281-1.541-1.281-1.541S4157.1,2793.515,4157.646,2794Z" transform="translate(-4157.605 -2792.778)" fill="#dba585"/>
        </g>
        <g id="Grupo_10165" data-name="Grupo 10165" transform="translate(29.777 40.444)">
          <path id="Trazado_1831" data-name="Trazado 1831" d="M4120.937,2872.359s-9.4,2.213-11.726,2.955a67.523,67.523,0,0,0-7.4,2.664c-.571.326-1.442.813-2.487,4.211-1.183,3.852-3.885,14.682-4.5,16.37-.385,1.06-1.492,5.228-1.492,5.228l4.8.833s5.722-11.519,6.186-14.589c.782-5.168,2.785-5.2,3.594-5.667s4.707.413,18.574-.693c1.386-.111,5.174-.18,6.154-1.675,1.772-2.7,3.56-5.771.808-8.487S4120.937,2872.359,4120.937,2872.359Z" transform="translate(-4093.334 -2871.91)" fill="#2e3048"/>
        </g>
        <g id="Grupo_10166" data-name="Grupo 10166" transform="translate(48.419 1.611)">
          <path id="Trazado_1832" data-name="Trazado 1832" d="M4147.875,2764.572s-1.627,2.81-1.257,3.575-1.7,2.618-1.359,3.011,1.041.868,1.028.982.6,3.777,1.4,3.858,6.257-.2,6.71-1.908,1.784-5.448,2.1-6.143S4153.662,2761.888,4147.875,2764.572Z" transform="translate(-4145.221 -2763.826)" fill="#dba585"/>
        </g>
        <g id="Grupo_10167" data-name="Grupo 10167" transform="translate(50.557)">
          <path id="Trazado_1833" data-name="Trazado 1833" d="M4158.417,2761.157a6.026,6.026,0,0,1,1.115,1.06c.358.168,2.469,1.217,2.03,2.35-.59,1.525-2.977,5.61-3.178,6.037-.027.057-.027-.05-.008-.279-.146-1.442-1.922-3.059-1.922-3.059l-.948-.428a2.771,2.771,0,0,0,.3-1.777c-1.073-1.149-4.635-2.388-4.635-2.388C4151.677,2757.589,4156.028,2759.385,4158.417,2761.157Z" transform="translate(-4151.17 -2759.343)" fill="#eecaa2"/>
        </g>
        <g id="Grupo_10168" data-name="Grupo 10168" transform="translate(55.315 6.514)">
          <path id="Trazado_1834" data-name="Trazado 1834" d="M4165.29,2777.685a.843.843,0,0,1,1.386.813c-.193,1.134-1.824,2.043-2.179,1.537S4165.021,2778.095,4165.29,2777.685Z" transform="translate(-4164.414 -2777.472)" fill="#dba585"/>
        </g>
        <path id="Trazado_1835" data-name="Trazado 1835" d="M4162.336,2797.068s6.6,3.844,8.085,10.557,4.182,18.5,4.229,19.9c0,0-8.928-4.3-13.764-3.114,0,0-3.044-10.939-4.646-13.522s.778-8.657.778-8.657S4159.3,2798.583,4162.336,2797.068Z" transform="translate(-4103.508 -2783.514)" fill="#70a9ed"/>
        <path id="Trazado_1836" data-name="Trazado 1836" d="M4177.917,2804.226l-5.316,15.59a1.347,1.347,0,0,0-.073.367l-1.274,20.5-22.227.5-6.477,23.577a2.476,2.476,0,0,0,.357,2.086,1.808,1.808,0,0,0,1.248.822c1.41.172,29.945,0,29.945,0v-1.179a1.075,1.075,0,0,0-1.087-1.064h-26.677a1.442,1.442,0,0,1-1.132-.532.937.937,0,0,1-.228-.729c.118-.752,5.813-19.961,5.813-19.961l21.492-.381a1.832,1.832,0,0,0,1.815-1.736l.934-22.057a1.724,1.724,0,0,1,.067-.414l4.344-14.905s.456-1.039-.381-1.139A.928.928,0,0,0,4177.917,2804.226Z" transform="translate(-4095.033 -2787.667)" fill="#5e5e5b"/>
        <path id="Trazado_1837" data-name="Trazado 1837" d="M4160.4,2905.777s-.017-1.7,2.316-1.82c2.679-.137,20.1-.257,20.1-.257l-.116,1.811Z" transform="translate(-4106.53 -2851.834)" fill="#c59661"/>
        <path id="Trazado_1838" data-name="Trazado 1838" d="M4062.936,2868.473v.794h-37.863v-.794a1.241,1.241,0,0,1,1.111-1.341h35.64A1.242,1.242,0,0,1,4062.936,2868.473Z" transform="translate(-4019.822 -2828.405)" fill="#c59661"/>
        <path id="Trazado_1839" data-name="Trazado 1839" d="M4042.487,2977.611h-11.441v-1.83h9.611a1.829,1.829,0,0,1,1.83,1.83Z" transform="translate(-4023.649 -2898.018)" fill="#7b6f66"/>
        <rect id="Rectángulo_2792" data-name="Rectángulo 2792" width="1.512" height="38.732" transform="translate(8.124 40.862)" fill="#7b6f66"/>
        <rect id="Rectángulo_2793" data-name="Rectángulo 2793" width="1.512" height="38.732" transform="translate(11.161 40.862)" fill="#7b6f66"/>
        <path id="Trazado_1840" data-name="Trazado 1840" d="M4158.435,2796.434a10.715,10.715,0,0,1,.4,1.2,12.46,12.46,0,0,0,2.313-1.739A21.606,21.606,0,0,1,4158.435,2796.434Z" transform="translate(-4105.268 -2782.76)" fill="#997761"/>
        <path id="Trazado_1841" data-name="Trazado 1841" d="M4037.506,2869.266h-27.049v-.794a1.382,1.382,0,0,1,1.42-1.341h21.394Z" transform="translate(-4010.457 -2828.404)" fill="#ceaf8a"/>
        <g id="Grupo_10169" data-name="Grupo 10169" transform="translate(35.41 16.573)">
          <path id="Trazado_1842" data-name="Trazado 1842" d="M4129.538,2807.649s-1.571,2.226-2.542,3.912c-1.1,1.911-2.184,3.8-2.422,4.222-.486.863-2.214,1.324-2.979,1.652-.7.3-12.421,6.573-12.569,6.56a18.882,18.882,0,0,0,1.263,2.337s16.269-4.666,17-5.334a56.029,56.029,0,0,0,3.79-4.963c.846-1.194,2.144-3.152,2.832-4,.769-.943,2.383-4.17.331-5.78C4131.619,2804.2,4130.169,2806.7,4129.538,2807.649Z" transform="translate(-4109.014 -2805.469)" fill="#70a9ed"/>
        </g>
        <path id="Trazado_1843" data-name="Trazado 1843" d="M4167.855,2823.443a53.458,53.458,0,0,1-3.013,6.843,33.179,33.179,0,0,1-2.381,3.186l-.6-1.76S4166.729,2825.013,4167.855,2823.443Z" transform="translate(-4107.462 -2800.413)" fill="#4d729d"/>
      </g>
      <g id="Grupo_10204" data-name="Grupo 10204" transform="translate(76.956 129.175)">
        <g id="Grupo_10171" data-name="Grupo 10171" transform="translate(14.455 91.144)">
          <path id="Trazado_1844" data-name="Trazado 1844" d="M3902.814,2968.583a4.9,4.9,0,0,1-2.492,1.888c-1.455.334-2.889.868-2.9,1.787s4.207,1.466,5.873.54c2.485-1.382,2.738-.966,3.014-1.656s-.331-2.538-.313-2.758C3906.018,2968.114,3902.814,2968.583,3902.814,2968.583Z" transform="translate(-3897.422 -2968.3)" fill="#393d3f"/>
        </g>
        <g id="Grupo_10172" data-name="Grupo 10172" transform="translate(19.843 90.21)">
          <path id="Trazado_1845" data-name="Trazado 1845" d="M3912.586,2966.152a6.6,6.6,0,0,0-.162.766c.028.016,3.28.4,3.181-.2-.08-.488-.194-1.018-.194-1.018Z" transform="translate(-3912.421 -2965.701)" fill="#807f7d"/>
        </g>
        <g id="Grupo_10173" data-name="Grupo 10173" transform="translate(26.372 90.939)">
          <path id="Trazado_1846" data-name="Trazado 1846" d="M3935.009,2968.115a4.567,4.567,0,0,1-2,1.99c-1.352.541-2.436,1.162-2.411,2.057s3.3,1.8,5.69.084c1.507-1.085,1.985-1.09,2.227-1.773s-.42-2.459-.411-2.674C3938.11,2967.533,3935.009,2968.115,3935.009,2968.115Z" transform="translate(-3930.593 -2967.729)" fill="#393d3f"/>
        </g>
        <g id="Grupo_10174" data-name="Grupo 10174" transform="translate(30.751 89.976)">
          <path id="Trazado_1847" data-name="Trazado 1847" d="M3942.78,2965.626a7.477,7.477,0,0,0,.037.771c.028.015,3.17.273,3.09-.316a4.8,4.8,0,0,0-.3-1.032Z" transform="translate(-3942.78 -2965.049)" fill="#807f7d"/>
        </g>
        <g id="Grupo_10175" data-name="Grupo 10175" transform="translate(14.815 41.748)">
          <path id="Trazado_1848" data-name="Trazado 1848" d="M3902.84,2834.267s-2.919,12.877-3.586,16.8a37.416,37.416,0,0,0-.748,9.225c.337,2.983,4.561,18.448,4.384,19.323s4.42.139,4.42.139-3.213-17.249-2.571-20.459c.475-2.378,4.639-18.173,5.277-17.363s1.43,14.907,1.9,17.247,1.923,20.83,1.923,20.83,3.244.479,4.111-.255c0,0,.394-15.788.093-20.175-.115-1.672,1.959-20.047-.7-27.444C3915.941,2828.223,3902.84,2834.267,3902.84,2834.267Z" transform="translate(-3898.425 -2830.817)" fill="#323436"/>
        </g>
        <g id="Grupo_10176" data-name="Grupo 10176" transform="translate(6.086 15.272)">
          <path id="Trazado_1849" data-name="Trazado 1849" d="M3874.567,2775.346c2.081-.292,8.627,2.608,9.222,2.389.409-.15,1.369-3.278,2.055-5.646.405-1.4.715-2.534.758-2.628l0,0a13.944,13.944,0,0,0,.022,2.54c.009.091.053.133.064.226a.5.5,0,0,0,.012.091c.163.475.231,1,.372,1.546a8.139,8.139,0,0,1,.229,3.043v0c0,.009,0,.017,0,.026,0,.025,0,.051,0,.077,0,.01,0,.021,0,.031.058,2.027-.082,4.213-.14,5.377a4.237,4.237,0,0,0,.519,2.636h0l.627-.088.453-.063h.006l.605-.085,2.374-.334.859-.121.2-.029,1.5-.211,4.241-.6.465-.065.192-.027,1.6-.225.723-.1h0s.613-4.354.661-6.707a42.723,42.723,0,0,1,1.389-7.253.1.1,0,0,1,0-.014.068.068,0,0,1,.005-.02c0-.012.006-.022.008-.031a.139.139,0,0,1,0-.015v-.008a.029.029,0,0,0,0-.007s3.461,3.636,4.133,5.222c.2.481.831,1.791,1.628,3.385a9.576,9.576,0,0,0,.887-1.945c0-.022,0-.046,0-.071-.051-1.569-1.695-7.93-2.992-12.085a23.02,23.02,0,0,0-2.155-3.862,30.393,30.393,0,0,0-3.75-1.68l-.151-.06-.426-.167-.205-.079-.11-.042-.088-.034h0a11.974,11.974,0,0,0-1.486-.508c-.021,0-.053,0-.1,0s-.117,0-.2.009c-.958.056-3.819.324-4.739.412l-.286.027h0l-1.1.5h0l-.061.027c-.4.183-.861.427-1.349.694-.957.524-2.014,1.137-2.89,1.555-.859.409-2.037.979-2.137,1.058l-4.355,12.559-7.555-1.381Z" transform="translate(-3874.131 -2757.125)" fill="#d7c9c2"/>
        </g>
        <g id="Grupo_10177" data-name="Grupo 10177" transform="translate(19.23 41.252)">
          <path id="Trazado_1850" data-name="Trazado 1850" d="M3911.125,2831.384a3.936,3.936,0,0,0-.412,2s13.119-1.53,14.506-2.133c0,0,.054-1.781-.24-1.812C3924.656,2829.4,3911.125,2831.384,3911.125,2831.384Z" transform="translate(-3910.713 -2829.436)" fill="#4c5155"/>
        </g>
        <g id="Grupo_10178" data-name="Grupo 10178" transform="translate(25.471 10.129)">
          <path id="Trazado_1851" data-name="Trazado 1851" d="M3933.442,2747.51c-.041,2.059-4.027,3.185-4.027,3.185s-1.668-2.09-1.27-2.29c.157-.079.22-.391.24-.741a7.363,7.363,0,0,0-.023-.934c-.012-.146-.023-.24-.023-.24s.57-.6,1.294-1.317c1.266-1.252,3.007-2.856,3.01-2.218a.533.533,0,0,1-.014.121C3932.323,2744.513,3933.442,2747.51,3933.442,2747.51Z" transform="translate(-3928.084 -2742.811)" fill="#dba585"/>
        </g>
        <g id="Grupo_10179" data-name="Grupo 10179" transform="translate(30.498 41.493)">
          <path id="Trazado_1852" data-name="Trazado 1852" d="M3942.076,2830.181s.286,1.806.311,2.277l.607-.121s-.167-1.91-.265-2.23Z" transform="translate(-3942.076 -2830.106)" fill="#393d3f"/>
        </g>
        <g id="Grupo_10180" data-name="Grupo 10180" transform="translate(20.501 42.903)">
          <path id="Trazado_1853" data-name="Trazado 1853" d="M3914.485,2834.119s-.23,1.641-.235,2.261l.642-.083s.132-2.05.205-2.264Z" transform="translate(-3914.25 -2834.033)" fill="#393d3f"/>
        </g>
        <g id="Grupo_10181" data-name="Grupo 10181" transform="translate(25.353 11.811)">
          <path id="Trazado_1854" data-name="Trazado 1854" d="M3931.7,2747.494h0c-.008.012-.177.265-.465.628a8.354,8.354,0,0,1-3.056,2.542,7.355,7.355,0,0,0-.023-.933,2.166,2.166,0,0,1-.4-.048,12.248,12.248,0,0,1,.867-1.269l.8-.24Z" transform="translate(-3927.756 -2747.494)" fill="#997761"/>
        </g>
        <g id="Grupo_10182" data-name="Grupo 10182" transform="translate(22.665 3.382)">
          <path id="Trazado_1855" data-name="Trazado 1855" d="M3927.668,2730.953c-.345.75-.672,1.294-.766,1.51h0a2.634,2.634,0,0,1-.465.628,4.594,4.594,0,0,1-3.078,1.609,2.145,2.145,0,0,1-.4-.048,1.883,1.883,0,0,1-1.372-.948,10.785,10.785,0,0,1-.687-8.851s6.8-1.922,7.864.124C3929.516,2726.412,3928.479,2729.19,3927.668,2730.953Z" transform="translate(-3920.275 -2724.033)" fill="#dba585"/>
        </g>
        <g id="Grupo_10183" data-name="Grupo 10183" transform="translate(22.464)">
          <path id="Trazado_1856" data-name="Trazado 1856" d="M3920.546,2718.821s-.631-.035-.788-1.232.157-1.511.157-1.511a28.115,28.115,0,0,1,3.816-1.328c1.008-.152,3.487-.3,4.068.365,0,0,1.412-.328,1.8,2.016.61,3.718-2.08,7.328-2.08,7.328s.023-2.429-.513-2.751-1,.444-1,.444l-1.1.2s1.665-3.594-.332-3.727S3921.689,2719.03,3920.546,2718.821Z" transform="translate(-3919.716 -2714.621)" fill="#3e4148"/>
        </g>
        <g id="Grupo_10184" data-name="Grupo 10184" transform="translate(28.75 5.538)">
          <path id="Trazado_1857" data-name="Trazado 1857" d="M3937.245,2731.061c.1-1.07,2.04-1.479,1.91-.357s-1.083,2.2-1.523,2.162S3937.166,2731.876,3937.245,2731.061Z" transform="translate(-3937.21 -2730.036)" fill="#dba585"/>
        </g>
        <g id="Grupo_10185" data-name="Grupo 10185" transform="translate(27.076 15.78)">
          <path id="Trazado_1858" data-name="Trazado 1858" d="M3947.693,2776.621c0-.022,0-.046,0-.071a60.566,60.566,0,0,0-2.1-11.986c-.629-2.018-.774-3.428-1.018-3.6-.423-.3-4.18-1.414-5.774-2.04l-.151-.059-.426-.167-.205-.079-.109-.042-.089-.034-.008.009a25.865,25.865,0,0,0-1.761,2.249c-1.645,2.342-3.79,6.133-3.462,9.633.1,1.124.235,2.737.454,4.547.019.155.038.311.058.469.053.417.111.843.175,1.273.038.258.078.519.12.781.436,2.714,1.8,4.564,3.015,6.777l.032.056c.005.011.012.021.017.032.026.047.052.094.077.142l.125.234c.024.045.047.09.071.135.232.446.459.9.68,1.359.142.3.282.592.419.887l.042.092.51,1.186.334.775.233.544.194.451c.137.321.258.6.341.8.062.146.1.246.118.28.417,1.044.719,1.851.857,2.227l.085.234,4.2-2.316c.8-.4.38-2.547.081-3.385a19.316,19.316,0,0,0-.995-2.218c-.161-.316-.331-.636-.5-.959,1.313-2.294,2.644-4.661,3.487-6.269A9.583,9.583,0,0,0,3947.693,2776.621Zm-6.673-6.568,0-.014a.111.111,0,0,1,.006-.02c0-.01.005-.021.008-.031l0-.015v-.009s2.042,3.191,1.887,5.962a13.118,13.118,0,0,1-1.077,2.92v0c-.227.509-.481,1.059-.75,1.633l-.03-.072a7.247,7.247,0,0,1-.645-2.628A67.016,67.016,0,0,1,3941.02,2770.053Z" transform="translate(-3932.551 -2758.541)" fill="#70a9ed"/>
        </g>
        <g id="Grupo_10186" data-name="Grupo 10186" transform="translate(2.88 16.251)">
          <path id="Trazado_1859" data-name="Trazado 1859" d="M3866.06,2772.837l9.5,2.069,4.531-11.846c.1-.079,1.4-.778,2.258-1.187.9-.427,2.028-.953,3.033-1.416l1.313-.6.031.025a56.116,56.116,0,0,0-1.286,6.53h0c-.025.157-.049.316-.074.479,0,.019,0,.038-.008.057-.017.107-.033.217-.049.327,0,.013,0,.027-.007.039-.01.074-.022.149-.032.225-.028.184-.054.372-.083.563-.323,2.27-.777,6.131-1.213,10.03h0c-.345,3.073-1.131,6.226-1.381,8.58v0a16.1,16.1,0,0,1-.326,1.769c-.018.078-.036.158-.055.238-.7,2.97-2.068,7.174-2.068,7.174l-.4-.367-1.177-1.087a.953.953,0,0,1-.265-.984c.652-2.106,2.872-9.561,3.279-14.8v0a17.416,17.416,0,0,0-.633-4.669c-.005.013-.01.026-.014.039-.233.65-.492,1.356-.753,2.043h0c-.7,1.847-1.417,3.558-1.715,3.668-.664.244-13.177-3.177-13.263-3.668Z" transform="translate(-3865.206 -2759.852)" fill="#70a9ed"/>
        </g>
        <g id="Grupo_10187" data-name="Grupo 10187" transform="translate(27.076 15.78)">
          <path id="Trazado_1860" data-name="Trazado 1860" d="M3936.708,2763.651l-1.94,1.094.829.845-2.207,11.912c-.449-2.792-.654-5.444-.806-7.07-.508-5.412,4.895-11.517,5.23-11.891.259.1.54.207.829.322Z" transform="translate(-3932.55 -2758.541)" fill="#679cda"/>
        </g>
        <g id="Grupo_10188" data-name="Grupo 10188" transform="translate(21.198 16.223)">
          <path id="Trazado_1861" data-name="Trazado 1861" d="M3919.427,2759.775a62.693,62.693,0,0,0-1.569,8.274c-.324,2.269-.778,6.131-1.215,10.03l-.452-11.156.924-1-.822-1.027,1.758-4.487,1.313-.6Z" transform="translate(-3916.192 -2759.775)" fill="#679cda"/>
        </g>
        <g id="Grupo_10189" data-name="Grupo 10189" transform="translate(26.802 14.828)">
          <path id="Trazado_1862" data-name="Trazado 1862" d="M3937.424,2756.88l-1.608-.99s-.045.882-4.027,3.185l1.13,3.185Z" transform="translate(-3931.789 -2755.89)" fill="#eee0d7"/>
        </g>
        <g id="Grupo_10190" data-name="Grupo 10190" transform="translate(24.434 15.271)">
          <path id="Trazado_1863" data-name="Trazado 1863" d="M3926.506,2757.125a7.48,7.48,0,0,0,1.06,2.741l-2.207,2.878-.162-4.667Z" transform="translate(-3925.197 -2757.125)" fill="#eee0d7"/>
        </g>
        <g id="Grupo_10191" data-name="Grupo 10191" transform="translate(25.465 18.012)">
          <path id="Trazado_1864" data-name="Trazado 1864" d="M3929.409,2764.754a7.505,7.505,0,0,1,.274,2.19,2.087,2.087,0,0,1-1.617-.086A7.533,7.533,0,0,1,3929.409,2764.754Z" transform="translate(-3928.067 -2764.754)" fill="#363957"/>
        </g>
        <g id="Grupo_10193" data-name="Grupo 10193" transform="translate(24.487 37.71)">
          <g id="Grupo_10192" data-name="Grupo 10192">
            <path id="Trazado_1865" data-name="Trazado 1865" d="M3925.456,2824.557a32.328,32.328,0,0,1,0-4.978l.2.013a33.213,33.213,0,0,0,0,4.925Z" transform="translate(-3925.346 -2819.579)" fill="#a79d97"/>
          </g>
        </g>
        <g id="Grupo_10194" data-name="Grupo 10194" transform="translate(23.703 42.132)">
          <path id="Trazado_1866" data-name="Trazado 1866" d="M3925.731,2831.885s-1.931.23-2.568.39l.084,2.164,2.528-.269Z" transform="translate(-3923.163 -2831.885)" fill="#6c7279"/>
        </g>
        <g id="Grupo_10195" data-name="Grupo 10195" transform="translate(24.008 19.724)">
          <path id="Trazado_1867" data-name="Trazado 1867" d="M3925.854,2769.757a30.373,30.373,0,0,0-1.8,11.522,51.643,51.643,0,0,0,.961,8.6l1.328,1.665.585-2.046a50.206,50.206,0,0,1-.631-15.872c.208-1.418.517-4.106.517-4.106Z" transform="translate(-3924.013 -2769.517)" fill="#363957"/>
        </g>
        <g id="Grupo_10196" data-name="Grupo 10196" transform="translate(30.259 45.632)">
          <path id="Trazado_1868" data-name="Trazado 1868" d="M3943.469,2841.635s-.462.924-.924,1.078a4,4,0,0,0-1.135.9l3.253,1.714a8.9,8.9,0,0,0,.9-2.772C3945.606,2841.481,3943.469,2841.635,3943.469,2841.635Z" transform="translate(-3941.41 -2841.627)" fill="#dba585"/>
        </g>
        <g id="Grupo_10197" data-name="Grupo 10197" transform="translate(31.794 45.726)">
          <path id="Trazado_1869" data-name="Trazado 1869" d="M3945.9,2841.889l-.216.433a14.93,14.93,0,0,0,2.623,1.608l.192-.578Z" transform="translate(-3945.682 -2841.889)" fill="#d7c9c2"/>
        </g>
        <g id="Grupo_10198" data-name="Grupo 10198" transform="translate(31.794 35.328)">
          <path id="Trazado_1870" data-name="Trazado 1870" d="M3945.682,2823.365a15.872,15.872,0,0,0,2.853,1.871l4.388-7.893-2.274-4.4S3945.785,2822.594,3945.682,2823.365Z" transform="translate(-3945.682 -2812.947)" fill="#70a9ed"/>
        </g>
        <g id="Grupo_10199" data-name="Grupo 10199" transform="translate(17.793 23.994)">
          <path id="Trazado_1871" data-name="Trazado 1871" d="M3907.532,2787.827c-.234.65-.493,1.356-.753,2.044a21.916,21.916,0,0,1-.059-2.228,13.66,13.66,0,0,1,1.392-6.241,13.889,13.889,0,0,0-.5,3.628c-.072,1.46-.061,2.757-.061,2.757h0Z" transform="translate(-3906.713 -2781.402)" fill="#496d95"/>
        </g>
        <g id="Grupo_10200" data-name="Grupo 10200" transform="translate(34.836 42.073)">
          <path id="Trazado_1872" data-name="Trazado 1872" d="M3957.662,2832.681l-3.513,4.243,3.009-5.2C3957.331,2832.044,3957.5,2832.365,3957.662,2832.681Z" transform="translate(-3954.149 -2831.722)" fill="#496d95"/>
        </g>
        <g id="Grupo_10201" data-name="Grupo 10201" transform="translate(0 20.759)">
          <path id="Trazado_1873" data-name="Trazado 1873" d="M3870.029,2789.354h-8.11a1.2,1.2,0,0,1-1.17-.921l-3.523-14.545a1.2,1.2,0,0,1,1.17-1.487h8.111a1.2,1.2,0,0,1,1.17.921l3.523,14.545A1.2,1.2,0,0,1,3870.029,2789.354Z" transform="translate(-3857.191 -2772.4)" fill="#d2c7c0"/>
        </g>
        <g id="Grupo_10203" data-name="Grupo 10203" transform="translate(1.511 28.497)">
          <g id="Grupo_10202" data-name="Grupo 10202">
            <path id="Trazado_1874" data-name="Trazado 1874" d="M3862.8,2799.107c.4-.367,1.163-.581,1.818-1.018a.515.515,0,0,0,.108-.89c.674-.231.6-.538.515-.748-.117-.283-.853-.2-.853-.2a7.231,7.231,0,0,0,.931-.267c.271-.12.179-.593-.238-.742a7.432,7.432,0,0,0-2.118.27s.277-.135,1.116-.557,1.023-.8.528-.988c-.344-.127-1.02.14-2.316,1.012-.977.656-.9.741-.9.741S3862.329,2799.546,3862.8,2799.107Z" transform="translate(-3861.396 -2793.935)" fill="#dba585"/>
          </g>
        </g>
      </g>
      <g id="Grupo_10226" data-name="Grupo 10226" transform="translate(209.723 130.083)">
        <g id="Grupo_10207" data-name="Grupo 10207" transform="translate(3.837 91.283)">
          <g id="Grupo_10206" data-name="Grupo 10206">
            <g id="Grupo_10205" data-name="Grupo 10205">
              <path id="Trazado_1875" data-name="Trazado 1875" d="M4247.66,2971.6s-1.885,1.253-2.744,1.727-4.275.777-4.6,1.118-.144,1.355.429,1.43a27.617,27.617,0,0,0,6.125-.167c1.371-.4,4,.011,4.56-.215s.03-3.306-.229-3.99S4247.66,2971.6,4247.66,2971.6Z" transform="translate(-4240.161 -2971.218)" fill="#232536"/>
            </g>
          </g>
        </g>
        <path id="Trazado_1876" data-name="Trazado 1876" d="M4264.3,2969.326l.272.825-3.546.1.115-1.133Z" transform="translate(-4249.696 -2878.587)" fill="#525686"/>
        <g id="Grupo_10210" data-name="Grupo 10210" transform="translate(25.475 88.709)">
          <g id="Grupo_10209" data-name="Grupo 10209">
            <g id="Grupo_10208" data-name="Grupo 10208">
              <path id="Trazado_1877" data-name="Trazado 1877" d="M4306.652,2965.284s-1.445,1.742-2.131,2.443-3.871,1.974-4.081,2.391.252,1.34.823,1.247a27.6,27.6,0,0,0,5.818-1.921c1.2-.775,3.83-1.139,4.307-1.517s-.922-3.174-1.367-3.755S4306.652,2965.284,4306.652,2965.284Z" transform="translate(-4300.388 -2964.051)" fill="#232536"/>
            </g>
          </g>
        </g>
        <path id="Trazado_1878" data-name="Trazado 1878" d="M4320.309,2962.405l.5.712-3.369,1.112-.215-1.119Z" transform="translate(-4285.699 -2874.288)" fill="#525686"/>
        <g id="Grupo_10211" data-name="Grupo 10211" transform="translate(0 17.91)">
          <path id="Trazado_1879" data-name="Trazado 1879" d="M4234.482,2768.5a25.2,25.2,0,0,0-3.47-1.5c-.29.081-.354.267-.063.428s3.035,1.621,3.035,1.621-4.041-1.208-4.293-1.2c-.148.006-.294.358-.145.459s4.1,1.54,4.1,1.54-3.775-1.12-3.981-1.044a.293.293,0,0,0,.037.531c.275.1,3.73,1.352,3.73,1.352a15.141,15.141,0,0,0-2.927-.458c-.083.108-.223.405.5.544s2.406.658,2.406.658Z" transform="translate(-4229.483 -2766.998)" fill="#dba585"/>
        </g>
        <g id="Grupo_10213" data-name="Grupo 10213" transform="translate(3.613 17.588)">
          <g id="Grupo_10212" data-name="Grupo 10212">
            <path id="Trazado_1880" data-name="Trazado 1880" d="M4244.331,2770.345s-1.018-.59-.994-1.284a4.191,4.191,0,0,0-.471-1.624c-.154-.327-.28-1.5-.663-1.313s.123,1.948.16,2.337-1.32-.629-1.7-.612-1.769,2.457-.765,3.043a9.876,9.876,0,0,0,2.58.658,7.2,7.2,0,0,0,.716.457Z" transform="translate(-4239.54 -2766.103)" fill="#dba585"/>
          </g>
        </g>
        <g id="Grupo_10214" data-name="Grupo 10214" transform="translate(6.224 15.984)">
          <path id="Trazado_1881" data-name="Trazado 1881" d="M4259.733,2775.2c-.766,1.651-1.157,1.855-2.044,2.073-1.921.473-10.881-7.686-10.881-7.686l1.956-2.566s2.189,1.705,4.055,2.96c1.154.777,3.435,2.675,3.64,2.547a57.93,57.93,0,0,0,3.539-5.03c.283-.617,1.49-5.339,2.206-5.866C4262.2,2761.637,4264.683,2764.531,4259.733,2775.2Z" transform="translate(-4246.807 -2761.637)" fill="#70a9ed"/>
        </g>
        <g id="Grupo_10215" data-name="Grupo 10215" transform="translate(21.253 47.212)">
          <path id="Trazado_1882" data-name="Trazado 1882" d="M4288.637,2852.624s.675,4.986,1.365,9.773h0c.131.911.263,1.815.39,2.675h0c.446,3.009.842,5.493.994,5.934.432,1.253,6.482,20,6.482,20s4.706-.867,4.863-1.379c0,0-5.123-19.63-5.064-20.34s-.638-20.732-.638-20.732S4288.875,2851.473,4288.637,2852.624Z" transform="translate(-4288.637 -2848.555)" fill="#2e3048"/>
        </g>
        <g id="Grupo_10216" data-name="Grupo 10216" transform="translate(10.427 43.353)">
          <path id="Trazado_1883" data-name="Trazado 1883" d="M4265.5,2839.533s-4.247,20.361-4.6,21.86-2.39,24.351-2.39,24.351a48.721,48.721,0,0,0,5.308,0s3.671-23.119,4.05-23.837c1.471-2.787,7.131-16.807,7.841-18.739a18.376,18.376,0,0,1,1.946-3.688S4272.742,2835.7,4265.5,2839.533Z" transform="translate(-4258.505 -2837.814)" fill="#2e3048"/>
        </g>
        <g id="Grupo_10217" data-name="Grupo 10217" transform="translate(17.391 12.542)">
          <path id="Trazado_1884" data-name="Trazado 1884" d="M4287.254,2752.057a70.434,70.434,0,0,0-5.653,4.562c-1.227,1.3-3.824,6.54-3.614,8.2a84.26,84.26,0,0,1,.276,16.254c-.2,3.312-.522,3.5-.3,3.547.844.164,10.584,2.188,12.2,2.7,0,0,.4-9.927-.116-11.465S4291.829,2758.289,4287.254,2752.057Z" transform="translate(-4277.886 -2752.057)" fill="#70a9ed"/>
        </g>
        <g id="Grupo_10219" data-name="Grupo 10219" transform="translate(19.138 7.495)">
          <g id="Grupo_10218" data-name="Grupo 10218">
            <path id="Trazado_1885" data-name="Trazado 1885" d="M4290.371,2743.058s-8.1,8.543-7.6,7.59c1.806-3.4,3.035-3.959,3.022-4.6-.011-.49-.176-1.922-.2-2.4-.046-.91-.1-1.651-.1-1.651s4.045-5.474,3.837-3.588A11.507,11.507,0,0,0,4290.371,2743.058Z" transform="translate(-4282.75 -2738.012)" fill="#dba585"/>
          </g>
        </g>
        <g id="Grupo_10221" data-name="Grupo 10221" transform="translate(17.541 0.645)">
          <g id="Grupo_10220" data-name="Grupo 10220">
            <path id="Trazado_1886" data-name="Trazado 1886" d="M4280.131,2720.486a20.13,20.13,0,0,0-1.165,3.147,12.779,12.779,0,0,1,.013,1.754,25.121,25.121,0,0,0-.669,2.625c.081.5,1.143.261,1.274,1.092s.873,2.4,1.255,2.438c.983.1,4.779-1.372,5.033-2.156s1.7-5.157,2.137-5.986-6.544-5.535-7.21-4.225Z" transform="translate(-4278.305 -2718.945)" fill="#dba585"/>
          </g>
        </g>
        <path id="Trazado_1887" data-name="Trazado 1887" d="M4290.633,2721.409c.538-2.168-1.96-2.48-1.96-2.48s-1.6-1.925-5.5-1.77-3.4,5.256-3.4,5.256a14.455,14.455,0,0,1,3.873-.038,18.407,18.407,0,0,1-.032,2.712l1.473-.105s-.13-1.931.578-2.01.871,4.1,2.169,5.043a1.446,1.446,0,0,1,.188-.581h0a16.682,16.682,0,0,0,1.061-2.111A24.086,24.086,0,0,0,4290.633,2721.409Z" transform="translate(-4261.692 -2717.15)" fill="#1f2531"/>
        <g id="Grupo_10223" data-name="Grupo 10223" transform="translate(22.815 5.451)">
          <g id="Grupo_10222" data-name="Grupo 10222">
            <path id="Trazado_1888" data-name="Trazado 1888" d="M4293.156,2733.143a1.116,1.116,0,0,1,1.849-.484c.929.711-.083,3.179-1,3.151S4292.744,2734.422,4293.156,2733.143Z" transform="translate(-4292.984 -2732.322)" fill="#dba585"/>
          </g>
        </g>
        <path id="Trazado_1889" data-name="Trazado 1889" d="M4293.925,2746.1a2.862,2.862,0,0,1-.419.957,8.72,8.72,0,0,1-2.982,1.486l.161,1.532S4294.049,2748.842,4293.925,2746.1Z" transform="translate(-4268.593 -2735.696)" fill="#b38870"/>
        <path id="Trazado_1890" data-name="Trazado 1890" d="M4277.608,2841.173a8.7,8.7,0,0,1,.26-1.758s7.192,1.825,12.161,2.564a10.575,10.575,0,0,1-.031,1.74S4279.094,2841.737,4277.608,2841.173Z" transform="translate(-4260.317 -2795.487)" fill="#404367"/>
        <g id="Grupo_10224" data-name="Grupo 10224" transform="translate(18.939 46.805)">
          <path id="Trazado_1891" data-name="Trazado 1891" d="M4283.045,2847.422s-.315,1.191-.792,1.442,2.153,2.856,2.153,2.856a22.392,22.392,0,0,0,1.1-2.592A16.411,16.411,0,0,0,4283.045,2847.422Z" transform="translate(-4282.194 -2847.422)" fill="#dba686"/>
        </g>
        <g id="Grupo_10225" data-name="Grupo 10225" transform="translate(19.15 16.15)">
          <path id="Trazado_1892" data-name="Trazado 1892" d="M4292.239,2763.7s2.869,14.956,3.1,16.485c.218,1.449-9.453,15.068-9.453,15.068l-3.1-1.915s7.851-13.7,7.851-14.329-3.428-12.708-3.428-12.708-1.475-2.643,1.247-3.865A2.689,2.689,0,0,1,4292.239,2763.7Z" transform="translate(-4282.783 -2762.099)" fill="#70a9ed"/>
        </g>
        <path id="Trazado_1893" data-name="Trazado 1893" d="M4277.481,2850.192a51.006,51.006,0,0,0-1.072,6.6c.035,1.553,5.891-2.338,5.625-3.887Z" transform="translate(-4259.548 -2802.392)" fill="#2e3048"/>
        <path id="Trazado_1894" data-name="Trazado 1894" d="M4290.208,2752.526l-5.105,3.729a23.835,23.835,0,0,0-2.606,4.719l8.58-7.161Z" transform="translate(-4263.449 -2739.816)" fill="#70a9ed"/>
        <path id="Trazado_1895" data-name="Trazado 1895" d="M4294.517,2750.141l-4.513,2.97-.347,1.783,5.327-3.8Z" transform="translate(-4268.038 -2738.288)" fill="#6497d2"/>
        <path id="Trazado_1896" data-name="Trazado 1896" d="M4280.479,2762.777s-3.635,6.758-3.741,13.19c-.1,5.987-.337,10.124-.337,10.124l-.576,1.617-.492-1.934s.094-6.971.211-10.134a26.918,26.918,0,0,1,4.64-13.2Z" transform="translate(-4258.859 -2746.171)" fill="#2e3048"/>
        <path id="Trazado_1897" data-name="Trazado 1897" d="M4288.5,2760.191a.848.848,0,0,1-.428.176c-.246.021-.571-.389.775-1.96Z" transform="translate(-4266.878 -2743.584)" fill="#2e3048"/>
        <path id="Trazado_1898" data-name="Trazado 1898" d="M4293.872,2787.806l2.015,7.674-4.905,9.144s3.614-7.7,3.516-9.665S4293.872,2787.806,4293.872,2787.806Z" transform="translate(-4268.886 -2762.42)" fill="#496d95"/>
        <path id="Trazado_1899" data-name="Trazado 1899" d="M4292.437,2872.046h0c.132.911.263,1.814.39,2.675.714-1.641,3.033-10.943,3.073-11.107Z" transform="translate(-4269.818 -2810.992)" fill="#223"/>
      </g>
      <g id="Grupo_10238" data-name="Grupo 10238" transform="translate(0 131.287)">
        <g id="Grupo_10227" data-name="Grupo 10227" transform="translate(6.398 3.647)">
          <path id="Trazado_1900" data-name="Trazado 1900" d="M3664.074,2732.251s-1.088-2.379-3.285-1.337-1.836,4.2-1.02,5.533,3.733,3.3,2.785,5.707a27.156,27.156,0,0,1-2.15,4.26s5.89-.267,6.548-3.4S3664.074,2732.251,3664.074,2732.251Z" transform="translate(-3659.135 -2730.65)" fill="#2c3548"/>
        </g>
        <path id="Trazado_1901" data-name="Trazado 1901" d="M3696.506,2781.17a9.815,9.815,0,0,1-.417-2.1c-.1-1.26-.224-7.281-.254-8.022s-.173-4.23-.971-5.689c-.817-1.49-3.464-2.392-3.464-2.392s1.369,7.309,1.354,8.827a12.3,12.3,0,0,0,.352,2.245l0,.023a1.678,1.678,0,0,1,.026.555c-.068.546-.378.912-.187,1.629l0,.382c.019.072.038.144.057.216.269,1.034.518,2.136.635,2.631.024.1.043.179.054.223.179.668-.039.312.277,1.986C3693.969,2781.68,3696.85,2782.852,3696.506,2781.17Z" transform="translate(-3673.41 -2747.707)" fill="#d88b35"/>
        <path id="Trazado_1902" data-name="Trazado 1902" d="M3656.975,2825.208a16.8,16.8,0,0,0-2.879,6.438c-.615,3.493.363,15.218.336,16.944s-1.633,6.023-1.312,9.275,3,19.625,3,19.625l2.109-.389s-.251-16.988-.051-18.353.6-6.341.684-6.9,5.1-15.323,5.1-17.841S3662.436,2821.1,3656.975,2825.208Z" transform="translate(-3648.856 -2786.978)" fill="#dba585"/>
        <path id="Trazado_1903" data-name="Trazado 1903" d="M3681.7,2828.791s3.721,14.2,4.163,16.168a41.421,41.421,0,0,1,1.081,4.425,40.209,40.209,0,0,0,.751,5.672l4.053,22.891h-2.323s-5.748-14.965-6.394-18.357c-.5-2.611-.593-5.889-.993-7.013s-7.217-13.4-7.217-13.4S3670.232,2824.669,3681.7,2828.791Z" transform="translate(-3662.207 -2789.411)" fill="#dba585"/>
        <path id="Trazado_1904" data-name="Trazado 1904" d="M3671.986,2851.933s-8.605,3.695-21.419,3.695c0,0,.562-16.694,2.425-20.875s14.048-2.3,14.048-2.3S3671.986,2848.431,3671.986,2851.933Z" transform="translate(-3647.247 -2791.959)" fill="#2e3048"/>
        <g id="Grupo_10228" data-name="Grupo 10228" transform="translate(4.627 14.069)">
          <path id="Trazado_1905" data-name="Trazado 1905" d="M3670.407,2771.13c-.965,2.235-.055,2.981-.5,5.217a62.571,62.571,0,0,0-.359,9.571c.083,1.241-12.1,4.345-14.672,2.082,0,0,.668-2.338,1.51-4.832.1-.308.211-.619.32-.928.418-1.192.863-2.356,1.28-3.26a9.151,9.151,0,0,0,.108-3.959c-.117-.3-.7-1.341-1.368-2.509-.28-.487-.575-1-.858-1.481-.8-1.367-1.5-2.551-1.5-2.551s-.708-5.754.785-6.914a7.189,7.189,0,0,1,2.411-.952c.366-.091.741-.174,1.1-.248,1.121-.232,2.119-.382,2.411-.483a10.824,10.824,0,0,1,3.778-.124,20.726,20.726,0,0,0,2.677,1.076c.69.138,3.367,3.615,3.836,4.885S3671.373,2768.9,3670.407,2771.13Z" transform="translate(-3654.206 -2759.657)" fill="#414d99"/>
        </g>
        <g id="Grupo_10229" data-name="Grupo 10229" transform="translate(11.504 9.161)">
          <path id="Trazado_1906" data-name="Trazado 1906" d="M3678.073,2748.716s-.05.457-.11,1.1c-.028.293-.058.627-.088.972a24.035,24.035,0,0,0-.116,2.758s-2.065,2.068-4.412-2.415a6.155,6.155,0,0,0,.243-4.367C3672.846,2744.247,3678.073,2748.716,3678.073,2748.716Z" transform="translate(-3673.347 -2745.996)" fill="#7f503d"/>
        </g>
        <path id="Trazado_1907" data-name="Trazado 1907" d="M3668.929,2760.518s2.5,4.057,5.321,3.886c3.9-.236,1.848-3.542,1.848-3.542a8.56,8.56,0,0,0-1.246-.61c-.273-.052-4.311-.1-4.311-.1Z" transform="translate(-3659.012 -2745.903)" fill="#7f503d"/>
        <g id="Grupo_10230" data-name="Grupo 10230" transform="translate(0 15.342)">
          <path id="Trazado_1908" data-name="Trazado 1908" d="M3649.713,2763.236a4.1,4.1,0,0,0-4.026,1.866,11.436,11.436,0,0,0-1.851,5.209,35.551,35.551,0,0,1-1.114,3.652c-.1.354-1.988,3.97-1.205,5.5s8.221,2.669,8.309,2.994a21.276,21.276,0,0,0,.879-2.611s-1.093-.233-2.148-.581c-1.283-.424-2.571-1.235-2.394-1.893a45.864,45.864,0,0,1,2.061-5.453C3648.586,2771.231,3651.782,2764.225,3649.713,2763.236Z" transform="translate(-3641.328 -2763.2)" fill="#414d99"/>
        </g>
        <path id="Trazado_1909" data-name="Trazado 1909" d="M3714.352,2964.722a4.471,4.471,0,0,1,1.216-.807,1.056,1.056,0,0,1,.959.127c.17.192.662.959.927,1.193a19.659,19.659,0,0,0,2.61,2.2c.448.128,2.387.021,2.281,1.151s-1.683,1.619-4.5,1.363-2.472-.916-4.049-1.257-1.684-1.129-1.407-2.088,1.394-1.913,1.279-2.169S3714.352,2964.722,3714.352,2964.722Z" transform="translate(-3686.783 -2876.428)" fill="#e6d8d1"/>
        <path id="Trazado_1910" data-name="Trazado 1910" d="M3659.24,2971.047a4.346,4.346,0,0,1,1.5-.386c.6.021.534.388.685.611s1.56,2.36,1.944,2.745,1.752.791,1.561,1.752-1.923,1.346-4.062,1.069-3.184-2.265-3.526-2.714.812-3.334,1.155-3.537S3659.24,2971.047,3659.24,2971.047Z" transform="translate(-3651.546 -2880.708)" fill="#e6d8d1"/>
        <path id="Trazado_1911" data-name="Trazado 1911" d="M3699.159,2783.586a27.77,27.77,0,0,1-1.036,3.049,6.56,6.56,0,0,0-.35,3.013,11.738,11.738,0,0,1-.225,2.915s.035,1.075.247,1.066C3697.8,2793.628,3698.782,2790.923,3699.159,2783.586Z" transform="translate(-3677.349 -2760.92)" fill="#c2b7b1"/>
        <g id="Grupo_10231" data-name="Grupo 10231" transform="translate(8.501 4.056)">
          <path id="Trazado_1912" data-name="Trazado 1912" d="M3666.147,2731.787a2.5,2.5,0,0,0-1.156,2.4c.069,1.79,1.823,3.172,2.583,2.808S3666.147,2731.787,3666.147,2731.787Z" transform="translate(-3664.989 -2731.787)" fill="#545888"/>
        </g>
        <g id="Grupo_10232" data-name="Grupo 10232" transform="translate(10.134 0.714)">
          <path id="Trazado_1913" data-name="Trazado 1913" d="M3676.808,2723.109a5.527,5.527,0,0,1,2.175,4.872c-.2,3.308-1.314,6.616-1.994,6.91s-3.573-.784-4.147-1.088a8.1,8.1,0,0,1-2-1.979c-.227-.385-2.62-5.634-.309-7.628S3674.044,2722.112,3676.808,2723.109Z" transform="translate(-3669.534 -2722.487)" fill="#7f503d"/>
        </g>
        <g id="Grupo_10233" data-name="Grupo 10233" transform="translate(9.415)">
          <path id="Trazado_1914" data-name="Trazado 1914" d="M3673.623,2725.779a10.783,10.783,0,0,0,4.09.567s.668-5.847-5.189-5.847-5,5.846-4.882,6.639,1.187,3.641,2.441,4.3c0,0-.447-3.01.391-3.553S3673.192,2726.684,3673.623,2725.779Z" transform="translate(-3667.532 -2720.499)" fill="#2c3548"/>
        </g>
        <g id="Grupo_10234" data-name="Grupo 10234" transform="translate(11.86 5.847)">
          <path id="Trazado_1915" data-name="Trazado 1915" d="M3676.035,2737.678c-.12-.666-.748-1.292-1.473-.612s.5,2.379,1.019,2.288S3676.193,2738.561,3676.035,2737.678Z" transform="translate(-3674.338 -2736.772)" fill="#7f503d"/>
        </g>
        <path id="Trazado_1916" data-name="Trazado 1916" d="M3681.031,2754.692c-.028.293-.058.627-.088.972a5.679,5.679,0,0,1-2.808-2.06A14.856,14.856,0,0,0,3681.031,2754.692Z" transform="translate(-3664.911 -2741.71)" fill="#58392d"/>
        <g id="Grupo_10236" data-name="Grupo 10236" transform="translate(4.731 0.741)">
          <path id="Trazado_1917" data-name="Trazado 1917" d="M3656.2,2748.239a18.037,18.037,0,1,1,23.978,8.7A18.037,18.037,0,0,1,3656.2,2748.239Z" transform="translate(-3654.497 -2722.562)" fill="#e7b96b"/>
          <path id="Trazado_1918" data-name="Trazado 1918" d="M3701.45,2756.458l-15.247-32.623a18.037,18.037,0,0,1,15.247,32.623Z" transform="translate(-3674.811 -2722.561)" fill="#e7b96b"/>
          <path id="Trazado_1919" data-name="Trazado 1919" d="M3656.2,2755.469a18.044,18.044,0,0,1,4.946-21.624l14.816,31.7A18.045,18.045,0,0,1,3656.2,2755.469Z" transform="translate(-3654.497 -2729.791)" fill="#e7b96b"/>
          <path id="Trazado_1920" data-name="Trazado 1920" d="M3667.839,2754.126a13.709,13.709,0,1,1,18.223,6.616A13.709,13.709,0,0,1,3667.839,2754.126Z" transform="translate(-3662.217 -2730.281)" fill="#e09637"/>
          <g id="Grupo_10235" data-name="Grupo 10235" transform="translate(11.655 10.119)">
            <path id="Trazado_1921" data-name="Trazado 1921" d="M3691.727,2764.455a2.779,2.779,0,0,0,.663.165,6.055,6.055,0,0,0,.921.056,6.7,6.7,0,0,0,1.069-.1,5.848,5.848,0,0,0,1.1-.307l-1.755-3.755-.379.089a17.656,17.656,0,0,1-2.014.3,5.593,5.593,0,0,1-1.663-.084,3.184,3.184,0,0,1-1.323-.631,3.665,3.665,0,0,1-.99-1.338,3.967,3.967,0,0,1-.422-1.8,3.538,3.538,0,0,1,.422-1.579,4.717,4.717,0,0,1,1.1-1.341,7.6,7.6,0,0,1,1.617-1.054l-.889-1.9.943-.44.907,1.94a10.085,10.085,0,0,1,2.726-.644,8.637,8.637,0,0,1,2.714.179l-.111,2.174a3.576,3.576,0,0,0-.8-.2,7.26,7.26,0,0,0-1.118-.074,9.008,9.008,0,0,0-1.31.1,7.913,7.913,0,0,0-1.38.335l1.755,3.755c.083-.01.169-.024.257-.042s.172-.033.256-.042a16.861,16.861,0,0,1,1.928-.249,4.617,4.617,0,0,1,1.506.125,2.942,2.942,0,0,1,1.153.6,3.421,3.421,0,0,1,.851,1.183,4.222,4.222,0,0,1,.429,1.722,3.82,3.82,0,0,1-.315,1.6,4.586,4.586,0,0,1-.95,1.394,6.758,6.758,0,0,1-1.494,1.129l.856,1.832-.943.441-.856-1.832a7.731,7.731,0,0,1-2.4.546,8.688,8.688,0,0,1-2.209-.14Zm5.765-3.269a1.444,1.444,0,0,0-1.069-.893,5.69,5.69,0,0,0-1.937.088l1.67,3.573a2.905,2.905,0,0,0,1.391-1.28A1.732,1.732,0,0,0,3697.492,2761.186Zm-8.056-3.573a1.481,1.481,0,0,0,1.2.91,7.549,7.549,0,0,0,2.121-.1l-1.679-3.592a3.644,3.644,0,0,0-1.583,1.271A1.51,1.51,0,0,0,3689.436,2757.614Z" transform="translate(-3686.937 -2750.726)" fill="#eac483"/>
          </g>
          <path id="Trazado_1922" data-name="Trazado 1922" d="M3709.01,2754.835a18.042,18.042,0,0,0-14.893-31.867Z" transform="translate(-3679.882 -2722.562)" fill="#f7f7f7" style="mix-blend-mode: soft-light;isolation: isolate"/>
          <path id="Trazado_1923" data-name="Trazado 1923" d="M3687.812,2760.588l-14.816-31.7a18.08,18.08,0,0,1,3.758-2.354q.491-.229.987-.426l15.247,32.623q-.469.256-.96.484A18.063,18.063,0,0,1,3687.812,2760.588Z" transform="translate(-3666.349 -2724.834)" fill="#f7f7f7" style="mix-blend-mode: soft-light;isolation: isolate"/>
        </g>
        <path id="Trazado_1924" data-name="Trazado 1924" d="M3741.115,2797.352s1.337.991.989,2a4.028,4.028,0,0,1-1.686,2.038c-.483.251-1.777.831-1.907.211C3738.092,2799.609,3741.115,2797.352,3741.115,2797.352Z" transform="translate(-3703.568 -2769.74)" fill="#dba585"/>
        <path id="Trazado_1925" data-name="Trazado 1925" d="M3746.969,2797.837s.8-1.013.368-1.217-.812.66-.812.66Z" transform="translate(-3708.729 -2769.251)" fill="#dba585"/>
        <g id="Grupo_10237" data-name="Grupo 10237" transform="translate(7.967 31.928)">
          <path id="Trazado_1926" data-name="Trazado 1926" d="M3664.469,2809.538s-1.1.175-.954.618.389,1,.389,1Z" transform="translate(-3663.502 -2809.476)" fill="#7f503d"/>
          <path id="Trazado_1927" data-name="Trazado 1927" d="M3672.549,2812.815l-4.253-1.969c.466-.049,1.236-.164,1.184-.4-.074-.336-1.533-.332-2.047-.5a3.836,3.836,0,0,0-1.294-.095l-1.046-.484-.474,1.686s2.145,1.284,2.778,1.626a13.589,13.589,0,0,0,4.995.591C3672.645,2812.964,3672.549,2812.815,3672.549,2812.815Z" transform="translate(-3664.218 -2809.364)" fill="#dba585"/>
        </g>
        <path id="Trazado_1928" data-name="Trazado 1928" d="M3655.54,2806.977a9.75,9.75,0,0,1-1.093,3.044s-4.465-1.611-5.573-2.026l2.784-2.45A14.4,14.4,0,0,0,3655.54,2806.977Z" transform="translate(-3646.163 -2774.989)" fill="#414d99"/>
      </g>
    </g>
  </g>
</svg>
