<svg xmlns="http://www.w3.org/2000/svg" width="83.809" height="89.059" viewBox="0 0 83.809 89.059">
  <g id="Grupo_10106" data-name="Grupo 10106" transform="translate(0)">
    <path id="Trazado_1770" data-name="Trazado 1770" d="M2484.005,950.731l-9.775,18.381-17.871-9.993,8.972-2.552c-4.083-13.276.8-26.625,9.7-34.94a20.563,20.563,0,0,0,4.085,11.671,25.2,25.2,0,0,0-4.085,19.986Zm13.056-46.61c-8.971,0-16.266,7.513-16.266,15.829a16.456,16.456,0,0,0,16.266,16.63c8.9,0,15.391-7.441,15.391-16.63C2512.452,911.634,2505.961,904.121,2497.062,904.121Zm.8,23.341v1.677h-2.48v-1.677c-.8,0-2.408-.875-4.013-.875l.8-3.282c1.6.8,3.21,1.6,4.887.8,1.6,0,1.6-1.677,0-1.677-.875-.8-5.69-1.679-5.69-4.96,0-1.679,1.6-4.159,4.013-4.159v-2.552h2.48v1.677c1.6,0,2.406.875,4.011.875-.8.8-.8,3.283-.8,3.283-.8,0-2.408-.8-4.013-.8-1.677,0-1.677,1.679-.875,1.679,2.48,1.677,6.565,2.48,6.565,5.836C2502.751,925.784,2500.271,927.462,2497.865,927.462Zm39.024,7.441-17.068-9.993-9.774,17.505,8.169-2.48a21.318,21.318,0,0,1-3.283,19.987,33.857,33.857,0,0,1,4.085,11.67,35.063,35.063,0,0,0,9.7-34.137Zm-39.828,26.7c6.491,0,11.38,4.96,11.38,11.671,0,6.637-4.889,12.473-11.38,12.473a12.668,12.668,0,0,1-12.255-12.473C2484.807,966.56,2490.5,961.6,2497.062,961.6Zm0-4.157c-8.971,0-16.266,7.439-16.266,15.828a16.5,16.5,0,0,0,16.266,16.63c8.9,0,15.391-7.513,15.391-16.63A15.578,15.578,0,0,0,2497.062,957.442Zm-1.677,14.15c0-2.48,2.48-3.356,4.886-2.48l.8-2.552c-4.888-1.679-8.1.875-9.7,5.032h-.875v1.678h.875v.8h-1.677v1.679h1.677a6.422,6.422,0,0,0,9.7,4.157l-.8-2.48c-2.406,1.678-4.886.8-4.886-1.677h4.085v-1.679h-4.888v-.8h5.689v-1.678Z" transform="translate(-2453.08 -900.842)" fill="#454546" fill-rule="evenodd" opacity="0.25"/>
    <path id="Trazado_1771" data-name="Trazado 1771" d="M2482.005,948.731l-9.775,18.381-17.871-9.993,8.972-2.552c-4.083-13.276.8-26.625,9.7-34.94a20.56,20.56,0,0,0,4.085,11.671,25.2,25.2,0,0,0-4.085,19.986Zm13.056-46.61c-8.971,0-16.266,7.513-16.266,15.828a16.455,16.455,0,0,0,16.266,16.63c8.9,0,15.391-7.44,15.391-16.63C2510.452,909.634,2503.961,902.121,2495.062,902.121Zm.8,23.341v1.677h-2.48v-1.677c-.8,0-2.408-.875-4.013-.875l.8-3.282c1.6.8,3.21,1.6,4.886.8,1.6,0,1.6-1.677,0-1.677-.875-.8-5.69-1.679-5.69-4.96,0-1.679,1.6-4.159,4.013-4.159v-2.552h2.48v1.677c1.6,0,2.406.875,4.011.875-.8.8-.8,3.283-.8,3.283-.8,0-2.408-.8-4.013-.8-1.677,0-1.677,1.679-.875,1.679,2.48,1.677,6.565,2.48,6.565,5.836C2500.751,923.784,2498.271,925.462,2495.865,925.462Zm39.024,7.441-17.068-9.993-9.775,17.505,8.17-2.48a21.319,21.319,0,0,1-3.283,19.987,33.853,33.853,0,0,1,4.085,11.67,35.062,35.062,0,0,0,9.7-34.137Zm-39.827,26.7c6.491,0,11.38,4.96,11.38,11.671,0,6.637-4.889,12.473-11.38,12.473a12.669,12.669,0,0,1-12.255-12.473C2482.806,964.56,2488.5,959.6,2495.062,959.6Zm0-4.157c-8.971,0-16.266,7.439-16.266,15.828a16.5,16.5,0,0,0,16.266,16.63c8.9,0,15.391-7.513,15.391-16.63A15.578,15.578,0,0,0,2495.062,955.442Zm-1.677,14.15c0-2.48,2.48-3.355,4.886-2.48l.8-2.552c-4.888-1.679-8.1.875-9.7,5.032h-.875v1.679h.875v.8h-1.677v1.679h1.677a6.422,6.422,0,0,0,9.7,4.157l-.8-2.48c-2.406,1.679-4.886.8-4.886-1.677h4.085v-1.679h-4.888v-.8h5.69v-1.679Z" transform="translate(-2454.359 -902.121)" fill="#fff" fill-rule="evenodd"/>
  </g>
</svg>
