<svg xmlns="http://www.w3.org/2000/svg" width="85.558" height="83.808" viewBox="0 0 85.558 83.808">
  <g id="Grupo_10102" data-name="Grupo 10102" transform="translate(0)">
    <path id="Trazado_1762" data-name="Trazado 1762" d="M2616.546,973.819c-10.43,0-19.184,4.108-19.184,9.862,0,4.932,8.753,9.863,19.184,9.863,11.16,0,19.185-4.931,19.185-9.863C2635.73,977.927,2627.706,973.819,2616.546,973.819Zm1.6,14.794v1.641h-2.406v-1.641c-1.6,0-3.21,0-4.013-.824l.8-2.466c.8.825,2.407.825,3.21.825h1.6c.8,0,.8-.825,0-1.643-1.6,0-5.618-.824-5.618-3.29,0-.823.8-2.465,4.013-3.288v-.818h2.406v.818a5.943,5.943,0,0,1,3.209.823l-.8,1.643h-3.208c-2.408,0-2.408.823-.8,1.647,2.407,0,5.544.818,5.544,3.283C2622.09,986.971,2619.756,988.614,2618.151,988.614Zm13.568,4.106a17.456,17.456,0,0,0,4.011-2.465v3.29c0,5.747-8.024,9.862-19.185,9.862-10.43,0-19.184-4.115-19.184-9.862v-3.29a17.51,17.51,0,0,0,4.011,2.465c4.013,2.465,9.557,3.29,15.172,3.29C2622.09,996.01,2627.706,995.185,2631.719,992.72Zm0,20.541a17.523,17.523,0,0,0,4.011-2.459v3.282c0,5.755-8.024,9.863-19.185,9.863-10.43,0-19.184-4.108-19.184-9.863V1010.8a17.578,17.578,0,0,0,4.011,2.459c4.013,2.465,9.557,3.288,15.172,3.288C2622.09,1016.549,2627.706,1015.727,2631.719,1013.261Zm0-9.855c1.6-.824,3.209-1.649,4.011-3.29v4.106c0,4.931-8.024,9.862-19.185,9.862-10.43,0-19.184-4.931-19.184-9.862v-4.106c.8,1.641,2.408,2.465,4.011,3.29a36.715,36.715,0,0,0,30.346,0Zm43.108,9.855c1.6-.818,3.209-1.643,4.814-2.459v3.282c0,5.755-8.753,9.863-19.987,9.863-10.357,0-19.184-4.108-19.184-9.863V1010.8a17.57,17.57,0,0,0,4.013,2.459c4.011,2.465,9.629,3.288,15.171,3.288C2665.272,1016.549,2670.889,1015.727,2674.828,1013.261Zm0-20.541c1.6-.825,3.209-1.641,4.814-2.465v3.29c0,5.747-8.753,9.862-19.987,9.862-10.357,0-19.184-4.115-19.184-9.862v-3.29a17.5,17.5,0,0,0,4.013,2.465c4.011,2.465,9.629,3.29,15.171,3.29C2665.272,996.01,2670.889,995.185,2674.828,992.72Zm0,10.686a16.883,16.883,0,0,0,4.814-3.29v4.106c0,4.931-8.753,9.862-19.987,9.862-10.357,0-19.184-4.931-19.184-9.862v-4.106c.8,1.641,2.408,2.465,4.013,3.29a41.9,41.9,0,0,0,15.171,3.282A41.222,41.222,0,0,0,2674.828,1003.406Zm0-20.548a16.72,16.72,0,0,0,4.814-3.283v4.106c0,4.932-8.753,9.863-19.987,9.863-10.357,0-19.184-4.931-19.184-9.863v-4.106c.8,1.641,2.408,2.465,4.013,3.283a41.767,41.767,0,0,0,15.171,3.29A41.087,41.087,0,0,0,2674.828,982.858Zm-15.173-39.44c-10.357,0-19.184,4.106-19.184,9.037,0,5.755,8.827,9.862,19.184,9.862,11.234,0,19.987-4.106,19.987-9.862C2679.642,947.524,2670.889,943.418,2659.655,943.418Zm1.6,13.968v1.641h-2.406v-.816c-1.6,0-3.21-.825-3.939-.825l.729-2.465c.8,0,2.408.824,4.011.824h.8c.8-.824,1.6-1.649,0-1.649-1.6-.816-5.544-.816-5.544-3.282,0-1.643.729-3.29,3.939-3.29v-1.641h2.406v1.641h3.209a8.39,8.39,0,0,1-.8,2.466c-.8,0-1.6-.818-3.21-.818s-2.406,1.643-.8,1.643c2.408.816,5.618,1.641,5.618,4.106C2665.272,956.561,2663.668,957.386,2661.26,957.386Zm13.568,4.931a16.719,16.719,0,0,0,4.814-3.29v4.115c0,4.931-8.753,9.855-19.987,9.855-10.357,0-19.184-4.924-19.184-9.855v-4.115c.8,1.649,2.408,2.465,4.013,3.29a41.9,41.9,0,0,0,15.171,3.29A41.217,41.217,0,0,0,2674.828,962.317Zm0,9.862c1.6-.824,3.209-1.641,4.814-2.465V973c0,5.754-8.753,9.862-19.987,9.862-10.357,0-19.184-4.108-19.184-9.862v-3.283a17.494,17.494,0,0,0,4.013,2.465c4.011,2.465,9.629,3.283,15.171,3.283C2665.272,975.462,2670.889,974.644,2674.828,972.179Z" transform="translate(-2594.084 -940.14)" fill="#454546" fill-rule="evenodd" opacity="0.25"/>
    <path id="Trazado_1763" data-name="Trazado 1763" d="M2614.546,971.819c-10.431,0-19.184,4.108-19.184,9.862,0,4.933,8.753,9.863,19.184,9.863,11.16,0,19.184-4.931,19.184-9.863C2633.73,975.927,2625.706,971.819,2614.546,971.819Zm1.6,14.794v1.641h-2.407v-1.641c-1.6,0-3.209,0-4.013-.825l.8-2.465c.8.825,2.406.825,3.209.825h1.6c.8,0,.8-.825,0-1.643-1.6,0-5.618-.825-5.618-3.29,0-.823.8-2.465,4.013-3.288v-.818h2.407v.818a5.945,5.945,0,0,1,3.209.823l-.8,1.643h-3.208c-2.408,0-2.408.823-.8,1.647,2.406,0,5.544.818,5.544,3.283C2620.09,984.971,2617.755,986.614,2616.151,986.614Zm13.568,4.106a17.43,17.43,0,0,0,4.011-2.466v3.29c0,5.747-8.024,9.862-19.184,9.862-10.431,0-19.184-4.115-19.184-9.862v-3.29a17.51,17.51,0,0,0,4.012,2.466c4.013,2.465,9.556,3.29,15.172,3.29C2620.09,994.01,2625.706,993.185,2629.719,990.72Zm0,20.541a17.493,17.493,0,0,0,4.011-2.459v3.282c0,5.755-8.024,9.863-19.184,9.863-10.431,0-19.184-4.108-19.184-9.863V1008.8a17.574,17.574,0,0,0,4.012,2.459c4.013,2.465,9.556,3.288,15.172,3.288C2620.09,1014.55,2625.706,1013.727,2629.719,1011.261Zm0-9.855c1.6-.825,3.21-1.649,4.011-3.29v4.106c0,4.931-8.024,9.862-19.184,9.862-10.431,0-19.184-4.931-19.184-9.862v-4.106c.8,1.641,2.408,2.465,4.012,3.29a36.715,36.715,0,0,0,30.345,0Zm43.109,9.855c1.6-.818,3.209-1.642,4.814-2.459v3.282c0,5.755-8.753,9.863-19.987,9.863-10.357,0-19.184-4.108-19.184-9.863V1008.8a17.551,17.551,0,0,0,4.013,2.459c4.011,2.465,9.629,3.288,15.171,3.288C2663.272,1014.55,2668.889,1013.727,2672.828,1011.261Zm0-20.541c1.6-.825,3.209-1.641,4.814-2.466v3.29c0,5.747-8.753,9.862-19.987,9.862-10.357,0-19.184-4.115-19.184-9.862v-3.29a17.487,17.487,0,0,0,4.013,2.466c4.011,2.465,9.629,3.29,15.171,3.29C2663.272,994.01,2668.889,993.185,2672.828,990.72Zm0,10.686a16.89,16.89,0,0,0,4.814-3.29v4.106c0,4.931-8.753,9.862-19.987,9.862-10.357,0-19.184-4.931-19.184-9.862v-4.106c.8,1.641,2.408,2.465,4.013,3.29a41.9,41.9,0,0,0,15.171,3.282A41.222,41.222,0,0,0,2672.828,1001.406Zm0-20.548a16.725,16.725,0,0,0,4.814-3.284v4.106c0,4.933-8.753,9.863-19.987,9.863-10.357,0-19.184-4.931-19.184-9.863v-4.106c.8,1.641,2.408,2.466,4.013,3.284a41.765,41.765,0,0,0,15.171,3.29A41.087,41.087,0,0,0,2672.828,980.858Zm-15.173-39.44c-10.357,0-19.184,4.106-19.184,9.037,0,5.755,8.827,9.862,19.184,9.862,11.234,0,19.987-4.106,19.987-9.862C2677.642,945.524,2668.889,941.418,2657.655,941.418Zm1.6,13.968v1.641h-2.407v-.816c-1.6,0-3.209-.824-3.939-.824l.729-2.465c.8,0,2.408.824,4.011.824h.8c.8-.824,1.6-1.649,0-1.649-1.6-.816-5.544-.816-5.544-3.282,0-1.643.729-3.29,3.939-3.29v-1.641h2.407v1.641h3.209a8.387,8.387,0,0,1-.8,2.465c-.8,0-1.6-.818-3.209-.818s-2.406,1.643-.8,1.643c2.408.816,5.618,1.641,5.618,4.106C2663.272,954.561,2661.667,955.386,2659.26,955.386Zm13.568,4.931a16.727,16.727,0,0,0,4.814-3.29v4.115c0,4.931-8.753,9.855-19.987,9.855-10.357,0-19.184-4.924-19.184-9.855v-4.115c.8,1.649,2.408,2.465,4.013,3.29a41.9,41.9,0,0,0,15.171,3.29A41.217,41.217,0,0,0,2672.828,960.317Zm0,9.862c1.6-.825,3.209-1.641,4.814-2.465V971c0,5.754-8.753,9.862-19.987,9.862-10.357,0-19.184-4.108-19.184-9.862v-3.283a17.492,17.492,0,0,0,4.013,2.465c4.011,2.465,9.629,3.283,15.171,3.283C2663.272,973.462,2668.889,972.644,2672.828,970.179Z" transform="translate(-2595.362 -941.418)" fill="#fff" fill-rule="evenodd"/>
  </g>
</svg>
