<svg xmlns="http://www.w3.org/2000/svg" width="73.305" height="91.686" viewBox="0 0 73.305 91.686">
  <g id="Grupo_10104" data-name="Grupo 10104" transform="translate(0)">
    <path id="Trazado_1766" data-name="Trazado 1766" d="M2729.4,1083.844h-4.3v28.375a8.539,8.539,0,0,1-8.534,8.534c-5.106,0-9.337-3.429-9.337-8.534v-24.073a5.812,5.812,0,0,1,5.908-5.981c2.626,0,5.18,2.554,5.18,5.981v18.892a1.883,1.883,0,0,1-1.751,1.751c-1.678,0-2.554-.875-2.554-1.751v-13.714h-4.231v13.714c0,3.429,2.554,5.982,6.785,5.982a5.827,5.827,0,0,0,5.98-5.982v-18.892c0-5.981-4.229-10.284-9.409-10.284a9.9,9.9,0,0,0-10.212,10.284v24.073a13.5,13.5,0,0,0,13.642,13.712c6.857,0,12.837-5.982,12.837-13.712Zm27.354,47.268h-33.334v5.98h33.334Zm-27.354-5.18h27.354v-5.982h-23.123C2731.952,1122.5,2731.076,1124.181,2729.4,1125.932Zm23.926-42.088h-17.945v8.606h12.765v17.143h17.142v48.945h-50.4v-27.426c-2.553,0-5.981-.875-7.659-2.626v37.785h65.722v-61.783Zm3.428,58.428h-33.334v5.981h33.334Z" transform="translate(-2699.64 -1074.585)" fill="#454546" fill-rule="evenodd" opacity="0.25"/>
    <path id="Trazado_1767" data-name="Trazado 1767" d="M2727.4,1081.845h-4.3v28.375a8.539,8.539,0,0,1-8.534,8.534c-5.106,0-9.337-3.429-9.337-8.534v-24.072a5.812,5.812,0,0,1,5.908-5.981c2.626,0,5.18,2.554,5.18,5.981v18.892a1.883,1.883,0,0,1-1.751,1.751c-1.678,0-2.554-.875-2.554-1.751v-13.714h-4.231v13.714c0,3.429,2.554,5.982,6.785,5.982a5.827,5.827,0,0,0,5.98-5.982v-18.892c0-5.981-4.229-10.284-9.409-10.284a9.9,9.9,0,0,0-10.212,10.284v24.072a13.5,13.5,0,0,0,13.642,13.712c6.857,0,12.837-5.982,12.837-13.712Zm27.354,47.268h-33.334v5.98h33.334Zm-27.354-5.18h27.354v-5.982h-23.123C2729.952,1120.5,2729.077,1122.182,2727.4,1123.932Zm23.926-42.088h-17.945v8.606h12.765v17.143h17.142v48.945h-50.4v-27.426c-2.553,0-5.982-.875-7.659-2.626v37.785h65.722v-61.783Zm3.428,58.428h-33.334v5.981h33.334Z" transform="translate(-2700.919 -1075.863)" fill="#fff" fill-rule="evenodd"/>
  </g>
</svg>
