<svg xmlns="http://www.w3.org/2000/svg" xmlns:xlink="http://www.w3.org/1999/xlink" width="290" height="227.345" viewBox="0 0 290 227.345">
  <defs>
    <radialGradient id="radial-gradient" cx="0.953" cy="-13.949" r="40.901" gradientTransform="matrix(-0.022, 0, 0, 1, -18.221, 0)" gradientUnits="objectBoundingBox">
      <stop offset="0.002" stop-color="#cdf7f1"/>
      <stop offset="1" stop-color="#5dcfca"/>
    </radialGradient>
  </defs>
  <g id="Grupo_10543" data-name="Grupo 10543" transform="translate(-1584.372 -2978.785)">
    <g id="Grupo_10490" data-name="Grupo 10490" transform="translate(1711.301 3017.147)">
      <g id="Grupo_10489" data-name="Grupo 10489" transform="translate(0 0)">
        <path id="Trazado_2312" data-name="Trazado 2312" d="M2140.794,3113.195l1.533-10.6a8.075,8.075,0,0,1,6.97-2.772c4.889.708,8.086,6.567,7.141,13.09s-5.672,11.231-10.559,10.526c-3.421-.5-6.011-3.517-6.936-7.515A3.862,3.862,0,0,0,2140.794,3113.195Z" transform="translate(-2090.002 -3099.753)" fill="#163f59"/>
        <path id="Trazado_2313" data-name="Trazado 2313" d="M2171.953,3122.508c.185,1.694-1.6,3.279-3.987,3.54l-5.445.6c-2.388.261-4.476-.9-4.66-2.593l-1.7-15.448c-.187-1.694,1.6-3.278,3.985-3.543l5.447-.6c2.388-.265,4.475.9,4.661,2.59Z" transform="translate(-2101.749 -3102.948)" fill="#163f59"/>
        <path id="Trazado_2314" data-name="Trazado 2314" d="M2153.512,3159.918c-3.23,1.4-4.846.962-2.379,2,1.187,1.454,16.348-.568,17.173-2.451.136-.316-6.019-1.219-6.052-1.455a19.51,19.51,0,0,1,.236-8.086.455.455,0,0,0-.405-.423c-1.148.033-2.3.043-3.46.076-.191.01-2.449.507-1.948,1.591C2156.926,3154.143,2156.928,3158.438,2153.512,3159.918Z" transform="translate(-2097.508 -3133.727)" fill="#ffc4ad"/>
        <path id="Trazado_2315" data-name="Trazado 2315" d="M2155.462,3126.467c-.052-.107-.1-.217-.153-.327-.012-.033-.03-.065-.045-.1-.061-.135-.119-.276-.176-.422-.016-.039-.028-.076-.042-.115-.04-.108-.08-.218-.118-.33-.021-.059-.043-.122-.062-.183-.031-.094-.061-.188-.091-.286-.021-.066-.04-.133-.059-.2-.036-.126-.067-.253-.1-.383-.023-.095-.048-.191-.071-.292s-.043-.178-.062-.266-.037-.18-.056-.273c-.015-.077-.032-.155-.045-.238-.012-.064-.026-.126-.039-.19v0a28.827,28.827,0,0,1,1.058-8.747.792.792,0,0,1,.87-.486c2.664.3,10.783-.079,8.685,7.32v.007c0,.018-.122.654-.185.946-.006.028-.011.051-.018.074-.065.294-.135.585-.213.865-.006.02-.01.038-.015.055-.081.287-.164.566-.256.839a.076.076,0,0,1-.009.028c-1.162,3.488-3.2,5.79-5.353,5.64a4.231,4.231,0,0,1-3.189-2.454h0a.272.272,0,0,1-.018-.036c-.062-.11-.125-.224-.184-.341C2155.5,3126.536,2155.478,3126.5,2155.462,3126.467Z" transform="translate(-2100.486 -3109.221)" fill="#ffc4ad"/>
        <path id="Trazado_2316" data-name="Trazado 2316" d="M2297.962,3159.11s.565.27.8-.158a8.8,8.8,0,0,0,.553-2.9c.028-.645-.346-3.7-.346-3.7a3.589,3.589,0,0,0-.476,2.187A15.545,15.545,0,0,1,2297.962,3159.11Z" transform="translate(-2198.591 -3135.67)" fill="#e3ae9a"/>
        <path id="Trazado_2317" data-name="Trazado 2317" d="M2296.451,3159.187c.514-1.042.247-2.358-.44-3.834a2.639,2.639,0,0,1-.178-2.275,18.527,18.527,0,0,1,1.3,3.134,5.749,5.749,0,0,1,.393,2.02C2297.448,3160.252,2295.128,3161.864,2296.451,3159.187Z" transform="translate(-2197.023 -3136.166)" fill="#e3ae9a"/>
        <path id="Trazado_2318" data-name="Trazado 2318" d="M2158.11,3634.007a25.006,25.006,0,0,1,4.522-1.234c1.946-.4,3.428-.418,4.117-1.163,1.136-1.228.328-5.028.9-4.908,2.77.585,3.923,7.123,2.327,7.956s-10.69.708-11.439.661S2157.877,3633.836,2158.11,3634.007Z" transform="translate(-2102.976 -3459.59)" fill="#ffc4ad"/>
        <path id="Trazado_2319" data-name="Trazado 2319" d="M2151.7,3358.858a38.749,38.749,0,0,0-10.293-.528c.5,4.476,1.21,9.374,2.115,14.637,3.649-4.439,11.373-2.625,13.215-.648.425-3,.753-6.114.964-9.322.061-.923.1-1.842.117-2.751C2155.847,3359.717,2153.8,3359.245,2151.7,3358.858Z" transform="translate(-2091.683 -3276.238)" fill="#e3ae9a"/>
        <path id="Trazado_2320" data-name="Trazado 2320" d="M2042.622,3253.413c-5.483,4.473-29.156,10.633-29.156,10.633s-5.1-1.284,24.885-13.816C2039.851,3249.6,2043.978,3252.308,2042.622,3253.413Z" transform="translate(-2004.092 -3202.446)" fill="#e3ae9a"/>
        <g id="Grupo_10488" data-name="Grupo 10488" transform="translate(0 52.839)">
          <path id="Trazado_2321" data-name="Trazado 2321" d="M2000.468,3297.713a6.627,6.627,0,0,0-2.462,1.54c-.4.584-1.813,3.629-1.813,3.629a3.943,3.943,0,0,0,1.7-1.752A13.328,13.328,0,0,1,2000.468,3297.713Z" transform="translate(-1992.522 -3287.773)" fill="#e3ae9a"/>
          <path id="Trazado_2322" data-name="Trazado 2322" d="M1994.738,3300.115c-1.228.321-2.122,1.485-2.847,3.106a2.907,2.907,0,0,1-1.751,1.778,20.329,20.329,0,0,1,1.657-3.317c.371-.639.775-1.272,1.188-1.875C1994.346,3297.812,1997.893,3299.291,1994.738,3300.115Z" transform="translate(-1988.388 -3288.522)" fill="#e3ae9a"/>
          <path id="Trazado_2323" data-name="Trazado 2323" d="M2008.073,3293.232c-.206.864-1.57,1.851-1.529,2.406a6.078,6.078,0,0,0,.641,2.436c-1.853-.222-1.816-2.877-2.525-3.781S2008.606,3290.993,2008.073,3293.232Z" transform="translate(-1998.255 -3284.079)" fill="#e3ae9a"/>
          <path id="Trazado_2324" data-name="Trazado 2324" d="M2011.931,3275.8c-3.227.828-6.947,1.707-8.495,2.874-2.2,1.659-2.609,3.486-4.461,3.967a5.042,5.042,0,0,0-.585.228c-.52.211-1.14.35-1.347.466-.23.127-.84.57-.67.295,1.528-2.435,3.477-5.007,4.089-5.338,1.254-.681,8.366-4.139,11.272-4.881C2015.011,3272.575,2016.29,3274.677,2011.931,3275.8Z" transform="translate(-1992.625 -3271.046)" fill="#e3ae9a"/>
          <path id="Trazado_2325" data-name="Trazado 2325" d="M1990.915,3300.847s-.181-.665-.706-.552a9.639,9.639,0,0,0-2.788,1.621c-.548.438-2.8,2.932-2.8,2.932a3.928,3.928,0,0,0,2.15-1.171A16.812,16.812,0,0,1,1990.915,3300.847Z" transform="translate(-1984.616 -3289.528)" fill="#e3ae9a"/>
          <path id="Trazado_2326" data-name="Trazado 2326" d="M2027.638,3266.432c2.123.856,8.305-.811,8.318.393-5.674,3.394-22.9,6.2-22.9,6.2Z" transform="translate(-2004.038 -3266.37)" fill="#e3ae9a"/>
        </g>
        <path id="Trazado_2327" data-name="Trazado 2327" d="M2226.716,3212.479c2.949,2.178,5.56,9.839,7.585,14.692a8.906,8.906,0,0,1,.722,4.8s-1,6.412-8.638-11.063C2224.472,3216.533,2225.61,3211.662,2226.716,3212.479Z" transform="translate(-2149.01 -3176.668)" fill="#ffc4ad"/>
        <path id="Trazado_2328" data-name="Trazado 2328" d="M2248.2,3221.765c.038-6.455,11.595-23.467,11.595-23.467s6.071-5.128-5.01,19.868C2251.455,3225.671,2248.185,3223.357,2248.2,3221.765Z" transform="translate(-2164.608 -3166.75)" fill="#ffc4ad"/>
        <path id="Trazado_2329" data-name="Trazado 2329" d="M2283.517,3165.99l.493.314.332,1.977a22.626,22.626,0,0,1-1.7,4.7c-.811,1.2-2.034,6.6-2.364,7.2s-3.52.569-3.52.569,2.564-5.13,3.407-7.252,1-5.555,1.3-6.4a22.947,22.947,0,0,0,.692-2.2s.731.381.059,2.686c-.175.608.6.481.6.481Z" transform="translate(-2184.109 -3144.243)" fill="#ffc4ad"/>
        <path id="Trazado_2330" data-name="Trazado 2330" d="M2152.389,3426.248c1.274-.685,3.648.9,5.331,4.11,3.3,6.288,4.451,14.958,5.211,25.695.8,11.356.97,19.829.934,26.837-.034,6.922,3.051,16.533-2.181,15.707.447-9.526-1.385-23.593-4.309-30.933C2147.389,3442.6,2148.475,3428.341,2152.389,3426.248Z" transform="translate(-2097.255 -3322.6)" fill="#ffc4ad"/>
        <path id="Trazado_2331" data-name="Trazado 2331" d="M2214.657,3649.488a22.224,22.224,0,0,1,3.495-1.6c1.528-.6,2.754-.852,3.168-1.487.684-1.051.261-4.069.759-4.072,2.423-.035,3.3,5.39,2.75,6.254-.727,1.137-8.912,1.675-9.543,1.764S2214.427,3649.407,2214.657,3649.488Z" transform="translate(-2141.645 -3470.264)" fill="#e3ae9a"/>
        <path id="Trazado_2332" data-name="Trazado 2332" d="M2198.658,3485.71c1.116-.431-.135-4.355,2.078-1.774,3.609,4.211,6.845,13.778,7.51,18.958,1.054,8.213,2.923,21.26,3.416,26.814.445,5,2.884,10.933-1.56,10.072-.007-7.045-2.968-17.235-5.183-22.685C2197.356,3498.488,2195.229,3487.027,2198.658,3485.71Z" transform="translate(-2129.693 -3361.504)" fill="#e3ae9a"/>
        <path id="Trazado_2333" data-name="Trazado 2333" d="M2205.725,3659.486c1.329,1.534,6.573-.623,8.059-.98,2.6-.624,2.327-1.547,2.338-1.511.268.838.634,2-.8,2.633-1.3.575-2.92.7-4.21,1.145-1.359.469-9.025,2.352-9.561,1.453C2200.836,3661.031,2205.7,3659.454,2205.725,3659.486Z" transform="translate(-2132.706 -3480.277)" fill="#f8e44f"/>
        <path id="Trazado_2334" data-name="Trazado 2334" d="M2170.484,3320.474c1.927-.5,2.068.953,3.725,4.526,3.253,7,5.542,17.448,5.35,28.655-.225,13.132-2.067,24.634-4.754,31.915-2.981-5.11-5.036-8.029-7.287-19.437C2162.532,3340.86,2164.56,3321.993,2170.484,3320.474Z" transform="translate(-2107.59 -3250.413)" fill="#e3ae9a"/>
        <path id="Trazado_2335" data-name="Trazado 2335" d="M2184.879,3473.317c1.016-.509,3.037,1.7,4.557,3.867,2.978,4.248,4.256,9.547,5.955,16.867,1.991,8.577,2.8,16.25,2.447,21.254-2.35-3.716-4.346-8.536-7.086-13.511C2174.191,3471.715,2181.757,3474.881,2184.879,3473.317Z" transform="translate(-2118.325 -3354.799)" fill="#e3ae9a"/>
        <path id="Trazado_2336" data-name="Trazado 2336" d="M2170.825,3315.488c1.922-.409,2.006.913,3.509,4.207,2.947,6.458,4.813,16.031,4.2,26.244a101.609,101.609,0,0,1-4.214,24.558,1.61,1.61,0,0,1-3.085.205,119.691,119.691,0,0,1-3.038-15.54C2164.852,3331.963,2164.917,3316.742,2170.825,3315.488Z" transform="translate(-2108.456 -3247.023)" fill="#ffc4ad"/>
        <path id="Trazado_2337" data-name="Trazado 2337" d="M2163.32,3197.319l-20.235-.171-2.475-23.141,24.012,2.28Z" transform="translate(-2091.14 -3150.458)" fill="#fec12f"/>
        <path id="Trazado_2338" data-name="Trazado 2338" d="M2134.355,3316.384c9.948,1.576,11.749.227,23.186-1.448,1.082.017,5.728-11.32,2.5-41.2-.666-6.158-5.233-11.1-4.167-27.818q-10.2-.192-20.4-.377C2138.16,3260.73,2121.988,3263.109,2134.355,3316.384Z" transform="translate(-2083.647 -3199.304)" fill="#fec12f"/>
        <path id="Trazado_2339" data-name="Trazado 2339" d="M2096.392,3200.954l11.418-17.016,2.934-7.67a3.008,3.008,0,0,0-1.2-1.553l-.387-.25a3.4,3.4,0,0,0-4.654,1.452l-13.081,21.565Z" transform="translate(-2057.553 -3150.466)" fill="#fec12f"/>
        <path id="Trazado_2340" data-name="Trazado 2340" d="M2216.661,3207.834l-6.966-14.815-2.8-10.349a3.2,3.2,0,0,1,1.51-1.167l.43-.164a3.225,3.225,0,0,1,4.151,1.885l8.379,20.41Z" transform="translate(-2136.406 -3155.324)" fill="#fec12f"/>
        <path id="Trazado_2341" data-name="Trazado 2341" d="M2186.6,3636.646a.119.119,0,0,1-.122.111l-.232-.012a.119.119,0,0,1-.108-.124h0a.115.115,0,0,1,.121-.109l.232.013a.116.116,0,0,1,.109.121Z" transform="translate(-2122.232 -3466.29)" fill="#ffc4ad"/>
        <path id="Trazado_2342" data-name="Trazado 2342" d="M2150.935,3647.388c-.478,2.184,6.178,1.188,7.894.594a19.868,19.868,0,0,1,2.689-.759c.07,0,.137-.011.206-.015a1.129,1.129,0,0,1,.029.157c.02,1.192.573,2.77-1.333,2.8l-11.963.212C2138.679,3650.552,2150.946,3647.338,2150.935,3647.388Z" transform="translate(-2093.915 -3473.594)" fill="#f8e44f"/>
        <path id="Trazado_2343" data-name="Trazado 2343" d="M2295.564,3163.315a6.037,6.037,0,0,0,.277-2.643c-.2-.615-1.6-3.353-1.6-3.353a3.605,3.605,0,0,0,.306,2.216A12.249,12.249,0,0,1,2295.564,3163.315Z" transform="translate(-2196.011 -3139.063)" fill="#ffc4ad"/>
        <path id="Trazado_2344" data-name="Trazado 2344" d="M2294.206,3173.292s-.514.119-.683-.042a2.932,2.932,0,0,0,.05.483c.033.3-.135,2.377-.135,2.377a16.949,16.949,0,0,1,.621-1.874,8.376,8.376,0,0,0,.4-1.39c.016-.063-.01-.177,0-.3Z" transform="translate(-2195.501 -3149.463)" fill="#e3ae9a"/>
        <path id="Trazado_2345" data-name="Trazado 2345" d="M2292.318,3167.97c.453-1.55.269-2.229.1-2.51-.1.368-.282.953-.571,1.767a11.036,11.036,0,0,0-.3,1.657,2.813,2.813,0,0,1,.739,1.528c.039.225.452-1.129.522-1.952C2292.606,3168.467,2292.182,3168.436,2292.318,3167.97Z" transform="translate(-2194.212 -3144.622)" fill="#e3ae9a"/>
        <path id="Trazado_2346" data-name="Trazado 2346" d="M2173.766,3118.093a3.858,3.858,0,0,0,1.848-2.731l1.536-10.6c.093-.1.191-.182.286-.273l.187-.022c2.388-.265,4.474.9,4.66,2.59l1.7,15.449c.144,1.307-.892,2.542-2.468,3.162a6.61,6.61,0,0,1-.817-.064C2177.282,3125.11,2174.692,3122.092,2173.766,3118.093Z" transform="translate(-2113.781 -3102.948)" fill="#163f59"/>
      </g>
    </g>
    <g id="Grupo_10534" data-name="Grupo 10534" transform="translate(1591.533 3053.719)">
      <g id="Grupo_10494" data-name="Grupo 10494" transform="translate(99.575 80.099)">
        <g id="Grupo_10493" data-name="Grupo 10493" transform="translate(1.675 18.688)">
          <g id="Grupo_10491" data-name="Grupo 10491" transform="translate(2.091 11.037)">
            <path id="Trazado_2347" data-name="Trazado 2347" d="M1950.985,3561.383l2.433,3.709-20.433,6.545s-1.365-1.3,3.649-3.927C1942.471,3564.657,1950.985,3561.383,1950.985,3561.383Z" transform="translate(-1932.816 -3561.383)" fill="#88bdda"/>
            <path id="Trazado_2348" data-name="Trazado 2348" d="M1996.314,3561.383l-2.432,3.709,20.433,6.545s1.364-1.3-3.649-3.927C2004.828,3564.657,1996.314,3561.383,1996.314,3561.383Z" transform="translate(-1974.516 -3561.383)" fill="#88bdda"/>
          </g>
          <rect id="Rectángulo_2876" data-name="Rectángulo 2876" width="4.269" height="15.202" transform="translate(19.94)" fill="#88bdda"/>
          <g id="Grupo_10492" data-name="Grupo 10492" transform="translate(4.434 11.818)">
            <path id="Trazado_2349" data-name="Trazado 2349" d="M1955.756,3563.847l2.083,3.54-17.49,6.247s-1.169-1.246,3.122-3.749A136.825,136.825,0,0,1,1955.756,3563.847Z" transform="translate(-1940.203 -3563.847)" fill="#91e2f6"/>
            <path id="Trazado_2350" data-name="Trazado 2350" d="M1997.93,3563.847l-2.082,3.54,17.492,6.247s1.167-1.246-3.124-3.749A136.77,136.77,0,0,0,1997.93,3563.847Z" transform="translate(-1978.202 -3563.847)" fill="#91e2f6"/>
          </g>
          <path id="Trazado_2351" data-name="Trazado 2351" d="M1940.515,3595.942a1.484,1.484,0,1,1-1.483-1.484A1.483,1.483,0,0,1,1940.515,3595.942Z" transform="translate(-1933.956 -3572.932)" fill="#001f46"/>
          <path id="Trazado_2352" data-name="Trazado 2352" d="M2047.38,3595.942a1.484,1.484,0,1,1-1.484-1.484A1.484,1.484,0,0,1,2047.38,3595.942Z" transform="translate(-2006.931 -3572.932)" fill="#001f46"/>
          <path id="Trazado_2353" data-name="Trazado 2353" d="M1929.189,3595.942a1.484,1.484,0,1,1-1.483-1.484A1.483,1.483,0,0,1,1929.189,3595.942Z" transform="translate(-1926.222 -3572.932)" fill="#367082"/>
          <path id="Trazado_2354" data-name="Trazado 2354" d="M2058.705,3595.942a1.484,1.484,0,1,1-1.484-1.484A1.483,1.483,0,0,1,2058.705,3595.942Z" transform="translate(-2014.665 -3572.932)" fill="#367082"/>
        </g>
        <rect id="Rectángulo_2877" data-name="Rectángulo 2877" width="3.122" height="5.466" transform="translate(22.133 13.118)" fill="#367082"/>
        <path id="Trazado_2355" data-name="Trazado 2355" d="M1991.155,3493.352a3.045,3.045,0,0,1-3.045,3.045h-1.718a3.045,3.045,0,0,1-3.045-3.045h0a3.045,3.045,0,0,1,3.045-3.045h1.718a3.045,3.045,0,0,1,3.045,3.045Z" transform="translate(-1963.556 -3483.123)" fill="#367082"/>
        <path id="Trazado_2356" data-name="Trazado 2356" d="M1968.634,3475.1c.075-.358.118-2.606.118-2.992,0-2.459-1.59-4.452-3.551-4.452h-39.559c-1.961,0-3.55,1.992-3.55,4.452,0,.386.043,2.635.117,2.992Z" transform="translate(-1921.728 -3467.652)" fill="#3dc7c9"/>
        <path id="Trazado_2357" data-name="Trazado 2357" d="M1920.941,3491.995c0,.752.44,1.362.982,1.362h45.425c.543,0,.983-.61.983-1.362h0c0-.753-.44-1.363-.983-1.363h-45.425c-.542,0-.982.61-.982,1.363Z" transform="translate(-1920.941 -3483.344)" fill="#367082"/>
      </g>
      <g id="Grupo_10503" data-name="Grupo 10503" transform="translate(75.039 4.739)">
        <path id="Trazado_2358" data-name="Trazado 2358" d="M1930.394,3429.5s-25.441.053-35.26.2c-6.794.1-7.413-9.583-4.733-11.042,8.136-4.427,33.521-6.7,33.521-6.7l17.267,15.856S1940.22,3427.785,1930.394,3429.5Z" transform="translate(-1874.54 -3354.257)" fill="#3d7aa8"/>
        <path id="Trazado_2359" data-name="Trazado 2359" d="M1915.786,3303.219s-6.539-1.83-9.387,6.711c-4.368,13.109-3.982,25.129-3.374,27.692.28,1.179,1.121,5.252,8.428,5.409,2.963.064,1.778-6.288,1.778-6.288a138.344,138.344,0,0,0,3.924-14.518C1919.18,3313.1,1915.786,3303.219,1915.786,3303.219Z" transform="translate(-1883.919 -3279.893)" fill="#74b2e8"/>
        <path id="Trazado_2360" data-name="Trazado 2360" d="M1927.739,3292.379l16.775-5.425,12.7-.853,13.914,4.21s4.552,3.137.325,13.223-2.6,25.887-2.6,25.887l-35.891,1.15a292.062,292.062,0,0,0-3.058-29.218C1929.37,3298.091,1929.3,3294.252,1927.739,3292.379Z" transform="translate(-1901.047 -3268.317)" fill="#86c0f0"/>
        <path id="Trazado_2361" data-name="Trazado 2361" d="M1998.493,3332.129h-1.829a152.072,152.072,0,0,1,.283-42.713l1.653.986C1998.139,3304.776,1998.929,3319.15,1998.493,3332.129Z" transform="translate(-1947.179 -3270.58)" fill="#74b2e8"/>
        <g id="Grupo_10495" data-name="Grupo 10495" transform="translate(42.981 5.33)">
          <path id="Trazado_2362" data-name="Trazado 2362" d="M1980.3,3264.087a4.166,4.166,0,0,0,3.5,3.7h4.741a4.162,4.162,0,0,0,3.5-3.7q.582-4.8,1.165-9.6c.26-1.917-.88-5.769-3.4-6.907a9.064,9.064,0,0,0-7.26,0c-2.523,1.136-3.665,4.991-3.4,6.907Q1979.722,3259.289,1980.3,3264.087Z" transform="translate(-1979.103 -3246.826)" fill="#e6b09c"/>
        </g>
        <path id="Trazado_2363" data-name="Trazado 2363" d="M2001.994,3298.477l3.011,4.937,5.517-6.9-.868-3.627-1.79-1.47-.024,2.731Z" transform="translate(-1951.754 -3271.945)" fill="#74b2e8"/>
        <path id="Trazado_2364" data-name="Trazado 2364" d="M1983.306,3298.414l-3.01,4.937-5.134-6.427.843-3.939,1.286-1.661.521,3.226Z" transform="translate(-1933.432 -3271.883)" fill="#74b2e8"/>
        <g id="Grupo_10496" data-name="Grupo 10496" transform="translate(41.175)">
          <path id="Trazado_2365" data-name="Trazado 2365" d="M2001.348,3230.02a3.79,3.79,0,0,1,3.173,1.716h1.3a2.94,2.94,0,0,1,2.942,2.94v7.262h-2.07v-2.952a2.07,2.07,0,0,0-2.067-2.069h-.558a3.8,3.8,0,0,1-3.8-3.794v-3.1Z" transform="translate(-1991.754 -3230.02)" fill="#163f59"/>
          <path id="Trazado_2366" data-name="Trazado 2366" d="M2015.219,3267.554a1.8,1.8,0,0,0,1.8,1.8h.15a1.8,1.8,0,0,0,1.8-1.8v-2.186a1.8,1.8,0,0,0-1.8-1.8h-.15a1.8,1.8,0,0,0-1.648,1.071" transform="translate(-2001.96 -3252.93)" fill="#e6b09c"/>
          <path id="Trazado_2367" data-name="Trazado 2367" d="M1987.158,3232.906v-2.886h-6.231a3.794,3.794,0,0,0-3.793,3.8v2.883h6.231A3.793,3.793,0,0,0,1987.158,3232.906Z" transform="translate(-1975.952 -3230.02)" fill="#163f59"/>
          <path id="Trazado_2368" data-name="Trazado 2368" d="M1978.818,3251.082a5.929,5.929,0,0,0,3.069,4.871,11.035,11.035,0,0,0,8.265,0,5.922,5.922,0,0,0,3.071-4.869v-12.846c.01-1.518-1.5-2.794-3.374-2.83h-7.659c-1.868.035-3.384,1.31-3.373,2.83Z" transform="translate(-1977.103 -3233.698)" fill="#ffc4ad"/>
          <path id="Trazado_2369" data-name="Trazado 2369" d="M1980.912,3230.02a3.79,3.79,0,0,0-3.173,1.716h-1.3a2.94,2.94,0,0,0-2.939,2.94v7.262h2.068v-2.952a2.071,2.071,0,0,1,2.07-2.069h2.644a3.793,3.793,0,0,0,3.793-3.794v-3.1Z" transform="translate(-1973.469 -3230.02)" fill="#163f59"/>
          <path id="Trazado_2370" data-name="Trazado 2370" d="M1977.159,3265.366a1.8,1.8,0,0,0-1.8-1.8h-.149a1.8,1.8,0,0,0-1.8,1.8v2.187a1.8,1.8,0,0,0,1.8,1.8h.149a1.8,1.8,0,0,0,1.649-1.073" transform="translate(-1973.409 -3252.93)" fill="#ffc4ad"/>
          <path id="Trazado_2371" data-name="Trazado 2371" d="M2006.684,3233.652a3.826,3.826,0,0,1-.074-.745v-2.886h2.687a3.794,3.794,0,0,1,3.795,3.8v2.883H2010.4a3.827,3.827,0,0,1-.778-.081A3.8,3.8,0,0,0,2006.684,3233.652Z" transform="translate(-1996.081 -3230.02)" fill="#163f59"/>
        </g>
        <path id="Trazado_2372" data-name="Trazado 2372" d="M2081.951,3607.486c.391.474.1,1.723.1,1.723s-6.847.762-9.051.245a11.674,11.674,0,0,1-2.452-1.15c-.154-.089-.425-.614-.573-.7-.276-.165-.42.109-.656-.039a7.794,7.794,0,0,1-1.046-.723c-.6-3.14.2-4.406.2-4.406s5.833-1.938,6.925-.587C2077.973,3605.027,2081.095,3606.445,2081.951,3607.486Z" transform="translate(-1996.864 -3483.603)" fill="#161711"/>
        <path id="Trazado_2373" data-name="Trazado 2373" d="M1864.655,3603.453l-.474,5.175-5.18.506s-.359-.69-.8-.648c-.37.037-.776.8-1.278.851-1.089.108-2.3.225-2.781.272-.971.1-10.392,1.018-10.392,1.018s-.34-1.045-.09-1.441a5.053,5.053,0,0,1,1.525-.836c2.6-1.013,10.029-4.11,11.11-6.8C1857.611,3598.285,1864.655,3603.453,1864.655,3603.453Z" transform="translate(-1843.572 -3482.99)" fill="#161711"/>
        <g id="Grupo_10497" data-name="Grupo 10497" transform="translate(24.407 54.968)">
          <path id="Trazado_2374" data-name="Trazado 2374" d="M1925.042,3403.355l17.511,7.152s-12.422,1.772-20.188.189C1917.114,3409.625,1924.8,3403.128,1925.042,3403.355Z" transform="translate(-1920.534 -3403.35)" fill="#ffc4ad"/>
        </g>
        <path id="Trazado_2375" data-name="Trazado 2375" d="M2060.089,3434.8s1.684,15.99,1.444,24.443a183.9,183.9,0,0,0,1.318,29.013c.093.636,8.239.156,8.239.156s2.922-39.641,3.79-46.17S2073.224,3431.006,2060.089,3434.8Z" transform="translate(-1991.425 -3368.934)" fill="#3d7aa8"/>
        <path id="Trazado_2376" data-name="Trazado 2376" d="M1887.763,3443.847s2.626,4.145,9.824,5.126c2.6.355-4.2,46.4-4.2,46.4l-10.636-3.4,2.055-50.927Z" transform="translate(-1870.329 -3374.124)" fill="#316091"/>
        <path id="Trazado_2377" data-name="Trazado 2377" d="M1988.785,3429.049s13.906,1.984,23.188,2.958c3.4.356,6.349-9.17,6.744-9.583a7,7,0,0,1,4.851-2.367c-2.01-2.173-12.424-4.191-23.307-6.744s-12.541-.944-12.541-.944Z" transform="translate(-1942.006 -3354.2)" fill="#316091"/>
        <path id="Trazado_2378" data-name="Trazado 2378" d="M2001.311,3413.312c10.883,2.553,21.3,4.57,23.307,6.743a7,7,0,0,0-4.85,2.367c-.108.114-.734,3.166-1.182,4.26,1.774-3.2-23.8-12.212-29.328-14.546C1990.289,3411.808,1993.3,3411.433,2001.311,3413.312Z" transform="translate(-1943.057 -3354.198)" fill="#3d7aa8"/>
        <path id="Trazado_2379" data-name="Trazado 2379" d="M2064.951,3459.3l1.063,31.117,1.066,7.216.118-7.216-.236-4.5,2.483-6.978,1.3-16.209-1.893.71.237-7.1Z" transform="translate(-1994.745 -3384.57)" fill="#316091"/>
        <path id="Trazado_2380" data-name="Trazado 2380" d="M1892.036,3437.687l-2.6.71-.948,37.386,5.443,13.369-2.6-9.109,1.064-18.812s3.787,9.11,3.787,8.637-3.2-19.758-3.2-19.758a41.325,41.325,0,0,1,3.2,2.84C1895.821,3452.831,1894.047,3439.463,1892.036,3437.687Z" transform="translate(-1874.243 -3371.83)" fill="#3d7aa8"/>
        <path id="Trazado_2381" data-name="Trazado 2381" d="M2040.305,3297.319s5.591-4.38,11.057,3.749c8.015,11.913,11.494,24.581,12.768,28.249.976,2.812.439,10.764-2.839,14.041-.789.788-5.521.157-5.521.157l-3.107-2.149,1.3-2.5.069-1.975s-3.971-9.582-8.851-18.642S2040.305,3297.319,2040.305,3297.319Z" transform="translate(-1977.915 -3275.172)" fill="#86c0f0"/>
        <g id="Grupo_10499" data-name="Grupo 10499" transform="translate(53.159 57.489)">
          <path id="Trazado_2382" data-name="Trazado 2382" d="M2044.313,3414.694l-18.149.947s17.482,8.02,18.058,6.639C2047.5,3414.446,2044.313,3414.694,2044.313,3414.694Z" transform="translate(-2021.417 -3413.617)" fill="#ffc4ad"/>
          <g id="Grupo_10498" data-name="Grupo 10498">
            <path id="Trazado_2383" data-name="Trazado 2383" d="M2024.107,3411.82c-1.06-.51-.966-.519-.966-.519a4.349,4.349,0,0,1-2.372,1.367c-.7.108-2.948.136-2.948.136l-3.342.083-1.552-.089a2.855,2.855,0,0,0-1.107.034c-.675.434-.1.782-.1.782l5.991.849-5.756.713s-.723.214-.758.605c-.031.367.21.353.21.353l6.686.714-2.931.7s-.7.226-.754.606c-.06.417-.086.528-.086.528l6.15-.6S2025.167,3412.331,2024.107,3411.82Z" transform="translate(-2011.196 -3411.301)" fill="#ffc4ad"/>
            <path id="Trazado_2384" data-name="Trazado 2384" d="M2018.865,3424.614l-4.023.734a3.331,3.331,0,0,0-1.325.36.536.536,0,0,0-.194.749l6.17-.518Z" transform="translate(-2012.594 -3420.392)" fill="#ffc4ad"/>
          </g>
        </g>
        <g id="Grupo_10502" data-name="Grupo 10502" transform="translate(34.126 39.259)">
          <path id="Trazado_2385" data-name="Trazado 2385" d="M1951.374,3432.052c-.006-.013-.014-.024-.019-.036l.019-1.144h35.756v1.144a.056.056,0,0,1,0,.036l-.123.213c-.609.993-1.7,1.17-2.952,1.17h-29.606c-1.251,0-2.343-.177-2.953-1.17Z" transform="translate(-1951.3 -3406.436)" fill="#b6c2c9"/>
          <g id="Grupo_10500" data-name="Grupo 10500" transform="translate(6.104 24.702)">
            <rect id="Rectángulo_2878" data-name="Rectángulo 2878" width="23.676" height="0.807" fill="#879ba6"/>
          </g>
          <g id="Grupo_10501" data-name="Grupo 10501">
            <path id="Trazado_2386" data-name="Trazado 2386" d="M1951.278,3378.375l-.1-23.442a1.11,1.11,0,0,1,1.114-1.117h33.467a1.122,1.122,0,0,1,1.123,1.117l.1,23.442Z" transform="translate(-1951.182 -3353.816)" fill="#e4eef3"/>
            <path id="Trazado_2387" data-name="Trazado 2387" d="M2000.791,3387.869a2.167,2.167,0,1,0,2.158-2.168A2.155,2.155,0,0,0,2000.791,3387.869Z" transform="translate(-1985.058 -3375.59)" fill="#b6c2c9"/>
          </g>
        </g>
        <path id="Trazado_2388" data-name="Trazado 2388" d="M2079.182,3421.573l1.245-7.956-2.066-2.126-4.583.732.936,8.807Z" transform="translate(-2000.773 -3353.942)" fill="#74b2e8"/>
        <path id="Trazado_2389" data-name="Trazado 2389" d="M1914.335,3407.77l-.475-2.927,5.8-5.2,3.135,1.414-4.1,7.851Z" transform="translate(-1891.569 -3345.848)" fill="#86c0f0"/>
      </g>
      <g id="Grupo_10509" data-name="Grupo 10509" transform="translate(200.744 50.82)">
        <g id="Grupo_10504" data-name="Grupo 10504" transform="translate(47.087 10.081)">
          <path id="Trazado_2390" data-name="Trazado 2390" d="M2390.645,3454.341a7.223,7.223,0,0,0,4.778-1.729c2.4-2.087,3.44-5.8,3.091-11.035-.236-3.534-1.626-7.111-3.1-10.9-2.478-6.372-5.287-13.593-3.817-23.144l-2.73-.42c-1.581,10.282,1.5,18.2,3.973,24.565,1.455,3.74,2.71,6.971,2.918,10.082.283,4.245-.45,7.269-2.123,8.747a4.583,4.583,0,0,1-3.65,1.026l-.553,2.705A6.384,6.384,0,0,0,2390.645,3454.341Z" transform="translate(-2388.435 -3407.114)" fill="#367082"/>
        </g>
        <g id="Grupo_10507" data-name="Grupo 10507" transform="translate(1.851 67.014)">
          <g id="Grupo_10505" data-name="Grupo 10505" transform="translate(2.19 12.197)">
            <path id="Trazado_2391" data-name="Trazado 2391" d="M2322.87,3625.1l-2.689,4.1,22.581,7.233s1.508-1.442-4.033-4.34C2332.279,3628.719,2322.87,3625.1,2322.87,3625.1Z" transform="translate(-2298.781 -3625.101)" fill="#88bdda"/>
            <path id="Trazado_2392" data-name="Trazado 2392" d="M2272.779,3625.1l2.688,4.1-22.58,7.233s-1.508-1.442,4.032-4.34C2263.371,3628.719,2272.779,3625.1,2272.779,3625.1Z" transform="translate(-2252.7 -3625.101)" fill="#88bdda"/>
          </g>
          <rect id="Rectángulo_2879" data-name="Rectángulo 2879" width="4.718" height="16.799" transform="translate(21.916)" fill="#88bdda"/>
          <g id="Grupo_10506" data-name="Grupo 10506" transform="translate(4.778 13.06)">
            <path id="Trazado_2393" data-name="Trazado 2393" d="M2324.659,3627.822l-2.3,3.912,19.328,6.9s1.292-1.377-3.45-4.142C2332.713,3631.275,2324.659,3627.822,2324.659,3627.822Z" transform="translate(-2302.855 -3627.822)" fill="#91e2f6"/>
            <path id="Trazado_2394" data-name="Trazado 2394" d="M2278.051,3627.822l2.3,3.912-19.33,6.9s-1.29-1.377,3.451-4.142C2269.995,3631.275,2278.051,3627.822,2278.051,3627.822Z" transform="translate(-2260.861 -3627.822)" fill="#91e2f6"/>
          </g>
          <path id="Trazado_2395" data-name="Trazado 2395" d="M2376.407,3663.292a1.64,1.64,0,1,0,1.639-1.641A1.639,1.639,0,0,0,2376.407,3663.292Z" transform="translate(-2334.986 -3637.863)" fill="#001f46"/>
          <path id="Trazado_2396" data-name="Trazado 2396" d="M2258.311,3663.292a1.639,1.639,0,1,0,1.639-1.641A1.639,1.639,0,0,0,2258.311,3663.292Z" transform="translate(-2254.342 -3637.863)" fill="#001f46"/>
          <path id="Trazado_2397" data-name="Trazado 2397" d="M2388.923,3663.292a1.64,1.64,0,1,0,1.64-1.641A1.639,1.639,0,0,0,2388.923,3663.292Z" transform="translate(-2343.533 -3637.863)" fill="#367082"/>
          <path id="Trazado_2398" data-name="Trazado 2398" d="M2245.794,3663.292a1.64,1.64,0,1,0,1.641-1.641A1.639,1.639,0,0,0,2245.794,3663.292Z" transform="translate(-2245.794 -3637.863)" fill="#367082"/>
        </g>
        <rect id="Rectángulo_2880" data-name="Rectángulo 2880" width="3.451" height="6.041" transform="translate(24.461 60.858)" fill="#367082"/>
        <path id="Trazado_2399" data-name="Trazado 2399" d="M2308.924,3549.918a3.365,3.365,0,0,0,3.365,3.365h1.9a3.366,3.366,0,0,0,3.365-3.365h0a3.365,3.365,0,0,0-3.365-3.364h-1.9a3.364,3.364,0,0,0-3.365,3.364Z" transform="translate(-2287.053 -3492.253)" fill="#367082"/>
        <path id="Trazado_2400" data-name="Trazado 2400" d="M2241.361,3529.744c-.082-.4-.13-2.881-.13-3.308,0-2.717,1.756-4.92,3.924-4.92h43.718c2.166,0,3.922,2.2,3.922,4.92,0,.427-.047,2.912-.129,3.308Z" transform="translate(-2240.827 -3475.155)" fill="#3dc7c9"/>
        <path id="Trazado_2401" data-name="Trazado 2401" d="M2292.328,3548.418c0,.831-.486,1.505-1.086,1.505h-50.2c-.6,0-1.086-.675-1.086-1.505h0c0-.832.487-1.507,1.086-1.507h50.2c.6,0,1.086.675,1.086,1.507Z" transform="translate(-2239.957 -3492.497)" fill="#367082"/>
        <g id="Grupo_10508" data-name="Grupo 10508" transform="translate(25.328)">
          <path id="Trazado_2402" data-name="Trazado 2402" d="M2344.42,3404.672c-1.079.08-7.931.2-9.112.214-7.5.092-13.963-1.317-14.321-3.164a64.012,64.012,0,0,1-.195-23.23c.32-1.846,6.879-3.254,14.536-3.161,1.205.014,8.2.137,9.3.216A62.851,62.851,0,0,0,2344.42,3404.672Z" transform="translate(-2319.825 -3375.326)" fill="#3dc7c9"/>
          <path id="Trazado_2403" data-name="Trazado 2403" d="M2393.454,3376.018c.84.01,1.425.409,1.31.891a62.752,62.752,0,0,0-.235,27.35c.1.483-.475.881-1.3.89h0c-.821.01-1.581-.373-1.686-.858a62.879,62.879,0,0,1,.179-27.416c.114-.484.888-.868,1.73-.858Z" transform="translate(-2367.828 -3375.798)" fill="#367082"/>
          <path id="Trazado_2404" data-name="Trazado 2404" d="M2387.464,3404.89a18.279,18.279,0,0,1-1.966.13,3.947,3.947,0,0,1-3.642-3.239,63,63,0,0,1,.1-22.878,4.026,4.026,0,0,1,3.732-3.237,19.223,19.223,0,0,1,2.006.132A62.8,62.8,0,0,0,2387.464,3404.89Z" transform="translate(-2361.503 -3375.558)" fill="#33a8b5"/>
        </g>
      </g>
      <g id="Grupo_10510" data-name="Grupo 10510" transform="translate(224.782 11.711)">
        <path id="Trazado_2405" data-name="Trazado 2405" d="M2355.562,3252h3.7v1.9A4.558,4.558,0,0,0,2355.562,3252Z" transform="translate(-2342.938 -3252.004)" fill="#dce5ea"/>
        <path id="Trazado_2406" data-name="Trazado 2406" d="M2327.292,3252v5.223a4.569,4.569,0,0,0,4.571,4.571h.217v8.053h-16.323V3252Z" transform="translate(-2315.756 -3252.004)" fill="#dce5ea"/>
      </g>
      <g id="Grupo_10514" data-name="Grupo 10514" transform="translate(168.771 0)">
        <path id="Trazado_2407" data-name="Trazado 2407" d="M2270.542,3284.989s6.395,2.283.254,20.615-10.232,16.109-10.232,16.109l-5.076-.491-9.737-11.546,5.242-4.584,1.059.422a2.574,2.574,0,0,0,1.512-1.822c.157-1.261,2.615-6.535,4.471-17.306C2258.892,3281.42,2269.313,3284.541,2270.542,3284.989Z" transform="translate(-2211.94 -3261.875)" fill="#cfd9e8"/>
        <path id="Trazado_2408" data-name="Trazado 2408" d="M2202.76,3350.44s-12.624,6.45-20.574-6.033c-2.364-3.71-1.353.562-.061,4.62s9.136,13.253,18.052,13.867,12.318.119,13.987-2.966S2202.76,3350.44,2202.76,3350.44Z" transform="translate(-2167.562 -3302.422)" fill="#ffc4ad"/>
        <path id="Trazado_2409" data-name="Trazado 2409" d="M2271.546,3351.161l-3.2-2.072-1.328-.757a2.784,2.784,0,0,1-1.4,1.38l2.67,1.1,2.91,1.871,3.007,3.612Z" transform="translate(-2225.508 -3306.073)" fill="#aebddc"/>
        <path id="Trazado_2410" data-name="Trazado 2410" d="M2280.692,3336.708l23.9-.518,9.935-33.269s4.547-20.041-3.947-20.374c-12.345-.482-28.543-.259-28.543-.259S2273.712,3289.511,2280.692,3336.708Z" transform="translate(-2233.896 -3260.939)" fill="#cfd9e8"/>
        <path id="Trazado_2411" data-name="Trazado 2411" d="M2306.506,3337.006q-1.406.208-2.809.412a147.645,147.645,0,0,1,4.766-52.114l2.294.762A144.178,144.178,0,0,0,2306.506,3337.006Z" transform="translate(-2251.128 -3263.033)" fill="#aebddc"/>
        <path id="Trazado_2412" data-name="Trazado 2412" d="M2162.224,3553.933s2.323,3.584,3.511,1.386c3.563-6.592,6.775-27.406,6.975-35.945.271-11.39.79-18.334.79-18.334l-11.458-4.154Z" transform="translate(-2154.778 -3407.516)" fill="#163f59"/>
        <path id="Trazado_2413" data-name="Trazado 2413" d="M2202.3,3453.144l-40.431,13.843,10.6,5.917s41.7,7.314,42.442-8.162C2215.54,3451.722,2202.3,3453.144,2202.3,3453.144Z" transform="translate(-2154.659 -3377.615)" fill="#163f59"/>
        <path id="Trazado_2414" data-name="Trazado 2414" d="M2206.984,3556.558s2.094,1.918,3.281-.279c3.563-6.593,9.406-24.109,9.608-32.651a83.618,83.618,0,0,0-1.611-19.31l-11.71-4.066Z" transform="translate(-2185.173 -3409.815)" fill="#194866"/>
        <path id="Trazado_2415" data-name="Trazado 2415" d="M2245.879,3453.988l-38.55,14.546,10.559,5.748s39.125,7.312,39.881-8.161S2245.879,3453.988,2245.879,3453.988Z" transform="translate(-2185.703 -3378.015)" fill="#194866"/>
        <path id="Trazado_2416" data-name="Trazado 2416" d="M2312.4,3465.536c.1,1.066-.524,4.625-1.71,6.056-3.65,4.41-12.293,2.931-19.187,2.931-.378,0-2.3-5.378-2.3-5.378l-2.878-17.589,24.168.411A117.124,117.124,0,0,1,2312.4,3465.536Z" transform="translate(-2239.645 -3376.562)" fill="#194866"/>
        <path id="Trazado_2417" data-name="Trazado 2417" d="M2222.526,3415.82l-8.85-1.588s-1.377-.148-1.441.8c-.083,1.258.143,5.358.143,5.358l1.589-.982,2.279,1.391,2.645-3.5a6.82,6.82,0,0,0,2.5-.024C2221.776,3417.181,2222.526,3415.82,2222.526,3415.82Z" transform="translate(-2189.041 -3351.068)" fill="#ffc4ad"/>
        <path id="Trazado_2418" data-name="Trazado 2418" d="M2262.742,3411.344l-23.429,2.6s12.568,6.421,18.325,6.461a51.344,51.344,0,0,0,11.152-1.281Z" transform="translate(-2207.544 -3349.102)" fill="#ffc4ad"/>
        <path id="Trazado_2419" data-name="Trazado 2419" d="M2321.989,3299.69l-11.706,22.151.671,1.8-1.8.335,5.467,8.7,8.576-1.957,15.434-30.571s3.248-9.228-4.117-16.274C2330.836,3280.354,2323.024,3297.915,2321.989,3299.69Z" transform="translate(-2255.236 -3261.738)" fill="#aebddc"/>
        <path id="Trazado_2420" data-name="Trazado 2420" d="M2319.015,3414.345s-5.541-4.235-8.355-6.546l.293.784-1.8.333,1.913,2.993,3.32,3.861,1.9-.694-.721-1.357Z" transform="translate(-2255.235 -3346.681)" fill="#cfd9e8"/>
        <g id="Grupo_10512" data-name="Grupo 10512" transform="translate(49.645)">
          <g id="Grupo_10511" data-name="Grupo 10511">
            <path id="Trazado_2421" data-name="Trazado 2421" d="M2316.994,3228.217a2.9,2.9,0,0,0,2.9,2.9h10.94a2.9,2.9,0,0,0,2.9-2.9h0a2.9,2.9,0,0,0-2.9-2.9h-10.94a2.9,2.9,0,0,0-2.9,2.9Z" transform="translate(-2310.235 -3222.072)" fill="#163f59"/>
            <path id="Trazado_2422" data-name="Trazado 2422" d="M2323.319,3238.763a5.352,5.352,0,0,0,5.351,5.352h5.709a5.353,5.353,0,0,0,5.351-5.352h0a5.352,5.352,0,0,0-5.351-5.35h-5.709a5.352,5.352,0,0,0-5.351,5.35Z" transform="translate(-2314.554 -3227.598)" fill="#163f59"/>
            <path id="Trazado_2423" data-name="Trazado 2423" d="M2309.775,3238.723v-16.732c0-2.665,2.16,0,4.825,0h2.574a4.828,4.828,0,0,1,4.828,4.827v11.906Z" transform="translate(-2305.305 -3218.989)" fill="#ffc4ad"/>
            <path id="Trazado_2424" data-name="Trazado 2424" d="M2341.6,3246.976a2.12,2.12,0,0,0,2.119,2.119h0a2.119,2.119,0,0,0,2.12-2.119h0a2.119,2.119,0,0,0-2.12-2.12h0a2.12,2.12,0,0,0-2.119,2.12Z" transform="translate(-2327.04 -3235.412)" fill="#ffc4ad"/>
            <path id="Trazado_2425" data-name="Trazado 2425" d="M2306.932,3247.095a1.209,1.209,0,0,1-1.188,1.23h-.99a1.208,1.208,0,0,1-1.187-1.23s2.169-6.351,2.826-6.351a2,2,0,0,1,.538,1.229Z" transform="translate(-2301.066 -3232.603)" fill="#ffc4ad"/>
            <path id="Trazado_2426" data-name="Trazado 2426" d="M2316.531,3267.589c4.827,0,5.328-1.479,5.47-3.173a35.015,35.015,0,0,1,1.287,5.6v1.522c0,2.941-3.026,5.327-6.757,5.327h-6.756v-9.28Z" transform="translate(-2305.305 -3248.769)" fill="#163f59"/>
            <path id="Trazado_2427" data-name="Trazado 2427" d="M2309.775,3264.62h3.862a3.181,3.181,0,0,1,3.1,4.022h-6.964Z" transform="translate(-2305.305 -3248.908)" fill="#163f59"/>
            <path id="Trazado_2428" data-name="Trazado 2428" d="M2316.453,3275.275v1.073a.537.537,0,0,1-.536.536h-3.128a.538.538,0,0,1-.537-.536v-1.073Z" transform="translate(-2306.996 -3256.184)" fill="#ffc4ad"/>
            <path id="Trazado_2429" data-name="Trazado 2429" d="M2315.022,3215.171h9.9a1.931,1.931,0,0,1,1.93,1.931v3.861h-11.829Z" transform="translate(-2308.888 -3215.141)" fill="#163f59"/>
            <path id="Trazado_2430" data-name="Trazado 2430" d="M2295.68,3217.99a2.916,2.916,0,0,0,2.916,2.916h6.7a2.916,2.916,0,0,0,2.917-2.916h0a2.915,2.915,0,0,0-2.917-2.914h-6.7a2.915,2.915,0,0,0-2.916,2.914Z" transform="translate(-2295.68 -3215.076)" fill="#163f59"/>
          </g>
          <rect id="Rectángulo_2881" data-name="Rectángulo 2881" width="2.676" height="7.042" transform="translate(14.136 4.429)" fill="#163f59"/>
          <rect id="Rectángulo_2882" data-name="Rectángulo 2882" width="7.874" height="8.291" transform="translate(8.104 1.4)" fill="#163f59"/>
          <path id="Trazado_2431" data-name="Trazado 2431" d="M2319.976,3237.4a3.982,3.982,0,0,0-3.982-3.982h-2.057c-2.2,0-3.378,1.783-3.378,3.982h0a3.984,3.984,0,0,0,3.984,3.984h1.451a3.982,3.982,0,0,0,3.982-3.984Z" transform="translate(-2305.84 -3227.603)" fill="#ffc4ad"/>
        </g>
        <g id="Grupo_10513" data-name="Grupo 10513" transform="translate(1.068 32.992)">
          <path id="Trazado_2432" data-name="Trazado 2432" d="M2157.573,3332.435s1.9-4.555,1.219-5.789-3.476-5.584-3.476-5.584l-.819-1.046s-1.662.249.25,3.154.2,1.99.2,1.99l-2.74-1.981-3.555-2.172-1.452-1.161s-.774-.72-1.1-.735c-.959-.045-.637.694-.637.694l5.258,4.987-6.114-3.3s-.853-.293-1.157.065c-.287.337-.041.491-.041.491l6.031,5.338-3.346-1.353s-.843-.266-1.16.068c-.344.366-.449.456-.449.456l12.3,6.883Z" transform="translate(-2143.049 -3319.109)" fill="#ffc4ad"/>
          <path id="Trazado_2433" data-name="Trazado 2433" d="M2149.194,3334.063l-4.437-2.075a4.007,4.007,0,0,0-1.544-.569.644.644,0,0,0-.709.6l6.382,3.776Z" transform="translate(-2142.503 -3327.515)" fill="#ffc4ad"/>
        </g>
        <path id="Trazado_2434" data-name="Trazado 2434" d="M2195.848,3679.625a2.6,2.6,0,0,0-.043,1.237s3.612.594,4.768.238a5.356,5.356,0,0,0,1.282-.808c.08-.063.219-.437.3-.5.145-.116.223.081.346-.023a4.106,4.106,0,0,0,.545-.512,6.308,6.308,0,0,0-.135-3.166s-3.084-1.432-3.651-.469C2197.926,3677.89,2196.293,3678.884,2195.848,3679.625Z" transform="translate(-2177.793 -3529.343)" fill="#194866"/>
        <path id="Trazado_2435" data-name="Trazado 2435" d="M2150.479,3676.81l-.513,3.268h-2.734s-.152-.463-.382-.463c-.2,0-.447.463-.712.463h-6.954s-.124-.688.027-.924a2.4,2.4,0,0,1,.839-.437c1.413-.486,5.687-1.54,6.638-3.056C2147.426,3674.485,2150.479,3676.81,2150.479,3676.81Z" transform="translate(-2139.136 -3529.369)" fill="#163f59"/>
      </g>
      <g id="Grupo_10517" data-name="Grupo 10517" transform="translate(148.483 43.892)">
        <path id="Trazado_2436" data-name="Trazado 2436" d="M2141.422,3431.879c.005-.013.014-.025.019-.037l-.019-1.146h-47.477v1.146a.06.06,0,0,0,0,.037l.122.214c.609.993,1.7,1.173,2.957,1.173h41.316c1.253,0,2.348-.179,2.959-1.173Z" transform="translate(-2087.987 -3406.209)" fill="#b4c0c7"/>
        <path id="Trazado_2437" data-name="Trazado 2437" d="M2207.574,3433.039a.04.04,0,0,0,0,.031l.117.172a1.924,1.924,0,0,0,.695.585h7.219c1.206,0,2.259-.145,2.846-.948l.115-.175c.007-.01.015-.019.021-.028l-.012-.565h-11Z" transform="translate(-2165.58 -3407.175)" fill="#d6e3eb"/>
        <g id="Grupo_10515" data-name="Grupo 10515" transform="translate(11.863 24.752)">
          <rect id="Rectángulo_2883" data-name="Rectángulo 2883" width="23.723" height="0.81" fill="#8599a4"/>
        </g>
        <g id="Grupo_10516" data-name="Grupo 10516">
          <path id="Trazado_2438" data-name="Trazado 2438" d="M2116.892,3377.926l-6.155-23.329a1.55,1.55,0,0,0-1.407-1.115h-33.31a.829.829,0,0,0-.819,1.115l6.154,23.329Z" transform="translate(-2075.162 -3353.481)" fill="#d7dfe2"/>
          <path id="Trazado_2439" data-name="Trazado 2439" d="M2137.905,3387.375a1.606,1.606,0,0,1-1.587,2.157,3,3,0,0,1-2.726-2.157,1.607,1.607,0,0,1,1.587-2.159A3,3,0,0,1,2137.905,3387.375Z" transform="translate(-2115.011 -3375.152)" fill="#b4c0c7"/>
        </g>
      </g>
      <g id="Grupo_10523" data-name="Grupo 10523" transform="translate(15.034 57.435)">
        <g id="Grupo_10518" data-name="Grupo 10518" transform="translate(0 9.122)">
          <path id="Trazado_2440" data-name="Trazado 2440" d="M1661.539,3467.686a6.537,6.537,0,0,1-4.324-1.563c-2.172-1.888-3.113-5.249-2.8-9.986.214-3.2,1.472-6.434,2.8-9.863,2.243-5.766,4.783-12.3,3.454-20.943l2.47-.38c1.43,9.3-1.356,16.47-3.6,22.229-1.317,3.384-2.453,6.308-2.641,9.122-.256,3.841.407,6.578,1.92,7.916a4.143,4.143,0,0,0,3.3.928l.5,2.448A5.841,5.841,0,0,1,1661.539,3467.686Z" transform="translate(-1654.359 -3424.951)" fill="#367082"/>
        </g>
        <g id="Grupo_10521" data-name="Grupo 10521" transform="translate(6.072 60.64)">
          <g id="Grupo_10519" data-name="Grupo 10519" transform="translate(2.091 11.037)">
            <path id="Trazado_2441" data-name="Trazado 2441" d="M1698.269,3622.2l2.433,3.709-20.433,6.545s-1.365-1.305,3.649-3.926C1689.755,3625.477,1698.269,3622.2,1698.269,3622.2Z" transform="translate(-1680.099 -3622.203)" fill="#88bdda"/>
            <path id="Trazado_2442" data-name="Trazado 2442" d="M1743.6,3622.2l-2.432,3.709,20.432,6.545s1.365-1.305-3.649-3.926C1752.111,3625.477,1743.6,3622.2,1743.6,3622.2Z" transform="translate(-1721.8 -3622.203)" fill="#88bdda"/>
          </g>
          <rect id="Rectángulo_2884" data-name="Rectángulo 2884" width="4.269" height="15.202" transform="translate(19.94)" fill="#88bdda"/>
          <g id="Grupo_10520" data-name="Grupo 10520" transform="translate(4.434 11.818)">
            <path id="Trazado_2443" data-name="Trazado 2443" d="M1703.04,3624.666l2.083,3.541-17.49,6.246s-1.169-1.246,3.122-3.748A136.835,136.835,0,0,1,1703.04,3624.666Z" transform="translate(-1687.487 -3624.666)" fill="#91e2f6"/>
            <path id="Trazado_2444" data-name="Trazado 2444" d="M1745.213,3624.666l-2.081,3.541,17.491,6.246s1.167-1.246-3.123-3.748A136.7,136.7,0,0,0,1745.213,3624.666Z" transform="translate(-1725.485 -3624.666)" fill="#91e2f6"/>
          </g>
          <path id="Trazado_2445" data-name="Trazado 2445" d="M1687.8,3656.762a1.484,1.484,0,1,1-1.484-1.484A1.483,1.483,0,0,1,1687.8,3656.762Z" transform="translate(-1681.24 -3633.752)" fill="#001f46"/>
          <path id="Trazado_2446" data-name="Trazado 2446" d="M1794.663,3656.762a1.483,1.483,0,1,1-1.483-1.484A1.483,1.483,0,0,1,1794.663,3656.762Z" transform="translate(-1754.215 -3633.752)" fill="#001f46"/>
          <path id="Trazado_2447" data-name="Trazado 2447" d="M1676.473,3656.762a1.484,1.484,0,1,1-1.484-1.484A1.483,1.483,0,0,1,1676.473,3656.762Z" transform="translate(-1673.506 -3633.752)" fill="#367082"/>
          <path id="Trazado_2448" data-name="Trazado 2448" d="M1805.989,3656.762a1.484,1.484,0,1,1-1.484-1.484A1.483,1.483,0,0,1,1805.989,3656.762Z" transform="translate(-1761.948 -3633.752)" fill="#367082"/>
        </g>
        <rect id="Rectángulo_2885" data-name="Rectángulo 2885" width="3.123" height="5.466" transform="translate(26.531 55.07)" fill="#367082"/>
        <path id="Trazado_2449" data-name="Trazado 2449" d="M1738.439,3554.171a3.045,3.045,0,0,1-3.046,3.045h-1.718a3.046,3.046,0,0,1-3.045-3.045h0a3.045,3.045,0,0,1,3.045-3.045h1.718a3.044,3.044,0,0,1,3.046,3.045Z" transform="translate(-1706.442 -3501.991)" fill="#367082"/>
        <path id="Trazado_2450" data-name="Trazado 2450" d="M1715.919,3535.916c.075-.359.118-2.607.118-2.993,0-2.459-1.589-4.452-3.55-4.452h-39.559c-1.961,0-3.549,1.993-3.549,4.452,0,.386.042,2.635.117,2.993Z" transform="translate(-1664.615 -3486.52)" fill="#3dc7c9"/>
        <path id="Trazado_2451" data-name="Trazado 2451" d="M1668.224,3552.814c0,.752.44,1.362.983,1.362h45.424c.543,0,.983-.61.983-1.362h0c0-.753-.44-1.364-.983-1.364h-45.424c-.543,0-.983.61-.983,1.364Z" transform="translate(-1663.827 -3502.212)" fill="#367082"/>
        <g id="Grupo_10522" data-name="Grupo 10522" transform="translate(4.481)">
          <path id="Trazado_2452" data-name="Trazado 2452" d="M1674.807,3422.74c.976.073,7.177.182,8.245.194,6.787.083,12.635-1.191,12.959-2.864a57.934,57.934,0,0,0,.177-21.021c-.29-1.671-6.225-2.945-13.154-2.86-1.09.012-7.419.123-8.413.2A56.861,56.861,0,0,1,1674.807,3422.74Z" transform="translate(-1672.677 -3396.187)" fill="#3dc7c9"/>
          <path id="Trazado_2453" data-name="Trazado 2453" d="M1669.688,3396.812c-.76.009-1.289.371-1.185.806a56.783,56.783,0,0,1,.213,24.749c-.1.438.429.8,1.174.806h0c.743.009,1.431-.338,1.525-.776a56.9,56.9,0,0,0-.162-24.808c-.1-.439-.8-.785-1.565-.776Z" transform="translate(-1668.49 -3396.613)" fill="#367082"/>
          <path id="Trazado_2454" data-name="Trazado 2454" d="M1670.861,3422.937a16.486,16.486,0,0,0,1.78.119,3.573,3.573,0,0,0,3.3-2.931,57,57,0,0,0-.094-20.7,3.644,3.644,0,0,0-3.377-2.929,17.488,17.488,0,0,0-1.814.119A56.822,56.822,0,0,1,1670.861,3422.937Z" transform="translate(-1669.966 -3396.396)" fill="#33a8b5"/>
        </g>
      </g>
      <g id="Grupo_10528" data-name="Grupo 10528" transform="translate(27.582 8.886)">
        <g id="Grupo_10526" data-name="Grupo 10526" transform="translate(24.837 25.578)">
          <g id="Grupo_10525" data-name="Grupo 10525" transform="translate(5.578 26.204)">
            <g id="Grupo_10524" data-name="Grupo 10524" transform="translate(3.577 1.351)">
              <path id="Trazado_2455" data-name="Trazado 2455" d="M1801.114,3412.8s.047,1.728,8.432,1.736,20.7-2.055,20.7-2.055l-19.343-1.827S1803.472,3410.308,1801.114,3412.8Z" transform="translate(-1801.114 -3410.638)" fill="#e6b09c"/>
              <path id="Trazado_2456" data-name="Trazado 2456" d="M1869.216,3415.825c3.986.126,5.634,2.178,7.2,2.847a27.972,27.972,0,0,1,3.109,1.65c-.834-1.734-2.12-1.823-2.748-2.395s-.469-.291.954-.351c.808-.034,2.183,1.433,3.18,2.254a3.247,3.247,0,0,0,1.416.781,17.606,17.606,0,0,0-2.267-2.67,20.414,20.414,0,0,0-3.93-2.877,15.642,15.642,0,0,0-5.412-.345C1868.563,3414.938,1866.345,3415.734,1869.216,3415.825Z" transform="translate(-1846.686 -3413.372)" fill="#e6b09c"/>
              <path id="Trazado_2457" data-name="Trazado 2457" d="M1893.265,3416.2a21.716,21.716,0,0,1,3.549,1.293c.365.292,1.872,1.978,1.872,1.978a3.982,3.982,0,0,1-1.775-.86A34.557,34.557,0,0,0,1893.265,3416.2Z" transform="translate(-1864.041 -3414.436)" fill="#e6b09c"/>
            </g>
            <path id="Trazado_2458" data-name="Trazado 2458" d="M1797.205,3406.379s-7.732.22-7.358,4.813c.21,2.611,1.941,3.574,4.278,3.467,4.344-.2,9.274-.664,9.274-.664l2.438-7.037Z" transform="translate(-1789.834 -3406.379)" fill="#b0bfde"/>
          </g>
          <path id="Trazado_2459" data-name="Trazado 2459" d="M1783.556,3350.531l-6.746-23.812s-.993-3.489-2.851-2.9c-2.68.843-1.465,3.71-1.291,5.392a55.275,55.275,0,0,0,2.146,13.214c1.33,5.124,2.431,11.013,3.63,14.393.825,2.33,2.48-.909,4.843-1.748C1787.7,3353.5,1783.556,3350.531,1783.556,3350.531Z" transform="translate(-1772.243 -3323.75)" fill="#b0bfde"/>
        </g>
        <path id="Trazado_2460" data-name="Trazado 2460" d="M1724.871,3283.508a9.825,9.825,0,1,1-7.483-11.532A9.723,9.723,0,0,1,1724.871,3283.508Z" transform="translate(-1701.81 -3262.65)" fill="#282723"/>
        <path id="Trazado_2461" data-name="Trazado 2461" d="M1761.505,3258.629a7.385,7.385,0,0,1-8.823,5.592l-1.036-3.827a7.386,7.386,0,0,1-5.591-8.823l.606-2.7a7.385,7.385,0,0,1,8.823-5.593l1.8.4a7.387,7.387,0,0,1,5.592,8.823Z" transform="translate(-1729.4 -3243.095)" fill="#282723"/>
        <path id="Trazado_2462" data-name="Trazado 2462" d="M1761.1,3256.623a14.608,14.608,0,0,1-.628,1.992c-1.765,4.465-5.367,7.35-8.537,7.094a22.5,22.5,0,0,1-2.273,5.354,11.206,11.206,0,0,1-3.552,3.146c-1.246,3.116,11.227,13.55,11.76,13.278,1.132-.578-.9-8.073-2.937-10.395-.958-1.089-1.932-2.372-1.953-3.106-.072-2.572.745-3.119,1.983-4.3a6.044,6.044,0,0,1,4.66-1.05.847.847,0,0,0,.667-.13,5.229,5.229,0,0,0,.564-1.457l1.332-5.943A5.219,5.219,0,0,0,1761.1,3256.623Z" transform="translate(-1729.501 -3252.333)" fill="#ffc4ad"/>
        <path id="Trazado_2463" data-name="Trazado 2463" d="M1752.79,3370.161s3.2,2.894,4.094,3.151c1.2.343,4.568-1.112,4.568-1.112s-.929-15-.583-20.949,1.742-7.665,1.582-9.5c-.258-2.936,2.125-4.434,1.422-6.673s-2.472-10.281-2.594-9.165c-1.037,9.511-4.685,2.176-5.413,1.028C1755.467,3326.308,1752.79,3370.161,1752.79,3370.161Z" transform="translate(-1734.123 -3299.576)" fill="#2c7eea"/>
        <path id="Trazado_2464" data-name="Trazado 2464" d="M1772.182,3317.6s4.228,3.1,4.171,4.531,2.185,5.664,1.276,12.026a87.944,87.944,0,0,0-1.21,16.773c.212,4.634,2.349,8.648,2.421,14.352.057,4.468-.966,4.866-.966,4.866a3.707,3.707,0,0,1-3.629-.8c-1.658-1.527-1.363-16.82-1.111-20.67s1.451-12.915,1.73-15.562a28.077,28.077,0,0,0-.346-7.436,31.589,31.589,0,0,0-1.774-6.448c-.083-.205-1.182-1.085-1.251-1.247C1771.19,3317.295,1771.835,3317.211,1772.182,3317.6Z" transform="translate(-1746.839 -3293.814)" fill="#d1dbea"/>
        <path id="Trazado_2465" data-name="Trazado 2465" d="M1769.363,3313.163s-.879-.182-.13.821a2.084,2.084,0,0,1,.432,1.037s.379-.4.951.173c.519.518,1.34,1.167,1.34,1.167a14.382,14.382,0,0,0-.648-1.6C1770.879,3314.376,1769.363,3313.163,1769.363,3313.163Z" transform="translate(-1745.145 -3290.933)" fill="#b0bfde"/>
        <path id="Trazado_2466" data-name="Trazado 2466" d="M1714.189,3323.57a10.262,10.262,0,1,1-7.815-12.046A10.156,10.156,0,0,1,1714.189,3323.57Z" transform="translate(-1693.926 -3289.649)" fill="#282723"/>
        <path id="Trazado_2467" data-name="Trazado 2467" d="M1820.254,3627.533l-1.918,14.711,8.292,3.806,4.6.971-8.169-6.1,2.672-13.273Z" transform="translate(-1778.882 -3505.617)" fill="#ffc4ad"/>
        <path id="Trazado_2468" data-name="Trazado 2468" d="M1816.623,3673.294l1.8.469,1.208-1.087,6.625,3.217,5.875,1.343a1.081,1.081,0,0,0-.125-.708c-.739-.93-4.853-3.008-4.853-3.008s-.066,1.364-.652,1.4-5.66-2.537-6.834-3.254c-2.021-1.236-2.4-2-2.553-1.907C1816.705,3670.016,1816.623,3673.294,1816.623,3673.294Z" transform="translate(-1777.712 -3534.449)" fill="#161711"/>
        <path id="Trazado_2469" data-name="Trazado 2469" d="M1887.5,3559.721l6.587,12.538,9.112-.447,4.531-1.26-10.062-1.646-5.495-10.713Z" transform="translate(-1826.111 -3458.267)" fill="#ffc4ad"/>
        <path id="Trazado_2470" data-name="Trazado 2470" d="M1907.34,3599.624l1.811-.414.572-1.521,8.17-.117,4.879-1.108a4.122,4.122,0,0,0-.953-.785,27.879,27.879,0,0,0-4.943-.663s.406,1.067-.095,1.372-6.116.487-7.489.39c-2.363-.163-3.052-.669-3.145-.513C1905.9,3596.677,1907.34,3599.624,1907.34,3599.624Z" transform="translate(-1838.825 -3483.412)" fill="#161711"/>
        <path id="Trazado_2471" data-name="Trazado 2471" d="M1710.723,3444.777l4.916,2.137,2.137,6.412,31.617-5.2s3.221-.993,5.271,4.093c2.919,7.241,10.348,29.752,10.348,29.752l-4.7,4.916-14.747-25.435s-30.219,14.174-40.182,11.115c-3.823-1.175-6.745-7.927-6.2-14.749a87.549,87.549,0,0,1,1.5-10.258Z" transform="translate(-1697.469 -3380.818)" fill="#194866"/>
        <path id="Trazado_2472" data-name="Trazado 2472" d="M1749.2,3502.755l24.182-1.74-2.079,37.312,7.131.228,5.267-43.7s-1.421-6.5-6.039-5.523S1761.866,3498.876,1749.2,3502.755Z" transform="translate(-1731.67 -3411.176)" fill="#163f59"/>
        <path id="Trazado_2473" data-name="Trazado 2473" d="M1716.224,3360.939s.581-15.181,1.026-22.382.347-21.1.443-22.827a21.128,21.128,0,0,0-.379-4.173s-2.187-3.731-4.625-3.406c-2.144.285-5.45,3.27-7.526,4.654-2.028,1.352-1.8,26.735-1.9,28.012-.367,4.612-3.113,9.165-5.186,13.594a25.241,25.241,0,0,0-1.635,7.323S1708.753,3359.373,1716.224,3360.939Z" transform="translate(-1695.643 -3287.506)" fill="#d1dbea"/>
        <path id="Trazado_2474" data-name="Trazado 2474" d="M1747.128,3304.464l1.735,1.71,2.442,2.621-1.238,2.939-4.308-6.043Z" transform="translate(-1729.321 -3285.002)" fill="#b0bfde"/>
        <g id="Grupo_10527" data-name="Grupo 10527" transform="translate(14.495 54.604)">
          <path id="Trazado_2475" data-name="Trazado 2475" d="M1739.634,3420.535s.263,1.855,10.2.76,24.294-4.944,24.294-4.944l-23.15.581S1742.135,3417.538,1739.634,3420.535Z" transform="translate(-1739.634 -3416.011)" fill="#ffc4ad"/>
          <path id="Trazado_2476" data-name="Trazado 2476" d="M1820.414,3417.148c4.742-.39,6.937,1.6,8.868,2.119a34.526,34.526,0,0,1,3.881,1.367c-1.194-1.757-2.73-1.685-3.542-2.219s-.59-.25,1.088-.5c.955-.145,2.758,1.256,4.038,2.009a4.036,4.036,0,0,0,1.772.656,19.481,19.481,0,0,0-3-2.578,24.364,24.364,0,0,0-5-2.584,20.424,20.424,0,0,0-6.454.344C1819.533,3416.276,1817,3417.428,1820.414,3417.148Z" transform="translate(-1793.666 -3415.278)" fill="#ffc4ad"/>
          <path id="Trazado_2477" data-name="Trazado 2477" d="M1848.746,3416.041a27.622,27.622,0,0,1,4.359.925c.467.266,2.452,1.885,2.452,1.885a4.984,4.984,0,0,1-2.205-.694A41.941,41.941,0,0,0,1848.746,3416.041Z" transform="translate(-1814.144 -3415.799)" fill="#ffc4ad"/>
        </g>
        <path id="Trazado_2478" data-name="Trazado 2478" d="M1730.372,3351.558l-1.1-23.491s-1.268-4.922-3.113-6.052c-2.189-1.34-5.2,1.144-5.2,1.144s-1.542,3.669-.507,20.99c.692,11.585,1.76,17.584,7.253,16.738,5.126-.79,10.915-1.937,10.915-1.937l2.057-7.9Z" transform="translate(-1711.794 -3296.716)" fill="#b0bfde"/>
      </g>
      <g id="Grupo_10531" data-name="Grupo 10531" transform="translate(65.901 43.478)">
        <path id="Trazado_2479" data-name="Trazado 2479" d="M1814.776,3431.842l-.02-.037.02-1.165h48.245v1.165a.06.06,0,0,1,0,.037l-.123.218c-.62,1.009-1.732,1.191-3.006,1.191h-41.985c-1.274,0-2.386-.182-3.008-1.191Z" transform="translate(-1814.756 -3405.756)" fill="#d0dee6"/>
        <path id="Trazado_2480" data-name="Trazado 2480" d="M1827.385,3433.02s.008.021,0,.032l-.119.176a1.977,1.977,0,0,1-.705.594h-7.337c-1.226,0-2.3-.147-2.892-.963l-.116-.177c-.007-.01-.015-.019-.021-.029l.013-.574h11.178Z" transform="translate(-1815.738 -3406.738)" fill="#b6c2c9"/>
        <g id="Grupo_10529" data-name="Grupo 10529" transform="translate(18.159 25.153)">
          <rect id="Rectángulo_2886" data-name="Rectángulo 2886" width="24.107" height="0.823" fill="#b6c2c9"/>
        </g>
        <g id="Grupo_10530" data-name="Grupo 10530" transform="translate(11.915)">
          <path id="Trazado_2481" data-name="Trazado 2481" d="M1852.326,3377.015l6.255-23.706a1.575,1.575,0,0,1,1.43-1.134h33.85a.843.843,0,0,1,.833,1.134l-6.254,23.706Z" transform="translate(-1852.326 -3352.175)" fill="#effaff"/>
          <path id="Trazado_2482" data-name="Trazado 2482" d="M1912.521,3386.618a1.632,1.632,0,0,0,1.613,2.191,3.053,3.053,0,0,0,2.771-2.191,1.633,1.633,0,0,0-1.614-2.195A3.05,3.05,0,0,0,1912.521,3386.618Z" transform="translate(-1893.38 -3374.196)" fill="#b6c2c9"/>
        </g>
      </g>
      <g id="Grupo_10533" data-name="Grupo 10533" transform="translate(0 70.941)">
        <g id="Grupo_10532" data-name="Grupo 10532" transform="translate(210.175 2.562)">
          <path id="Trazado_2483" data-name="Trazado 2483" d="M2274.633,3525.76H2269.7l8.147-78.907H2285Z" transform="translate(-2269.695 -3446.852)" fill="#acd5f4"/>
          <path id="Trazado_2484" data-name="Trazado 2484" d="M2295.822,3450.489l-9.583,24.352,2.717-26.208.184-1.78h6.257Z" transform="translate(-2280.993 -3446.852)" fill="#86bbd8"/>
        </g>
        <path id="Trazado_2485" data-name="Trazado 2485" d="M2426.423,3525.76h4.938l-8.147-78.907h-7.16Z" transform="translate(-2159.464 -3444.29)" fill="#acd5f4"/>
        <path id="Trazado_2486" data-name="Trazado 2486" d="M2417.558,3450.489l3.14,23.9,3.726-25.754-.184-1.78h-6.259Z" transform="translate(-2160.491 -3444.29)" fill="#86bbd8"/>
        <path id="Trazado_2487" data-name="Trazado 2487" d="M1763.681,3525.76h4.938l-8.147-78.907h-7.16Z" transform="translate(-1706.897 -3444.29)" fill="#acd5f4"/>
        <path id="Trazado_2488" data-name="Trazado 2488" d="M1754.817,3450.489l3.14,23.9,3.726-25.754-.185-1.78h-6.258Z" transform="translate(-1707.925 -3444.29)" fill="#86bbd8"/>
        <path id="Trazado_2489" data-name="Trazado 2489" d="M1611.89,3525.76h-4.939l8.148-78.907h7.16Z" transform="translate(-1606.952 -3444.29)" fill="#acd5f4"/>
        <path id="Trazado_2490" data-name="Trazado 2490" d="M1633.079,3450.489l-9.583,24.352,2.718-26.208.183-1.78h6.259Z" transform="translate(-1618.249 -3444.29)" fill="#86bbd8"/>
        <rect id="Rectángulo_2887" data-name="Rectángulo 2887" width="151.687" height="4.612" transform="translate(1.235)" fill="#367082"/>
        <rect id="Rectángulo_2888" data-name="Rectángulo 2888" width="211.618" height="4.612" transform="translate(58.018)" fill="url(#radial-gradient)"/>
      </g>
    </g>
    <g id="Grupo_10535" data-name="Grupo 10535" transform="translate(1705.985 3018.113)">
      <path id="Trazado_2491" data-name="Trazado 2491" d="M1967.855,3133.167a3.255,3.255,0,0,0,3.254,3.254h20.545v7.593l7.593-7.593h6.571a3.254,3.254,0,0,0,3.254-3.254v-27.115a3.254,3.254,0,0,0-3.254-3.254h-34.708a3.255,3.255,0,0,0-3.254,3.254Z" transform="translate(-1967.855 -3102.797)" fill="#5acffb"/>
      <rect id="Rectángulo_2889" data-name="Rectángulo 2889" width="28.201" height="2.169" transform="translate(6.508 9.762)" fill="#fff"/>
      <rect id="Rectángulo_2890" data-name="Rectángulo 2890" width="28.201" height="2.169" transform="translate(6.508 15.185)" fill="#fff"/>
      <rect id="Rectángulo_2891" data-name="Rectángulo 2891" width="28.201" height="2.169" transform="translate(6.508 20.608)" fill="#fff"/>
    </g>
    <g id="Grupo_10536" data-name="Grupo 10536" transform="translate(1739.604 2978.785)">
      <path id="Trazado_2492" data-name="Trazado 2492" d="M2115.083,3009.155a3.255,3.255,0,0,1-3.254,3.255h-20.545V3020l-7.593-7.592h-6.571a3.255,3.255,0,0,1-3.255-3.255v-27.116a3.254,3.254,0,0,1,3.255-3.254h34.708a3.255,3.255,0,0,1,3.254,3.254Z" transform="translate(-2073.866 -2978.785)" fill="#fdbf14"/>
      <rect id="Rectángulo_2892" data-name="Rectángulo 2892" width="28.201" height="2.169" transform="translate(6.508 9.762)" fill="#fff"/>
      <rect id="Rectángulo_2893" data-name="Rectángulo 2893" width="28.201" height="2.169" transform="translate(6.508 15.185)" fill="#fff"/>
      <rect id="Rectángulo_2894" data-name="Rectángulo 2894" width="28.201" height="2.17" transform="translate(6.508 20.608)" fill="#fff"/>
    </g>
    <g id="Grupo_10537" data-name="Grupo 10537" transform="translate(1796.678 2989.516)">
      <path id="Trazado_2493" data-name="Trazado 2493" d="M2284.057,3012.622h-27.2a3.022,3.022,0,0,0-3.022,3.022V3036.8a3.022,3.022,0,0,0,3.022,3.022h9.072l1.511,1.511,3.021,3.022,3.021-3.022,1.511-1.511h9.064a3.022,3.022,0,0,0,3.022-3.022v-21.154A3.022,3.022,0,0,0,2284.057,3012.622Z" transform="translate(-2253.835 -3012.622)" fill="#3dc7c9"/>
      <path id="Trazado_2494" data-name="Trazado 2494" d="M2294.05,3034.24v-3.022h-3.174a7.505,7.505,0,0,0-1.1-2.652l2.249-2.248-2.136-2.136-2.249,2.249a7.485,7.485,0,0,0-2.65-1.1v-3.175h-3.022v3.175a7.484,7.484,0,0,0-2.65,1.1l-2.249-2.249-2.138,2.136,2.249,2.249a7.531,7.531,0,0,0-1.1,2.651H2272.9v3.022h3.174a7.5,7.5,0,0,0,1.1,2.65l-2.249,2.25,2.137,2.137,2.249-2.25a7.537,7.537,0,0,0,2.652,1.1v3.175h3.022v-3.175a7.533,7.533,0,0,0,2.65-1.1l2.249,2.249,2.136-2.137-2.249-2.249a7.5,7.5,0,0,0,1.1-2.652Zm-10.577,3.022a4.533,4.533,0,1,1,4.533-4.534A4.534,4.534,0,0,1,2283.473,3037.262Z" transform="translate(-2266.85 -3019.129)" fill="#fff"/>
    </g>
    <g id="Grupo_10538" data-name="Grupo 10538" transform="translate(1841.147 3061.427)">
      <path id="Trazado_2495" data-name="Trazado 2495" d="M2401.971,3239.379a2.373,2.373,0,0,0-2.373,2.374v1.581h-5.539l5.539,5.537v14.24a2.373,2.373,0,0,0,2.373,2.373h22.939a2.373,2.373,0,0,0,2.374-2.373v-21.357a2.373,2.373,0,0,0-2.374-2.374Z" transform="translate(-2394.06 -3239.379)" fill="#2c7eea"/>
    </g>
    <g id="Grupo_10542" data-name="Grupo 10542" transform="translate(1584.372 3068.167)">
      <g id="Grupo_10539" data-name="Grupo 10539" transform="translate(0)">
        <path id="Trazado_2496" data-name="Trazado 2496" d="M1609.685,3260.634a2.373,2.373,0,0,1,2.373,2.374v1.581h5.538l-5.538,5.536v14.239a2.373,2.373,0,0,1-2.373,2.374h-22.939a2.373,2.373,0,0,1-2.374-2.374v-21.357a2.373,2.373,0,0,1,2.374-2.374Z" transform="translate(-1584.372 -3260.634)" fill="#fdbf14"/>
      </g>
      <g id="Grupo_10541" data-name="Grupo 10541" transform="translate(8.674 5.141)">
        <g id="Grupo_10540" data-name="Grupo 10540" transform="translate(3.195 13.64)">
          <rect id="Rectángulo_2895" data-name="Rectángulo 2895" width="5.111" height="1.279" fill="#fff"/>
        </g>
        <path id="Trazado_2497" data-name="Trazado 2497" d="M1617.475,3276.846a5.749,5.749,0,0,1,2.556,10.9v1.877h-1.917v-3.833h.639v-1.277H1616.2v1.277h.638v3.833h-1.917v-1.877a5.749,5.749,0,0,1,2.555-10.9Z" transform="translate(-1611.725 -3276.846)" fill="#fff"/>
      </g>
    </g>
    <path id="Trazado_2498" data-name="Trazado 2498" d="M2446.375,3260.56a1.977,1.977,0,1,0-2.762,0h-3.419v2.855a1.977,1.977,0,1,1,0,2.762v2.856h9.6v-8.473Z" transform="translate(-584.416 -190.101)" fill="#fff"/>
  </g>
</svg>
