<svg id="Grupo_10105" data-name="Grupo 10105" xmlns="http://www.w3.org/2000/svg" width="78.556" height="89.06" viewBox="0 0 78.556 89.06">
  <path id="Trazado_1768" data-name="Trazado 1768" d="M2322.615,1004.052l3.429-3.333c3.427,1.662,5.98,3.333,10.211,5.828a93.1,93.1,0,0,1,22.247-18.323l.876,1.67c-7.732,6.66-13.712,14.158-22.248,29.149C2332.024,1013.214,2328.6,1009.049,2322.615,1004.052Zm55.583-38.309v73.286h-75.278V965.743h17.142l-8.608,8.323V1030.7h58.209V974.065l-8.607-8.323Zm-26.552,0v-1.67a11.09,11.09,0,0,0-22.174,0v1.67L2317.436,977.4h46.247Zm-11.086,1.662a3.663,3.663,0,0,1-3.429-3.333c0-2.495,1.75-4.165,3.429-4.165a4.02,4.02,0,0,1,4.3,4.165C2344.863,965.743,2343.112,967.405,2340.56,967.405Z" transform="translate(-2299.642 -949.969)" fill="#454546" fill-rule="evenodd" opacity="0.25"/>
  <path id="Trazado_1769" data-name="Trazado 1769" d="M2320.615,1002.052l3.429-3.333c3.427,1.662,5.98,3.333,10.211,5.828a93.1,93.1,0,0,1,22.247-18.324l.876,1.671c-7.732,6.66-13.712,14.158-22.248,29.149C2330.024,1011.214,2326.6,1007.049,2320.615,1002.052Zm55.583-38.309v73.286h-75.277V963.743h17.142l-8.608,8.322V1028.7h58.209V972.065l-8.608-8.322Zm-26.552,0v-1.67a11.09,11.09,0,0,0-22.174,0v1.67L2315.437,975.4h46.247Zm-11.086,1.662a3.663,3.663,0,0,1-3.429-3.333c0-2.495,1.75-4.165,3.429-4.165a4.02,4.02,0,0,1,4.3,4.165C2342.863,963.743,2341.112,965.405,2338.56,965.405Z" transform="translate(-2300.921 -951.247)" fill="#fff" fill-rule="evenodd"/>
</svg>
