<svg xmlns="http://www.w3.org/2000/svg" width="290" height="212.327" viewBox="0 0 290 212.327">
  <g id="Grupo_10792" data-name="Grupo 10792" transform="translate(-2070.969 -2262.57)">
    <g id="Grupo_10546" data-name="Grupo 10546" transform="translate(2198.173 2412.769)">
      <g id="Grupo_10545" data-name="Grupo 10545" transform="translate(0 0)">
        <g id="Grupo_10544" data-name="Grupo 10544">
          <path id="Trazado_2499" data-name="Trazado 2499" d="M2382.079,2629.649s1.5-.569,1.727-.65a2.909,2.909,0,0,1,1.612.516,12.539,12.539,0,0,1,1.675.954.651.651,0,0,1,0,.557,1.32,1.32,0,0,1-.41.529.8.8,0,0,1-.336.7.7.7,0,0,1-.451.635s0,.437-.348.545a5.273,5.273,0,0,0-.924-.168,16.1,16.1,0,0,1-3.179-1.3S2380.819,2631.186,2382.079,2629.649Z" transform="translate(-2381.286 -2628.982)" fill="#eea886"/>
        </g>
      </g>
    </g>
    <g id="Grupo_10548" data-name="Grupo 10548" transform="translate(2135.845 2361.659)">
      <g id="Grupo_10547" data-name="Grupo 10547" transform="translate(0)">
        <path id="Trazado_2500" data-name="Trazado 2500" d="M2229.235,2505.7s4.818-1.564,5.209-1.39.444.45,0,.616-4.62,1.652-4.62,1.652,5.953-.857,6.307-.79c.207.041.34.567.108.678s-6.1,1.315-6.1,1.315,5.56-.79,5.835-.639a.417.417,0,0,1-.163.741c-.41.087-5.544,1.127-5.544,1.127s4.068-.309,4.224-.033c.095.169.23.618-.821.662s-3.531.427-3.531.427Z" transform="translate(-2229.235 -2504.3)" fill="#eea886"/>
      </g>
    </g>
    <g id="Grupo_10551" data-name="Grupo 10551" transform="translate(2130.535 2360.203)">
      <g id="Grupo_10550" data-name="Grupo 10550" transform="translate(0 0)">
        <g id="Grupo_10549" data-name="Grupo 10549">
          <path id="Trazado_2501" data-name="Trazado 2501" d="M2216.283,2506.307s1.559-.62,1.671-1.6a5.968,5.968,0,0,1,1-2.194c.285-.427.711-2.061,1.21-1.712s-.58,2.722-.714,3.262,1.993-.611,2.526-.508,1.983,3.836.443,4.454-3.524.224-3.777.388a10.189,10.189,0,0,1-1.105.5Z" transform="translate(-2216.283 -2500.749)" fill="#eea886"/>
        </g>
      </g>
    </g>
    <g id="Grupo_10552" data-name="Grupo 10552" transform="translate(2084.823 2465.414)">
      <path id="Trazado_2502" data-name="Trazado 2502" d="M2109.992,2757.411a20.753,20.753,0,0,1-1.791,2.8c-.708.8-3.419,2.217-3.434,4.579-.016,2.561,4.57,1.851,6.363,1.757s1.929-1.463,2.684-2.912,1.516-1.2,1.658-2.374a13.736,13.736,0,0,0-.731-3.849Z" transform="translate(-2104.767 -2757.411)" fill="#202338"/>
    </g>
    <g id="Grupo_10554" data-name="Grupo 10554" transform="translate(2111.851 2464.749)">
      <g id="Grupo_10553" data-name="Grupo 10553" transform="translate(0 0)">
        <path id="Trazado_2503" data-name="Trazado 2503" d="M2176.2,2756.221s2.21,2.445,4.453,2.957,3.813,1.165,3.83,2.569-6.456,2.328-9.023.913c-3.832-2.111-4.221-1.474-4.646-2.53s.51-3.877.483-4.213C2171.26,2755.5,2176.2,2756.221,2176.2,2756.221Z" transform="translate(-2170.7 -2755.788)" fill="#202338"/>
      </g>
    </g>
    <g id="Grupo_10556" data-name="Grupo 10556" transform="translate(2112.441 2463.322)">
      <g id="Grupo_10555" data-name="Grupo 10555" transform="translate(0 0)">
        <path id="Trazado_2504" data-name="Trazado 2504" d="M2176.8,2753a10.169,10.169,0,0,1,.249,1.171c-.044.024-5.056.615-4.9-.3.123-.746.3-1.556.3-1.556Z" transform="translate(-2172.141 -2752.307)" fill="#81807e"/>
      </g>
    </g>
    <g id="Grupo_10558" data-name="Grupo 10558" transform="translate(2089.85 2464.21)">
      <g id="Grupo_10557" data-name="Grupo 10557" transform="translate(0)">
        <path id="Trazado_2505" data-name="Trazado 2505" d="M2121.915,2754.906a9.572,9.572,0,0,1,.169,1.119c-.041.027-5.083.919-5.054.011a4.344,4.344,0,0,1,.465-1.561Z" transform="translate(-2117.03 -2754.475)" fill="#81807e"/>
      </g>
    </g>
    <g id="Grupo_10560" data-name="Grupo 10560" transform="translate(2088.078 2390.159)">
      <g id="Grupo_10559" data-name="Grupo 10559" transform="translate(0 0)">
        <path id="Trazado_2506" data-name="Trazado 2506" d="M2137.171,2579.1s1.823,17.546,2.771,23.553c1.109,7.021,1.485,12.824,1.794,16.459.389,4.571.464,27.062.736,28.4s-6.038.37-6.038.37-3.105-29.385-4.263-34.254c-1.078-4.534-5.08-24.053-6.064-22.814s-2.2,22.778-2.933,26.354-2.945,31.569-2.945,31.569-5.022.991-6.358-.129c0,0-.608-24.125-.144-30.828.177-2.556-3.02-30.633,1.08-41.936C2116.974,2569.863,2137.171,2579.1,2137.171,2579.1Z" transform="translate(-2112.707 -2573.825)" fill="#292c47"/>
      </g>
    </g>
    <g id="Grupo_10562" data-name="Grupo 10562" transform="translate(2076.112 2353.658)">
      <g id="Grupo_10561" data-name="Grupo 10561" transform="translate(0)">
        <path id="Trazado_2507" data-name="Trazado 2507" d="M2086.187,2507.335c-1.058,2.894,8.658,10.144,7.45,10.366s-1.156,2.514-1.156,2.514-9.152-7.97-8.964-10.317c.1-1.3,7.269-20.256,8.364-21.041a78.748,78.748,0,0,1,7.862-3.336,17.652,17.652,0,0,1,2.156-.739c.557-.035,7.411.623,7.411.623s.982.337,1.987.8c1.715.787,4.387,2.017,6.3,2.93.62.294,1.395.695,2.039,1.034q-.119,3.5-.414,7.5s-.357,5.833-.39,11.724a27.06,27.06,0,0,0-.255,4.433c-.084,2.939.244,5.957.328,7.642.135,2.652.5,6.427.5,6.427l-3.333,1.362-14.6-.137-4.573-1.225s.272-11.742.2-15.154c-.064-3.29-.756-11.831-.891-12.325C2096.217,2500.41,2091.321,2493.3,2086.187,2507.335Z" transform="translate(-2083.515 -2484.782)" fill="#dbd8e3"/>
      </g>
    </g>
    <g id="Grupo_10563" data-name="Grupo 10563" transform="translate(2092.752 2395.52)">
      <path id="Trazado_2508" data-name="Trazado 2508" d="M2142.926,2586.9a121.376,121.376,0,0,1-18.816,0v2.883s13.082,1.249,19.255-.55Z" transform="translate(-2124.11 -2586.904)" fill="#1d2033"/>
    </g>
    <g id="Grupo_10565" data-name="Grupo 10565" transform="translate(2103.013 2354.701)">
      <g id="Grupo_10564" data-name="Grupo 10564" transform="translate(0 0)">
        <path id="Trazado_2509" data-name="Trazado 2509" d="M2149.142,2487.327s1.631,3.833,2.855,12.4c.47,3.291,1.342,8.83,1.976,14.483v0c.5,4.456,1.64,9.03,2,12.442.375,3.533,1.506,13.946,1.506,13.946l2.743-1.729c.392-.363.94-.832.781-1.342a147.351,147.351,0,0,1-3.051-17.507c0-.005,0-.009,0-.015q-.061-.508-.12-1.007c0-.016,0-.035-.005-.052-.161-1.4-.295-2.749-.39-3.981a12.573,12.573,0,0,1,.122-2.769c.383-6.3.572-12.941.572-12.941.2-2.721.217-5.25.294-7.617C2158.427,2491.639,2149.921,2487.559,2149.142,2487.327Z" transform="translate(-2149.142 -2487.327)" fill="#323657"/>
      </g>
    </g>
    <g id="Grupo_10567" data-name="Grupo 10567" transform="translate(2070.969 2354.04)">
      <g id="Grupo_10566" data-name="Grupo 10566" transform="translate(0 0)">
        <path id="Trazado_2510" data-name="Trazado 2510" d="M2079.739,2507.135c-1.19,2.608,7.54,10.575,7.438,10.846a25.121,25.121,0,0,1-2.867,4.437s-13.517-14.519-13.339-16.308c.13-1.3,11.463-15.772,12.557-16.557.631-.454,5.313-2.113,7.611-3.019.42-.165,1.788-.681,2.164-.823.488.542,3.912,4.225,5.1,18.23.2,2.361-.431,7.359-.853,11.438-.45,4.352-.948,7.75-1.313,11.39-.72,7.171-1.223,12.877-1.223,12.877l-7.137-3.177c-1.156-.579-3.153-2.085-2.719-3.3,1.65-4.621,4.126-13.379,4.128-17.435,0,0-1.885-13.547-2.517-15.729C2086.767,2500,2081.069,2504.217,2079.739,2507.135Z" transform="translate(-2070.969 -2485.712)" fill="#323657"/>
      </g>
    </g>
    <g id="Grupo_10569" data-name="Grupo 10569" transform="translate(2094.17 2347.053)">
      <g id="Grupo_10568" data-name="Grupo 10568" transform="translate(0 0)">
        <path id="Trazado_2511" data-name="Trazado 2511" d="M2128.528,2476a48.1,48.1,0,0,0-.954-7.113c-.242-1.274,7.4,3.353,7.4,3.353s-.024.446-.039,1.049c-.008.319-.014.68-.011,1.042,0,.128,0,.255.005.382.008.336.022.658.051.933a4.392,4.392,0,0,0,.255.917C2135.548,2477.295,2131.1,2477.845,2128.528,2476Z" transform="translate(-2127.568 -2468.669)" fill="#eea987"/>
      </g>
    </g>
    <g id="Grupo_10570" data-name="Grupo 10570" transform="translate(2099.105 2356.854)">
      <path id="Trazado_2512" data-name="Trazado 2512" d="M2140.4,2492.578l1.267,1.7a1.536,1.536,0,0,1-2.06.261Z" transform="translate(-2139.608 -2492.578)" fill="#d44040"/>
    </g>
    <g id="Grupo_10571" data-name="Grupo 10571" transform="translate(2099.779 2358.58)">
      <path id="Trazado_2513" data-name="Trazado 2513" d="M2142.3,2496.834s4.8,18.493,3.813,32.889l-1.616,2.848-1.512-2.984s-.415-25.75-1.731-32.8Z" transform="translate(-2141.253 -2496.788)" fill="#d44040"/>
    </g>
    <g id="Grupo_10572" data-name="Grupo 10572" transform="translate(2097.024 2354.783)">
      <path id="Trazado_2514" data-name="Trazado 2514" d="M2138.762,2488.011l-1.356,1.586s-2.176-.421-2.815-1.558S2138.762,2488.011,2138.762,2488.011Z" transform="translate(-2134.532 -2487.527)" fill="#eea987"/>
    </g>
    <g id="Grupo_10573" data-name="Grupo 10573" transform="translate(2099.898 2353.88)">
      <path id="Trazado_2515" data-name="Trazado 2515" d="M2143.21,2485.322a6.536,6.536,0,0,1-1.667,2.974l1.647,2.214.892-4.592Z" transform="translate(-2141.543 -2485.322)" fill="#c4c1cc"/>
    </g>
    <g id="Grupo_10574" data-name="Grupo 10574" transform="translate(2093.753 2352.729)">
      <path id="Trazado_2516" data-name="Trazado 2516" d="M2127.8,2482.514s2.694,3.255,4.894,4.125l-1.023,2.532-5.122-5.506Z" transform="translate(-2126.552 -2482.514)" fill="#c4c1cc"/>
    </g>
    <g id="Grupo_10576" data-name="Grupo 10576" transform="translate(2107.545 2358.434)">
      <g id="Grupo_10575" data-name="Grupo 10575" transform="translate(0 0)">
        <path id="Trazado_2517" data-name="Trazado 2517" d="M2187.236,2506.4s-11.609,12.612-14.349,11.94c-1.267-.312-3.185-2.5-4.77-4.553-.523-.677-1.035-1.387-1.523-2.091v0c-1.945-2.808-3.469-5.5-3.469-5.5s-5.749-6.736-1.135-9.74a5.2,5.2,0,0,1,3.05.62c1.021.752,3.5,5.5,3.908,6.375s3.54,7.076,3.833,7.26,3.374-1.666,5.021-2.774a60.771,60.771,0,0,0,6-4.914Z" transform="translate(-2160.197 -2496.433)" fill="#323657"/>
      </g>
    </g>
    <g id="Grupo_10577" data-name="Grupo 10577" transform="translate(2099.481 2395.673)">
      <rect id="Rectángulo_2896" data-name="Rectángulo 2896" width="4.691" height="3.559" transform="translate(0 0)" fill="#3a4066"/>
    </g>
    <g id="Grupo_10579" data-name="Grupo 10579" transform="translate(2093.475 2335.113)">
      <g id="Grupo_10578" data-name="Grupo 10578">
        <path id="Trazado_2518" data-name="Trazado 2518" d="M2138,2443.342s1.679,3.113.847,3.6c-.687.4.8,3.454,1,3.953s-1.245.862-1.551,1.183-1.213,4.273-2.4,4.391-6.532-1.739-7.987-3.252-2.651-8.35-1.679-11.233S2135.033,2437.906,2138,2443.342Z" transform="translate(-2125.874 -2439.54)" fill="#eea886"/>
      </g>
    </g>
    <g id="Grupo_10581" data-name="Grupo 10581" transform="translate(2092.053 2332.969)">
      <g id="Grupo_10580" data-name="Grupo 10580" transform="translate(0 0)">
        <path id="Trazado_2519" data-name="Trazado 2519" d="M2136.284,2440.929a4.781,4.781,0,0,0-1.4-5.854c-3.113-2.494-8.852,1.883-9.5,2.049s-4.317.419-2.464,6.862c1.591,5.534,1.814,5.766,1.814,5.766s1.188-3.205,1.861-3.694c1.051-.763,3.355-.579,3.355-.579s-1.1-2.916.617-3.328S2134.547,2440.284,2136.284,2440.929Z" transform="translate(-2122.405 -2434.309)" fill="#d88a51"/>
      </g>
    </g>
    <g id="Grupo_10583" data-name="Grupo 10583" transform="translate(2095.181 2341.048)">
      <g id="Grupo_10582" data-name="Grupo 10582" transform="translate(0 0)">
        <path id="Trazado_2520" data-name="Trazado 2520" d="M2132.626,2455.441c-.151-.4-.641-2.119-2.115-1.109s.919,4.247,1.176,4.289S2133.9,2458.8,2132.626,2455.441Z" transform="translate(-2130.034 -2454.018)" fill="#eea886"/>
      </g>
    </g>
    <g id="Grupo_10584" data-name="Grupo 10584" transform="translate(2096.312 2349.426)">
      <path id="Trazado_2521" data-name="Trazado 2521" d="M2138,2477.75c0,.128,0,.255.006.382-4.371-1.468-5.217-3.676-5.217-3.676a29.822,29.822,0,0,0,5.223,2.252C2138.008,2477.026,2138,2477.387,2138,2477.75Z" transform="translate(-2132.793 -2474.456)" fill="#a77860"/>
    </g>
    <g id="Grupo_10585" data-name="Grupo 10585" transform="translate(2083.573 2386.208)">
      <path id="Trazado_2522" data-name="Trazado 2522" d="M2103.743,2564.239a1.536,1.536,0,0,0,.853.344c.757-.007,1.618-.829,2.409-.082s-.874,3.924-1.473,4.3-1.964-.3-3.422-2.059S2103.743,2564.239,2103.743,2564.239Z" transform="translate(-2101.718 -2564.188)" fill="#eea886"/>
    </g>
    <g id="Grupo_10586" data-name="Grupo 10586" transform="translate(2085.616 2386.309)">
      <path id="Trazado_2523" data-name="Trazado 2523" d="M2109.642,2564.434a31.216,31.216,0,0,1,3.161,1.322c1.431.7,3.11,1.764,2.939,2.127-.26.549-1.536-.482-3-1.078-1.349-.549-1.176-.212-1.176-.212s-.044-.1,1.309.789c1.455.955,2.978,2.04,2.844,2.34-.167.37-.219.4-.8.144.3.222.287.337.206.474-.418.71-2.775-.354-3.711-.778.718.329,1.207.648.671.919-.614.307-3.878-1.35-5.1-1.829C2105.638,2568.127,2109.642,2564.434,2109.642,2564.434Z" transform="translate(-2106.702 -2564.434)" fill="#eea886"/>
    </g>
    <g id="Grupo_10587" data-name="Grupo 10587" transform="translate(2077.468 2380.507)">
      <path id="Trazado_2524" data-name="Trazado 2524" d="M2096.532,2556.081s-.333,1.947-2.867,4.437c0,0-5.806-6.4-6.842-7.6l4.543-2.635Z" transform="translate(-2086.824 -2550.279)" fill="#323657"/>
    </g>
    <g id="Grupo_10588" data-name="Grupo 10588" transform="translate(2133.688 2273.093)">
      <path id="Rectángulo_2897" data-name="Rectángulo 2897" d="M2.968,0H210.582a2.968,2.968,0,0,1,2.968,2.968V98.355a2.966,2.966,0,0,1-2.966,2.966H2.968A2.968,2.968,0,0,1,0,98.353V2.968A2.968,2.968,0,0,1,2.968,0Z" transform="translate(0 0)" fill="#e0e0e0"/>
    </g>
    <g id="Grupo_10589" data-name="Grupo 10589" transform="translate(2134.961 2274.298)">
      <path id="Rectángulo_2898" data-name="Rectángulo 2898" d="M1.768,0H209.234A1.77,1.77,0,0,1,211,1.77V97.144a1.77,1.77,0,0,1-1.77,1.77H1.768A1.768,1.768,0,0,1,0,97.145V1.768A1.768,1.768,0,0,1,1.768,0Z" fill="#fff"/>
    </g>
    <g id="Grupo_10607" data-name="Grupo 10607" transform="translate(2243.656 2388.309)">
      <g id="Grupo_10590" data-name="Grupo 10590" transform="translate(0 19.849)">
        <path id="Trazado_2525" data-name="Trazado 2525" d="M2499.613,2620.947a8.984,8.984,0,0,0-2.051.133,1.379,1.379,0,0,1-.854.121c-.122-.032-1.269-.974-1.622-1.177a22.387,22.387,0,0,1-2.834-2.283,7.272,7.272,0,0,1,3.366,1c1.942,1.111,3.081.289,3.792.29C2499.994,2619.033,2499.613,2620.947,2499.613,2620.947Z" transform="translate(-2492.244 -2617.734)" fill="#eea886"/>
      </g>
      <g id="Grupo_10591" data-name="Grupo 10591" transform="translate(19.952 70.908)">
        <path id="Trazado_2526" data-name="Trazado 2526" d="M2544.054,2742.292a21.16,21.16,0,0,1,.106,4.337c-.261,1.054-.6,2.292-1.614,2.419s-1.687-1.085-1.627-2.181a6.549,6.549,0,0,1,.774-2.593,7.153,7.153,0,0,0,.506-1.8Z" transform="translate(-2540.916 -2742.292)" fill="#e8734d"/>
      </g>
      <g id="Grupo_10592" data-name="Grupo 10592" transform="translate(25.421 69.22)">
        <path id="Trazado_2527" data-name="Trazado 2527" d="M2557.408,2740.58a8.3,8.3,0,0,0,1.2,2.278c.463.315,2.48.674,2.536,1.137a1.178,1.178,0,0,1-1.272,1.287c-1.075.063-2.613.168-3.246-.4s-.969-2.424-1.454-2.507a3.117,3.117,0,0,0-.569,1.559s-.274.126-.337-.126a10.5,10.5,0,0,1,1.371-5.184C2556.86,2736.934,2557.408,2740.58,2557.408,2740.58Z" transform="translate(-2554.258 -2738.175)" fill="#e8734d"/>
      </g>
      <g id="Grupo_10593" data-name="Grupo 10593" transform="translate(19.686 43.106)">
        <path id="Trazado_2528" data-name="Trazado 2528" d="M2547.636,2674.469s-1.808,4.932-1.678,5.913a19.76,19.76,0,0,1-.415,5.436c-.411,1.487-.157,4.634-.852,7.2a61.754,61.754,0,0,0-1.039,9.721c0,.822-1.739,1.391-1.834-.284s-1.644-9.9-1.328-12.109,1.2-5,.759-6.671a25.423,25.423,0,0,1-.98-4.869C2540.269,2677.695,2547.636,2674.469,2547.636,2674.469Z" transform="translate(-2540.269 -2674.469)" fill="#eea987"/>
      </g>
      <g id="Grupo_10594" data-name="Grupo 10594" transform="translate(26.808 42.46)">
        <path id="Trazado_2529" data-name="Trazado 2529" d="M2558.458,2673.665s4.71,7.273,5.058,8.031a4.362,4.362,0,0,1,0,2.909c-.316.537-3.573,5.122-4.016,6.8s-1.518,7.683-1.77,8.315a2.21,2.21,0,0,0,.58,2.192c.505.254.647-.094.647-.094s2.383-5.455,3.487-7.356c.89-1.534,4.646-7.485,5.024-7.958a8.556,8.556,0,0,0,1.17-3.667c.08-.973-1.612-8.219-1.612-8.219S2567.6,2671.484,2558.458,2673.665Z" transform="translate(-2557.642 -2672.893)" fill="#eea987"/>
      </g>
      <g id="Grupo_10595" data-name="Grupo 10595" transform="translate(18.36 29.707)">
        <path id="Trazado_2530" data-name="Trazado 2530" d="M2538.9,2644.558s-2.435,4.68-1.739,8.758,1.012,7.3.317,8.474a28.508,28.508,0,0,0,10.022-1.74c4.775-1.9,8.063-2.971,8.063-2.971s-1.8-8.158-2.561-10.119a22.626,22.626,0,0,1-1.391-5.037C2551.552,2641.048,2538.9,2644.558,2538.9,2644.558Z" transform="translate(-2537.033 -2641.783)" fill="#e0e0e0"/>
      </g>
      <g id="Grupo_10596" data-name="Grupo 10596" transform="translate(5.207 17.174)">
        <path id="Trazado_2531" data-name="Trazado 2531" d="M2517.774,2611.209s-3.93,2.889-4.352,3.016-6.861.892-8.06,1.267c-1.144.359.436,1.578.436,1.578s6.989.158,7.681,0a6.485,6.485,0,0,0,2.985-1.072c2.023-1.117,3.372-1.834,3.372-1.834A2.577,2.577,0,0,0,2517.774,2611.209Z" transform="translate(-2504.947 -2611.209)" fill="#eea987"/>
      </g>
      <g id="Grupo_10597" data-name="Grupo 10597" transform="translate(33.988 16.09)">
        <path id="Trazado_2532" data-name="Trazado 2532" d="M2576.094,2612.42a57.1,57.1,0,0,1,3.47,4.863c0,.357-3.941,4.131-4.406,4.49l.7,1.791s7.5-4.068,7.863-5.059-2.425-5.276-5-8.708S2574.879,2611.035,2576.094,2612.42Z" transform="translate(-2575.158 -2608.562)" fill="#e8734d"/>
      </g>
      <g id="Grupo_10598" data-name="Grupo 10598" transform="translate(17.906 13.569)">
        <path id="Trazado_2533" data-name="Trazado 2533" d="M2555.7,2606.339c0,.129-.406.06-.482.119-.195.152-.394.3-.593.446q-.648.475-1.308.938a2.084,2.084,0,0,0-.429.3c-.105.135-.028.248.015.445a4.222,4.222,0,0,1,.2,1.065,8.863,8.863,0,0,1-1.305,4.449,6.235,6.235,0,0,0-.785,1.406,6.4,6.4,0,0,0-.126,1.936c.007.308.022.617.043.925,0,.057.057.281.023.324-.018.023-.176.02-.2.023-.481.062-.959.157-1.433.259-2.314.5-4.519,1.387-6.827,1.9a15.29,15.29,0,0,1-4.246.456,8.9,8.9,0,0,0,.8-2.006,33.6,33.6,0,0,0,.762-3.663,7.246,7.246,0,0,0-.153-3.622,8.452,8.452,0,0,0-.932-1.594,4.978,4.978,0,0,1-.659-1.728,3.942,3.942,0,0,0-2.141-2.753,22.041,22.041,0,0,1,2.807-1.923,5.777,5.777,0,0,1,.835-.16q.884-.166,1.771-.321c1.639-.287,3.283-.552,4.933-.77a31.429,31.429,0,0,1,4.587-.371,3.428,3.428,0,0,1,1.713.372A10.388,10.388,0,0,1,2555.7,2606.339Z" transform="translate(-2535.925 -2602.414)" fill="#e8734d"/>
      </g>
      <g id="Grupo_10599" data-name="Grupo 10599" transform="translate(22.689 0)">
        <path id="Trazado_2534" data-name="Trazado 2534" d="M2552.34,2569.312a3.664,3.664,0,0,1,3.6,2.656,20.9,20.9,0,0,1,.233,6.217c-.021,1.687,1.731,4.423,1.731,4.423s-2.912-.292-3.186-1.2-5.565,1.307-5.565,1.307,1.749-1.139.126-4.343-1.637-4.609-1.686-5.648C2547.563,2572.051,2548.274,2569.333,2552.34,2569.312Z" transform="translate(-2547.594 -2569.312)" fill="#464240"/>
      </g>
      <g id="Grupo_10600" data-name="Grupo 10600" transform="translate(23.081 0.287)">
        <path id="Trazado_2535" data-name="Trazado 2535" d="M2550.52,2570.547a5.678,5.678,0,0,0-1.644,6.345c1.286,4.216,2.129,3.963,4.216,3.013s2.8-3.519,2.888-4.8S2556.106,2568.292,2550.52,2570.547Z" transform="translate(-2548.549 -2570.012)" fill="#eea987"/>
      </g>
      <g id="Grupo_10601" data-name="Grupo 10601" transform="translate(20.65 7.232)">
        <path id="Trazado_2536" data-name="Trazado 2536" d="M2555.805,2593.379c-1.612,1.166-13.956,2.28-13.147,1.541.726-.665,4.326-2.192,5.269-2.74a1.6,1.6,0,0,0,.675-.84h0a2.922,2.922,0,0,0,.172-1.088h0c.022-.052,2.377-5.742,2.7-2.06.278,3.182,1.387,3.755,1.387,3.755A24.4,24.4,0,0,0,2555.805,2593.379Z" transform="translate(-2542.62 -2586.953)" fill="#eea987"/>
      </g>
      <g id="Grupo_10602" data-name="Grupo 10602" transform="translate(22.869 0.221)">
        <path id="Trazado_2537" data-name="Trazado 2537" d="M2549.772,2572.053s.564-.074,1.039,2a5.743,5.743,0,0,0,2.439,3.4,13.908,13.908,0,0,0,2.15,1.454s2.338-8.548-2.552-9.015-4.848,3.448-4.807,4.4.214.8.214.8S2548.321,2572.172,2549.772,2572.053Z" transform="translate(-2548.034 -2569.85)" fill="#464240"/>
      </g>
      <g id="Grupo_10603" data-name="Grupo 10603" transform="translate(31.942 29.033)">
        <path id="Trazado_2538" data-name="Trazado 2538" d="M2572.212,2640.4a.809.809,0,0,1-.494.107c-.426-.075-.829-.589-1.35-.271s.095,2.15.4,2.4,1.144.348,2.145-.443S2572.212,2640.4,2572.212,2640.4Z" transform="translate(-2570.166 -2640.137)" fill="#eea987"/>
      </g>
      <g id="Grupo_10604" data-name="Grupo 10604" transform="translate(28.397 29.039)">
        <path id="Trazado_2539" data-name="Trazado 2539" d="M2565.471,2640.153s-.915.139-1.92.406a4.277,4.277,0,0,0-1.882.846c-.025.205.919-.109,1.81-.285.82-.162,1.584-.258,1.584-.258a14.629,14.629,0,0,0-1.718.551c-.921.365-1.826.83-1.826,1.05,0,.109.349.069.832-.039-.369.137-.611.259-.579.34.164.415,2.636-.18,3.21-.314-.44.106-1.779.485-1.5.678.316.221,2.187-.3,2.943-.293S2565.471,2640.153,2565.471,2640.153Z" transform="translate(-2561.519 -2640.153)" fill="#eea987"/>
      </g>
      <g id="Grupo_10605" data-name="Grupo 10605" transform="translate(26.633 9.159)">
        <path id="Trazado_2540" data-name="Trazado 2540" d="M2559.571,2591.655a4.1,4.1,0,0,1-2.356,2.46,2.918,2.918,0,0,0,.172-1.088h0C2557.415,2593.018,2559.161,2592.345,2559.571,2591.655Z" transform="translate(-2557.215 -2591.655)" fill="#a87860"/>
      </g>
      <g id="Grupo_10606" data-name="Grupo 10606" transform="translate(5.207 17.115)">
        <path id="Trazado_2541" data-name="Trazado 2541" d="M2519.837,2614.08s-3.468,2.977-5.817,2.977-8.2.23-8.2.23l-.871-2.02s7.865-1.015,8.36-1.176,4.338-3.026,4.338-3.026S2520.577,2611.285,2519.837,2614.08Z" transform="translate(-2504.947 -2611.065)" fill="#e8734d"/>
      </g>
    </g>
    <g id="Grupo_10608" data-name="Grupo 10608" transform="translate(2146.073 2352.973)">
      <rect id="Rectángulo_2899" data-name="Rectángulo 2899" width="19.909" height="2.039" transform="translate(0 0)" fill="#e0e0e0"/>
    </g>
    <g id="Grupo_10609" data-name="Grupo 10609" transform="translate(2169.855 2352.973)">
      <rect id="Rectángulo_2900" data-name="Rectángulo 2900" width="14.134" height="2.039" transform="translate(0 0)" fill="#e0e0e0"/>
    </g>
    <g id="Grupo_10610" data-name="Grupo 10610" transform="translate(2240.653 2352.973)">
      <rect id="Rectángulo_2901" data-name="Rectángulo 2901" width="14.133" height="2.039" transform="translate(0 0)" fill="#78c2ff"/>
    </g>
    <g id="Grupo_10611" data-name="Grupo 10611" transform="translate(2187.794 2352.973)">
      <rect id="Rectángulo_2902" data-name="Rectángulo 2902" width="18.007" height="2.039" transform="translate(0 0)" fill="#1487e3"/>
    </g>
    <g id="Grupo_10612" data-name="Grupo 10612" transform="translate(2219.119 2352.973)">
      <rect id="Rectángulo_2903" data-name="Rectángulo 2903" width="18.007" height="2.039" transform="translate(0 0)" fill="#ff8761"/>
    </g>
    <g id="Grupo_10613" data-name="Grupo 10613" transform="translate(2209.13 2352.973)">
      <rect id="Rectángulo_2904" data-name="Rectángulo 2904" width="6.591" height="2.039" transform="translate(0 0)" fill="#e0e0e0"/>
    </g>
    <g id="Grupo_10614" data-name="Grupo 10614" transform="translate(2146.073 2360.648)">
      <rect id="Rectángulo_2905" data-name="Rectángulo 2905" width="10.311" height="2.039" transform="translate(0 0)" fill="#1487e3"/>
    </g>
    <g id="Grupo_10615" data-name="Grupo 10615" transform="translate(2158.915 2360.648)">
      <rect id="Rectángulo_2906" data-name="Rectángulo 2906" width="3.33" height="2.039" transform="translate(0 0)" fill="#1487e3"/>
    </g>
    <g id="Grupo_10616" data-name="Grupo 10616" transform="translate(2227.267 2360.648)">
      <rect id="Rectángulo_2907" data-name="Rectángulo 2907" width="27.519" height="2.039" transform="translate(0 0)" fill="#e0e0e0"/>
    </g>
    <g id="Grupo_10617" data-name="Grupo 10617" transform="translate(2164.691 2360.648)">
      <rect id="Rectángulo_2908" data-name="Rectángulo 2908" width="3.397" height="2.039" transform="translate(0 0)" fill="#ff8761"/>
    </g>
    <g id="Grupo_10618" data-name="Grupo 10618" transform="translate(2215.721 2360.648)">
      <rect id="Rectángulo_2909" data-name="Rectángulo 2909" width="9.003" height="2.039" transform="translate(0 0)" fill="#1487e3"/>
    </g>
    <g id="Grupo_10619" data-name="Grupo 10619" transform="translate(2194.181 2360.648)">
      <rect id="Rectángulo_2910" data-name="Rectángulo 2910" width="19.156" height="2.039" transform="translate(0 0)" fill="#1487e3"/>
    </g>
    <g id="Grupo_10620" data-name="Grupo 10620" transform="translate(2184.872 2360.648)">
      <rect id="Rectángulo_2911" data-name="Rectángulo 2911" width="6.591" height="2.039" transform="translate(0 0)" fill="#78c2ff"/>
    </g>
    <g id="Grupo_10621" data-name="Grupo 10621" transform="translate(2170.874 2360.648)">
      <rect id="Rectángulo_2912" data-name="Rectángulo 2912" width="11.484" height="2.039" transform="translate(0 0)" fill="#1487e3"/>
    </g>
    <g id="Grupo_10630" data-name="Grupo 10630" transform="translate(2145.779 2283.833)">
      <g id="Grupo_10623" data-name="Grupo 10623" transform="translate(0 0)">
        <g id="Grupo_10622" data-name="Grupo 10622">
          <path id="Trazado_2542" data-name="Trazado 2542" d="M2300.209,2330.414a24.069,24.069,0,1,0-45.327,16.209q.273.766.593,1.5a24.07,24.07,0,0,0,44.734-17.711Zm-16.586,25.1a18.026,18.026,0,0,1-22.624-9.791q-.24-.55-.445-1.125a18.046,18.046,0,1,1,23.069,10.917Z" transform="translate(-2253.47 -2314.442)" fill="#4aafff"/>
        </g>
      </g>
      <g id="Grupo_10625" data-name="Grupo 10625" transform="translate(1.099 0.011)">
        <g id="Grupo_10624" data-name="Grupo 10624">
          <path id="Trazado_2543" data-name="Trazado 2543" d="M2261.9,2333.155l-5.75-1.8a24.1,24.1,0,0,1,22.258-16.891l.18,6.022a18.074,18.074,0,0,0-16.687,12.665Z" transform="translate(-2256.151 -2314.468)" fill="#1a598c"/>
        </g>
      </g>
      <g id="Grupo_10627" data-name="Grupo 10627" transform="translate(0 16.902)">
        <g id="Grupo_10626" data-name="Grupo 10626">
          <path id="Trazado_2544" data-name="Trazado 2544" d="M2261,2370.05l-5.524,2.4q-.319-.735-.593-1.5a23.963,23.963,0,0,1-.314-15.279l5.75,1.8a17.96,17.96,0,0,0,.235,11.455Q2260.759,2369.5,2261,2370.05Z" transform="translate(-2253.47 -2355.674)" fill="#2273b5"/>
        </g>
      </g>
      <g id="Grupo_10629" data-name="Grupo 10629" transform="translate(2.005 31.277)">
        <g id="Grupo_10628" data-name="Grupo 10628">
          <path id="Trazado_2545" data-name="Trazado 2545" d="M2262.093,2399.139a23.913,23.913,0,0,1-3.731-5.99l5.524-2.405a17.923,17.923,0,0,0,2.8,4.493Z" transform="translate(-2258.362 -2390.744)" fill="#3788cc"/>
        </g>
      </g>
    </g>
    <g id="Grupo_10639" data-name="Grupo 10639" transform="translate(2199.171 2313.548)">
      <g id="Grupo_10632" data-name="Grupo 10632" transform="translate(0 0)">
        <g id="Grupo_10631" data-name="Grupo 10631">
          <path id="Trazado_2546" data-name="Trazado 2546" d="M2397.938,2387.892a9.956,9.956,0,1,0-8.517,18c.2.1.407.185.613.266a9.957,9.957,0,0,0,7.9-18.265Zm2.489,12.192a7.454,7.454,0,0,1-9.481,3.753c-.154-.061-.307-.128-.459-.2a7.464,7.464,0,1,1,9.94-3.554Z" transform="translate(-2383.721 -2386.933)" fill="#4aafff"/>
        </g>
      </g>
      <g id="Grupo_10634" data-name="Grupo 10634" transform="translate(0 3.129)">
        <g id="Grupo_10633" data-name="Grupo 10633">
          <path id="Trazado_2547" data-name="Trazado 2547" d="M2387.067,2404.861l-2.207,1.156a9.97,9.97,0,0,1,1.57-11.451l1.813,1.709a7.474,7.474,0,0,0-1.177,8.585Z" transform="translate(-2383.721 -2394.567)" fill="#1a598c"/>
        </g>
      </g>
      <g id="Grupo_10636" data-name="Grupo 10636" transform="translate(1.139 13.424)">
        <g id="Grupo_10635" data-name="Grupo 10635">
          <path id="Trazado_2548" data-name="Trazado 2548" d="M2392.587,2423.162l-.913,2.319c-.205-.081-.41-.169-.612-.266a9.913,9.913,0,0,1-4.561-4.378l2.207-1.156a7.439,7.439,0,0,0,3.42,3.282C2392.28,2423.034,2392.432,2423.1,2392.587,2423.162Z" transform="translate(-2386.501 -2419.681)" fill="#4aafff"/>
        </g>
      </g>
      <g id="Grupo_10638" data-name="Grupo 10638" transform="translate(6.313 16.905)">
        <g id="Grupo_10637" data-name="Grupo 10637">
          <path id="Trazado_2549" data-name="Trazado 2549" d="M2401.966,2431.152a9.917,9.917,0,0,1-2.844-.661l.912-2.319a7.44,7.44,0,0,0,2.132.5Z" transform="translate(-2399.122 -2428.172)" fill="#4aafff"/>
        </g>
      </g>
    </g>
    <g id="Grupo_10648" data-name="Grupo 10648" transform="translate(2199.172 2283.228)">
      <g id="Grupo_10641" data-name="Grupo 10641" transform="translate(0 0)">
        <g id="Grupo_10640" data-name="Grupo 10640">
          <path id="Trazado_2550" data-name="Trazado 2550" d="M2402.681,2327.182a9.957,9.957,0,0,0-18-8.517c-.1.2-.185.407-.265.612a9.957,9.957,0,0,0,18.265,7.9Zm-12.193,2.49a7.455,7.455,0,0,1-3.754-9.481q.092-.232.2-.459a7.465,7.465,0,1,1,3.555,9.94Z" transform="translate(-2383.722 -2312.966)" fill="#4aafff"/>
        </g>
      </g>
      <g id="Grupo_10643" data-name="Grupo 10643" transform="translate(5.336 0)">
        <g id="Grupo_10642" data-name="Grupo 10642">
          <path id="Trazado_2551" data-name="Trazado 2551" d="M2397.9,2316.313l-1.157-2.208a9.966,9.966,0,0,1,11.451,1.57l-1.709,1.814a7.475,7.475,0,0,0-8.585-1.177Z" transform="translate(-2396.74 -2312.966)" fill="#4aafff"/>
        </g>
      </g>
      <g id="Grupo_10645" data-name="Grupo 10645" transform="translate(0.694 1.14)">
        <g id="Grupo_10644" data-name="Grupo 10644">
          <path id="Trazado_2552" data-name="Trazado 2552" d="M2387.732,2321.832l-2.318-.913c.08-.205.169-.409.265-.612a9.91,9.91,0,0,1,4.377-4.561l1.157,2.208a7.424,7.424,0,0,0-3.282,3.419Q2387.824,2321.6,2387.732,2321.832Z" transform="translate(-2385.414 -2315.746)" fill="#2273b5"/>
        </g>
      </g>
      <g id="Grupo_10647" data-name="Grupo 10647" transform="translate(0.032 6.312)">
        <g id="Grupo_10646" data-name="Grupo 10646">
          <path id="Trazado_2553" data-name="Trazado 2553" d="M2383.8,2331.209a9.893,9.893,0,0,1,.662-2.844l2.318.913a7.457,7.457,0,0,0-.5,2.132Z" transform="translate(-2383.8 -2328.365)" fill="#3788cc"/>
        </g>
      </g>
    </g>
    <g id="Grupo_10653" data-name="Grupo 10653" transform="translate(2193.197 2404.065)">
      <g id="Grupo_10649" data-name="Grupo 10649" transform="translate(0 0.952)">
        <path id="Trazado_2554" data-name="Trazado 2554" d="M2426.882,2638.943a28.766,28.766,0,0,1-2.118,10.867v.006a28.978,28.978,0,1,1,2.118-10.872Z" transform="translate(-2369.146 -2610.072)" fill="#33a4ff"/>
      </g>
      <g id="Grupo_10650" data-name="Grupo 10650" transform="translate(28.89 0)">
        <path id="Trazado_2555" data-name="Trazado 2555" d="M2473.965,2632.129l-34.342,5.441,17.9-29.82A34.792,34.792,0,0,1,2473.965,2632.129Z" transform="translate(-2439.623 -2607.75)" fill="#007fe6"/>
      </g>
      <g id="Grupo_10651" data-name="Grupo 10651" transform="translate(28.89 25.153)">
        <path id="Trazado_2556" data-name="Trazado 2556" d="M2469.438,2673.779A29.708,29.708,0,0,1,2467.25,2685l-27.627-11.224,29.449-4.667A29.474,29.474,0,0,1,2469.438,2673.779Z" transform="translate(-2439.623 -2669.112)" fill="#0064b5"/>
      </g>
      <g id="Grupo_10652" data-name="Grupo 10652" transform="translate(28.89 29.82)">
        <path id="Trazado_2557" data-name="Trazado 2557" d="M2468.942,2692.408v.006a31.56,31.56,0,0,1-3.9,6.917l-25.42-18.835Z" transform="translate(-2439.623 -2680.496)" fill="#004e8c"/>
      </g>
    </g>
    <g id="Grupo_10670" data-name="Grupo 10670" transform="translate(2263.101 2316.936)">
      <g id="Grupo_10655" data-name="Grupo 10655" transform="translate(76.167)">
        <g id="Grupo_10654" data-name="Grupo 10654">
          <rect id="Rectángulo_2913" data-name="Rectángulo 2913" width="0.369" height="45.751" fill="#e0e0e0"/>
        </g>
      </g>
      <g id="Grupo_10657" data-name="Grupo 10657" transform="translate(65.287)">
        <g id="Grupo_10656" data-name="Grupo 10656">
          <rect id="Rectángulo_2914" data-name="Rectángulo 2914" width="0.369" height="45.751" fill="#e0e0e0"/>
        </g>
      </g>
      <g id="Grupo_10659" data-name="Grupo 10659" transform="translate(54.405)">
        <g id="Grupo_10658" data-name="Grupo 10658">
          <rect id="Rectángulo_2915" data-name="Rectángulo 2915" width="0.369" height="45.751" fill="#e0e0e0"/>
        </g>
      </g>
      <g id="Grupo_10661" data-name="Grupo 10661" transform="translate(43.524)">
        <g id="Grupo_10660" data-name="Grupo 10660">
          <rect id="Rectángulo_2916" data-name="Rectángulo 2916" width="0.369" height="45.751" fill="#e0e0e0"/>
        </g>
      </g>
      <g id="Grupo_10663" data-name="Grupo 10663" transform="translate(32.643)">
        <g id="Grupo_10662" data-name="Grupo 10662">
          <rect id="Rectángulo_2917" data-name="Rectángulo 2917" width="0.369" height="45.751" fill="#e0e0e0"/>
        </g>
      </g>
      <g id="Grupo_10665" data-name="Grupo 10665" transform="translate(21.762)">
        <g id="Grupo_10664" data-name="Grupo 10664">
          <rect id="Rectángulo_2918" data-name="Rectángulo 2918" width="0.369" height="45.751" fill="#e0e0e0"/>
        </g>
      </g>
      <g id="Grupo_10667" data-name="Grupo 10667" transform="translate(10.881)">
        <g id="Grupo_10666" data-name="Grupo 10666">
          <rect id="Rectángulo_2919" data-name="Rectángulo 2919" width="0.37" height="45.751" fill="#e0e0e0"/>
        </g>
      </g>
      <g id="Grupo_10669" data-name="Grupo 10669">
        <g id="Grupo_10668" data-name="Grupo 10668">
          <rect id="Rectángulo_2920" data-name="Rectángulo 2920" width="0.369" height="45.751" fill="#e0e0e0"/>
        </g>
      </g>
    </g>
    <g id="Grupo_10671" data-name="Grupo 10671" transform="translate(2263.286 2320.422)">
      <path id="Trazado_2558" data-name="Trazado 2558" d="M2540.129,2445.965v-10.832h2.957l4.526-4.527,3.418,3.418,8.165-8.165,2.511,2.511,8.279-8.277,4.786,4.786h6l8.73-8.73h7.529l5.565-5.567h6.813l6.883-6.882v42.265Z" transform="translate(-2540.129 -2403.7)" fill="#78c2ff"/>
    </g>
    <g id="Grupo_10672" data-name="Grupo 10672" transform="translate(2263.286 2329.558)">
      <path id="Trazado_2559" data-name="Trazado 2559" d="M2540.129,2459.116l8.94-7.616h5.5L2566.9,2441l7.652,6.519h5.757l3.064,2.61,9.2-7.833h4.588l19.141-16.308v33.129Z" transform="translate(-2540.129 -2425.987)" fill="#1487e3"/>
    </g>
    <g id="Grupo_10673" data-name="Grupo 10673" transform="translate(2263.286 2285.72)">
      <rect id="Rectángulo_2921" data-name="Rectángulo 2921" width="76.167" height="1.691" transform="translate(0 0)" fill="#e0e0e0"/>
    </g>
    <g id="Grupo_10674" data-name="Grupo 10674" transform="translate(2263.286 2283.228)">
      <rect id="Rectángulo_2922" data-name="Rectángulo 2922" width="18.907" height="1.691" fill="#e0e0e0"/>
    </g>
    <g id="Grupo_10675" data-name="Grupo 10675" transform="translate(2263.286 2293.186)">
      <rect id="Rectángulo_2923" data-name="Rectángulo 2923" width="49.746" height="1.691" transform="translate(0 0)" fill="#e0e0e0"/>
    </g>
    <g id="Grupo_10676" data-name="Grupo 10676" transform="translate(2263.286 2290.671)">
      <rect id="Rectángulo_2924" data-name="Rectángulo 2924" width="59.123" height="1.691" transform="translate(0 0)" fill="#e0e0e0"/>
    </g>
    <g id="Grupo_10677" data-name="Grupo 10677" transform="translate(2263.286 2300.653)">
      <rect id="Rectángulo_2925" data-name="Rectángulo 2925" width="61.432" height="1.691" transform="translate(0 0)" fill="#e0e0e0"/>
    </g>
    <g id="Grupo_10678" data-name="Grupo 10678" transform="translate(2263.286 2298.314)">
      <rect id="Rectángulo_2926" data-name="Rectángulo 2926" width="31.624" height="1.689" fill="#e0e0e0"/>
    </g>
    <g id="Grupo_10679" data-name="Grupo 10679" transform="translate(2263.286 2307.91)">
      <rect id="Rectángulo_2927" data-name="Rectángulo 2927" width="76.167" height="1.689" fill="#e0e0e0"/>
    </g>
    <g id="Grupo_10680" data-name="Grupo 10680" transform="translate(2263.286 2305.818)">
      <rect id="Rectángulo_2928" data-name="Rectángulo 2928" width="37.09" height="1.691" fill="#e0e0e0"/>
    </g>
    <g id="Grupo_10685" data-name="Grupo 10685" transform="translate(2226.552 2283.228)">
      <g id="Grupo_10681" data-name="Grupo 10681" transform="translate(0)">
        <rect id="Rectángulo_2929" data-name="Rectángulo 2929" width="3.141" height="50.237" fill="#e0e0e0"/>
      </g>
      <g id="Grupo_10682" data-name="Grupo 10682" transform="translate(8.365)">
        <rect id="Rectángulo_2930" data-name="Rectángulo 2930" width="3.141" height="50.237" fill="#e0e0e0"/>
      </g>
      <g id="Grupo_10683" data-name="Grupo 10683" transform="translate(16.73)">
        <rect id="Rectángulo_2931" data-name="Rectángulo 2931" width="3.14" height="50.237" fill="#e0e0e0"/>
      </g>
      <g id="Grupo_10684" data-name="Grupo 10684" transform="translate(25.094)">
        <rect id="Rectángulo_2932" data-name="Rectángulo 2932" width="3.14" height="50.237" fill="#e0e0e0"/>
      </g>
    </g>
    <g id="Grupo_10686" data-name="Grupo 10686" transform="translate(2226.552 2302.531)">
      <rect id="Rectángulo_2933" data-name="Rectángulo 2933" width="3.141" height="30.935" transform="translate(0 0)" fill="#78c2ff"/>
    </g>
    <g id="Grupo_10687" data-name="Grupo 10687" transform="translate(2234.917 2291.517)">
      <rect id="Rectángulo_2934" data-name="Rectángulo 2934" width="3.141" height="41.948" transform="translate(0 0)" fill="#78c2ff"/>
    </g>
    <g id="Grupo_10688" data-name="Grupo 10688" transform="translate(2243.281 2296.796)">
      <rect id="Rectángulo_2935" data-name="Rectángulo 2935" width="3.14" height="36.669" transform="translate(0)" fill="#78c2ff"/>
    </g>
    <g id="Grupo_10689" data-name="Grupo 10689" transform="translate(2251.646 2287.411)">
      <rect id="Rectángulo_2936" data-name="Rectángulo 2936" width="3.14" height="46.054" transform="translate(0 0)" fill="#78c2ff"/>
    </g>
    <g id="Grupo_10690" data-name="Grupo 10690" transform="translate(2187.479 2331.75)">
      <path id="Trazado_2560" data-name="Trazado 2560" d="M2373.79,2439.582H2355.2v-.369h18.223v-7.876h.37Z" transform="translate(-2355.197 -2431.337)" fill="#4aafff"/>
    </g>
    <g id="Grupo_10691" data-name="Grupo 10691" transform="translate(2146.878 2328.128)">
      <path id="Trazado_2561" data-name="Trazado 2561" d="M2280.332,2434.369h-24.181V2434h23.812v-11.5h.37Z" transform="translate(-2256.151 -2422.501)" fill="#4aafff"/>
    </g>
    <g id="Grupo_10692" data-name="Grupo 10692" transform="translate(2146.878 2335.78)">
      <rect id="Rectángulo_2937" data-name="Rectángulo 2937" width="16.638" height="2.217" transform="translate(0 0)" fill="#e0e0e0"/>
    </g>
    <g id="Grupo_10693" data-name="Grupo 10693" transform="translate(2187.479 2335.78)">
      <rect id="Rectángulo_2938" data-name="Rectángulo 2938" width="9.786" height="2.217" transform="translate(0 0)" fill="#e0e0e0"/>
    </g>
    <g id="Grupo_10694" data-name="Grupo 10694" transform="translate(2112.441 2262.57)">
      <path id="Trazado_2562" data-name="Trazado 2562" d="M2187,2332.356h-14.863v-.74h14.124V2262.57h110.292v4.065h118.413v46.913h-.739v-46.174H2295.817v-4.065H2187Z" transform="translate(-2172.141 -2262.57)" fill="#4aafff"/>
    </g>
    <g id="Grupo_10695" data-name="Grupo 10695" transform="translate(2240.463 2262.57)">
      <rect id="Rectángulo_2939" data-name="Rectángulo 2939" width="38.634" height="0.739" transform="translate(0 0)" fill="#4aafff"/>
    </g>
    <g id="Grupo_10696" data-name="Grupo 10696" transform="translate(2355.578 2300.653)">
      <path id="Trazado_2563" data-name="Trazado 2563" d="M2767.705,2375.612h-2.427v-.74h1.688v-19.4h.74Z" transform="translate(-2765.278 -2355.474)" fill="#4aafff"/>
    </g>
    <g id="Grupo_10699" data-name="Grupo 10699" transform="translate(2330.45 2336.53)">
      <g id="Grupo_10698" data-name="Grupo 10698" transform="translate(0 0)">
        <g id="Grupo_10697" data-name="Grupo 10697">
          <path id="Trazado_2564" data-name="Trazado 2564" d="M2704.419,2456.985s-1.42-2.486.833-9.148a6.714,6.714,0,0,1,12.117-1.731c2.4,4.128,1.587,6.692-1.941,11.353S2705.884,2459.115,2704.419,2456.985Z" transform="translate(-2703.978 -2442.995)" fill="#eea886"/>
        </g>
      </g>
    </g>
    <g id="Grupo_10702" data-name="Grupo 10702" transform="translate(2348.409 2464.788)">
      <g id="Grupo_10701" data-name="Grupo 10701" transform="translate(0 0)">
        <g id="Grupo_10700" data-name="Grupo 10700">
          <path id="Trazado_2565" data-name="Trazado 2565" d="M2747.79,2756.24s.374,2.735.42,3.146,4.152-.241,4.152-.241l.333-3.258S2748.3,2755.852,2747.79,2756.24Z" transform="translate(-2747.79 -2755.885)" fill="#eea886"/>
        </g>
      </g>
    </g>
    <g id="Grupo_10705" data-name="Grupo 10705" transform="translate(2341.662 2467.755)">
      <g id="Grupo_10704" data-name="Grupo 10704" transform="translate(0 0)">
        <g id="Grupo_10703" data-name="Grupo 10703">
          <path id="Trazado_2566" data-name="Trazado 2566" d="M2738.454,2763.309a11.325,11.325,0,0,1-2.558,2.368c-1.259.718-3.235,1-3.978,1.747-.538.537-1.956,2.848,3.269,2.8s7.743.326,8.3-.56-.81-6.542-.81-6.542A14.364,14.364,0,0,1,2738.454,2763.309Z" transform="translate(-2731.33 -2763.124)" fill="#152b3d"/>
        </g>
      </g>
    </g>
    <g id="Grupo_10708" data-name="Grupo 10708" transform="translate(2319.986 2464.788)">
      <g id="Grupo_10707" data-name="Grupo 10707" transform="translate(0 0)">
        <g id="Grupo_10706" data-name="Grupo 10706">
          <path id="Trazado_2567" data-name="Trazado 2567" d="M2678.452,2756.24s.374,2.735.42,3.146,4.152-.241,4.152-.241l.333-3.258S2678.965,2755.852,2678.452,2756.24Z" transform="translate(-2678.452 -2755.885)" fill="#eea886"/>
        </g>
      </g>
    </g>
    <g id="Grupo_10711" data-name="Grupo 10711" transform="translate(2310.826 2467.755)">
      <g id="Grupo_10710" data-name="Grupo 10710" transform="translate(0 0)">
        <g id="Grupo_10709" data-name="Grupo 10709">
          <path id="Trazado_2568" data-name="Trazado 2568" d="M2665.641,2763.309a11.321,11.321,0,0,1-2.558,2.368c-1.258.718-5.887,1.309-6.631,2.053-.536.536-1.429,2.7,5.921,2.5,5.223-.144,7.743.326,8.3-.56s-.81-6.542-.81-6.542A21.694,21.694,0,0,1,2665.641,2763.309Z" transform="translate(-2656.105 -2763.124)" fill="#152b3d"/>
        </g>
      </g>
    </g>
    <g id="Grupo_10714" data-name="Grupo 10714" transform="translate(2336.085 2397.015)">
      <g id="Grupo_10713" data-name="Grupo 10713" transform="translate(0 0)">
        <g id="Grupo_10712" data-name="Grupo 10712">
          <path id="Trazado_2569" data-name="Trazado 2569" d="M2728.667,2590.55s2.105,6.54,1.828,12.177,1.088,11.8,1.647,17.691c.622,6.564,3.168,22.1,3.261,25.616s-.4,14.724-.4,14.724l-5.1.124s-4.282-27.168-5.391-29.94-6.608-22.535-6.792-24.752S2728.667,2590.55,2728.667,2590.55Z" transform="translate(-2717.724 -2590.55)" fill="#323657"/>
        </g>
      </g>
    </g>
    <g id="Grupo_10717" data-name="Grupo 10717" transform="translate(2319.408 2394.946)">
      <g id="Grupo_10716" data-name="Grupo 10716" transform="translate(0 0)">
        <g id="Grupo_10715" data-name="Grupo 10715">
          <path id="Trazado_2570" data-name="Trazado 2570" d="M2683.525,2586.891s-3.095,17.294-3.464,20.742-.616,16.695-.8,18.851-1.232,28.214-2.218,31.418h5.684s5.836-18.944,5.836-27.907,3.865-19.486,6.36-25.4,8.206-6.054,9.739-17.026C2704.661,2587.572,2685.6,2583.41,2683.525,2586.891Z" transform="translate(-2677.042 -2585.503)" fill="#323657"/>
        </g>
      </g>
    </g>
    <g id="Grupo_10720" data-name="Grupo 10720" transform="translate(2332.92 2350.238)">
      <g id="Grupo_10719" data-name="Grupo 10719" transform="translate(0 0)">
        <g id="Grupo_10718" data-name="Grupo 10718">
          <path id="Trazado_2571" data-name="Trazado 2571" d="M2710.037,2478.477a4.939,4.939,0,0,1,0,3.2c-.641,1.332,8.193.533,8.193.533a9.5,9.5,0,0,1,.755-5.016C2720.138,2474.927,2710.037,2478.477,2710.037,2478.477Z" transform="translate(-2710.004 -2476.436)" fill="#eea886"/>
        </g>
      </g>
    </g>
    <g id="Grupo_10723" data-name="Grupo 10723" transform="translate(2325.607 2396.334)">
      <g id="Grupo_10722" data-name="Grupo 10722" transform="translate(0 0)">
        <g id="Grupo_10721" data-name="Grupo 10721">
          <path id="Trazado_2572" data-name="Trazado 2572" d="M2713.994,2591s-3.177,3.264-21.83-.509l.284-1.6,21.205.8Z" transform="translate(-2692.164 -2588.89)" fill="#323657"/>
        </g>
      </g>
    </g>
    <g id="Grupo_10726" data-name="Grupo 10726" transform="translate(2288.156 2333.574)">
      <g id="Grupo_10725" data-name="Grupo 10725" transform="translate(0)">
        <g id="Grupo_10724" data-name="Grupo 10724">
          <path id="Trazado_2573" data-name="Trazado 2573" d="M2644.261,2458.119a58.206,58.206,0,0,1-5.468,2.3c-.931.179-7.865,2.9-9.36,4.034a98.7,98.7,0,0,1-9.146,4.8c-1.48.312-17.682,5.765-19.336,6.059-.25.045-.163,1.708.085,2.9,0,0,11.289-1.759,12.877-1.986,3.465-.494,7.773-1.009,9.876-1.829.663-.259,7.467-2.5,8.264-2.836,5-2.125,8.238-3.353,8.238-3.353l22.275-1.512s10.845-11.745,11.044-13.743-9.5-14.784-10.829-16.449-3.048.046-3.048.046,6.032,13.347,6.564,15.012-4.47,6.214-5.891,6.235-4.47.69-6.091.625a11.358,11.358,0,0,1-3.329-.778Z" transform="translate(-2600.801 -2435.786)" fill="#eea886"/>
        </g>
      </g>
    </g>
    <g id="Grupo_10729" data-name="Grupo 10729" transform="translate(2315.124 2351.723)">
      <g id="Grupo_10728" data-name="Grupo 10728" transform="translate(0 0)">
        <g id="Grupo_10727" data-name="Grupo 10727">
          <path id="Trazado_2574" data-name="Trazado 2574" d="M2675.992,2496.863a95.928,95.928,0,0,0,1.865,11.894c.533,1.8-.466,14.848-.6,15.78s18.451,3.146,21.305.932c0,0,.8-12.184,1.132-15.646s1.56-14.459,2.092-15.589,7.362-7.585,7.628-8.78c0,0-3.341-5.326-5.738-5.393,0,0-3.836,3.5-5.077,3.7s-8.82-.229-8.821-.24-.917,1.5-5.331.173c-.108.036-9.059,2.471-8.312,2.184.975-.375-9.546,5.151-9.546,5.151s1.159,5.624,1.665,8.086Z" transform="translate(-2666.591 -2480.061)" fill="#254380"/>
        </g>
      </g>
    </g>
    <g id="Grupo_10732" data-name="Grupo 10732" transform="translate(2331.663 2335.962)">
      <g id="Grupo_10731" data-name="Grupo 10731" transform="translate(0 0)">
        <g id="Grupo_10730" data-name="Grupo 10730">
          <path id="Trazado_2575" data-name="Trazado 2575" d="M2717.175,2456.642a10.072,10.072,0,0,1-3.655-.755c-2.486-.858-2.672-5.2-3.209-4.691a1.573,1.573,0,0,1-2.548-.3s1.213-1.6.651-2.367a5.953,5.953,0,0,0-1.478-1.331s1.748-8.428,9.7-4.589C2725.963,2447.113,2717.175,2456.642,2717.175,2456.642Z" transform="translate(-2706.937 -2441.612)" fill="#353a3d"/>
        </g>
      </g>
    </g>
    <g id="Grupo_10735" data-name="Grupo 10735" transform="translate(2332.953 2354.245)">
      <g id="Grupo_10734" data-name="Grupo 10734" transform="translate(0)">
        <g id="Grupo_10733" data-name="Grupo 10733">
          <path id="Trazado_2576" data-name="Trazado 2576" d="M2710.085,2487.444l.281-1.218a64.365,64.365,0,0,1,7.849.3l.292,1.456S2714.958,2489.589,2710.085,2487.444Z" transform="translate(-2710.085 -2486.214)" fill="#254380"/>
        </g>
      </g>
    </g>
    <g id="Grupo_10738" data-name="Grupo 10738" transform="translate(2333.495 2343.82)">
      <g id="Grupo_10737" data-name="Grupo 10737" transform="translate(0 0)">
        <g id="Grupo_10736" data-name="Grupo 10736">
          <path id="Trazado_2577" data-name="Trazado 2577" d="M2712.117,2461.442c.461-.766,2.167-1.283,2.367.888.156,1.683-3.048,3.521-3.077,1.952A4.731,4.731,0,0,1,2712.117,2461.442Z" transform="translate(-2711.406 -2460.78)" fill="#eea886"/>
        </g>
      </g>
    </g>
    <g id="Grupo_10740" data-name="Grupo 10740" transform="translate(2345.313 2321.137)">
      <g id="Grupo_10739" data-name="Grupo 10739" transform="translate(0 0)">
        <path id="Trazado_2578" data-name="Trazado 2578" d="M2741.5,2405.584l.2,7.2c-.385-.608-1.07-1.589-1.358-1.356-.411.333.59,2.336.7,3.161a12.153,12.153,0,0,0,.441,2.985l1.05,2.237,1.852-2.152s.4-3.783.441-4.887c.061-1.8-2.271-7.2-2.6-7.277C2741.636,2405.349,2741.5,2405.584,2741.5,2405.584Z" transform="translate(-2740.237 -2405.446)" fill="#eea886"/>
      </g>
    </g>
    <g id="Grupo_10742" data-name="Grupo 10742" transform="translate(2276.18 2371.865)">
      <g id="Grupo_10741" data-name="Grupo 10741" transform="translate(0)">
        <path id="Trazado_2579" data-name="Trazado 2579" d="M2571.724,2530.458l7.2.2c-.607-.385-1.588-1.072-1.355-1.359.333-.411,2.336.59,3.16.7a12.167,12.167,0,0,1,2.985.441l2.237,1.05-2.152,1.852s-3.784.4-4.887.44c-1.795.062-7.2-2.269-7.276-2.6C2571.49,2530.6,2571.724,2530.458,2571.724,2530.458Z" transform="translate(-2571.587 -2529.197)" fill="#eea886"/>
      </g>
    </g>
    <g id="Grupo_10743" data-name="Grupo 10743" transform="translate(2347.95 2332.622)">
      <path id="Trazado_2580" data-name="Trazado 2580" d="M2749.128,2435.489a4.211,4.211,0,0,1-.873-2.026l-1.585.863Z" transform="translate(-2746.67 -2433.463)" fill="#eea886"/>
    </g>
    <g id="Grupo_10746" data-name="Grupo 10746" transform="translate(2199.811 2412.799)">
      <g id="Grupo_10745" data-name="Grupo 10745" transform="translate(0 0)">
        <g id="Grupo_10744" data-name="Grupo 10744">
          <path id="Trazado_2581" data-name="Trazado 2581" d="M2386.225,2629.057a6.792,6.792,0,0,1,1.246,1.74c.066.172.1.352-.038.477s-.489.09-.926-.313a5.027,5.027,0,0,0-1.185-.721S2384.995,2629.7,2386.225,2629.057Z" transform="translate(-2385.282 -2629.057)" fill="#eea886"/>
        </g>
      </g>
    </g>
    <g id="Grupo_10750" data-name="Grupo 10750" transform="translate(2183.531 2461.665)">
      <g id="Grupo_10749" data-name="Grupo 10749" transform="translate(0 0)">
        <g id="Grupo_10748" data-name="Grupo 10748">
          <g id="Grupo_10747" data-name="Grupo 10747">
            <path id="Trazado_2582" data-name="Trazado 2582" d="M2349.271,2748.47s1.9,1.088,2.758,1.489,4.174.474,4.505.781.226,1.3-.323,1.407a26.647,26.647,0,0,1-5.917.235c-1.348-.3-3.854.269-4.413.087s-.243-3.186-.036-3.863S2349.271,2748.47,2349.271,2748.47Z" transform="translate(-2345.566 -2748.265)" fill="#292c47"/>
          </g>
        </g>
      </g>
    </g>
    <g id="Grupo_10754" data-name="Grupo 10754" transform="translate(2183.809 2460.603)">
      <g id="Grupo_10753" data-name="Grupo 10753" transform="translate(0 0)">
        <g id="Grupo_10752" data-name="Grupo 10752">
          <g id="Grupo_10751" data-name="Grupo 10751">
            <path id="Trazado_2583" data-name="Trazado 2583" d="M2349.568,2745.676l.1,1.266s-2.511.506-3.427.135l.171-1.277Z" transform="translate(-2346.244 -2745.676)" fill="#3d416b"/>
          </g>
        </g>
      </g>
    </g>
    <g id="Grupo_10758" data-name="Grupo 10758" transform="translate(2149.466 2461.959)">
      <g id="Grupo_10757" data-name="Grupo 10757" transform="translate(0 0)">
        <g id="Grupo_10756" data-name="Grupo 10756">
          <g id="Grupo_10755" data-name="Grupo 10755">
            <path id="Trazado_2584" data-name="Trazado 2584" d="M2266.394,2749.385s1.805,1.236,2.628,1.705,4.122.807,4.428,1.141.121,1.312-.434,1.376a26.644,26.644,0,0,1-5.918-.242c-1.321-.4-3.863-.042-4.406-.267s.014-3.2.274-3.854S2266.394,2749.385,2266.394,2749.385Z" transform="translate(-2262.464 -2748.984)" fill="#292c47"/>
          </g>
        </g>
      </g>
    </g>
    <g id="Grupo_10762" data-name="Grupo 10762" transform="translate(2150.115 2460.966)">
      <g id="Grupo_10761" data-name="Grupo 10761" transform="translate(0 0)">
        <g id="Grupo_10760" data-name="Grupo 10760">
          <g id="Grupo_10759" data-name="Grupo 10759">
            <path id="Trazado_2585" data-name="Trazado 2585" d="M2267.567,2746.74l-.238,1.214s-2.545.3-3.28-.136l.273-1.259Z" transform="translate(-2264.049 -2746.56)" fill="#3d416b"/>
          </g>
        </g>
      </g>
    </g>
    <g id="Grupo_10763" data-name="Grupo 10763" transform="translate(2149.601 2416.235)">
      <path id="Trazado_2586" data-name="Trazado 2586" d="M2287.493,2644.705c-.245.814-.87,2.556-1.544,4.379-.149.406-.3.814-.453,1.218-.914,2.453-1.78,4.715-1.78,4.715-1.322,3.016-4.417,9.451-5.916,10.581-2.022,1.524-10.974,17.565-10.974,17.565l-4.033-.477s4.385-11.993,6.21-14.645c2.037-2.961,5.236-6.834,5.578-10.124.213-2.065,1.491-8.479,1.491-8.479s1.5-7.191,4.735-11.886C2281.616,2636.378,2287.493,2644.705,2287.493,2644.705Z" transform="translate(-2262.793 -2637.438)" fill="#292c47"/>
    </g>
    <g id="Grupo_10765" data-name="Grupo 10765" transform="translate(2166.85 2420.837)">
      <g id="Grupo_10764" data-name="Grupo 10764" transform="translate(0 0)">
        <path id="Trazado_2587" data-name="Trazado 2587" d="M2316.628,2650.607s9.871,13.155,11.122,14.886,1.256,3.508.7,7.946c-.108.855-2.148,13.542-2.242,14.992,0,0-4.5,1.123-5.393,0,0,0,.715-12.858,1.015-16.453.386-4.624-3.449-6.733-5.707-8.756-1.793-1.606-11.445-9.007-11.249-11.17.135-1.5.335-2.906.335-2.906S2307.4,2647.382,2316.628,2650.607Z" transform="translate(-2304.873 -2648.665)" fill="#292c47"/>
      </g>
    </g>
    <g id="Grupo_10766" data-name="Grupo 10766" transform="translate(2176.132 2401.819)">
      <path id="Trazado_2588" data-name="Trazado 2588" d="M2331.048,2602.782s6.271,3.964,9.258,5.6c.937.514,9.967,4.919,10.325,5.128s-1.125,3.1-1.125,3.1-10.122-4.817-10.767-5.009-10.038-4.7-10.672-5.7-.864-2.319.1-3.133A2.378,2.378,0,0,1,2331.048,2602.782Z" transform="translate(-2327.517 -2602.271)" fill="#292c47"/>
    </g>
    <g id="Grupo_10768" data-name="Grupo 10768" transform="translate(2166.74 2398.575)">
      <g id="Grupo_10767" data-name="Grupo 10767" transform="translate(0 0)">
        <path id="Trazado_2589" data-name="Trazado 2589" d="M2316.225,2596.169a24.78,24.78,0,0,1,1.264,5.782c.008,2.1-1.951,8.416-2.088,9.583a18.182,18.182,0,0,0,1.069,7.027l-11.584,2.225a72.31,72.31,0,0,1-.274-7.325c.057-4,1.216-7.277,1.5-9.563.976-7.8,7.364-9.541,7.364-9.541Z" transform="translate(-2304.606 -2594.357)" fill="#cfbeb6"/>
      </g>
    </g>
    <g id="Grupo_10770" data-name="Grupo 10770" transform="translate(2176.132 2388.917)">
      <g id="Grupo_10769" data-name="Grupo 10769" transform="translate(0 0)">
        <path id="Trazado_2590" data-name="Trazado 2590" d="M2335.068,2573.166s1.046,1.939.527,2.24c-.428.25.5,2.152.624,2.463s-.776.537-.966.736-.756,2.663-1.5,2.737a11.059,11.059,0,0,1-4.976-2.026c-.907-.943-1.65-5.2-1.046-7S2333.222,2569.779,2335.068,2573.166Z" transform="translate(-2327.517 -2570.797)" fill="#eea886"/>
      </g>
    </g>
    <g id="Grupo_10772" data-name="Grupo 10772" transform="translate(2176.05 2391.759)">
      <g id="Grupo_10771" data-name="Grupo 10771" transform="translate(0 0)">
        <path id="Trazado_2591" data-name="Trazado 2591" d="M2331.427,2584.879c-.087.2-.087.2-.229.526-.055.129-.118.277-.185.437-.051.122-.1.25-.159.384a12.153,12.153,0,0,0-.778,2.37c-.105.947-2.76-4.028-2.76-4.028a45.89,45.89,0,0,0,2.123-6.148C2330.315,2575.088,2331.427,2584.879,2331.427,2584.879Z" transform="translate(-2327.317 -2577.729)" fill="#eea886"/>
      </g>
    </g>
    <g id="Grupo_10774" data-name="Grupo 10774" transform="translate(2175.271 2387.581)">
      <g id="Grupo_10773" data-name="Grupo 10773" transform="translate(0)">
        <path id="Trazado_2592" data-name="Trazado 2592" d="M2334.038,2571.663a2.98,2.98,0,0,0-.871-3.647c-1.939-1.554-5.514,1.173-5.918,1.277s-2.625.243-1.534,4.274c.984,3.643,1.148,3.354,1.148,3.354a8.287,8.287,0,0,1,1.141-2.063,4,4,0,0,1,2.09-.361s-.684-1.817.385-2.073S2332.956,2571.261,2334.038,2571.663Z" transform="translate(-2325.416 -2567.538)" fill="#3a3f47"/>
      </g>
    </g>
    <g id="Grupo_10776" data-name="Grupo 10776" transform="translate(2177.194 2392.615)">
      <g id="Grupo_10775" data-name="Grupo 10775" transform="translate(0)">
        <path id="Trazado_2593" data-name="Trazado 2593" d="M2331.723,2580.7c-.094-.249-.4-1.319-1.318-.69s.573,2.646.732,2.673S2332.516,2582.8,2331.723,2580.7Z" transform="translate(-2330.108 -2579.817)" fill="#eea886"/>
      </g>
    </g>
    <g id="Grupo_10778" data-name="Grupo 10778" transform="translate(2175.613 2398.151)">
      <g id="Grupo_10777" data-name="Grupo 10777" transform="translate(0 0)">
        <path id="Trazado_2594" data-name="Trazado 2594" d="M2326.878,2593.322a38.306,38.306,0,0,0,2.9,3.887l-.342,1.9-3.185-5.362Z" transform="translate(-2326.251 -2593.322)" fill="#eddad3"/>
      </g>
    </g>
    <g id="Grupo_10779" data-name="Grupo 10779" transform="translate(2177.536 2397.565)">
      <path id="Trazado_2595" data-name="Trazado 2595" d="M2333.567,2593.238s-.1.22-.229.526c-.055.129-.118.277-.184.437a6.776,6.776,0,0,1-2.211-2.307A17.4,17.4,0,0,0,2333.567,2593.238Z" transform="translate(-2330.942 -2591.894)" fill="#a77860"/>
    </g>
    <g id="Grupo_10780" data-name="Grupo 10780" transform="translate(2178.817 2402.151)">
      <path id="Trazado_2596" data-name="Trazado 2596" d="M2334.37,2603.081a6.324,6.324,0,0,1,.237,1.728c-.035.18-.54-.048-.54-.048Z" transform="translate(-2334.067 -2603.081)" fill="#1487e3"/>
    </g>
    <g id="Grupo_10781" data-name="Grupo 10781" transform="translate(2166.911 2421.513)">
      <path id="Trazado_2597" data-name="Trazado 2597" d="M2316.716,2651.581s-.329-1.01-.4-1.266l-11.293,2.1.11,1.387S2313.392,2652.317,2316.716,2651.581Z" transform="translate(-2305.022 -2650.315)" fill="#23263d"/>
    </g>
    <g id="Grupo_10783" data-name="Grupo 10783" transform="translate(2155.125 2420.961)">
      <g id="Grupo_10782" data-name="Grupo 10782" transform="translate(0 0)">
        <path id="Trazado_2598" data-name="Trazado 2598" d="M2276.288,2653.315a1.908,1.908,0,0,1,.013-.606s.146-.34.235-.588a1.743,1.743,0,0,0,.061-.195,3.481,3.481,0,0,1,.306-1.066c.23-.435,1.2-1.892,1.2-1.892l1.388.606,1.3.169a22.529,22.529,0,0,1,.03,3.419,1.3,1.3,0,0,1-.054.12,4.4,4.4,0,0,1-.571.712c-.042.064-.5.667-.731.675a.741.741,0,0,1-.664-.283,1.774,1.774,0,0,1-.939-.27,1.1,1.1,0,0,1-.875-.428S2276.41,2653.637,2276.288,2653.315Z" transform="translate(-2276.268 -2648.968)" fill="#efaa88"/>
      </g>
    </g>
    <g id="Grupo_10784" data-name="Grupo 10784" transform="translate(2156.655 2399.102)">
      <path id="Trazado_2599" data-name="Trazado 2599" d="M2298.365,2600.246s-6.667,5.177-9.057,8.032c-.75.9-5.319,9.8-5.62,10.135s-3.686-.722-3.686-.722,5.417-11.142,5.76-11.792,9.987-9.634,11.193-10.1,1.359.153,2.026,1.365A2.6,2.6,0,0,1,2298.365,2600.246Z" transform="translate(-2280.003 -2595.641)" fill="#323657"/>
    </g>
    <g id="Grupo_10786" data-name="Grupo 10786" transform="translate(2165.396 2398.577)">
      <g id="Grupo_10785" data-name="Grupo 10785" transform="translate(0 0)">
        <path id="Trazado_2600" data-name="Trazado 2600" d="M2314.709,2603.472c-.255.7-.493,1.406-.715,2.116h0c-.49,1.563-.905,3.144-1.256,4.683-.125.549-.242,1.095-.352,1.63a31.493,31.493,0,0,1-4.732,11.094s-5.135-.409-6.329-1.26a91.77,91.77,0,0,1,1.973-14.464c.127-.548.262-1.094.4-1.635h0c1.51-5.721,3.946-10.867,7.839-11.275C2311.617,2594.451,2316.048,2599.8,2314.709,2603.472Z" transform="translate(-2301.325 -2594.361)" fill="#323657"/>
      </g>
    </g>
    <g id="Grupo_10787" data-name="Grupo 10787" transform="translate(2162.237 2411.995)">
      <path id="Trazado_2601" data-name="Trazado 2601" d="M2298.636,2627.094a29.259,29.259,0,0,1-4.986,13.01c-.546.786,6.188,1.8,6.188,1.8Z" transform="translate(-2293.618 -2627.094)" fill="#323657"/>
    </g>
    <g id="Grupo_10788" data-name="Grupo 10788" transform="translate(2167.369 2405.819)">
      <path id="Trazado_2602" data-name="Trazado 2602" d="M2311.159,2612.028c-1.548,1.672-5.02,5.668-5.02,5.668.127-.548.262-1.094.4-1.635h0C2307.764,2614.837,2311.106,2612.069,2311.159,2612.028Z" transform="translate(-2306.139 -2612.028)" fill="#1d2133"/>
    </g>
    <g id="Grupo_10791" data-name="Grupo 10791" transform="translate(2162.268 2403.344)">
      <g id="Grupo_10790" data-name="Grupo 10790" transform="translate(0 0)">
        <g id="Grupo_10789" data-name="Grupo 10789">
          <path id="Trazado_2603" data-name="Trazado 2603" d="M2310.789,2606.49s-.682,4.608-4.648,4.92c-3.552.281-8.707,2.064-10.378,3.433l-2.068,1.8.5-2.39s1.492-3.788,11.906-3.315c0,0,3.193.6,4.234-4.95C2310.332,2605.99,2310.856,2606.262,2310.789,2606.49Z" transform="translate(-2293.695 -2605.99)" fill="#1487e3"/>
        </g>
      </g>
    </g>
  </g>
</svg>
