<svg xmlns="http://www.w3.org/2000/svg" xmlns:xlink="http://www.w3.org/1999/xlink" width="290" height="182.707" viewBox="0 0 290 182.707">
  <defs>
    <linearGradient id="linear-gradient" x1="-176.551" y1="0.5" x2="-175.551" y2="0.5" gradientUnits="objectBoundingBox">
      <stop offset="0" stop-color="#e79d5a"/>
      <stop offset="1" stop-color="#f2d05f"/>
    </linearGradient>
    <linearGradient id="linear-gradient-2" x1="-274.12" y1="0.5" x2="-273.12" y2="0.5" xlink:href="#linear-gradient"/>
    <linearGradient id="linear-gradient-3" x1="-80.209" y1="0.5" x2="-82.483" y2="0.5" xlink:href="#linear-gradient"/>
    <linearGradient id="linear-gradient-4" x1="-84.065" y1="0.5" x2="-82.558" y2="0.5" xlink:href="#linear-gradient"/>
    <linearGradient id="linear-gradient-5" x1="-35.897" y1="0.5" x2="-37.652" y2="0.5" gradientUnits="objectBoundingBox">
      <stop offset="0" stop-color="#dedede"/>
      <stop offset="1" stop-color="#de566e"/>
    </linearGradient>
    <linearGradient id="linear-gradient-6" x1="-469.448" y1="0.733" x2="-471.168" y2="0.415" xlink:href="#linear-gradient"/>
  </defs>
  <g id="Grupo_10406" data-name="Grupo 10406" transform="translate(-2569.936 -874.74)">
    <g id="Grupo_10405" data-name="Grupo 10405" transform="translate(2569.936 874.74)">
      <g id="Grupo_10242" data-name="Grupo 10242" transform="translate(0 38.544)">
        <g id="Grupo_10241" data-name="Grupo 10241">
          <path id="Trazado_1929" data-name="Trazado 1929" d="M2569.936,990.684v6.022l2.715.546a14.067,14.067,0,0,0,1.508,3.634l-1.535,2.308,2.129,2.129,2.129,2.129,2.308-1.534a14.1,14.1,0,0,0,3.635,1.508l.546,2.715h6.022l.546-2.715a14.1,14.1,0,0,0,3.635-1.508l2.308,1.534,2.129-2.129,2.129-2.129-1.534-2.308a14.067,14.067,0,0,0,1.507-3.634l2.715-.546v-6.022l-2.715-.546a14.057,14.057,0,0,0-1.507-3.634l1.534-2.308-2.129-2.129-2.129-2.129-2.308,1.534a14.087,14.087,0,0,0-3.635-1.508l-.546-2.715h-6.022l-.546,2.715a14.083,14.083,0,0,0-3.635,1.508l-2.308-1.534-2.129,2.129-2.129,2.129,1.535,2.308a14.057,14.057,0,0,0-1.508,3.634Zm5.9,3.011a10.55,10.55,0,1,1,10.551,10.551A10.551,10.551,0,0,1,2575.832,993.7Z" transform="translate(-2569.936 -977.249)" fill="url(#linear-gradient)"/>
        </g>
      </g>
      <g id="Grupo_10244" data-name="Grupo 10244" transform="translate(17.833 12.995)">
        <g id="Grupo_10243" data-name="Grupo 10243">
          <path id="Trazado_1930" data-name="Trazado 1930" d="M2619.974,919.893v3.895l1.756.354a9.12,9.12,0,0,0,.975,2.35l-.992,1.493,1.377,1.377,1.377,1.377,1.493-.992a9.125,9.125,0,0,0,2.351.975l.353,1.756h3.9l.353-1.756a9.12,9.12,0,0,0,2.35-.975l1.493.992,1.376-1.377,1.377-1.377-.992-1.493a9.12,9.12,0,0,0,.975-2.35l1.756-.354v-3.895l-1.756-.354a9.131,9.131,0,0,0-.975-2.351l.992-1.492-1.377-1.377-1.376-1.377-1.493.993a9.118,9.118,0,0,0-2.35-.975l-.353-1.756h-3.9l-.353,1.756a9.123,9.123,0,0,0-2.351.975l-1.493-.993-1.377,1.377-1.377,1.377.992,1.492a9.131,9.131,0,0,0-.975,2.351Zm3.813,1.947a6.824,6.824,0,1,1,6.824,6.824A6.824,6.824,0,0,1,2623.787,921.84Z" transform="translate(-2619.974 -911.204)" fill="url(#linear-gradient-2)"/>
        </g>
      </g>
      <path id="Trazado_1931" data-name="Trazado 1931" d="M3048.334,960.907h4.355l-1.333-2.765H3047Z" transform="translate(-2869.221 -928.418)" fill="#e9a65b"/>
      <path id="Trazado_1932" data-name="Trazado 1932" d="M3042.615,960.907h1.038l-1.334-2.765h-1.038Z" transform="translate(-2865.726 -928.418)" fill="#e9a65b"/>
      <path id="Trazado_1933" data-name="Trazado 1933" d="M3001.741,954.163h17.637l-.585-1.383h-17.637Z" transform="translate(-2840.122 -924.967)" fill="#e9a65b"/>
      <rect id="Rectángulo_2794" data-name="Rectángulo 2794" width="13.871" height="0.972" transform="translate(290 59.045) rotate(180)" fill="#e8a35b"/>
      <rect id="Rectángulo_2795" data-name="Rectángulo 2795" width="13.871" height="4.088" transform="translate(290 64.123) rotate(180)" fill="#e8a35b"/>
      <rect id="Rectángulo_2796" data-name="Rectángulo 2796" width="8.183" height="0.611" transform="translate(277.795 66.301) rotate(180)" fill="#e8a35b"/>
      <rect id="Rectángulo_2797" data-name="Rectángulo 2797" width="8.183" height="1.655" transform="translate(277.795 68.279) rotate(180)" fill="#e8a35b"/>
      <rect id="Rectángulo_2798" data-name="Rectángulo 2798" width="0.611" height="11.454" transform="translate(276.434 63.889) rotate(180)" fill="#e8a35b"/>
      <rect id="Rectángulo_2799" data-name="Rectángulo 2799" width="10.927" height="1.979" transform="translate(110.493 25.207) rotate(180)" fill="#e8a35b"/>
      <rect id="Rectángulo_2800" data-name="Rectángulo 2800" width="10.927" height="0.373" transform="translate(110.493 22.677) rotate(180)" fill="#e8a35b"/>
      <g id="Grupo_10245" data-name="Grupo 10245" transform="translate(225.924 88.313)">
        <path id="Trazado_1934" data-name="Trazado 1934" d="M3169.557,1126.231l14.536-14.536h22.131v-.724h-22.431l-14.748,14.748Z" transform="translate(-3169.045 -1110.971)" fill="#f0ca5e"/>
      </g>
      <g id="Grupo_10246" data-name="Grupo 10246" transform="translate(175.925 44.61)">
        <path id="Trazado_1935" data-name="Trazado 1935" d="M3029.264,1008.994l14.19-14.19h58.3v-.724h-58.6l-14.4,14.4Z" transform="translate(-3028.753 -994.08)" fill="#f0ca5e"/>
      </g>
      <path id="Trazado_1936" data-name="Trazado 1936" d="M2786.879,1120.993h73.35v-86.438c0-9.537-6.636-17.268-14.82-17.268-5.895,0-10.983,4.009-13.372,9.815a17.274,17.274,0,0,0-21.551,16.731v.048c-9.791.707-17.527,9.416-17.527,20.056a21.046,21.046,0,0,0,2.777,10.516,17.265,17.265,0,0,0-8.69,14.264c-.011.245-.016.489-.016.735a17.213,17.213,0,0,0,5.113,12.262C2788.795,1106.343,2786.806,1113.25,2786.879,1120.993Z" transform="translate(-2704.865 -958.669)" fill="url(#linear-gradient-3)"/>
      <g id="Grupo_10247" data-name="Grupo 10247" transform="translate(100.816 121.583)">
        <path id="Trazado_1937" data-name="Trazado 1937" d="M2846.165,1232.949c3.418,0,7.863-.618,11.321-3.242,3.792-2.879,5.715-7.586,5.715-13.989,0-6.764,1.935-12.015,5.751-15.609,6.092-5.737,15.009-5.272,15.1-5.267l.053-.867c-.379-.023-9.37-.5-15.74,5.5-4,3.765-6.03,9.231-6.03,16.247,0,6.118-1.808,10.591-5.373,13.3-6.892,5.231-18.161,2.168-18.275,2.136l-.233.836a31.37,31.37,0,0,0,6.751.945C2845.512,1232.944,2845.834,1232.949,2846.165,1232.949Z" transform="translate(-2838.452 -1193.958)" fill="#fff"/>
      </g>
      <g id="Grupo_10248" data-name="Grupo 10248" transform="translate(105.201 87.047)">
        <path id="Trazado_1938" data-name="Trazado 1938" d="M2880.759,1136.3l.864-.093a21.6,21.6,0,0,0-2.44-7.375,13.606,13.606,0,0,0-12.415-7.435c-5.813,0-9.787-1.45-12.149-4.433-1.875-2.369-2.749-5.693-2.749-10.465H2851c0,4.977.933,8.474,2.936,11,2.538,3.205,6.734,4.763,12.831,4.763a12.584,12.584,0,0,1,11.655,6.988A21.051,21.051,0,0,1,2880.759,1136.3Z" transform="translate(-2851.002 -1106.5)" fill="#fff"/>
      </g>
      <g id="Grupo_10249" data-name="Grupo 10249" transform="translate(94.919 113.353)">
        <path id="Trazado_1939" data-name="Trazado 1939" d="M2848.744,1201.29a12.907,12.907,0,0,0,2.073-.15l-.15-.855c-.053.01-5.372.892-8.967-2.132-2.229-1.874-3.358-4.86-3.358-8.876,0-4.066-1.224-7.185-3.638-9.27-4.289-3.705-10.732-2.807-11-2.767l.126.859c.063-.009,6.33-.876,10.314,2.57,2.212,1.912,3.333,4.809,3.333,8.609,0,4.287,1.236,7.5,3.672,9.545A11.849,11.849,0,0,0,2848.744,1201.29Z" transform="translate(-2823.699 -1177.116)" fill="#fff"/>
      </g>
      <g id="Grupo_10250" data-name="Grupo 10250" transform="translate(128.533 66.766)">
        <path id="Trazado_1940" data-name="Trazado 1940" d="M2914.819,1085.627c1.057,0,7.989-.162,12.182-4.277a10.675,10.675,0,0,0,3.119-7.932c0-6.24-3.886-8.566-7.646-10.815s-7.34-4.393-7.34-10.329h-.868c0,6.429,3.946,8.79,7.762,11.074,3.715,2.223,7.223,4.322,7.223,10.07a9.833,9.833,0,0,1-2.859,7.312c-4.193,4.117-11.61,4.029-11.684,4.029l-.016.868Z" transform="translate(-2914.266 -1052.274)" fill="#fff"/>
      </g>
      <path id="Trazado_1941" data-name="Trazado 1941" d="M2992.694,1034.555v86.438h73.351c.072-7.743-1.917-14.65-5.263-19.278a17.217,17.217,0,0,0,5.111-12.262c0-.247,0-.491-.015-.735a17.266,17.266,0,0,0-8.691-14.264,21.046,21.046,0,0,0,2.778-10.516c0-10.64-7.736-19.349-17.526-20.056v-.048a17.274,17.274,0,0,0-21.551-16.731c-2.388-5.806-7.478-9.815-13.372-9.815C2999.33,1017.287,2992.694,1025.018,2992.694,1034.555Z" transform="translate(-2832.875 -958.669)" fill="url(#linear-gradient-4)"/>
      <g id="Grupo_10251" data-name="Grupo 10251" transform="translate(167.928 121.583)">
        <path id="Trazado_1942" data-name="Trazado 1942" d="M3055.14,1232.95q.5,0,.963-.016a31.357,31.357,0,0,0,6.75-.945l-.234-.836c-.113.031-11.391,3.091-18.277-2.138-3.563-2.707-5.37-7.18-5.37-13.3,0-7.016-2.03-12.482-6.03-16.247-6.371-5.993-15.36-5.518-15.74-5.5l.053.867c.089-.005,9.006-.47,15.1,5.267,3.815,3.594,5.75,8.845,5.75,15.609,0,6.4,1.923,11.11,5.716,13.989C3047.276,1232.332,3051.721,1232.95,3055.14,1232.95Z" transform="translate(-3017.202 -1193.958)" fill="#fff"/>
      </g>
      <g id="Grupo_10252" data-name="Grupo 10252" transform="translate(178.497 87.047)">
        <path id="Trazado_1943" data-name="Trazado 1943" d="M3047.689,1136.3a21.111,21.111,0,0,1,2.348-7.072,12.581,12.581,0,0,1,11.642-6.964c6.1,0,10.293-1.558,12.831-4.763,2-2.53,2.936-6.027,2.936-11h-.869c0,4.771-.873,8.1-2.748,10.465-2.362,2.983-6.336,4.433-12.15,4.433a13.606,13.606,0,0,0-12.415,7.435,21.623,21.623,0,0,0-2.44,7.375Z" transform="translate(-3046.826 -1106.5)" fill="#fff"/>
      </g>
      <g id="Grupo_10253" data-name="Grupo 10253" transform="translate(192.267 113.353)">
        <path id="Trazado_1944" data-name="Trazado 1944" d="M3086.031,1201.29a11.838,11.838,0,0,0,7.6-2.468c2.438-2.046,3.673-5.258,3.673-9.545,0-3.8,1.122-6.7,3.337-8.613,3.992-3.448,10.247-2.574,10.31-2.566l.126-.859c-.272-.04-6.715-.938-11,2.767-2.414,2.085-3.638,5.2-3.638,9.27,0,4.018-1.132,7.006-3.362,8.879-3.6,3.026-8.91,2.138-8.963,2.128l-.15.855A12.9,12.9,0,0,0,3086.031,1201.29Z" transform="translate(-3083.959 -1177.116)" fill="#fff"/>
      </g>
      <g id="Grupo_10254" data-name="Grupo 10254" transform="translate(169.867 66.766)">
        <path id="Trazado_1945" data-name="Trazado 1945" d="M3040.3,1085.627h.127l-.016-.868c-.074,0-7.5.083-11.686-4.031a9.835,9.835,0,0,1-2.856-7.309c0-5.748,3.509-7.847,7.223-10.07,3.816-2.284,7.762-4.645,7.762-11.074h-.868c0,5.936-3.565,8.069-7.339,10.329s-7.646,4.575-7.646,10.815a10.673,10.673,0,0,0,3.119,7.932C3032.308,1085.466,3039.24,1085.627,3040.3,1085.627Z" transform="translate(-3024.997 -1052.274)" fill="#fff"/>
      </g>
      <rect id="Rectángulo_2801" data-name="Rectángulo 2801" width="163.136" height="32.276" transform="translate(76.59 130.049)" fill="#728dd9"/>
      <path id="Trazado_1946" data-name="Trazado 1946" d="M2926.959,1073.065a81.568,81.568,0,0,0-163.135,0Z" transform="translate(-2687.234 -946.401)" opacity="0.08" fill="url(#linear-gradient-5)" style="mix-blend-mode: darken;isolation: isolate"/>
      <g id="Grupo_10291" data-name="Grupo 10291" transform="translate(28.275 73.489)">
        <g id="Grupo_10257" data-name="Grupo 10257" transform="translate(5.673)">
          <g id="Grupo_10256" data-name="Grupo 10256">
            <g id="Grupo_10255" data-name="Grupo 10255">
              <path id="Trazado_1947" data-name="Trazado 1947" d="M2673.085,1059.686a4.976,4.976,0,0,1,2.311,5.585c-.759,4.085-1.095,4.635-.246,6.231s1.85,8.4,1.086,9.694-9.456-5.671-10.661-11.51.764-8.438,1.46-9.406S2670.375,1058.31,2673.085,1059.686Z" transform="translate(-2665.192 -1059.012)" fill="#20313f"/>
            </g>
          </g>
        </g>
        <g id="Grupo_10258" data-name="Grupo 10258" transform="translate(14.417 15.418)">
          <path id="Trazado_1948" data-name="Trazado 1948" d="M2689.725,1102.273a4.272,4.272,0,0,1,2.439,1.609c.61.9.66,2.894.748,3.27s1.254,4.63,1.254,4.63l-3.255,2.181Z" transform="translate(-2689.725 -1102.273)" fill="#3a5271"/>
        </g>
        <g id="Grupo_10259" data-name="Grupo 10259" transform="translate(22.317 83.617)">
          <path id="Trazado_1949" data-name="Trazado 1949" d="M2716.016,1298.164s2.123,2.859,1.832,3.312-2.525.517-3.885,0-1.391-3.869-2.006-5.308c-.258-.6.293-2.381,1.068-2.51a3.263,3.263,0,0,1,1.617.249S2713.839,1295.935,2716.016,1298.164Z" transform="translate(-2711.893 -1293.63)" fill="#2c3d54"/>
        </g>
        <g id="Grupo_10261" data-name="Grupo 10261" transform="translate(22.957 83.575)">
          <g id="Grupo_10260" data-name="Grupo 10260">
            <path id="Trazado_1950" data-name="Trazado 1950" d="M2715.812,1293.809a13.549,13.549,0,0,1,.61,2.38c.135.964,1.513,3.011,1.448,3.27a2.5,2.5,0,0,1-2.524-.174c-.712-.668-1.171-2.609-1.327-3.77a9.29,9.29,0,0,0-.331-1.615S2715.132,1293.1,2715.812,1293.809Z" transform="translate(-2713.688 -1293.514)" fill="#dba585"/>
          </g>
        </g>
        <g id="Grupo_10262" data-name="Grupo 10262" transform="translate(3.756 83.618)">
          <path id="Trazado_1951" data-name="Trazado 1951" d="M2664.01,1298.214s2.047,2.812,1.756,3.265-2.525.517-3.884,0-1.392-3.869-2.007-5.308c-.257-.6.294-2.381,1.068-2.51a3.477,3.477,0,0,1,1.683.277S2661.834,1295.985,2664.01,1298.214Z" transform="translate(-2659.811 -1293.635)" fill="#2c3d54"/>
        </g>
        <g id="Grupo_10264" data-name="Grupo 10264" transform="translate(4.714 83.512)">
          <g id="Grupo_10263" data-name="Grupo 10263">
            <path id="Trazado_1952" data-name="Trazado 1952" d="M2664.357,1293.745a19.2,19.2,0,0,0,.421,2.266c.259.938,1.651,3.075,1.586,3.334a2.5,2.5,0,0,1-2.525-.174,6.982,6.982,0,0,1-1.327-3.77,6.212,6.212,0,0,1,.162-1.932A1.581,1.581,0,0,1,2664.357,1293.745Z" transform="translate(-2662.5 -1293.337)" fill="#dba585"/>
          </g>
        </g>
        <g id="Grupo_10266" data-name="Grupo 10266" transform="translate(1.615 31.195)">
          <g id="Grupo_10265" data-name="Grupo 10265">
            <path id="Trazado_1953" data-name="Trazado 1953" d="M2668.991,1152.72s1.822,8.478,2.24,10.612,1.591,12.472,1.716,14.23,1.9,8.381,1.818,9.009,2.633,13.239,2.633,13.239a1.633,1.633,0,0,1-1.906.067c-.5-.349-5.961-11.806-5.961-14.945,0-4.339-3.209-10-3.623-10.974-3.846-9.018-3.089-11.775-3.591-12.361s-.546.362-.839,1.659-.92,12.514-1.3,13.937-.084,6.237-.293,8.664-1.128,13.408-1.128,13.408a1,1,0,0,1-1.71.029c-.215-.234-1.723-12.232-1.765-15.12s-.086-6.87-.167-8.119c-.776-11.967-2.681-13.677.32-22.146C2661.059,1138.053,2668.991,1152.72,2668.991,1152.72Z" transform="translate(-2653.806 -1146.54)" fill="#dba585"/>
          </g>
        </g>
        <g id="Grupo_10267" data-name="Grupo 10267" transform="translate(1.047 35.005)">
          <path id="Trazado_1954" data-name="Trazado 1954" d="M2655.727,1157.232s-5.191,7.266-2.957,22.723c0,0,12.314,1.675,18.912-1.937,0,0-2.729-15.937-3.717-18.417S2655.727,1157.232,2655.727,1157.232Z" transform="translate(-2652.211 -1157.231)" fill="#2c3d54"/>
        </g>
        <g id="Grupo_10268" data-name="Grupo 10268" transform="translate(22.324 85.902)">
          <path id="Trazado_1955" data-name="Trazado 1955" d="M2711.913,1300.044v2.993h.388v-2.314Z" transform="translate(-2711.913 -1300.044)" fill="#2c3d54"/>
        </g>
        <g id="Grupo_10269" data-name="Grupo 10269" transform="translate(3.763 85.902)">
          <path id="Trazado_1956" data-name="Trazado 1956" d="M2659.831,1300.044v2.993h.389v-2.314Z" transform="translate(-2659.831 -1300.044)" fill="#2c3d54"/>
        </g>
        <g id="Grupo_10270" data-name="Grupo 10270" transform="translate(2.029 14.258)">
          <path id="Trazado_1957" data-name="Trazado 1957" d="M2664.468,1099.118a20.094,20.094,0,0,0,2.577,1.036c.665.132,3.241,3.48,3.693,4.7s0,3.055-.93,5.207-.053,2.869-.478,5.021a50.062,50.062,0,0,0-.718,7.9c.08,1.2-10.745,1.421-13.215-.757,0,0,2.483-3.718,2.8-4.25s.053-3.427-.239-4.171-2.237-7.069-2.237-7.069-1.592-4.858-.154-5.974c1.249-.97,4.652-1.315,5.262-1.528A10.452,10.452,0,0,1,2664.468,1099.118Z" transform="translate(-2654.967 -1099.018)" fill="#e6d8d1"/>
        </g>
        <g id="Grupo_10271" data-name="Grupo 10271" transform="translate(12.085 13.677)">
          <path id="Trazado_1958" data-name="Trazado 1958" d="M2683.24,1102.333l1.163-1.361-1.01-3.583A23.683,23.683,0,0,0,2683.24,1102.333Z" transform="translate(-2683.184 -1097.389)" fill="#cfc3bc"/>
        </g>
        <g id="Grupo_10272" data-name="Grupo 10272" transform="translate(7.893 9.533)">
          <path id="Trazado_1959" data-name="Trazado 1959" d="M2675.97,1088.378s-.052.48-.114,1.142c-.027.294-.056.624-.084.964a21.823,21.823,0,0,0-.1,2.544s-1.988,1.992-4.249-2.324a5.927,5.927,0,0,0,.235-4.2C2670.939,1084.076,2675.97,1088.378,2675.97,1088.378Z" transform="translate(-2671.42 -1085.76)" fill="#dba585"/>
        </g>
        <g id="Grupo_10273" data-name="Grupo 10273" transform="translate(9.854 16.802)">
          <path id="Trazado_1960" data-name="Trazado 1960" d="M2679.209,1106.157v1.819l-2.287-1.709Z" transform="translate(-2676.922 -1106.157)" fill="#dba585"/>
        </g>
        <g id="Grupo_10274" data-name="Grupo 10274" transform="translate(6.957 14.258)">
          <path id="Trazado_1961" data-name="Trazado 1961" d="M2673.979,1103.381l-.949-1.175-3.2-3.189-1.035,1Z" transform="translate(-2668.795 -1099.017)" fill="#cfc3bc"/>
        </g>
        <g id="Grupo_10275" data-name="Grupo 10275" transform="translate(1.045 14.563)">
          <path id="Trazado_1962" data-name="Trazado 1962" d="M2658.709,1099.874s2.685,4.074,2.813,5.867a162.715,162.715,0,0,1-1.9,19.519c-.9,4.311-7.417-.487-7.417-.487s4.378-7.086,2.7-12.761-2.291-7.943-2.291-7.943.578-3.159,2.627-3.6C2657.036,1100.076,2658.709,1099.874,2658.709,1099.874Z" transform="translate(-2652.206 -1099.874)" fill="#3a5271"/>
        </g>
        <g id="Grupo_10276" data-name="Grupo 10276" transform="translate(12.949 14.987)">
          <path id="Trazado_1963" data-name="Trazado 1963" d="M2690.634,1106.717s.484,1.713-1.4,5.5c0,0,.03,4.847.083,6.361s1.124,6.959,1.124,6.959l-2.578,1.373a.526.526,0,0,1-.789-.518c.528-4.358,2.247-20.887-1.466-25.329l1.49.439A12.055,12.055,0,0,1,2690.634,1106.717Z" transform="translate(-2685.607 -1101.064)" fill="#3a5271"/>
        </g>
        <g id="Grupo_10277" data-name="Grupo 10277" transform="translate(12.294 13.677)">
          <path id="Trazado_1964" data-name="Trazado 1964" d="M2684.779,1100.973l1.464.4-2.474-3.988Z" transform="translate(-2683.769 -1097.389)" fill="#f3e4dc"/>
        </g>
        <g id="Grupo_10278" data-name="Grupo 10278" transform="translate(7.107 14.258)">
          <path id="Trazado_1965" data-name="Trazado 1965" d="M2673.3,1102.206l-1.338,1.753-2.747-4.578.885-.364Z" transform="translate(-2669.215 -1099.017)" fill="#f3e4dc"/>
        </g>
        <rect id="Rectángulo_2802" data-name="Rectángulo 2802" width="0.485" height="5.727" transform="translate(13.128 24.537) rotate(-38.35)" fill="#cb4949"/>
        <path id="Trazado_1966" data-name="Trazado 1966" d="M2684.479,1137.015a1.036,1.036,0,0,0,.563-.162c.385-.291.524-1.006,1.2-.954s1,2.185.825,2.589-1.115.606-2.511.328S2684.479,1137.015,2684.479,1137.015Z" transform="translate(-2671.571 -1108.495)" fill="#dba585"/>
        <path id="Trazado_1967" data-name="Trazado 1967" d="M2689.326,1134.524a21.3,21.3,0,0,1,2.106-.577,4.753,4.753,0,0,1,2.289-.113c.128.191-.965.357-1.935.632-.894.253-.68.347-.68.347s-.059-.03.961-.125c1.1-.1,2.226-.1,2.338.119.054.107.016.179-.379.279.238-.011.271.051.28.146.047.494-1.552.887-2.187,1.043.489-.117.857-.152.681.179-.2.378-2.483.836-3.289,1.076C2688.633,1137.791,2689.326,1134.524,2689.326,1134.524Z" transform="translate(-2674.885 -1107.106)" fill="#dba585"/>
        <path id="Trazado_1968" data-name="Trazado 1968" d="M2653.731,1101.67a2.876,2.876,0,0,0-2.981,2.507c-.334,2.024-.468,4.272-.779,5.362s-1.1,5.92-.437,6.321a7.559,7.559,0,0,0,3.7.766c1.831,0,8.93.319,8.93.319l.445-2.522s-2.7-.139-4.094-.35c-1.243-.189-2.967-.719-5-.941a33.979,33.979,0,0,1,.742-3.838C2654.577,1108.45,2656.757,1102.649,2653.731,1101.67Z" transform="translate(-2649.274 -1086.443)" fill="#3a5271"/>
        <path id="Trazado_1969" data-name="Trazado 1969" d="M2697.527,1138.069l.333.811-.713-.51Z" transform="translate(-2680.086 -1109.893)" fill="#dba585"/>
        <g id="Grupo_10279" data-name="Grupo 10279" transform="translate(13.531 19.638)">
          <path id="Trazado_1970" data-name="Trazado 1970" d="M2687.24,1126.882l7.151-1.418,5.3-11.349-7.633.8Z" transform="translate(-2687.24 -1114.115)" fill="url(#linear-gradient-6)"/>
        </g>
        <g id="Grupo_10281" data-name="Grupo 10281" transform="translate(20.911 25.516)">
          <g id="Grupo_10280" data-name="Grupo 10280">
            <path id="Trazado_1971" data-name="Trazado 1971" d="M2708.61,1134.152a5.78,5.78,0,0,0,.741-.873,12.993,12.993,0,0,0,1.387-2.577,3.882,3.882,0,0,0-2.108.113c-.308.277.3.385.3.385s-.928.1-.862.357.625.189.625.189-.747.143-.633.373.472.228.472.228-.662.083-.58.333,1.129.488.989.7A4.942,4.942,0,0,0,2708.61,1134.152Z" transform="translate(-2707.948 -1130.608)" fill="#dba585"/>
          </g>
        </g>
        <g id="Grupo_10284" data-name="Grupo 10284" transform="translate(7.243 0.997)">
          <g id="Grupo_10283" data-name="Grupo 10283">
            <g id="Grupo_10282" data-name="Grupo 10282">
              <path id="Trazado_1972" data-name="Trazado 1972" d="M2675.474,1061.938s4.456,1.4,2.037,9.091-8.506-.891-7.869-5.577S2675.474,1061.938,2675.474,1061.938Z" transform="translate(-2669.596 -1061.808)" fill="#dba686"/>
            </g>
          </g>
        </g>
        <g id="Grupo_10287" data-name="Grupo 10287" transform="translate(6.892 0.379)">
          <g id="Grupo_10286" data-name="Grupo 10286">
            <g id="Grupo_10285" data-name="Grupo 10285">
              <path id="Trazado_1973" data-name="Trazado 1973" d="M2677.333,1065.31a10.054,10.054,0,0,1-5.92,2.444,9.394,9.394,0,0,0-1.533,2.325s-3.306-5.636.758-9.014S2678.827,1063.917,2677.333,1065.31Z" transform="translate(-2668.611 -1060.074)" fill="#20313f"/>
            </g>
          </g>
        </g>
        <g id="Grupo_10290" data-name="Grupo 10290" transform="translate(8.191 6.673)">
          <g id="Grupo_10289" data-name="Grupo 10289">
            <g id="Grupo_10288" data-name="Grupo 10288">
              <path id="Trazado_1974" data-name="Trazado 1974" d="M2673.8,1079.274c-.029-.56-.374-1.833-1.206-1.477s.051,2.951.6,2.791C2673.2,1080.588,2673.873,1080.6,2673.8,1079.274Z" transform="translate(-2672.258 -1077.735)" fill="#dba686"/>
            </g>
          </g>
        </g>
        <path id="Trazado_1975" data-name="Trazado 1975" d="M2678.328,1092.341c-.027.294-.056.624-.084.964h0a5.125,5.125,0,0,1-2.983-3.163C2677.1,1092.514,2678.328,1092.341,2678.328,1092.341Z" transform="translate(-2665.999 -1079.047)" fill="#997761"/>
      </g>
      <g id="Grupo_10292" data-name="Grupo 10292" transform="translate(44.751 47.917)">
        <path id="Trazado_1976" data-name="Trazado 1976" d="M2766.066,1030.043l.512-.512-27.117-27.117h-51.322v.724h51.021Z" transform="translate(-2688.139 -1002.414)" fill="#f0ca5e"/>
      </g>
      <g id="Grupo_10293" data-name="Grupo 10293" transform="translate(116.004 38.096)">
        <path id="Trazado_1977" data-name="Trazado 1977" d="M2932.806,999.787l.512-.511-22.887-22.887h-32.188v.724h31.889Z" transform="translate(-2878.243 -976.389)" fill="#f0ca5e"/>
      </g>
      <g id="Grupo_10303" data-name="Grupo 10303" transform="translate(62.409 75.961)">
        <path id="Rectángulo_2803" data-name="Rectángulo 2803" d="M20.716,0h0A20.716,20.716,0,0,1,41.434,20.716V42.2A20.717,20.717,0,0,1,20.716,62.918h0A20.716,20.716,0,0,1,0,42.2V20.716A20.716,20.716,0,0,1,20.716,0Z" transform="translate(41.434 62.918) rotate(180)" fill="#f4f4f4" style="mix-blend-mode: hard-light;isolation: isolate"/>
        <g id="Grupo_10298" data-name="Grupo 10298" transform="translate(4.446 4.858)">
          <g id="Grupo_10294" data-name="Grupo 10294">
            <path id="Trazado_1978" data-name="Trazado 1978" d="M2753.285,1100.774a6.786,6.786,0,0,0,7.452-1.992,6.716,6.716,0,0,0,1.051-1.688c.06-.138.115-.279.167-.423a6.782,6.782,0,1,0-8.67,4.1Zm-2.5-8.1a5.085,5.085,0,0,1,9.576,3.425q-.058.161-.126.317a5.022,5.022,0,0,1-.788,1.266,5.086,5.086,0,0,1-8.663-5.008Z" transform="translate(-2748.785 -1087.602)" fill="#a4a3fb"/>
          </g>
          <g id="Grupo_10295" data-name="Grupo 10295" transform="translate(6.936 0.003)">
            <path id="Trazado_1979" data-name="Trazado 1979" d="M2772.948,1092.877l1.62-.506a6.792,6.792,0,0,0-6.271-4.76l-.051,1.7a5.091,5.091,0,0,1,4.7,3.569Z" transform="translate(-2768.246 -1087.611)" fill="#5352b3"/>
          </g>
          <g id="Grupo_10296" data-name="Grupo 10296" transform="translate(11.446 4.763)">
            <path id="Trazado_1980" data-name="Trazado 1980" d="M2780.9,1105.017l1.557.677c.06-.138.115-.279.167-.423a6.746,6.746,0,0,0,.088-4.306l-1.62.506a5.061,5.061,0,0,1-.066,3.228Q2780.97,1104.861,2780.9,1105.017Z" transform="translate(-2780.902 -1100.966)" fill="#706ed6"/>
          </g>
          <g id="Grupo_10297" data-name="Grupo 10297" transform="translate(10.658 8.813)">
            <path id="Trazado_1981" data-name="Trazado 1981" d="M2779.985,1114.7a6.717,6.717,0,0,0,1.051-1.688l-1.557-.677a5.019,5.019,0,0,1-.788,1.266Z" transform="translate(-2778.692 -1112.332)" fill="#8080fa"/>
          </g>
        </g>
        <g id="Grupo_10299" data-name="Grupo 10299" transform="translate(11.29 48.714)">
          <rect id="Rectángulo_2804" data-name="Rectángulo 2804" width="3.656" height="11.988" transform="translate(3.656 11.988) rotate(180)" fill="#a4a3fb"/>
        </g>
        <g id="Grupo_10300" data-name="Grupo 10300" transform="translate(16.725 52.076)">
          <rect id="Rectángulo_2805" data-name="Rectángulo 2805" width="3.656" height="8.625" transform="translate(3.656 8.625) rotate(180)" fill="#a4a3fb"/>
        </g>
        <g id="Grupo_10301" data-name="Grupo 10301" transform="translate(6.017 43.158)">
          <rect id="Rectángulo_2806" data-name="Rectángulo 2806" width="3.657" height="17.543" transform="translate(3.657 17.543) rotate(180)" fill="#a4a3fb"/>
        </g>
        <g id="Grupo_10302" data-name="Grupo 10302" transform="translate(7.442 23.337)">
          <path id="Trazado_1982" data-name="Trazado 1982" d="M2785.647,1163.594l.318-.244-5.957-7.751-7.353.4-5.545-8.83-5.973-.616-3.589-7.1-.357.181,3.688,7.295,6,.619,5.566,8.864,7.378-.4Z" transform="translate(-2757.19 -1139.452)" fill="#8080fa"/>
        </g>
        <path id="Trazado_1983" data-name="Trazado 1983" d="M2803.275,1094.744h10.4a1.189,1.189,0,0,0,1.189-1.188h0a1.189,1.189,0,0,0-1.189-1.189h-10.4a1.188,1.188,0,0,0-1.188,1.189h0A1.189,1.189,0,0,0,2803.275,1094.744Z" transform="translate(-2778.645 -1085.811)" fill="#8080fa"/>
        <path id="Trazado_1984" data-name="Trazado 1984" d="M2803.275,1106.378h10.4a1.189,1.189,0,0,0,1.189-1.188h0a1.189,1.189,0,0,0-1.189-1.189h-10.4a1.188,1.188,0,0,0-1.188,1.189h0A1.188,1.188,0,0,0,2803.275,1106.378Z" transform="translate(-2778.645 -1093.299)" fill="#8080fa"/>
        <path id="Trazado_1985" data-name="Trazado 1985" d="M2803.275,1118.013h10.4a1.189,1.189,0,0,0,1.189-1.189h0a1.189,1.189,0,0,0-1.189-1.189h-10.4a1.189,1.189,0,0,0-1.188,1.189h0A1.189,1.189,0,0,0,2803.275,1118.013Z" transform="translate(-2778.645 -1100.786)" fill="#8080fa"/>
      </g>
      <g id="Grupo_10396" data-name="Grupo 10396" transform="translate(215.034 109.839)">
        <g id="Grupo_10304" data-name="Grupo 10304" transform="translate(35.324 30.297)">
          <rect id="Rectángulo_2807" data-name="Rectángulo 2807" width="14.172" height="0.841" transform="translate(14.172 0.841) rotate(180)" fill="#dcd0c8"/>
        </g>
        <g id="Grupo_10305" data-name="Grupo 10305" transform="translate(46.355 33.327)">
          <rect id="Rectángulo_2808" data-name="Rectángulo 2808" width="1.242" height="38.259" fill="#ece0d7"/>
        </g>
        <g id="Grupo_10306" data-name="Grupo 10306" transform="translate(27.692 30.058)">
          <rect id="Rectángulo_2809" data-name="Rectángulo 2809" width="9.851" height="1.202" transform="translate(9.851 1.202) rotate(180)" fill="#c6bbb5"/>
        </g>
        <g id="Grupo_10307" data-name="Grupo 10307" transform="translate(30.752 19.808)">
          <rect id="Rectángulo_2810" data-name="Rectángulo 2810" width="3.731" height="11.33" transform="translate(3.731 11.33) rotate(180)" fill="#c6bbb5"/>
        </g>
        <g id="Grupo_10308" data-name="Grupo 10308" transform="translate(0 31.152)">
          <rect id="Rectángulo_2811" data-name="Rectángulo 2811" width="54.58" height="2.175" transform="translate(54.58 2.175) rotate(180)" fill="#8f8882"/>
        </g>
        <g id="Grupo_10309" data-name="Grupo 10309" transform="translate(59.025 14.331)">
          <path id="Trazado_1986" data-name="Trazado 1986" d="M3310.137,1204.874s.6,8.371-1.038,9.373c-1.025.628-5.111,2.745-4.989,3.142s2.306,3.532,2.306,3.532,7.848-5.167,8.1-6.8c.248-1.591-.386-12.258-1.464-12.749-.808-.368-1.235-.063-2.253.692A2.384,2.384,0,0,0,3310.137,1204.874Z" transform="translate(-3304.107 -1201.22)" fill="#ebb55c"/>
        </g>
        <g id="Grupo_10312" data-name="Grupo 10312" transform="translate(50.061 18.143)">
          <g id="Grupo_10311" data-name="Grupo 10311">
            <g id="Grupo_10310" data-name="Grupo 10310">
              <path id="Trazado_1987" data-name="Trazado 1987" d="M3279.647,1214.148l-.691-.256s.862-2.024,1.239-1.975a9.518,9.518,0,0,1,.975.2Z" transform="translate(-3278.956 -1211.916)" fill="#e3d6cd"/>
            </g>
          </g>
        </g>
        <g id="Grupo_10315" data-name="Grupo 10315" transform="translate(50.595 18.008)">
          <g id="Grupo_10314" data-name="Grupo 10314">
            <g id="Grupo_10313" data-name="Grupo 10313">
              <path id="Trazado_1988" data-name="Trazado 1988" d="M3280.453,1214.253c.088-.066,1.47-2.717,1.47-2.717l2.952.4-1.595,3.14Z" transform="translate(-3280.453 -1211.536)" fill="#c8995f"/>
            </g>
          </g>
        </g>
        <g id="Grupo_10318" data-name="Grupo 10318" transform="translate(55.4 66.144)">
          <g id="Grupo_10317" data-name="Grupo 10317">
            <g id="Grupo_10316" data-name="Grupo 10316">
              <path id="Trazado_1989" data-name="Trazado 1989" d="M3293.936,1346.819s.244,1.694.274,1.948,2.714-.15,2.714-.15l.217-2.016A15.906,15.906,0,0,0,3293.936,1346.819Z" transform="translate(-3293.936 -1346.601)" fill="#454971"/>
            </g>
          </g>
        </g>
        <g id="Grupo_10321" data-name="Grupo 10321" transform="translate(50.987 67.981)">
          <g id="Grupo_10320" data-name="Grupo 10320">
            <g id="Grupo_10319" data-name="Grupo 10319">
              <path id="Trazado_1990" data-name="Trazado 1990" d="M3286.213,1351.869a7.247,7.247,0,0,1-1.673,1.465c-.822.445-2.115.621-2.6,1.082-.351.333-1.278,1.763,2.138,1.734s5.064.2,5.429-.346-.529-4.05-.529-4.05A7.241,7.241,0,0,1,3286.213,1351.869Z" transform="translate(-3281.555 -1351.754)" fill="#2e3048"/>
            </g>
          </g>
        </g>
        <g id="Grupo_10324" data-name="Grupo 10324" transform="translate(38.202 66.16)">
          <g id="Grupo_10323" data-name="Grupo 10323">
            <g id="Grupo_10322" data-name="Grupo 10322">
              <path id="Trazado_1991" data-name="Trazado 1991" d="M3245.682,1346.864s.244,1.694.275,1.948,2.714-.15,2.714-.15l.217-2.016A15.914,15.914,0,0,0,3245.682,1346.864Z" transform="translate(-3245.682 -1346.646)" fill="#454971"/>
            </g>
          </g>
        </g>
        <g id="Grupo_10327" data-name="Grupo 10327" transform="translate(32.213 67.997)">
          <g id="Grupo_10326" data-name="Grupo 10326">
            <g id="Grupo_10325" data-name="Grupo 10325">
              <path id="Trazado_1992" data-name="Trazado 1992" d="M3235.111,1351.914a7.255,7.255,0,0,1-1.673,1.465c-.822.445-3.849.811-4.336,1.271-.351.332-.935,1.67,3.872,1.545,3.415-.088,5.063.2,5.429-.346s-.53-4.049-.53-4.049A6.571,6.571,0,0,1,3235.111,1351.914Z" transform="translate(-3228.875 -1351.8)" fill="#2e3048"/>
            </g>
          </g>
        </g>
        <g id="Grupo_10330" data-name="Grupo 10330" transform="translate(36.047 37.103)">
          <g id="Grupo_10329" data-name="Grupo 10329">
            <g id="Grupo_10328" data-name="Grupo 10328">
              <path id="Trazado_1993" data-name="Trazado 1993" d="M3267.644,1265.115s-9.758,1.652-11.962,2-14.155,3.321-15.649,4.226c-1.189.721.624,18.045,1.048,24.654h4.707l.341-19.826c5.648.141,9.68-1.321,13.793-.7s7.542,1.513,10.156-1.993C3270.077,1273.477,3270.174,1265.881,3267.644,1265.115Z" transform="translate(-3239.634 -1265.115)" fill="#2e3048"/>
            </g>
          </g>
        </g>
        <g id="Grupo_10333" data-name="Grupo 10333" transform="translate(52.981 39.214)">
          <g id="Grupo_10332" data-name="Grupo 10332">
            <g id="Grupo_10331" data-name="Grupo 10331">
              <path id="Trazado_1994" data-name="Trazado 1994" d="M3288.606,1299.82l4.586-.284.448-19.558a27.847,27.847,0,0,0,5.233-.332l3.7-8.609c-3.246.649-13.646,3.272-15.032,4.113C3286.355,1275.872,3288.182,1293.211,3288.606,1299.82Z" transform="translate(-3287.148 -1271.037)" fill="#2e3048"/>
            </g>
          </g>
        </g>
        <g id="Grupo_10336" data-name="Grupo 10336" transform="translate(53.882 0.354)">
          <g id="Grupo_10335" data-name="Grupo 10335">
            <g id="Grupo_10334" data-name="Grupo 10334">
              <path id="Trazado_1995" data-name="Trazado 1995" d="M3295.359,1162.171s-3.577-.989-4.942,1.789-.747,8.042,1.057,8.537,4.4-.076,5.145-1.8a13.266,13.266,0,0,0,1.166-5.775A3.488,3.488,0,0,0,3295.359,1162.171Z" transform="translate(-3289.677 -1162)" fill="#dba585"/>
            </g>
          </g>
        </g>
        <g id="Grupo_10339" data-name="Grupo 10339" transform="translate(56.413 7.862)">
          <g id="Grupo_10338" data-name="Grupo 10338">
            <g id="Grupo_10337" data-name="Grupo 10337">
              <path id="Trazado_1996" data-name="Trazado 1996" d="M3296.98,1185.5a10.917,10.917,0,0,1-.194,2.562c-.232.45,4.982.337,4.982.337a10.584,10.584,0,0,1-.356-4.7C3301.874,1181.566,3296.98,1185.5,3296.98,1185.5Z" transform="translate(-3296.779 -1183.068)" fill="#dba585"/>
            </g>
          </g>
        </g>
        <g id="Grupo_10342" data-name="Grupo 10342" transform="translate(53.771)">
          <g id="Grupo_10341" data-name="Grupo 10341">
            <g id="Grupo_10340" data-name="Grupo 10340">
              <path id="Trazado_1997" data-name="Trazado 1997" d="M3296.921,1168.707s-.279.567-1.628.475-3.13-1.719-3.7-1.865-.607-.471-.607-.471l-.3.539-.587.089s.4-1.632-.47-2.206.392-5.2,4.792-4.086c0,0,3.359.615,3.4,2.491A10.4,10.4,0,0,1,3296.921,1168.707Z" transform="translate(-3289.365 -1161.008)" fill="#3e4148"/>
            </g>
          </g>
        </g>
        <g id="Grupo_10345" data-name="Grupo 10345" transform="translate(56.147 11.416)">
          <g id="Grupo_10344" data-name="Grupo 10344">
            <g id="Grupo_10343" data-name="Grupo 10343">
              <path id="Trazado_1998" data-name="Trazado 1998" d="M3296.031,1194.428s.015-.861.405-.943a25.424,25.424,0,0,1,4.577-.4l.2,1.135S3300.3,1194.783,3296.031,1194.428Z" transform="translate(-3296.031 -1193.039)" fill="#ebb55c"/>
            </g>
          </g>
        </g>
        <g id="Grupo_10348" data-name="Grupo 10348" transform="translate(55.027 4.498)">
          <g id="Grupo_10347" data-name="Grupo 10347">
            <g id="Grupo_10346" data-name="Grupo 10346">
              <path id="Trazado_1999" data-name="Trazado 1999" d="M3292.936,1174.583c.1-.705.9-1.515,1.361-.417s-.31,2.7-.825,2.612S3292.8,1175.54,3292.936,1174.583Z" transform="translate(-3292.89 -1173.628)" fill="#dba585"/>
            </g>
          </g>
        </g>
        <g id="Grupo_10351" data-name="Grupo 10351" transform="translate(40.597 22.968)">
          <g id="Grupo_10350" data-name="Grupo 10350">
            <g id="Grupo_10349" data-name="Grupo 10349">
              <path id="Trazado_2000" data-name="Trazado 2000" d="M3252.416,1225.452h.006C3252.4,1225.464,3252.391,1225.464,3252.416,1225.452Z" transform="translate(-3252.4 -1225.452)" fill="#363957"/>
            </g>
          </g>
        </g>
        <g id="Grupo_10354" data-name="Grupo 10354" transform="translate(60.608 1.028)">
          <g id="Grupo_10353" data-name="Grupo 10353">
            <g id="Grupo_10352" data-name="Grupo 10352">
              <path id="Trazado_2001" data-name="Trazado 2001" d="M3308.55,1163.893s4.362-.205.762,6.6Z" transform="translate(-3308.55 -1163.892)" fill="#3e4148"/>
            </g>
          </g>
        </g>
        <g id="Grupo_10356" data-name="Grupo 10356" transform="translate(56.292 65.133)">
          <g id="Grupo_10355" data-name="Grupo 10355">
            <path id="Trazado_2002" data-name="Trazado 2002" d="M3310.474,1348.948l-.324.912-13.709-4.248.657-1.848Z" transform="translate(-3296.44 -1343.765)" fill="#8c8581"/>
          </g>
        </g>
        <g id="Grupo_10358" data-name="Grupo 10358" transform="translate(55.823 51.426)">
          <g id="Grupo_10357" data-name="Grupo 10357">
            <rect id="Rectángulo_2812" data-name="Rectángulo 2812" width="1.558" height="14.905" transform="translate(1.558 14.905) rotate(180)" fill="#8c8581"/>
          </g>
        </g>
        <g id="Grupo_10360" data-name="Grupo 10360" transform="translate(52.007 50.634)">
          <g id="Grupo_10359" data-name="Grupo 10359">
            <rect id="Rectángulo_2813" data-name="Rectángulo 2813" width="9.19" height="0.879" transform="translate(9.19 0.879) rotate(180)" fill="#5d5955"/>
          </g>
        </g>
        <g id="Grupo_10362" data-name="Grupo 10362" transform="translate(42.756 65.017)">
          <g id="Grupo_10361" data-name="Grupo 10361">
            <path id="Trazado_2003" data-name="Trazado 2003" d="M3258.458,1348.739l.324.912,13.71-4.248-.6-1.964Z" transform="translate(-3258.458 -1343.439)" fill="#8c8581"/>
          </g>
        </g>
        <g id="Grupo_10364" data-name="Grupo 10364" transform="translate(52.415 65.017)">
          <g id="Grupo_10363" data-name="Grupo 10363">
            <path id="Trazado_2004" data-name="Trazado 2004" d="M3285.562,1349.553v1.062l4.375-5.212-.6-1.964Z" transform="translate(-3285.562 -1343.439)" fill="#8c8581"/>
          </g>
        </g>
        <g id="Grupo_10366" data-name="Grupo 10366" transform="translate(41.475 70.305)">
          <g id="Grupo_10365" data-name="Grupo 10365">
            <path id="Trazado_2005" data-name="Trazado 2005" d="M3254.864,1359.558a1.281,1.281,0,1,0,1.281-1.282A1.281,1.281,0,0,0,3254.864,1359.558Z" transform="translate(-3254.864 -1358.276)" fill="#b9afaa"/>
          </g>
        </g>
        <g id="Grupo_10368" data-name="Grupo 10368" transform="translate(52.306 70.305)">
          <g id="Grupo_10367" data-name="Grupo 10367">
            <path id="Trazado_2006" data-name="Trazado 2006" d="M3285.256,1359.558a1.281,1.281,0,1,0,1.282-1.282A1.281,1.281,0,0,0,3285.256,1359.558Z" transform="translate(-3285.256 -1358.276)" fill="#b9afaa"/>
          </g>
        </g>
        <g id="Grupo_10370" data-name="Grupo 10370" transform="translate(69.045 70.305)">
          <g id="Grupo_10369" data-name="Grupo 10369">
            <path id="Trazado_2007" data-name="Trazado 2007" d="M3332.223,1359.558a1.281,1.281,0,1,0,1.281-1.282A1.281,1.281,0,0,0,3332.223,1359.558Z" transform="translate(-3332.223 -1358.276)" fill="#b9afaa"/>
          </g>
        </g>
        <g id="Grupo_10371" data-name="Grupo 10371" transform="translate(45.655 47.308)">
          <path id="Rectángulo_2814" data-name="Rectángulo 2814" d="M1.663,0H20.109a1.663,1.663,0,0,1,1.663,1.663v0a1.663,1.663,0,0,1-1.663,1.663H1.663A1.663,1.663,0,0,1,0,1.663v0A1.663,1.663,0,0,1,1.663,0Z" transform="translate(21.772 3.327) rotate(-180)" fill="#dcd0c8"/>
        </g>
        <g id="Grupo_10372" data-name="Grupo 10372" transform="translate(6.984 33.327)">
          <rect id="Rectángulo_2815" data-name="Rectángulo 2815" width="1.242" height="38.259" transform="translate(1.242 38.259) rotate(180)" fill="#ece0d7"/>
        </g>
        <g id="Grupo_10373" data-name="Grupo 10373" transform="translate(16.511 2.543)">
          <path id="Rectángulo_2816" data-name="Rectángulo 2816" d="M9.466,0H22.749a9.462,9.462,0,0,1,9.462,9.462v3.8a9.462,9.462,0,0,1-9.462,9.462H9.462A9.462,9.462,0,0,1,0,13.261v-3.8A9.466,9.466,0,0,1,9.466,0Z" transform="translate(32.211 22.723) rotate(180)" fill="#ece0d7"/>
        </g>
        <g id="Grupo_10374" data-name="Grupo 10374" transform="translate(17.773 3.771)">
          <rect id="Rectángulo_2817" data-name="Rectángulo 2817" width="29.688" height="17.934" transform="translate(29.688 17.934) rotate(180)" fill="#f4f6ff"/>
        </g>
        <g id="Grupo_10375" data-name="Grupo 10375" transform="translate(31.578 22.281)">
          <circle id="Elipse_543" data-name="Elipse 543" cx="1.039" cy="1.039" r="1.039" fill="#8c8480"/>
        </g>
        <g id="Grupo_10376" data-name="Grupo 10376" transform="translate(25.948 28.262)">
          <path id="Trazado_2008" data-name="Trazado 2008" d="M3211.3,1243.227v-.4s.569-2.514,4.59-2.514,3.939,2.919,3.939,2.919Z" transform="translate(-3211.298 -1240.308)" fill="#2c3d54"/>
        </g>
        <g id="Grupo_10378" data-name="Grupo 10378" transform="translate(27.307 27.078)">
          <g id="Grupo_10377" data-name="Grupo 10377">
            <path id="Trazado_2009" data-name="Trazado 2009" d="M3222.329,1238.542a3.951,3.951,0,0,1-1.193-.261c-.32-.193-2.234-1.481-2.685-1.275s-3.443,1.123-3.339,1.561.381.4.592.318a15.42,15.42,0,0,1,2.577-.457s-2.135.779-2.144,1.347.447.707.65.922.445.749,1,.789,3.235-.893,3.788-.935a13.4,13.4,0,0,0,1.645-.056A15.276,15.276,0,0,0,3222.329,1238.542Z" transform="translate(-3215.11 -1236.984)" fill="#dba585"/>
          </g>
        </g>
        <g id="Grupo_10381" data-name="Grupo 10381" transform="translate(33.624 12.593)">
          <g id="Grupo_10380" data-name="Grupo 10380">
            <g id="Grupo_10379" data-name="Grupo 10379">
              <path id="Trazado_2010" data-name="Trazado 2010" d="M3249.64,1197.745c2.785-.49,5.717-1.193,5.717-1.193l5.188-.211a50.527,50.527,0,0,1,6.636,1.895c.177.081.179,4.247.666,5.34l-1.554,3.28s-.9,6.5-1.084,9.385c-.086,1.327.242,12.818.242,12.818a19.961,19.961,0,0,1-4.007.62c-3.54.391-12.386-.141-12.441-.559s1.713-15.57,1.791-16.354c.12-1.2-.348-6.769-.348-6.769-.667.9-2.367,4.942-4.14,6.867-1.043,1.132-6.205,1.827-7.178,1.859-2.118.071-5.983.492-6.1.286-.09-.124-.336-3.43-.094-3.511.212-.071,7.387-.484,9.226-1.459.673-.357,2.683-4.741,2.683-4.741S3248.1,1198.435,3249.64,1197.745Z" transform="translate(-3232.834 -1196.341)" fill="#ebb55c"/>
            </g>
          </g>
        </g>
        <g id="Grupo_10382" data-name="Grupo 10382" transform="translate(57.499 24.182)">
          <rect id="Rectángulo_2818" data-name="Rectángulo 2818" width="15.015" height="20.796" rx="7.508" transform="translate(15.015 20.796) rotate(180)" fill="#dcd0c8"/>
        </g>
        <g id="Grupo_10383" data-name="Grupo 10383" transform="translate(59.324 37.458)">
          <path id="Trazado_2011" data-name="Trazado 2011" d="M3305.782,1278.459a6.881,6.881,0,0,0,5.337-2.21c3-3.314,2.462-9.139,2.437-9.386a.835.835,0,1,0-1.663.165c.007.066.485,5.347-2.017,8.1a5.208,5.208,0,0,1-4.095,1.658.835.835,0,1,0,0,1.671Z" transform="translate(-3304.946 -1266.11)" fill="#dcd0c8"/>
        </g>
        <g id="Grupo_10386" data-name="Grupo 10386" transform="translate(36.659 5.199)">
          <g id="Grupo_10385" data-name="Grupo 10385">
            <g id="Grupo_10384" data-name="Grupo 10384">
              <rect id="Rectángulo_2819" data-name="Rectángulo 2819" width="8.696" height="0.948" rx="0.474" transform="translate(8.696 0.948) rotate(180)" fill="#dedfe6"/>
            </g>
          </g>
        </g>
        <g id="Grupo_10389" data-name="Grupo 10389" transform="translate(36.659 7.231)">
          <g id="Grupo_10388" data-name="Grupo 10388">
            <g id="Grupo_10387" data-name="Grupo 10387">
              <path id="Rectángulo_2820" data-name="Rectángulo 2820" d="M.474,0H8.223A.473.473,0,0,1,8.7.473v0a.475.475,0,0,1-.475.475H.473A.473.473,0,0,1,0,.475v0A.474.474,0,0,1,.474,0Z" transform="translate(8.696 0.948) rotate(-180)" fill="#dedfe6"/>
            </g>
          </g>
        </g>
        <g id="Grupo_10392" data-name="Grupo 10392" transform="translate(36.659 9.563)">
          <g id="Grupo_10391" data-name="Grupo 10391">
            <g id="Grupo_10390" data-name="Grupo 10390">
              <path id="Rectángulo_2821" data-name="Rectángulo 2821" d="M4.347,0h0A4.347,4.347,0,0,1,8.7,4.347v2.02a4.347,4.347,0,0,1-4.347,4.347h0A4.349,4.349,0,0,1,0,6.364V4.347A4.347,4.347,0,0,1,4.347,0Z" transform="translate(8.696 10.714) rotate(180)" fill="#dedfe6"/>
            </g>
          </g>
        </g>
        <g id="Grupo_10395" data-name="Grupo 10395" transform="translate(19.417 5.199)">
          <g id="Grupo_10394" data-name="Grupo 10394">
            <g id="Grupo_10393" data-name="Grupo 10393">
              <path id="Rectángulo_2822" data-name="Rectángulo 2822" d="M7.218,0H8.265a7.222,7.222,0,0,1,7.222,7.222v.634a7.221,7.221,0,0,1-7.221,7.221H7.222A7.222,7.222,0,0,1,0,7.855V7.218A7.218,7.218,0,0,1,7.218,0Z" transform="translate(15.487 15.077) rotate(180)" fill="#dedfe6"/>
            </g>
          </g>
        </g>
      </g>
      <g id="Grupo_10401" data-name="Grupo 10401" transform="translate(195.101)">
        <g id="Grupo_10397" data-name="Grupo 10397" transform="translate(19.648 23.821)">
          <rect id="Rectángulo_2823" data-name="Rectángulo 2823" width="5.146" height="15.632" fill="#7498e4"/>
        </g>
        <g id="Grupo_10398" data-name="Grupo 10398">
          <path id="Rectángulo_2824" data-name="Rectángulo 2824" d="M13.053,0H31.387A13.054,13.054,0,0,1,44.441,13.054V18.3A13.054,13.054,0,0,1,31.387,31.351H13.054A13.054,13.054,0,0,1,0,18.3V13.053A13.053,13.053,0,0,1,13.053,0Z" fill="#a7c5fc"/>
        </g>
        <g id="Grupo_10399" data-name="Grupo 10399" transform="translate(1.741 1.789)">
          <rect id="Rectángulo_2825" data-name="Rectángulo 2825" width="40.96" height="24.649" fill="#fff"/>
        </g>
        <g id="Grupo_10400" data-name="Grupo 10400" transform="translate(20.788 27.253)">
          <path id="Trazado_2012" data-name="Trazado 2012" d="M3150.906,952.642a1.434,1.434,0,1,1-1.434-1.433A1.434,1.434,0,0,1,3150.906,952.642Z" transform="translate(-3148.039 -951.209)" fill="#747474"/>
        </g>
        <rect id="Rectángulo_2826" data-name="Rectángulo 2826" width="23.154" height="1.18" transform="translate(33.798 40.043) rotate(180)" fill="#a7c5fc"/>
        <rect id="Rectángulo_2827" data-name="Rectángulo 2827" width="13.165" height="15.218" transform="translate(40.527 24.488) rotate(180)" fill="#d5d5e4"/>
        <rect id="Rectángulo_2828" data-name="Rectángulo 2828" width="13.563" height="1.897" transform="translate(25.328 11.167) rotate(180)" fill="#d5d5e4"/>
        <rect id="Rectángulo_2829" data-name="Rectángulo 2829" width="13.563" height="1.897" transform="translate(25.328 15.062) rotate(180)" fill="#d5d5e4"/>
        <rect id="Rectángulo_2830" data-name="Rectángulo 2830" width="13.563" height="7.825" transform="translate(25.328 24.488) rotate(180)" fill="#d5d5e4"/>
        <rect id="Rectángulo_2831" data-name="Rectángulo 2831" width="5.756" height="15.651" transform="translate(9.848 24.488) rotate(180)" fill="#d5d5e4"/>
        <rect id="Rectángulo_2832" data-name="Rectángulo 2832" width="36.435" height="3.908" transform="translate(40.661 7.595) rotate(180)" fill="#d5d5e4"/>
      </g>
      <g id="Grupo_10402" data-name="Grupo 10402" transform="translate(120.054 0.93)">
        <path id="Rectángulo_2833" data-name="Rectángulo 2833" d="M11.283,0h0a11.28,11.28,0,0,1,11.28,11.28v9.337A11.28,11.28,0,0,1,11.283,31.9h0A11.283,11.283,0,0,1,0,20.614V11.283A11.283,11.283,0,0,1,11.283,0Z" transform="translate(22.563 31.897) rotate(180)" fill="#a7c5fc"/>
        <rect id="Rectángulo_2834" data-name="Rectángulo 2834" width="20.069" height="26.177" transform="translate(21.316 27.652) rotate(180)" fill="#fff"/>
        <path id="Trazado_2013" data-name="Trazado 2013" d="M2920.263,961.212a.953.953,0,1,0,.953-.953A.953.953,0,0,0,2920.263,961.212Z" transform="translate(-2909.895 -930.711)" fill="#747474"/>
        <rect id="Rectángulo_2835" data-name="Rectángulo 2835" width="17.467" height="3.485" transform="translate(20.063 6.842) rotate(180)" fill="#d5d5e4"/>
        <rect id="Rectángulo_2836" data-name="Rectángulo 2836" width="7.19" height="17.081" transform="translate(20.063 25.274) rotate(180)" fill="#d5d5e4"/>
        <rect id="Rectángulo_2837" data-name="Rectángulo 2837" width="8.942" height="1.978" transform="translate(11.538 10.171) rotate(180)" fill="#d5d5e4"/>
        <rect id="Rectángulo_2838" data-name="Rectángulo 2838" width="8.942" height="1.978" transform="translate(11.538 13.59) rotate(180)" fill="#d5d5e4"/>
        <rect id="Rectángulo_2839" data-name="Rectángulo 2839" width="8.942" height="1.978" transform="translate(11.538 17.01) rotate(180)" fill="#d5d5e4"/>
        <rect id="Rectángulo_2840" data-name="Rectángulo 2840" width="8.942" height="6.822" transform="translate(11.538 25.274) rotate(180)" fill="#d5d5e4"/>
      </g>
      <g id="Grupo_10403" data-name="Grupo 10403" transform="translate(50.341 16.905)">
        <path id="Rectángulo_2841" data-name="Rectángulo 2841" d="M0,0H35.173a0,0,0,0,1,0,0V14.73a9.152,9.152,0,0,1-9.152,9.152H9.149A9.149,9.149,0,0,1,0,14.734V0A0,0,0,0,1,0,0Z" transform="translate(36.869 23.883) rotate(180)" fill="#7498e4"/>
        <rect id="Rectángulo_2842" data-name="Rectángulo 2842" width="33.21" height="21.34" transform="translate(35.888 22.611) rotate(180)" fill="#fff"/>
        <path id="Rectángulo_2843" data-name="Rectángulo 2843" d="M1.755,0H36.813a1.753,1.753,0,0,1,1.753,1.753v0a0,0,0,0,1,0,0H0a0,0,0,0,1,0,0v0A1.755,1.755,0,0,1,1.755,0Z" transform="translate(38.566 25.637) rotate(180)" fill="#a7c5fc"/>
        <rect id="Rectángulo_2844" data-name="Rectángulo 2844" width="5.49" height="0.379" transform="translate(22.028 24.95) rotate(180)" fill="#747474"/>
        <rect id="Rectángulo_2845" data-name="Rectángulo 2845" width="30.398" height="2.968" transform="translate(34.465 5.789) rotate(180)" fill="#d5d5e4"/>
        <rect id="Rectángulo_2846" data-name="Rectángulo 2846" width="10.422" height="13.595" transform="translate(34.465 21.061) rotate(180)" fill="#d5d5e4"/>
        <rect id="Rectángulo_2847" data-name="Rectángulo 2847" width="10.423" height="13.595" transform="translate(22.707 21.061) rotate(180)" fill="#d5d5e4"/>
        <rect id="Rectángulo_2848" data-name="Rectángulo 2848" width="6.355" height="1.942" transform="translate(10.422 9.408) rotate(180)" fill="#d5d5e4"/>
        <rect id="Rectángulo_2849" data-name="Rectángulo 2849" width="6.355" height="1.942" transform="translate(10.422 12.411) rotate(180)" fill="#d5d5e4"/>
        <rect id="Rectángulo_2850" data-name="Rectángulo 2850" width="6.355" height="7.589" transform="translate(10.422 21.061) rotate(180)" fill="#d5d5e4"/>
      </g>
      <g id="Grupo_10404" data-name="Grupo 10404" transform="translate(245.945 56.175)">
        <path id="Trazado_2014" data-name="Trazado 2014" d="M3226.784,1051.036l11.347.047a1.568,1.568,0,0,0,1.575-1.562l.1-23.427a1.568,1.568,0,0,0-1.562-1.576l-11.347-.048a1.57,1.57,0,0,0-1.576,1.562l-.1,23.428A1.57,1.57,0,0,0,3226.784,1051.036Z" transform="translate(-3225.222 -1024.47)" fill="#a7c5fc"/>
        <path id="Trazado_2015" data-name="Trazado 2015" d="M3230.184,1050.6l9.089.038a1.466,1.466,0,0,0,1.473-1.46l.075-17.751a1.467,1.467,0,0,0-1.46-1.473l-9.089-.038a1.465,1.465,0,0,0-1.472,1.46l-.075,17.751A1.466,1.466,0,0,0,3230.184,1050.6Z" transform="translate(-3227.475 -1027.974)" fill="#fff"/>
        <path id="Trazado_2016" data-name="Trazado 2016" d="M3241.113,1026.946l3.068.013a.228.228,0,0,1,.227.228h0a.228.228,0,0,1-.229.227l-3.067-.013a.227.227,0,0,1-.227-.228h0A.227.227,0,0,1,3241.113,1026.946Z" transform="translate(-3235.303 -1026.064)" fill="#777"/>
        <path id="Trazado_2017" data-name="Trazado 2017" d="M3242.794,1091.294a.982.982,0,1,0,.986-.978A.983.983,0,0,0,3242.794,1091.294Z" transform="translate(-3236.531 -1066.849)" fill="#777"/>
        <rect id="Rectángulo_2851" data-name="Rectángulo 2851" width="9.217" height="3.715" transform="translate(11.946 6.958) rotate(180)" fill="#d5d5e4"/>
        <rect id="Rectángulo_2852" data-name="Rectángulo 2852" width="9.217" height="1.544" transform="translate(11.946 9.468) rotate(180)" fill="#d5d5e4"/>
        <rect id="Rectángulo_2853" data-name="Rectángulo 2853" width="9.217" height="1.544" transform="translate(11.946 11.977) rotate(180)" fill="#d5d5e4"/>
        <rect id="Rectángulo_2854" data-name="Rectángulo 2854" width="9.217" height="8.251" transform="translate(11.946 21.192) rotate(180)" fill="#d5d5e4"/>
      </g>
    </g>
  </g>
</svg>
